<svg width="17" height="15" viewBox="0 0 17 15" fill="none" xmlns="http://www.w3.org/2000/svg">
<path d="M12.6854 1.58411L12.1285 1.37022C11.9535 1.30291 11.7624 1.30808 11.59 1.38478C11.4176 1.46147 11.2857 1.60003 11.2186 1.7751L8.21297 9.59956L3.32426 7.72164C3.14932 7.65452 2.95806 7.65964 2.7857 7.73634C2.61343 7.81299 2.48168 7.95159 2.41433 8.12652L2.2003 8.68332C2.13312 8.85862 2.13847 9.04989 2.21508 9.22207C2.29173 9.39433 2.43019 9.52626 2.60531 9.59353L8.12483 11.7135C8.13309 11.7184 8.14143 11.7228 8.15037 11.7261L8.70451 11.9337C8.87932 12.0005 9.06772 11.989 9.24143 11.9117L9.24343 11.9108C9.41589 11.834 9.55059 11.7018 9.61778 11.5273L9.83319 10.9733C9.83668 10.9644 9.83969 10.957 9.84055 10.9504L13.0897 2.49303C13.2293 2.1308 13.0479 1.72323 12.6854 1.58411Z" fill="#6FCF97"/>
</svg>
