<svg width="46" height="47" viewBox="0 0 46 47" fill="none" xmlns="http://www.w3.org/2000/svg">
<circle cx="21.4818" cy="28.7201" r="15.9877" fill="#E0E9FF"/>
<g clip-path="url(#clip0)">
<path d="M33.8128 7.88061L32.3288 7.31062C31.8625 7.13125 31.3532 7.14504 30.8938 7.34942C30.4345 7.5538 30.0831 7.92302 29.9041 8.38955L21.8947 29.2402L8.86724 24.2359C8.40108 24.0571 7.89141 24.0707 7.4321 24.2751C6.97304 24.4793 6.62195 24.8487 6.44248 25.3148L5.87211 26.7986C5.69309 27.2658 5.70736 27.7755 5.91151 28.2343C6.11577 28.6933 6.48474 29.0449 6.95138 29.2241L21.6598 34.8735C21.6819 34.8866 21.7041 34.8981 21.7279 34.9071L23.2046 35.4601C23.6704 35.6382 24.1725 35.6075 24.6354 35.4015L24.6407 35.3991C25.1003 35.1946 25.4592 34.8422 25.6383 34.3772L26.2123 32.901C26.2216 32.8773 26.2296 32.8576 26.2319 32.84L34.8902 10.3027C35.2622 9.33742 34.779 8.25133 33.8128 7.88061Z" fill="#6FCF97"/>
</g>
<defs>
<clipPath id="clip0">
<rect width="34.3151" height="34.3151" fill="white" transform="translate(0 14.9492) rotate(-23.9873)"/>
</clipPath>
</defs>
</svg>
