<svg width="114" height="39" viewBox="0 0 114 39" fill="none" xmlns="http://www.w3.org/2000/svg">
<g clip-path="url(#clip0)">
<path d="M19.5263 11.4706C19.1781 8.24279 21.8936 5.15248 25.081 4.88281C25.251 6.68333 24.567 8.49203 23.3473 9.80632C22.4063 10.9013 20.9853 11.5973 19.5263 11.4706Z" fill="white"/>
<path d="M61.293 8.31386C61.5649 8.3125 61.8355 8.3125 62.1075 8.3125C62.1102 10.5611 62.1075 12.8097 62.1102 15.0583C61.8369 15.0583 61.5649 15.057 61.293 15.057C61.2943 12.8097 61.293 10.5611 61.293 8.31386Z" fill="white"/>
<path d="M75.4559 8.31677C75.7265 8.31404 75.9985 8.31132 76.2704 8.30859C76.2935 10.5586 76.2201 12.8099 76.3139 15.0571C76.0692 15.0571 75.8258 15.0571 75.5824 15.0585C75.5728 14.7929 75.5633 14.5273 75.5579 14.2631C75.014 15.3037 73.4189 15.4698 72.6751 14.5682C71.8552 13.593 71.8797 11.9859 72.6833 11.008C73.3618 10.1677 74.8358 10.1227 75.4641 11.0461C75.4464 10.1364 75.4613 9.22656 75.4559 8.31677ZM73.6297 11.1796C73.0654 11.5269 72.8941 12.2379 72.9117 12.8589C72.9185 13.4364 73.1239 14.1038 73.6882 14.3625C74.3545 14.7235 75.2723 14.2767 75.407 13.5317C75.4845 12.9978 75.4872 12.4449 75.4015 11.9124C75.2315 11.1578 74.2811 10.771 73.6297 11.1796Z" fill="white"/>
<path d="M94.3555 8.31229C94.6261 8.31229 94.8967 8.31093 95.1686 8.30957C95.1632 9.25886 95.1768 10.2068 95.1605 11.1561C95.6445 10.4465 96.6671 10.1087 97.4218 10.5922C97.8936 10.9068 98.137 11.468 98.1547 12.0237C98.186 13.0342 98.1574 14.0462 98.1683 15.0581C97.9032 15.0581 97.6407 15.0568 97.3783 15.0568C97.366 14.1361 97.3987 13.214 97.362 12.2933C97.332 11.8262 97.1675 11.2555 96.6657 11.1071C95.9831 10.8564 95.2053 11.4407 95.1809 12.1503C95.1469 13.1187 95.1781 14.0884 95.1686 15.0568C94.8967 15.0568 94.6247 15.0568 94.3555 15.0581C94.3568 12.8095 94.3555 10.5609 94.3555 8.31229Z" fill="white"/>
<path d="M39.0352 8.70723C40.2698 8.57648 41.6092 8.41577 42.7583 8.99869C43.7033 9.48764 44.1833 10.5881 44.1629 11.6191C44.2023 12.74 43.7795 13.9767 42.7759 14.5732C41.6555 15.2515 40.2862 15.1262 39.0352 15.0431C39.0352 12.9307 39.0352 10.8196 39.0352 8.70723ZM39.8619 9.2956C39.8089 10.9994 39.8157 12.7073 39.8592 14.4098C40.7213 14.4874 41.6759 14.4765 42.4033 13.9358C43.1064 13.406 43.3525 12.4744 43.3198 11.6273C43.3307 10.8687 43.0248 10.0583 42.3626 9.64154C41.6228 9.16621 40.6995 9.20571 39.8619 9.2956Z" fill="white"/>
<path d="M91.7538 9.36494C92.0162 9.28594 92.2814 9.21104 92.5465 9.13477C92.5493 9.57877 92.5479 10.0241 92.5506 10.4695C92.9395 10.4695 93.3271 10.4695 93.7173 10.4709C93.716 10.6806 93.716 10.8917 93.7173 11.1014C93.3271 11.1001 92.9368 11.1014 92.5465 11.1001C92.5588 11.9554 92.5357 12.8121 92.5561 13.6674C92.5629 13.9575 92.6186 14.3075 92.9164 14.4437C93.153 14.4914 93.3991 14.4573 93.6398 14.4478C93.6466 14.6575 93.6548 14.8673 93.6643 15.077C93.1775 15.137 92.6009 15.2636 92.1862 14.9272C91.8014 14.6344 91.7674 14.1114 91.7538 13.6674C91.7484 12.8121 91.7551 11.9568 91.7524 11.1014C91.5185 11.1014 91.2847 11.1001 91.0535 11.1001C91.0508 10.889 91.0508 10.6792 91.0508 10.4695C91.2833 10.4695 91.5185 10.4695 91.7524 10.4681C91.7524 10.1004 91.7524 9.73267 91.7538 9.36494Z" fill="white"/>
<path d="M46.1443 10.49C46.9058 10.238 47.8345 10.3497 48.4192 10.9353C49.193 11.7062 49.2514 12.9864 48.8394 13.9507C48.3322 15.092 46.7902 15.4843 45.7459 14.8687C44.1849 13.918 44.378 11.1015 46.1443 10.49ZM46.2871 11.1478C45.3353 11.7838 45.2809 13.3337 46.0192 14.155C46.5223 14.7243 47.5082 14.6126 47.9052 13.9752C48.3839 13.2466 48.3717 12.2019 47.8753 11.4856C47.5381 10.9762 46.8025 10.8577 46.2871 11.1478Z" fill="white"/>
<path d="M57.1433 11.201C57.5553 10.5445 58.3943 10.1836 59.1435 10.4451C59.8248 10.6385 60.196 11.3617 60.2218 12.0318C60.2422 13.041 60.2218 14.0502 60.23 15.0581C59.9567 15.0567 59.6847 15.0567 59.4141 15.0553C59.406 14.0897 59.4304 13.1227 59.4032 12.1571C59.3964 11.6872 59.1109 11.1642 58.6173 11.0743C57.951 10.9136 57.2697 11.4856 57.2385 12.153C57.2045 13.12 57.2357 14.0897 57.2262 15.0567C56.9529 15.0567 56.681 15.0567 56.4104 15.0581C56.3968 13.5272 56.4416 11.9964 56.375 10.4669C56.6102 10.4682 56.8482 10.4682 57.0862 10.4696C57.1052 10.7134 57.127 10.9572 57.1433 11.201Z" fill="white"/>
<path d="M64.618 10.4256C65.4135 10.2295 66.3368 10.4692 66.8454 11.138C67.494 12.0219 67.5062 13.3144 66.9202 14.2337C66.2144 15.3192 64.4712 15.4826 63.5792 14.5442C62.4261 13.3294 62.8449 10.7975 64.618 10.4256ZM64.6153 11.1025C63.7668 11.5261 63.6635 12.6484 63.8715 13.4724C64.0442 14.2174 64.9009 14.788 65.6338 14.4203C66.5857 13.9014 66.7162 12.534 66.228 11.6514C65.9479 11.0644 65.1919 10.8315 64.6153 11.1025Z" fill="white"/>
<path d="M68.1439 10.7372C68.8387 10.3871 69.6845 10.2182 70.4283 10.5152C70.9763 10.7412 71.27 11.3391 71.2999 11.9071C71.3489 12.9572 71.2592 14.0113 71.3734 15.0587C71.1259 15.0587 70.8784 15.0573 70.6309 15.0573C70.6146 14.8666 70.601 14.6773 70.5861 14.4866C70.0911 15.105 69.1814 15.3488 68.4634 14.9933C67.653 14.5575 67.5973 13.2977 68.2826 12.7229C68.9026 12.1931 69.7607 12.1386 70.5385 12.1005C70.4786 11.7205 70.4283 11.2533 70.0217 11.0831C69.4506 10.8584 68.8211 11.0504 68.2935 11.3024C68.2418 11.1144 68.1928 10.9265 68.1439 10.7372ZM68.9856 13.0239C68.5165 13.329 68.4879 14.1571 68.9883 14.4431C69.5417 14.7236 70.2733 14.3818 70.4664 13.8043C70.567 13.4366 70.5154 13.0498 70.5235 12.6739C70.0027 12.7188 69.4302 12.712 68.9856 13.0239Z" fill="white"/>
<path d="M80.6955 10.4944C81.5168 10.2111 82.5394 10.3745 83.1077 11.0719C83.7795 11.8945 83.8176 13.1393 83.3444 14.0655C82.7257 15.2585 80.9239 15.5296 79.9653 14.6062C78.7904 13.473 79.0828 11.0705 80.6955 10.4944ZM80.9321 11.1045C79.9775 11.633 79.8647 13.0385 80.3923 13.9102C80.7472 14.5694 81.7316 14.7478 82.2674 14.2057C82.9269 13.5547 82.9527 12.4406 82.5475 11.648C82.262 11.0637 81.51 10.8322 80.9321 11.1045Z" fill="white"/>
<path d="M84.4375 10.468C84.6809 10.468 84.9257 10.468 85.1704 10.468C85.1813 10.7145 85.1949 10.9624 85.2044 11.2103C85.6205 10.5007 86.5533 10.1656 87.3202 10.4816C87.9444 10.72 88.2694 11.4091 88.2939 12.0465C88.3183 13.0503 88.2952 14.0541 88.3034 15.0578C88.0301 15.0565 87.7581 15.0565 87.4875 15.0551C87.4821 14.1385 87.497 13.2205 87.4821 12.3026C87.4875 11.8232 87.2808 11.2525 86.7804 11.1C86.0856 10.863 85.3132 11.4636 85.301 12.18C85.2751 13.1388 85.2996 14.0976 85.2928 15.0565C85.0181 15.0565 84.7462 15.0578 84.4729 15.0578C84.4593 13.5283 84.5055 11.9961 84.4375 10.468Z" fill="white"/>
<path d="M99.3645 11.2931C99.9302 10.3125 101.425 10.0346 102.27 10.8001C102.847 11.3285 102.942 12.1593 102.907 12.8989C101.842 12.9084 100.779 12.8907 99.7153 12.9084C99.7752 13.3973 99.9003 13.9339 100.333 14.2295C100.98 14.6776 101.834 14.525 102.53 14.2799C102.574 14.4883 102.618 14.6966 102.661 14.9064C101.724 15.1965 100.571 15.3545 99.7452 14.7062C98.7825 13.8808 98.7499 12.3364 99.3645 11.2931ZM100.486 11.0793C100.032 11.3217 99.835 11.8338 99.7289 12.3091C100.539 12.2941 101.35 12.3132 102.162 12.2941C102.083 11.9441 102.05 11.5519 101.793 11.2781C101.467 10.9267 100.904 10.8859 100.486 11.0793Z" fill="white"/>
<path d="M49.2969 10.4682C49.577 10.4682 49.8585 10.4682 50.1413 10.4695C50.4391 11.7457 50.7926 13.0096 51.0768 14.2898C51.3637 12.9919 51.837 11.7443 52.1987 10.4668C52.4325 10.4682 52.6664 10.4695 52.9017 10.4709C53.2647 11.7498 53.7148 13.0069 53.9976 14.3075C54.2506 13.0082 54.6381 11.7402 54.9971 10.4668C55.265 10.4682 55.5342 10.4682 55.8048 10.4682C55.3112 11.9963 54.8557 13.5367 54.3458 15.0594C54.101 15.058 53.8576 15.0566 53.6156 15.0566C53.2362 13.8254 52.8106 12.6051 52.5155 11.3494C52.2517 12.6037 51.8043 13.8132 51.3882 15.0212C51.1462 15.0825 50.8919 15.0498 50.6458 15.0662C50.1916 13.5339 49.7442 12.0017 49.2969 10.4682Z" fill="white"/>
<path d="M23.9534 11.77C26.3085 11.4935 28.8106 12.5517 30.12 14.562C28.865 15.3533 27.8043 16.5287 27.3882 17.9778C26.828 19.8886 27.1027 22.0991 28.321 23.7062C28.9697 24.5779 29.8481 25.2561 30.8162 25.7396C30.1486 27.8929 29.0036 29.8787 27.5623 31.6043C26.8239 32.4691 25.8177 33.2754 24.6183 33.2318C23.3578 33.2536 22.2958 32.4691 21.091 32.2349C20.0304 31.9911 18.9222 32.194 17.9255 32.5917C16.8852 33.0289 15.7131 33.5219 14.5858 33.1079C13.3035 32.5713 12.4374 31.415 11.6514 30.3172C10.501 28.7482 9.65659 26.9681 9.09092 25.1091C8.42463 23.0048 8.16355 20.7603 8.43279 18.5634C8.72786 16.4115 9.76674 14.2732 11.5739 13.0025C12.9677 12.0083 14.7952 11.5085 16.4732 11.9811C17.5814 12.2671 18.5945 12.8609 19.7285 13.0488C21.1754 12.7615 22.4753 11.9443 23.9534 11.77Z" fill="white"/>
<path d="M71.602 18.6152C72.7401 18.3074 74.002 18.3987 75.0694 18.9121C74.9497 19.2772 74.8328 19.6435 74.7227 20.0113C73.8198 19.5577 72.6979 19.3398 71.7461 19.7566C70.8459 20.1638 70.6338 21.4985 71.3654 22.1618C72.2587 22.9926 73.5804 23.1002 74.4956 23.9078C75.9302 25.0097 75.7343 27.5402 74.1733 28.4377C72.7319 29.2781 70.8622 29.1146 69.4141 28.3696C69.5133 27.9883 69.6207 27.611 69.7282 27.2324C70.4448 27.6315 71.2471 27.9079 72.0752 27.8916C72.7224 27.8998 73.4186 27.6914 73.8279 27.1589C74.3202 26.4656 74.2359 25.3815 73.5628 24.834C72.7836 24.1693 71.7121 24.0359 70.8854 23.4489C70.1959 23.0076 69.6711 22.2694 69.6194 21.4372C69.4848 20.1665 70.3931 18.9544 71.602 18.6152Z" fill="white"/>
<path d="M43.517 18.5888C44.0391 18.5807 44.5627 18.5848 45.0862 18.582C46.2365 22.0006 47.3516 25.4314 48.5088 28.8458C48.0451 28.8485 47.5827 28.8485 47.119 28.8485C46.7492 27.7753 46.4215 26.6871 46.0394 25.6166C44.8645 25.6207 43.6883 25.6179 42.5121 25.6193C42.1694 26.6953 41.8118 27.7685 41.4787 28.8485C41.0326 28.8485 40.5866 28.8499 40.1406 28.8458C41.2543 25.4232 42.4155 22.0155 43.517 18.5888ZM44.2553 19.722C43.91 21.3836 43.2872 22.9689 42.7813 24.5842C43.7821 24.5856 44.7829 24.5856 45.7837 24.5842C45.2548 22.9703 44.681 21.3686 44.2553 19.722Z" fill="white"/>
<path d="M77.4353 19.7065C77.8623 19.5975 78.2852 19.4749 78.7108 19.3564C78.7108 20.0633 78.7108 20.7702 78.7095 21.477C79.3322 21.4757 79.9537 21.477 80.5764 21.477C80.5751 21.8189 80.5751 22.1607 80.5764 22.5039C79.9537 22.5026 79.3322 22.5039 78.7108 22.5039C78.7149 23.8741 78.704 25.2442 78.7149 26.6144C78.7244 27.0693 78.8196 27.6277 79.2901 27.832C79.6654 27.9477 80.0665 27.8565 80.4514 27.8429C80.4649 28.1779 80.4799 28.5129 80.4881 28.8493C79.7089 29.0141 78.772 29.1503 78.1084 28.6028C77.5618 28.1588 77.4544 27.4111 77.4394 26.7506C77.4313 25.3341 77.4408 23.919 77.4367 22.5039C77.0641 22.5026 76.6929 22.5039 76.3217 22.5026C76.3203 22.1607 76.3203 21.8175 76.3203 21.4757C76.6915 21.477 77.0641 21.477 77.4367 21.477C77.4367 20.8873 77.4381 20.2962 77.4353 19.7065Z" fill="white"/>
<path d="M52.6526 21.4689C53.6887 21.1393 54.918 21.3749 55.6645 22.1935C56.615 23.2177 56.819 24.7363 56.5824 26.0696C56.4083 27.1592 55.7733 28.2365 54.7412 28.7023C53.5392 29.292 51.9142 28.9992 51.1622 27.8361C51.1867 29.1776 51.1663 30.5192 51.1718 31.8607C50.7407 31.8621 50.3097 31.8621 49.8786 31.8621C49.8555 28.4013 49.9371 24.9392 49.8242 21.4798C50.2199 21.4798 50.6156 21.4798 51.0113 21.4853C51.0263 21.9156 51.0467 22.3447 51.0535 22.775C51.4328 22.188 51.9645 21.665 52.6526 21.4689ZM52.6811 22.4822C52.0108 22.6865 51.4954 23.264 51.2887 23.9245C51.1051 24.5306 51.1867 25.1735 51.1745 25.7972C51.1459 26.466 51.456 27.1292 51.9876 27.5337C52.7437 28.1303 53.9471 28.0636 54.6147 27.3621C55.1641 26.8092 55.3273 26.0015 55.3749 25.2511C55.3762 24.4135 55.1818 23.4996 54.5468 22.9071C54.0654 22.4345 53.3175 22.2766 52.6811 22.4822Z" fill="white"/>
<path d="M61.0911 21.4629C62.1898 21.1129 63.4993 21.4248 64.2227 22.3523C65.2249 23.6189 65.3133 25.429 64.7721 26.9081C64.3451 28.112 63.1553 29.0232 61.8608 28.9919C60.9551 29.0395 60.0835 28.5738 59.5777 27.8301C59.6008 29.173 59.5818 30.5173 59.5872 31.8615C59.1561 31.8615 58.7237 31.8602 58.294 31.8615C58.2696 28.4008 58.3525 24.9387 58.2383 21.4793C58.634 21.4793 59.031 21.4793 59.4281 21.4834C59.4458 21.9137 59.4621 22.3441 59.4662 22.7759C59.8537 22.1834 60.3935 21.6563 61.0911 21.4629ZM61.3631 22.4177C60.6601 22.5307 60.0604 23.0496 59.7939 23.7034C59.492 24.3571 59.6035 25.0967 59.5886 25.794C59.5614 26.4954 59.9067 27.2023 60.4887 27.5945C61.2217 28.1052 62.3095 28.0453 62.9635 27.4297C63.5224 26.9122 63.7277 26.1277 63.7889 25.3936C63.8379 24.5764 63.6543 23.6979 63.1158 23.0619C62.6997 22.5552 62.0049 22.3101 61.3631 22.4177Z" fill="white"/>
<path d="M84.1233 21.4253C85.1731 21.1897 86.3602 21.3722 87.1951 22.0845C88.0368 22.7846 88.4433 23.9014 88.4461 24.9787C88.4828 25.9907 88.2244 27.0503 87.5459 27.8239C86.3058 29.2771 83.8187 29.4092 82.4698 28.0363C81.3779 26.9045 81.1753 25.1272 81.6675 23.678C82.017 22.5639 82.9784 21.665 84.1233 21.4253ZM84.3436 22.4196C83.4597 22.6743 82.9648 23.5704 82.8138 24.423C82.6126 25.5289 82.8383 26.8364 83.7521 27.576C84.4891 28.1943 85.6667 28.0976 86.3112 27.388C87.3025 26.308 87.3433 24.5633 86.643 23.3185C86.216 22.5163 85.1989 22.1308 84.3436 22.4196Z" fill="white"/>
<path d="M92.1639 21.6672C92.5787 21.3594 93.109 21.3077 93.6094 21.3267C93.6134 21.753 93.6107 22.1793 93.6189 22.6056C93.128 22.562 92.5895 22.5906 92.1965 22.9216C91.5738 23.3983 91.3644 24.2155 91.3576 24.9659C91.3521 26.2598 91.3589 27.5536 91.3562 28.8489C90.9265 28.8461 90.4955 28.8461 90.0671 28.8475C90.0508 26.3919 90.1106 23.9349 90.0195 21.4793C90.3935 21.4793 90.7701 21.4793 91.1468 21.4793C91.1617 21.9886 91.1767 22.4994 91.2053 23.0101C91.4201 22.5007 91.6866 21.9777 92.1639 21.6672Z" fill="white"/>
<path d="M95.0814 22.5434C96.0863 21.1637 98.3476 20.8736 99.5918 22.0789C100.439 22.9492 100.666 24.2431 100.545 25.4144C98.8508 25.4185 97.1578 25.4049 95.4649 25.4212C95.5165 26.267 95.8157 27.1999 96.6085 27.6262C97.6392 28.1724 98.897 27.9695 99.9495 27.5881C100.017 27.9109 100.09 28.2337 100.162 28.5565C99.1472 28.9555 98.0294 29.0904 96.9525 28.9228C95.919 28.7512 94.993 28.0444 94.5837 27.0746C93.9772 25.6146 94.1431 23.825 95.0814 22.5434ZM96.1951 22.8525C95.7695 23.2816 95.6117 23.8836 95.4785 24.4529C96.7621 24.4515 98.0471 24.4542 99.3321 24.4515C99.2832 23.9217 99.2165 23.3592 98.8739 22.9288C98.2633 22.0789 96.8682 22.083 96.1951 22.8525Z" fill="white"/>
<path d="M4.01051 0.545892C4.34638 0.479156 4.68769 0.443745 5.03035 0.442383C39.5689 0.443745 74.1062 0.442383 108.645 0.443745C109.636 0.457364 110.626 0.754273 111.443 1.32085C112.834 2.27423 113.707 3.94672 113.675 5.63693C113.673 14.946 113.673 24.2537 113.675 33.5627C113.687 34.339 113.492 35.1044 113.171 35.8059C112.376 37.5287 110.555 38.7286 108.652 38.7164C74.064 38.7137 39.4765 38.715 4.88894 38.715C3.05458 38.7055 1.30726 37.5764 0.495466 35.938C0.112006 35.2066 -0.0729251 34.3799 -0.0620468 33.5559C-0.060687 24.206 -0.062047 14.8561 -0.0606872 5.50618C-0.0919623 3.16768 1.70568 0.954482 4.01051 0.545892ZM19.5243 11.4716C20.9834 11.5983 22.4044 10.9023 23.3453 9.80727C24.5651 8.49297 25.249 6.68428 25.0791 4.88376C21.8917 5.15343 19.1762 8.24373 19.5243 11.4716ZM61.2915 8.31455C61.2915 10.5618 61.2929 12.8104 61.2915 15.0577C61.5635 15.0577 61.8354 15.059 62.1088 15.059C62.106 12.8104 62.1088 10.5618 62.106 8.31319C61.8341 8.31319 61.5635 8.31319 61.2915 8.31455ZM75.4537 8.31728C75.4592 9.22707 75.4442 10.1369 75.4619 11.0467C74.8336 10.1232 73.3596 10.1682 72.6811 11.0085C71.8775 11.9864 71.853 13.5935 72.673 14.5687C73.4168 15.4703 75.0118 15.3042 75.5557 14.2636C75.5611 14.5278 75.5707 14.7934 75.5802 15.059C75.8236 15.0577 76.067 15.0577 76.3117 15.0577C76.2179 12.8104 76.2913 10.5591 76.2682 8.3091C75.9963 8.31183 75.7243 8.31455 75.4537 8.31728ZM94.3534 8.31319C94.3534 10.5618 94.3548 12.8104 94.3534 15.059C94.6226 15.0577 94.8946 15.0577 95.1665 15.0577C95.1761 14.0893 95.1448 13.1196 95.1788 12.1512C95.2033 11.4416 95.9811 10.8573 96.6637 11.1079C97.1654 11.2564 97.33 11.8271 97.3599 12.2942C97.3966 13.2149 97.364 14.137 97.3762 15.0577C97.6386 15.0577 97.9011 15.059 98.1662 15.059C98.1553 14.0471 98.1839 13.0351 98.1526 12.0246C98.135 11.4689 97.8916 10.9077 97.4197 10.5931C96.665 10.1096 95.6425 10.4474 95.1584 11.157C95.1747 10.2077 95.1611 9.25976 95.1665 8.31047C94.8946 8.31183 94.624 8.31319 94.3534 8.31319ZM39.0345 8.70816C39.0345 10.8206 39.0345 12.9316 39.0345 15.044C40.2855 15.1271 41.6549 15.2524 42.7753 14.5742C43.7788 13.9776 44.2017 12.7409 44.1623 11.62C44.1827 10.589 43.7027 9.48857 42.7576 8.99962C41.6086 8.4167 40.2692 8.57741 39.0345 8.70816ZM91.7508 9.36599C91.7494 9.73372 91.7494 10.1015 91.7494 10.4692C91.5155 10.4705 91.2803 10.4705 91.0478 10.4705C91.0478 10.6803 91.0478 10.89 91.0505 11.1011C91.2816 11.1011 91.5155 11.1025 91.7494 11.1025C91.7521 11.9578 91.7453 12.8131 91.7508 13.6684C91.7644 14.1124 91.7983 14.6354 92.1832 14.9283C92.5979 15.2647 93.1745 15.138 93.6613 15.0781C93.6517 14.8683 93.6436 14.6586 93.6368 14.4489C93.3961 14.4584 93.15 14.4924 92.9134 14.4448C92.6156 14.3086 92.5598 13.9585 92.553 13.6684C92.5326 12.8131 92.5558 11.9565 92.5435 11.1011C92.9338 11.1025 93.324 11.1011 93.7143 11.1025C93.7129 10.8928 93.7129 10.6817 93.7143 10.4719C93.324 10.4705 92.9365 10.4705 92.5476 10.4705C92.5449 10.0252 92.5462 9.57982 92.5435 9.13582C92.2784 9.21209 92.0132 9.287 91.7508 9.36599ZM46.1449 10.491C44.3785 11.1025 44.1854 13.919 45.7465 14.8697C46.7908 15.4853 48.3328 15.0931 48.84 13.9517C49.252 12.9875 49.1935 11.7072 48.4198 10.9363C47.8351 10.3507 46.9063 10.239 46.1449 10.491ZM57.1401 11.2019C57.1238 10.9581 57.102 10.7143 57.083 10.4705C56.845 10.4692 56.6071 10.4692 56.3718 10.4678C56.4385 11.9973 56.3936 13.5282 56.4072 15.059C56.6778 15.0577 56.9497 15.0577 57.2231 15.0577C57.2326 14.0907 57.2013 13.1209 57.2353 12.1539C57.2666 11.4866 57.9478 10.9145 58.6141 11.0753C59.1077 11.1652 59.3933 11.6881 59.4001 12.158C59.4273 13.1237 59.4028 14.0907 59.4109 15.0563C59.6815 15.0577 59.9535 15.0577 60.2268 15.059C60.2187 14.0512 60.2391 13.0419 60.2187 12.0327C60.1928 11.3626 59.8216 10.6394 59.1404 10.446C58.3911 10.1845 57.5521 10.5455 57.1401 11.2019ZM64.6176 10.427C62.8444 10.7988 62.4256 13.3307 63.5787 14.5456C64.4707 15.4839 66.214 15.3205 66.9197 14.235C67.5058 13.3157 67.4935 12.0232 66.8449 11.1393C66.3363 10.4705 65.413 10.2308 64.6176 10.427ZM68.1408 10.7375C68.1897 10.9268 68.2387 11.1148 68.2904 11.3027C68.818 11.0507 69.4475 10.8587 70.0186 11.0834C70.4252 11.2537 70.4755 11.7208 70.5354 12.1008C69.7576 12.139 68.8995 12.1934 68.2795 12.7232C67.5941 13.298 67.6499 14.5578 68.4603 14.9936C69.1783 15.3491 70.088 15.1053 70.583 14.487C70.5979 14.6777 70.6115 14.867 70.6278 15.0577C70.8753 15.0577 71.1228 15.059 71.3703 15.059C71.2561 14.0117 71.3458 12.9575 71.2968 11.9074C71.2669 11.3395 70.9732 10.7416 70.4252 10.5155C69.6814 10.2186 68.8356 10.3875 68.1408 10.7375ZM80.693 10.4951C79.0803 11.0712 78.7879 13.4737 79.9628 14.6068C80.9214 15.5303 82.7231 15.2592 83.3418 14.0661C83.815 13.14 83.777 11.8952 83.1052 11.0725C82.5368 10.3752 81.5143 10.2118 80.693 10.4951ZM84.4351 10.4692C84.5031 11.9973 84.4569 13.5295 84.4705 15.059C84.7438 15.059 85.0157 15.0577 85.2904 15.0577C85.2972 14.0988 85.2727 13.14 85.2986 12.1812C85.3108 11.4648 86.0832 10.8642 86.778 11.1011C87.2784 11.2537 87.4851 11.8243 87.4797 12.3038C87.4946 13.2217 87.4797 14.1397 87.4851 15.0563C87.7557 15.0577 88.0277 15.0577 88.301 15.059C88.2928 14.0552 88.3159 13.0515 88.2915 12.0477C88.267 11.4103 87.942 10.7211 87.3179 10.4828C86.5509 10.1668 85.6181 10.5019 85.202 11.2115C85.1925 10.9636 85.1789 10.7157 85.168 10.4692C84.9233 10.4692 84.6785 10.4692 84.4351 10.4692ZM99.3628 11.2945C98.7482 12.3378 98.7809 13.8823 99.7436 14.7076C100.569 15.3559 101.722 15.1979 102.659 14.9078C102.617 14.6981 102.572 14.4897 102.528 14.2813C101.832 14.5265 100.978 14.679 100.331 14.2309C99.8986 13.9354 99.7735 13.3988 99.7137 12.9098C100.777 12.8921 101.84 12.9098 102.905 12.9003C102.94 12.1607 102.845 11.3299 102.269 10.8015C101.423 10.0361 99.9285 10.3139 99.3628 11.2945ZM49.2969 10.4692C49.7442 12.0028 50.1916 13.535 50.6458 15.0672C50.8919 15.0508 51.1462 15.0835 51.3882 15.0222C51.8043 13.8142 52.2517 12.6047 52.5155 11.3504C52.8105 12.6061 53.2362 13.8264 53.6155 15.0577C53.8576 15.0577 54.101 15.059 54.3457 15.0604C54.8557 13.5377 55.3112 11.9973 55.8048 10.4692C55.5342 10.4692 55.265 10.4692 54.9971 10.4678C54.6381 11.7413 54.2506 13.0093 53.9976 14.3086C53.7148 13.0079 53.2647 11.7508 52.9016 10.4719C52.6664 10.4705 52.4325 10.4692 52.1986 10.4678C51.8369 11.7453 51.3637 12.9929 51.0768 14.2909C50.7926 13.0106 50.4391 11.7467 50.1413 10.4705C49.8584 10.4692 49.577 10.4692 49.2969 10.4692ZM23.9518 11.7712C22.4737 11.9456 21.1737 12.7627 19.7269 13.0501C18.5929 12.8622 17.5798 12.2683 16.4716 11.9823C14.7936 11.5097 12.9661 12.0096 11.5723 13.0038C9.76513 14.2745 8.72626 16.4128 8.43118 18.5647C8.16194 20.7616 8.42302 23.0061 9.08932 25.1103C9.65499 26.9694 10.4994 28.7495 11.6498 30.3185C12.4358 31.4162 13.3019 32.5726 14.5842 33.1092C15.7115 33.5232 16.8836 33.0302 17.9239 32.593C18.9206 32.1953 20.0288 31.9924 21.0894 32.2361C22.2942 32.4704 23.3562 33.2549 24.6167 33.2331C25.8161 33.2767 26.8223 32.4704 27.5607 31.6056C29.002 29.8799 30.147 27.8942 30.8146 25.7409C29.8465 25.2574 28.968 24.5792 28.3194 23.7075C27.1011 22.1004 26.8264 19.8899 27.3866 17.9791C27.8027 16.5299 28.8633 15.3546 30.1184 14.5633C28.8089 12.553 26.3069 11.4947 23.9518 11.7712ZM71.5987 18.6165C70.3899 18.9556 69.4815 20.1678 69.6161 21.4385C69.6678 22.2706 70.1927 23.0088 70.8821 23.4501C71.7089 24.0371 72.7804 24.1706 73.5595 24.8352C74.2326 25.3827 74.3169 26.4669 73.8247 27.1601C73.4154 27.6926 72.7192 27.901 72.0719 27.8928C71.2438 27.9092 70.4415 27.6327 69.7249 27.2336C69.6175 27.6123 69.5101 27.9895 69.4108 28.3709C70.859 29.1159 72.7287 29.2793 74.1701 28.439C75.7311 27.5414 75.9269 25.0109 74.4923 23.9091C73.5772 23.1014 72.2555 22.9938 71.3621 22.163C70.6305 21.4998 70.8427 20.165 71.7429 19.7578C72.6947 19.341 73.8165 19.559 74.7194 20.0125C74.8296 19.6448 74.9465 19.2784 75.0662 18.9134C73.9987 18.3999 72.7369 18.3087 71.5987 18.6165ZM43.5137 18.5892C42.4123 22.0159 41.251 25.4236 40.1373 28.8462C40.5833 28.8503 41.0294 28.8489 41.4754 28.8489C41.8085 27.7689 42.1661 26.6957 42.5088 25.6197C43.685 25.6183 44.8612 25.6211 46.0361 25.617C46.4182 26.6875 46.7459 27.7757 47.1158 28.8489C47.5794 28.8489 48.0418 28.8489 48.5055 28.8462C47.3483 25.4318 46.2333 22.001 45.0829 18.5824C44.5594 18.5851 44.0358 18.5811 43.5137 18.5892ZM77.4349 19.7074C77.4376 20.2971 77.4363 20.8882 77.4363 21.478C77.0637 21.478 76.6911 21.478 76.3199 21.4766C76.3199 21.8185 76.3199 22.1617 76.3213 22.5035C76.6925 22.5049 77.0637 22.5035 77.4363 22.5049C77.4404 23.92 77.4308 25.3351 77.439 26.7515C77.454 27.4121 77.5614 28.1598 78.108 28.6038C78.7716 29.1513 79.7085 29.0151 80.4876 28.8503C80.4795 28.5139 80.4645 28.1788 80.4509 27.8438C80.0661 27.8574 79.665 27.9487 79.2897 27.8329C78.8192 27.6286 78.724 27.0702 78.7145 26.6153C78.7036 25.2452 78.7145 23.875 78.7104 22.5049C79.3318 22.5049 79.9532 22.5035 80.576 22.5049C80.5747 22.1617 80.5747 21.8198 80.576 21.478C79.9532 21.478 79.3318 21.4766 78.709 21.478C78.7104 20.7711 78.7104 20.0642 78.7104 19.3574C78.2848 19.4759 77.8619 19.5985 77.4349 19.7074ZM52.6515 21.4698C51.9634 21.6659 51.4317 22.1889 51.0523 22.7759C51.0455 22.3455 51.0251 21.9165 51.0102 21.4861C50.6145 21.4807 50.2188 21.4807 49.8231 21.4807C49.936 24.9401 49.8544 28.4022 49.8775 31.863C50.3085 31.863 50.7396 31.863 51.1706 31.8616C51.1652 30.5201 51.1856 29.1785 51.1611 27.837C51.9131 29.0001 53.538 29.2929 54.7401 28.7032C55.7722 28.2374 56.4072 27.1601 56.5812 26.0705C56.8178 24.7372 56.6139 23.2186 55.6634 22.1944C54.9169 21.3758 53.6876 21.1402 52.6515 21.4698ZM61.0889 21.4643C60.3914 21.6577 59.8515 22.1848 59.464 22.7773C59.4599 22.3455 59.4436 21.9152 59.4259 21.4848C59.0288 21.4807 58.6318 21.4807 58.2361 21.4807C58.3503 24.9401 58.2674 28.4022 58.2918 31.863C58.7215 31.8616 59.1539 31.863 59.585 31.863C59.5796 30.5187 59.5986 29.1744 59.5755 27.8315C60.0813 28.5752 60.9529 29.041 61.8586 28.9933C63.1531 29.0246 64.3429 28.1135 64.7699 26.9095C65.3111 25.4304 65.2227 23.6203 64.2205 22.3537C63.4971 21.4262 62.1876 21.1143 61.0889 21.4643ZM84.121 21.4262C82.9761 21.6659 82.0147 22.5648 81.6652 23.6789C81.173 25.128 81.3756 26.9054 82.4675 28.0372C83.8164 29.4101 86.3035 29.278 87.5436 27.8247C88.2221 27.0511 88.4805 25.9915 88.4438 24.9796C88.441 23.9023 88.0345 22.7855 87.1927 22.0854C86.3578 21.3731 85.1708 21.1906 84.121 21.4262ZM92.1641 21.6686C91.6869 21.9792 91.4203 22.5022 91.2055 23.0115C91.1769 22.5008 91.162 21.9901 91.147 21.4807C90.7703 21.4807 90.3937 21.4807 90.0198 21.4807C90.1109 23.9363 90.051 26.3933 90.0673 28.8489C90.4957 28.8476 90.9267 28.8476 91.3564 28.8503C91.3591 27.5551 91.3523 26.2612 91.3578 24.9673C91.3646 24.2169 91.574 23.3997 92.1968 22.923C92.5898 22.5921 93.1282 22.5635 93.6191 22.607C93.6109 22.1807 93.6137 21.7544 93.6096 21.3281C93.1092 21.3091 92.5789 21.3608 92.1641 21.6686ZM95.0782 22.5444C94.1399 23.826 93.974 25.6156 94.5805 27.0757C94.9898 28.0454 95.9158 28.7522 96.9492 28.9238C98.0262 29.0914 99.1439 28.9565 100.158 28.5575C100.086 28.2347 100.014 27.9119 99.9462 27.5891C98.8937 27.9705 97.6359 28.1734 96.6052 27.6272C95.8124 27.201 95.5133 26.268 95.4616 25.4222C97.1546 25.4059 98.8475 25.4195 100.542 25.4154C100.663 24.2441 100.436 22.9503 99.5886 22.08C98.3444 20.8746 96.083 21.1647 95.0782 22.5444Z" fill="#040606"/>
<path d="M39.8618 9.29621C40.6994 9.20632 41.6227 9.16682 42.3624 9.64214C43.0247 10.0589 43.3306 10.8693 43.3197 11.6279C43.3524 12.475 43.1062 13.4066 42.4032 13.9364C41.6758 14.4771 40.7212 14.488 39.8591 14.4104C39.8156 12.7079 39.8088 11 39.8618 9.29621Z" fill="#040606"/>
<path d="M100.484 11.0807C100.901 10.8873 101.464 10.9281 101.791 11.2795C102.048 11.5533 102.08 11.9455 102.159 12.2956C101.347 12.3146 100.537 12.2956 99.7266 12.3105C99.8326 11.8352 100.03 11.3231 100.484 11.0807Z" fill="#040606"/>
<path d="M46.2892 11.1484C46.8045 10.8583 47.5402 10.9768 47.8774 11.4862C48.3737 12.2026 48.386 13.2472 47.9073 13.9759C47.5103 14.6133 46.5244 14.725 46.0213 14.1557C45.2829 13.3344 45.3373 11.7845 46.2892 11.1484Z" fill="#040606"/>
<path d="M64.6132 11.1036C65.1897 10.8326 65.9458 11.0655 66.2259 11.6525C66.7141 12.5351 66.5835 13.9025 65.6317 14.4214C64.8987 14.7891 64.042 14.2185 63.8693 13.4735C63.6613 12.6495 63.7646 11.5272 64.6132 11.1036Z" fill="#040606"/>
<path d="M73.6254 11.1802C74.2768 10.7716 75.2272 11.1584 75.3972 11.9129C75.4829 12.4455 75.4802 12.9984 75.4027 13.5323C75.268 14.2773 74.3502 14.724 73.6839 14.3631C73.1196 14.1043 72.9143 13.437 72.9075 12.8595C72.8898 12.2384 73.0611 11.5275 73.6254 11.1802Z" fill="#040606"/>
<path d="M80.9311 11.1048C81.509 10.8324 82.2609 11.064 82.5465 11.6482C82.9517 12.4409 82.9259 13.555 82.2664 14.206C81.7306 14.7481 80.7461 14.5697 80.3912 13.9105C79.8636 13.0388 79.9765 11.6333 80.9311 11.1048Z" fill="#040606"/>
<path d="M68.9834 13.0239C69.428 12.712 70.0005 12.7188 70.5213 12.6738C70.5132 13.0497 70.5648 13.4365 70.4642 13.8043C70.2711 14.3817 69.5395 14.7236 68.9861 14.443C68.4857 14.157 68.5142 13.3289 68.9834 13.0239Z" fill="#040606"/>
<path d="M44.2514 19.7217C44.677 21.3683 45.2508 22.97 45.7798 24.5839C44.779 24.5853 43.7781 24.5853 42.7773 24.5839C43.2832 22.9686 43.906 21.3833 44.2514 19.7217Z" fill="#040606"/>
<path d="M96.1932 22.8536C96.8663 22.0841 98.2614 22.08 98.872 22.9299C99.2146 23.3603 99.2813 23.9228 99.3302 24.4526C98.0452 24.4553 96.7602 24.4526 95.4766 24.4539C95.6098 23.8846 95.7676 23.2826 96.1932 22.8536Z" fill="#040606"/>
<path d="M52.6785 22.4829C53.3149 22.2772 54.0627 22.4352 54.5441 22.9078C55.1791 23.5003 55.3736 24.4142 55.3722 25.2518C55.3246 26.0022 55.1614 26.8099 54.6121 27.3628C53.9444 28.0642 52.741 28.131 51.985 27.5344C51.4533 27.1299 51.1433 26.4666 51.1718 25.7979C51.1841 25.1741 51.1025 24.5313 51.2861 23.9252C51.4927 23.2647 52.0081 22.6872 52.6785 22.4829Z" fill="#040606"/>
<path d="M61.3609 22.4185C62.0027 22.3109 62.6975 22.5561 63.1136 23.0627C63.6521 23.6988 63.8357 24.5772 63.7867 25.3944C63.7255 26.1285 63.5202 26.913 62.9613 27.4305C62.3073 28.0461 61.2194 28.1061 60.4865 27.5953C59.9045 27.2031 59.5591 26.4962 59.5863 25.7948C59.6013 25.0975 59.4898 24.3579 59.7917 23.7042C60.0582 23.0505 60.6578 22.5315 61.3609 22.4185Z" fill="#040606"/>
<path d="M84.34 22.4206C85.1953 22.1319 86.2124 22.5173 86.6394 23.3195C87.3397 24.5644 87.2989 26.3091 86.3076 27.3891C85.6631 28.0987 84.4855 28.1954 83.7485 27.577C82.8347 26.8375 82.609 25.53 82.8102 24.4241C82.9612 23.5715 83.4561 22.6753 84.34 22.4206Z" fill="#040606"/>
</g>
<defs>
<clipPath id="clip0">
<rect width="113.678" height="38.2713" fill="white" transform="translate(0 0.459961)"/>
</clipPath>
</defs>
</svg>
