<svg width="136" height="39" viewBox="0 0 136 39" fill="none" xmlns="http://www.w3.org/2000/svg">
<g clip-path="url(#clip0)">
<path d="M4.27382 0.480067C4.93936 0.394088 5.61127 0.430709 6.28 0.42434C47.999 0.427524 89.7181 0.422748 131.439 0.427524C133.025 0.386127 134.548 1.38285 135.222 2.80628C135.677 3.73773 135.647 4.79654 135.633 5.8076C135.629 15.3608 135.636 24.9157 135.629 34.4705C135.653 36.2904 134.367 38.0052 132.623 38.5068C131.824 38.7567 130.979 38.674 130.154 38.6851C88.4363 38.6835 46.7173 38.6867 4.99987 38.6835C3.78183 38.6835 2.58289 38.1246 1.80112 37.1916C1.09896 36.4098 0.782107 35.3446 0.793253 34.3065C0.801214 24.3807 0.786884 14.4533 0.799621 4.52746C0.80599 2.57541 2.34406 0.776218 4.27382 0.480067ZM42.0824 7.99211C41.4312 9.13531 41.5729 10.6813 42.4406 11.6765C43.5902 13.0681 45.9738 13.2018 47.2268 11.8835C47.9083 11.2131 48.1296 10.1782 47.9799 9.25632C46.937 9.2388 45.8941 9.24517 44.8512 9.25154C44.8496 9.56839 44.8496 9.88365 44.8496 10.2005C45.5789 10.1989 46.3081 10.1894 47.0373 10.2116C46.9323 10.6463 46.7667 11.0953 46.3973 11.374C45.7763 11.9105 44.8783 11.8978 44.1236 11.7306C42.6986 11.237 42.213 9.27542 43.1524 8.12903C43.9676 7.06385 45.7349 6.99857 46.6138 8.02076C46.8383 7.78671 47.0596 7.54947 47.2666 7.30109C46.6297 6.75177 45.8305 6.32984 44.9675 6.34735C43.7972 6.30277 42.6604 6.98583 42.0824 7.99211ZM71.4682 6.40945C70.5988 6.59255 69.8441 7.16256 69.3808 7.91409C68.5895 9.26269 68.8984 11.1845 70.1705 12.1334C70.9985 12.8229 72.164 12.9152 73.1734 12.6573C74.4361 12.2497 75.4391 10.9886 75.3452 9.63049C75.4455 8.50957 74.8214 7.40617 73.8772 6.82342C73.1687 6.37124 72.2866 6.25182 71.4682 6.40945ZM48.9114 6.49861C48.9082 8.56211 48.905 10.624 48.913 12.6875C50.166 12.6987 51.4207 12.6955 52.6738 12.6891C52.6754 12.3739 52.6769 12.0602 52.6754 11.7449C51.7662 11.7402 50.857 11.7433 49.9495 11.7418C49.9399 11.1702 49.9415 10.5985 49.9431 10.0269C50.7599 10.0222 51.5783 10.0254 52.3951 10.0238C52.3935 9.71965 52.3903 9.41554 52.3872 9.11143C51.5735 9.09869 50.7583 9.10347 49.9447 9.10665C49.9415 8.55097 49.9415 7.99529 49.9399 7.43961C50.8523 7.43483 51.7662 7.46827 52.6785 7.41573C52.6769 7.11002 52.6769 6.80273 52.6785 6.49702C51.4223 6.48588 50.166 6.48269 48.9114 6.49861ZM53.2995 6.49065C53.3011 6.80591 53.3027 7.12276 53.3075 7.43961C53.8584 7.44439 54.4093 7.44279 54.9618 7.44279C54.9649 9.12416 54.9395 10.8071 54.9713 12.4869C55.1496 12.8499 55.6496 12.6366 55.9696 12.6939C56.019 10.9441 55.9824 9.19263 55.9887 7.4412C56.5365 7.44438 57.0858 7.44439 57.6335 7.43802C57.6351 7.12117 57.6383 6.80591 57.6414 6.49065C56.1941 6.48906 54.7468 6.49065 53.2995 6.49065ZM60.4772 6.49224C60.4788 8.55893 60.4676 10.6256 60.4835 12.6907C60.8036 12.6939 61.1236 12.6923 61.4452 12.6891C61.4532 10.6224 61.4468 8.55734 61.4484 6.49065C61.1236 6.49065 60.8004 6.49065 60.4772 6.49224ZM62.2318 6.49384C62.2334 6.8075 62.235 7.12276 62.2382 7.43802C62.8034 7.44439 63.3702 7.4412 63.937 7.44598C63.945 9.19581 63.9291 10.9441 63.9466 12.6939C64.2682 12.6939 64.5898 12.6923 64.9147 12.6907C64.9258 10.9409 64.9178 9.19104 64.9178 7.44279C65.4703 7.44279 66.0244 7.44439 66.5769 7.43961C66.5801 7.12276 66.5833 6.8075 66.5881 6.49065C65.136 6.49065 63.6839 6.48747 62.2318 6.49384ZM76.2798 6.49065C76.2719 8.55893 76.2687 10.6272 76.2814 12.6939C76.5967 12.6939 76.9135 12.6923 77.2304 12.6891C77.2511 11.1622 77.2161 9.63367 77.2479 8.10674C78.2574 9.5047 79.0901 11.0221 80.0565 12.4487C80.2826 12.8483 80.7922 12.6477 81.1615 12.6955C81.1679 10.6288 81.1695 8.56211 81.16 6.49543C80.8383 6.49543 80.5183 6.49384 80.1967 6.49384C80.1792 7.9109 80.2237 9.32956 80.1744 10.7466C79.9053 10.4696 79.6888 10.1495 79.4881 9.82155C78.7987 8.7086 78.0822 7.61475 77.3976 6.50021C77.0234 6.49384 76.6508 6.49224 76.2798 6.49065ZM10.4357 7.13231C10.243 7.56699 10.0488 8.01917 10.0583 8.5048C10.0583 15.8353 10.0599 23.1658 10.0599 30.4948C10.0472 31.0329 10.2366 31.5472 10.5057 32.0058C11.1537 32.5217 12.0533 32.415 12.7205 31.993C17.6261 29.2513 22.5269 26.4967 27.4309 23.7486C29.0549 22.8283 30.6901 21.9271 32.3158 21.01C32.916 20.6852 33.5243 20.0833 33.4001 19.3398C33.2552 18.7013 32.6884 18.2905 32.1502 17.988C30.5707 17.1139 29.0024 16.2222 27.4245 15.3465C22.8135 12.7496 18.1897 10.1734 13.5771 7.57813C12.9705 7.24854 12.3798 6.84412 11.6887 6.72152C11.2254 6.63395 10.8194 6.92055 10.4357 7.13231ZM43.6746 18.3637C42.326 19.5627 41.4312 21.3364 41.4981 23.1627C41.42 24.8074 42.1381 26.4076 43.2352 27.6033C44.6411 29.1032 46.7364 29.9248 48.7888 29.7608C50.7424 29.6716 52.6706 28.6319 53.6737 26.9282C54.4443 25.6322 54.5749 24.0814 54.4156 22.6086C52.3585 22.5927 50.2998 22.6038 48.2426 22.6038C48.2426 23.1961 48.2442 23.79 48.2411 24.3839C49.6868 24.3903 51.1325 24.3807 52.5782 24.3887C52.5464 25.2198 52.2041 26.035 51.6356 26.6416C49.9447 28.3771 46.9259 28.4233 45.1251 26.8295C43.552 25.5096 42.9772 23.1229 43.8641 21.2536C44.579 19.5181 46.4387 18.3271 48.3175 18.4258C49.5069 18.3653 50.6357 18.9035 51.5258 19.6582C51.9748 19.2618 52.3999 18.8398 52.8043 18.3972C51.5226 17.1823 49.7568 16.5168 47.9927 16.5837C46.4132 16.684 44.8449 17.281 43.6746 18.3637ZM83.4718 17.0629C83.4702 21.2011 83.4671 25.3376 83.4734 29.4742C84.1087 29.4885 84.744 29.4837 85.3809 29.4853C85.3729 25.3424 85.3793 21.1995 85.3777 17.0565C84.7408 17.0534 84.1071 17.0502 83.4718 17.0629ZM98.3701 17.0613C98.3717 21.2011 98.3749 25.3408 98.3685 29.4821C99.0038 29.4853 99.6375 29.4853 100.273 29.4805C100.276 27.9202 100.274 26.3598 100.274 24.801C101.59 24.7565 102.938 24.9555 104.223 24.5845C105.857 24.1259 107.162 22.5051 107.017 20.7728C107.027 18.714 105.067 17.0995 103.093 17.0581C101.518 17.0518 99.9448 17.0486 98.3701 17.0613ZM108.076 17.0597C108.079 21.2011 108.081 25.3424 108.076 29.4853C108.71 29.4837 109.344 29.4853 109.979 29.4805C109.979 25.3408 109.981 21.1995 109.977 17.0597C109.344 17.0518 108.71 17.0502 108.076 17.0597ZM58.5888 21.3698C57.0062 21.6532 55.6241 22.8968 55.2579 24.4746C54.8248 25.992 55.3885 27.7275 56.589 28.7402C58.0188 29.9916 60.2734 30.1111 61.8544 29.0729C63.0199 28.3246 63.8065 26.9537 63.7157 25.551C63.8351 23.9444 62.805 22.3952 61.372 21.7233C60.5154 21.2902 59.525 21.2472 58.5888 21.3698ZM67.9797 21.373C66.1056 21.709 64.5198 23.4381 64.5787 25.3838C64.4816 26.6814 65.0564 27.9934 66.0738 28.8039C67.744 30.197 70.4539 30.076 71.9681 28.5029C73.5556 26.9569 73.5779 24.1323 71.9809 22.5847C70.9746 21.5068 69.4063 21.1278 67.9797 21.373ZM76.9693 21.4622C75.4853 21.9096 74.315 23.2311 74.0364 24.7549C73.9568 25.6274 73.9441 26.5557 74.3676 27.3502C75.0809 28.901 76.81 29.9598 78.5248 29.7512C79.2366 29.67 79.8607 29.2863 80.4005 28.8341C80.4355 29.6971 80.4005 30.6922 79.7301 31.3307C79.1522 31.923 78.2542 31.9644 77.4867 31.8291C76.7957 31.6603 76.3626 31.0616 75.9566 30.5282C75.3771 30.4948 74.8437 30.9056 74.3007 31.0887C74.5507 31.5616 74.8166 32.0376 75.2147 32.4054C76.6476 33.8814 79.1952 33.9865 80.7906 32.7191C81.7714 31.9166 82.1933 30.611 82.1694 29.3755C82.179 26.7626 82.1774 24.1498 82.1694 21.537C81.5851 21.5322 81.0023 21.5338 80.418 21.537C80.4068 21.7663 80.3957 21.9972 80.3845 22.228C79.4961 21.3507 78.1459 21.0976 76.9693 21.4622ZM88.1704 21.9319C86.3617 23.0719 85.7774 25.6672 86.7852 27.5221C87.6116 29.2067 89.656 30.0872 91.4631 29.6891C92.5681 29.4917 93.482 28.7816 94.1651 27.9202C93.6922 27.5874 93.205 27.2769 92.7226 26.9601C92.1541 27.6718 91.2832 28.2179 90.3438 28.1176C89.5843 28.0221 88.7548 27.5938 88.5637 26.7929C90.4393 26.0175 92.3261 25.2676 94.197 24.481C93.8212 23.0815 92.7783 21.795 91.3405 21.4176C90.2706 21.1772 89.0923 21.3157 88.1704 21.9319ZM111.232 23.1722C111.555 23.3076 111.878 23.4493 112.203 23.5894C112.483 23.6945 112.846 23.9349 113.074 23.6053C114.068 22.408 116.56 22.9079 116.617 24.6004C115.704 24.3552 114.757 24.0527 113.807 24.2899C112.667 24.4492 111.482 25.1227 111.116 26.2754C110.808 27.0445 111.06 27.9234 111.525 28.573C112.73 30.1095 115.426 30.2034 116.58 28.5507C116.58 28.8548 116.58 29.1573 116.583 29.4614C117.203 29.4774 117.821 29.4742 118.44 29.4662C118.438 28.1081 118.437 26.7499 118.44 25.3918C118.473 24.5192 118.397 23.591 117.91 22.8394C117.203 21.7297 115.819 21.2265 114.545 21.2998C113.206 21.2329 111.808 21.9271 111.232 23.1722ZM118.57 21.537C119.508 23.7183 120.499 25.8774 121.459 28.0492C121.635 28.4838 121.997 28.9519 121.771 29.436C121.179 30.7161 120.613 32.009 119.997 33.2764C120.656 33.2907 121.314 33.2859 121.975 33.2843C123.701 29.3691 125.454 25.465 127.145 21.5338C126.506 21.537 125.866 21.5052 125.229 21.5434C124.917 21.6294 124.907 21.9972 124.782 22.2408C124.145 23.8027 123.556 25.3854 122.877 26.9314C122.034 25.2246 121.427 23.411 120.632 21.6835C120.032 21.3396 119.242 21.6166 118.57 21.537Z" fill="black"/>
<path d="M71.6153 7.33912C72.2843 7.2292 73.0426 7.29292 73.5603 7.78035C74.7072 8.67078 74.6371 10.6922 73.4153 11.4886C72.8594 11.9076 72.1123 11.8646 71.4608 11.7642C70.3506 11.4329 69.6895 10.141 69.9842 9.03715C70.153 8.22318 70.8013 7.52708 71.6153 7.33912Z" fill="black"/>
<path d="M100.277 18.791C101.215 18.8038 102.153 18.7831 103.093 18.799C104.182 18.8213 105.191 19.8312 105.13 20.9351C105.18 22.0963 104.069 23.095 102.938 23.0791C102.05 23.0839 101.161 23.0823 100.273 23.0727C100.28 21.6455 100.275 20.2183 100.277 18.791Z" fill="black"/>
<path d="M59.1968 22.9682C60.0267 22.8854 60.8917 23.2677 61.3743 23.9542C61.8601 24.5484 61.8761 25.356 61.8028 26.0823C61.6324 27.4586 60.0538 28.4972 58.7349 27.9986C57.3427 27.5813 56.6386 25.8577 57.1945 24.5468C57.502 23.6962 58.3032 23.0797 59.1968 22.9682Z" fill="black"/>
<path d="M67.9941 23.1272C69.1235 22.6414 70.5189 23.2419 71.0222 24.3426C71.5097 25.3302 71.3297 26.6157 70.5444 27.3978C69.9614 27.9776 69.0502 28.2994 68.2522 28.027C66.9699 27.7164 66.1957 26.2652 66.4809 25.0116C66.6147 24.1801 67.2024 23.4251 67.9941 23.1272Z" fill="black"/>
<path d="M77.9832 22.9743C78.5104 22.8963 79.0536 23.0763 79.4965 23.3566C81.0049 24.4143 80.8902 27.1048 79.1811 27.9012C77.9051 28.5766 76.2597 27.64 75.9522 26.2876C75.4871 24.8811 76.4683 23.1416 77.9832 22.9743Z" fill="black"/>
<path d="M88.1715 25.3831C88.0999 24.1566 89.1177 22.9969 90.349 22.9316C91.0021 22.903 91.7333 23.1913 92.0025 23.8284C90.7313 24.3621 89.465 24.9068 88.1715 25.3831Z" fill="black"/>
<path d="M112.901 27.2905C112.72 26.5418 113.39 25.9333 114.07 25.8059C114.921 25.6737 115.832 25.696 116.605 26.1213C116.474 27.1997 115.496 28.1379 114.386 28.0678C113.798 28.1156 113.131 27.8767 112.901 27.2905Z" fill="black"/>
<path d="M42.0856 7.99073C42.6636 6.98435 43.8006 6.30122 44.971 6.34581C45.8341 6.32829 46.6334 6.75027 47.2704 7.29964C47.0634 7.54805 46.842 7.78532 46.6175 8.0194C45.7385 6.99709 43.971 7.06238 43.1557 8.12768C42.2162 9.27419 42.7019 11.236 44.127 11.7296C44.8818 11.8968 45.7799 11.9096 46.4009 11.3729C46.7704 11.0943 46.936 10.6452 47.0411 10.2105C46.3118 10.1882 45.5825 10.1978 44.8532 10.1994C44.8532 9.88247 44.8532 9.56718 44.8547 9.2503C45.8978 9.24393 46.9408 9.23756 47.9838 9.25508C48.1334 10.1771 47.9121 11.2121 47.2306 11.8825C45.9774 13.201 43.5936 13.0672 42.4439 11.6755C41.576 10.6803 41.4343 9.13406 42.0856 7.99073Z" fill="white"/>
<path d="M71.4703 6.40979C72.2888 6.25214 73.171 6.37157 73.8796 6.82381C74.8239 7.40662 75.4481 8.51013 75.3478 9.63116C75.4417 10.9895 74.4385 12.2506 73.1758 12.6583C72.1662 12.9162 71.0006 12.8239 70.1725 12.1344C68.9002 11.1853 68.5913 9.26332 69.3827 7.91458C69.8461 7.16298 70.6009 6.59291 71.4703 6.40979ZM71.6232 7.33974C70.8095 7.52764 70.1614 8.2235 69.9926 9.03721C69.698 10.1407 70.3589 11.4321 71.4687 11.7634C72.12 11.8637 72.8668 11.9067 73.4226 11.4879C74.6439 10.6917 74.714 8.67096 73.5675 7.78082C73.05 7.29356 72.292 7.22986 71.6232 7.33974Z" fill="white"/>
<path d="M48.9097 6.49924C50.1646 6.48331 51.4212 6.4865 52.6778 6.49765C52.6762 6.80343 52.6762 7.11081 52.6778 7.41659C51.7652 7.46915 50.8511 7.4357 49.9385 7.44048C49.9401 7.99631 49.9401 8.55213 49.9433 9.10796C50.7571 9.10478 51.5725 9.1 52.3864 9.11274C52.3895 9.41693 52.3927 9.72112 52.3943 10.0253C51.5773 10.0269 50.7587 10.0237 49.9417 10.0285C49.9401 10.6003 49.9385 11.172 49.948 11.7438C50.8558 11.7454 51.7652 11.7422 52.6746 11.7469C52.6762 12.0623 52.6746 12.376 52.673 12.6914C51.4196 12.6977 50.1646 12.7009 48.9112 12.6898C48.9033 10.6257 48.9065 8.56328 48.9097 6.49924Z" fill="white"/>
<path d="M53.2969 6.48997C54.7446 6.48997 56.1923 6.48837 57.64 6.48997C57.6368 6.80531 57.6336 7.12065 57.632 7.43758C57.0841 7.44395 56.5347 7.44395 55.9868 7.44076C55.9805 9.19265 56.0171 10.9445 55.9677 12.6948C55.6476 12.6375 55.1475 12.8509 54.9691 12.4878C54.9373 10.8076 54.9628 9.12417 54.9596 7.44236C54.4069 7.44236 53.8559 7.44395 53.3048 7.43917C53.3001 7.12224 53.2985 6.80531 53.2969 6.48997Z" fill="white"/>
<path d="M60.4789 6.4928C60.8022 6.49121 61.1255 6.49121 61.4504 6.49121C61.4488 8.55844 61.4552 10.6241 61.4472 12.6913C61.1255 12.6945 60.8054 12.6961 60.4853 12.6929C60.4693 10.6273 60.4805 8.56003 60.4789 6.4928Z" fill="white"/>
<path d="M62.2305 6.49324C63.6829 6.48687 65.1354 6.49005 66.5879 6.49005C66.5831 6.80699 66.5799 7.12233 66.5767 7.43926C66.0241 7.44404 65.4699 7.44244 64.9172 7.44244C64.9172 9.19115 64.9252 10.9414 64.914 12.6917C64.5891 12.6933 64.2674 12.6949 63.9457 12.6949C63.9282 10.9446 63.9441 9.19593 63.9362 7.44563C63.3692 7.44085 62.8022 7.44404 62.2368 7.43767C62.2337 7.12233 62.2321 6.80699 62.2305 6.49324Z" fill="white"/>
<path d="M76.2804 6.49121C76.6515 6.4928 77.0242 6.4944 77.3984 6.50077C78.0833 7.6156 78.8 8.70974 79.4896 9.82299C79.6902 10.1511 79.9068 10.4712 80.176 10.7483C80.2253 9.33086 80.1808 7.91183 80.1983 6.4944C80.52 6.4944 80.8401 6.49599 81.1618 6.49599C81.1714 8.56322 81.1698 10.6304 81.1634 12.6977C80.7939 12.6499 80.2843 12.8506 80.0581 12.4508C79.0914 11.0238 78.2585 9.50605 77.2487 8.10773C77.2169 9.63506 77.2519 11.164 77.2312 12.6913C76.9143 12.6945 76.5973 12.6961 76.282 12.6961C76.2693 10.6289 76.2725 8.56003 76.2804 6.49121Z" fill="white"/>
<path d="M43.6745 18.3648C44.8448 17.2821 46.4131 16.685 47.9926 16.5847C49.7568 16.5178 51.5225 17.1833 52.8042 18.3982C52.3998 18.8408 51.9747 19.2628 51.5257 19.6592C50.6357 18.9045 49.5068 18.3664 48.3174 18.4269C46.4386 18.3281 44.5789 19.5191 43.864 21.2546C42.9771 23.1239 43.5519 25.5106 45.125 26.8305C46.9258 28.4243 49.9446 28.3782 51.6356 26.6427C52.204 26.036 52.5463 25.2208 52.5781 24.3897C51.1324 24.3817 49.6867 24.3913 48.241 24.3849C48.2442 23.791 48.2426 23.1971 48.2426 22.6048C50.2997 22.6048 52.3584 22.5937 54.4156 22.6096C54.5748 24.0824 54.4442 25.6332 53.6736 26.9292C52.6705 28.6329 50.7423 29.6726 48.7887 29.7618C46.7363 29.9258 44.641 29.1042 43.2351 27.6043C42.138 26.4086 41.42 24.8084 41.498 23.1637C41.4311 21.3374 42.3259 19.5637 43.6745 18.3648Z" fill="white"/>
<path d="M83.4749 17.0629C84.1102 17.0502 84.7439 17.0534 85.3808 17.0566C85.3823 21.1995 85.376 25.3424 85.3839 29.4853C84.747 29.4837 84.1118 29.4885 83.4765 29.4742C83.4701 25.3376 83.4733 21.2011 83.4749 17.0629Z" fill="white"/>
<path d="M98.3727 17.0605C99.9474 17.0478 101.52 17.051 103.095 17.0573C105.07 17.0987 107.03 18.7132 107.02 20.772C107.165 22.5043 105.859 24.1251 104.226 24.5837C102.941 24.9547 101.592 24.7557 100.277 24.8002C100.277 26.359 100.279 27.9194 100.275 29.4797C99.6401 29.4845 99.0064 29.4845 98.3711 29.4813C98.3775 25.34 98.3743 21.2003 98.3727 17.0605ZM100.277 18.7897C100.275 20.2163 100.28 21.6429 100.274 23.0695C101.161 23.0791 102.049 23.0807 102.938 23.0759C104.068 23.0918 105.178 22.0935 105.128 20.9328C105.189 19.8294 104.181 18.8199 103.092 18.7976C102.153 18.7817 101.215 18.8024 100.277 18.7897Z" fill="white"/>
<path d="M108.082 17.0583C108.716 17.0488 109.349 17.0504 109.983 17.0583C109.986 21.1981 109.985 25.3394 109.985 29.4792C109.349 29.4839 108.716 29.4823 108.082 29.4839C108.087 25.341 108.085 21.1997 108.082 17.0583Z" fill="white"/>
<path d="M58.5896 21.3692C59.5259 21.2466 60.5164 21.2896 61.3731 21.7227C62.8062 22.3947 63.8365 23.944 63.717 25.5507C63.8078 26.9536 63.0212 28.3247 61.8556 29.0731C60.2743 30.1113 58.0195 29.9919 56.5896 28.7403C55.3889 27.7275 54.8252 25.9918 55.2584 24.4743C55.6246 22.8963 57.0068 21.6526 58.5896 21.3692ZM59.1931 22.9679C58.2998 23.0794 57.4988 23.6956 57.1915 24.546C56.6358 25.8565 57.3396 27.5794 58.7313 27.9966C60.0498 28.495 61.6278 27.4568 61.7982 26.081C61.8715 25.3549 61.8556 24.5476 61.3699 23.9536C60.8874 23.2673 60.0227 22.8851 59.1931 22.9679Z" fill="white"/>
<path d="M67.9822 21.3715C69.409 21.1263 70.9775 21.5053 71.9839 22.5833C73.581 24.1311 73.5587 26.956 71.9711 28.5022C70.4568 30.0754 67.7466 30.1964 66.0762 28.8031C65.0586 27.9926 64.4838 26.6805 64.5809 25.3827C64.522 23.4368 66.108 21.7075 67.9822 21.3715ZM67.995 23.1263C67.2036 23.4241 66.616 24.1789 66.4822 25.0101C66.1972 26.2633 66.9711 27.7139 68.2529 28.0244C69.0507 28.2967 69.9616 27.9751 70.5444 27.3955C71.3294 26.6136 71.5094 25.3286 71.0221 24.3413C70.5189 23.2409 69.124 22.6406 67.995 23.1263Z" fill="white"/>
<path d="M76.9727 21.461C78.1494 21.0964 79.4996 21.3496 80.388 22.2269C80.3992 21.996 80.4103 21.7651 80.4214 21.5359C81.0058 21.5327 81.5885 21.5311 82.1729 21.5359C82.1808 24.1487 82.1824 26.7615 82.1729 29.3743C82.1968 30.6099 81.7748 31.9155 80.794 32.7179C79.1986 33.9853 76.6511 33.8803 75.2181 32.4043C74.8201 32.0365 74.5542 31.5604 74.3042 31.0875C74.8471 30.9044 75.3805 30.4936 75.9601 30.5271C76.3661 31.0605 76.7992 31.6591 77.4902 31.8279C78.2576 31.9632 79.1556 31.9218 79.7336 31.3295C80.4039 30.6911 80.439 29.6959 80.4039 28.833C79.8642 29.2851 79.24 29.6689 78.5283 29.7501C76.8135 29.9587 75.0844 28.8998 74.3711 27.349C73.9475 26.5545 73.9603 25.6263 74.0399 24.7537C74.3185 23.23 75.4888 21.9085 76.9727 21.461ZM77.9822 22.972C76.468 23.1392 75.4872 24.8779 75.9521 26.2838C76.2594 27.6356 77.9042 28.5718 79.1795 27.8967C80.888 27.1006 81.0026 24.4114 79.4948 23.3542C79.0521 23.0739 78.5092 22.894 77.9822 22.972Z" fill="white"/>
<path d="M88.1731 21.9324C89.0951 21.3162 90.2735 21.1776 91.3435 21.4181C92.7815 21.7955 93.8245 23.0821 94.2003 24.4818C92.3292 25.2684 90.4423 26.0185 88.5664 26.7939C88.7575 27.5949 89.5872 28.0233 90.3467 28.1188C91.2862 28.2191 92.1572 27.6729 92.7257 26.9611C93.2082 27.278 93.6955 27.5885 94.1684 27.9213C93.4853 28.7828 92.5713 29.493 91.4662 29.6905C89.6588 30.0886 87.6142 29.208 86.7878 27.5232C85.7798 25.6681 86.3642 23.0726 88.1731 21.9324ZM88.1715 25.3831C89.4645 24.907 90.7305 24.3624 92.0012 23.8289C91.7321 23.192 91.0012 22.9038 90.3483 22.9324C89.1174 22.9977 88.0999 24.157 88.1715 25.3831Z" fill="white"/>
<path d="M111.232 23.1706C111.808 21.9254 113.206 21.2311 114.545 21.298C115.819 21.2247 117.203 21.7279 117.91 22.8378C118.397 23.5894 118.474 24.5178 118.44 25.3904C118.437 26.7487 118.439 28.107 118.44 29.4653C117.821 29.4732 117.203 29.4764 116.584 29.4605C116.581 29.1564 116.581 28.8538 116.581 28.5497C115.426 30.2025 112.73 30.1086 111.525 28.572C111.06 27.9223 110.808 27.0433 111.115 26.2742C111.482 25.1213 112.666 24.4477 113.807 24.2885C114.757 24.0512 115.705 24.3538 116.617 24.599C116.56 22.9063 114.068 22.4063 113.074 23.6037C112.846 23.9334 112.483 23.6929 112.203 23.5878C111.878 23.4477 111.555 23.306 111.232 23.1706ZM112.904 27.2901C113.133 27.8761 113.8 28.1149 114.388 28.0672C115.498 28.1372 116.475 27.1993 116.606 26.1213C115.834 25.6961 114.923 25.6738 114.073 25.806C113.393 25.9334 112.722 26.5417 112.904 27.2901Z" fill="white"/>
<path d="M118.566 21.5376C119.238 21.6172 120.028 21.3402 120.628 21.6841C121.423 23.4116 122.029 25.2252 122.873 26.932C123.552 25.386 124.141 23.8033 124.778 22.2414C124.903 21.9977 124.913 21.6299 125.225 21.544C125.862 21.5058 126.502 21.5376 127.14 21.5344C125.45 25.4656 123.697 29.3697 121.971 33.2849C121.31 33.2865 120.652 33.2913 119.993 33.2769C120.609 32.0096 121.174 30.7167 121.767 29.4365C121.993 28.9525 121.631 28.4844 121.455 28.0497C120.495 25.878 119.504 23.7189 118.566 21.5376Z" fill="white"/>
<path d="M10.4336 7.13205C10.8173 6.92028 11.2233 6.63369 11.6867 6.72126C12.3777 6.84386 12.9684 7.24828 13.575 7.57787C18.1876 10.1732 22.8114 12.7494 27.4225 15.3462C25.9927 16.7362 24.5613 18.1247 23.1458 19.5306L23.0694 19.6054C22.2223 18.5402 21.181 17.6597 20.2336 16.6901C17.9026 14.3511 15.5223 12.0615 13.1738 9.74008C12.279 8.85163 11.4144 7.92815 10.4336 7.13205Z" fill="#00F281"/>
<path d="M10.055 8.50334C10.0455 8.01772 10.2397 7.56553 10.4324 7.13086C11.4132 7.92696 12.2777 8.85044 13.1726 9.7389C15.5211 12.0603 17.9014 14.3499 20.2324 16.6889C21.1798 17.6585 22.2211 18.539 23.0681 19.6042C18.9013 23.7599 14.6756 27.855 10.5024 32.0043C10.2334 31.5458 10.0439 31.0315 10.0566 30.4933C10.0566 23.1644 10.055 15.8339 10.055 8.50334Z" fill="#00D3FB"/>
<path d="M23.1445 19.532C24.56 18.1261 25.9914 16.7377 27.4212 15.3477C28.9991 16.2234 30.5674 17.115 32.1469 17.9891C32.685 18.2916 33.2519 18.7024 33.3968 19.3409C33.5209 20.0845 32.9127 20.6863 32.3125 21.0111C30.6868 21.9283 29.0516 22.8294 27.4276 23.7497C25.9532 22.3916 24.5759 20.9347 23.1445 19.532Z" fill="#FFCB43"/>
<path d="M23.0657 19.6061L23.1421 19.5312C24.5735 20.934 25.9508 22.3909 27.4252 23.749C22.5212 26.4972 17.6204 29.2517 12.7148 31.9935C12.0476 32.4154 11.148 32.5221 10.5 32.0062C14.6732 27.8569 18.8989 23.7617 23.0657 19.6061Z" fill="#FF3342"/>
</g>
<defs>
<clipPath id="clip0">
<rect width="134.846" height="38.2678" fill="white" transform="translate(0.792969 0.421875)"/>
</clipPath>
</defs>
</svg>
