<svg width="1194" height="337" viewBox="0 0 1194 337" fill="none" xmlns="http://www.w3.org/2000/svg">
<mask id="path-1-inside-1" fill="white">
<path d="M31.6002 1.09489C37.9363 0.311818 44.3568 0.689369 50.7351 0.619452C414.947 0.619452 779.16 0.619452 1143.37 0.619452C1149.75 0.689369 1156.17 0.297832 1162.52 1.10887C1176.8 3.40215 1189.16 14.9245 1192.13 29.0197C1193.65 35.1864 1193.17 41.5908 1193.23 47.8833C1193.22 127.589 1193.23 207.294 1193.23 286.999C1193.12 294.271 1193.81 301.682 1191.96 308.8C1188.26 324.755 1172.5 336.822 1156.04 336.627C783.37 336.627 410.695 336.627 38.0207 336.613C27.2494 336.613 16.6611 331.704 9.73364 323.51C3.5102 316.644 0.722319 307.289 0.820881 298.172C0.877202 211 0.764559 123.813 0.8772 36.6407C0.933521 19.511 14.535 3.68182 31.6002 1.09489ZM365.948 67.0686C360.19 77.1226 361.443 90.6865 369.116 99.4262C379.282 111.648 400.36 112.822 411.441 101.244C417.454 95.343 419.495 86.2398 418.045 78.1294C408.837 78.0455 399.642 78.1015 390.448 78.1015C390.434 80.8842 390.42 83.6808 390.42 86.4635C396.883 86.4496 403.359 86.3517 409.836 86.5754C408.823 89.6797 407.992 93.0497 405.57 95.4129C399.952 101.468 390.476 101.845 383.042 99.4961C371.074 94.6858 367.385 78.0316 375.41 68.2572C382.619 58.9302 398.234 58.3289 405.992 67.3063C407.992 65.2647 409.977 63.2091 411.92 61.1116C406.246 56.2314 399.135 52.4699 391.462 52.6237C381.113 52.2322 371.059 58.2311 365.948 67.0686ZM625.812 53.1691C618.125 54.7632 611.451 59.7832 607.353 66.3834C600.355 78.2273 603.087 95.1053 614.337 103.439C621.659 109.494 631.965 110.305 640.892 108.04C652.072 104.46 660.928 93.3713 660.098 81.4435C660.985 71.6132 655.465 61.9087 647.116 56.8048C640.836 52.8335 633.05 51.7847 625.812 53.1691ZM426.296 53.9661C426.352 72.0886 426.296 90.2111 426.324 108.334C437.419 108.376 448.5 108.376 459.596 108.32C459.624 105.565 459.652 102.81 459.666 100.055C451.612 99.9715 443.572 100.013 435.519 100.013C435.434 94.9794 435.448 89.9454 435.476 84.9114C442.699 84.9254 449.937 84.9254 457.16 84.9254C457.132 82.2266 457.104 79.5278 457.061 76.843C449.866 76.829 442.657 76.829 435.462 76.8569C435.448 71.9767 435.462 67.0965 435.434 62.2163C443.488 62.2862 451.556 62.1884 459.61 62.2862C459.624 59.5035 459.638 56.7209 459.666 53.9242C448.543 53.8543 437.419 53.8123 426.296 53.9661ZM465.143 53.8682C465.157 56.6649 465.171 59.4616 465.214 62.2583C470.085 62.2443 474.957 62.2443 479.843 62.2443C479.787 77.6121 479.787 92.9658 479.843 108.334C482.927 108.348 486.01 108.348 489.108 108.32C488.742 92.9658 489.08 77.5981 488.925 62.2303C493.768 62.2443 498.612 62.2443 503.47 62.2583C503.484 59.4616 503.512 56.6649 503.54 53.8682C490.741 53.8822 477.942 53.8822 465.143 53.8682ZM528.617 53.8962C528.645 72.0467 528.518 90.2111 528.673 108.362C531.503 108.376 534.333 108.376 537.163 108.376C537.262 90.1971 537.178 72.0327 537.206 53.8682C534.333 53.8822 531.475 53.8822 528.617 53.8962ZM544.133 53.8962C544.147 56.6789 544.161 59.4616 544.19 62.2443C549.216 62.2443 554.229 62.2303 559.255 62.2723C559.227 77.64 559.171 92.9938 559.283 108.362C562.142 108.362 565 108.348 567.858 108.334C567.943 92.9658 567.886 77.5981 567.886 62.2443C572.772 62.2443 577.658 62.2443 582.558 62.2443C582.586 59.4616 582.614 56.6649 582.657 53.8822C569.815 53.8822 556.974 53.8543 544.133 53.8962ZM668.32 53.8962C668.334 72.0467 668.25 90.1971 668.377 108.348C671.165 108.362 673.967 108.362 676.768 108.362C676.938 94.8955 676.684 81.4295 676.881 67.9495C685.766 80.3108 693.214 93.637 701.775 106.208C703.774 109.704 708.28 107.956 711.533 108.39C711.603 90.2391 711.561 72.0886 711.561 53.9382C708.702 53.9242 705.844 53.9102 703 53.8962C702.859 66.4533 703.225 79.0104 702.803 91.5535C693.791 79.6117 686.428 66.5092 678.261 53.9801C674.938 53.9102 671.629 53.9102 668.32 53.8962ZM380.043 158.156C368.103 168.672 360.204 184.263 360.781 200.302C360.007 219.795 371.397 238.617 387.801 248.853C409.864 263.144 442.122 261.703 461.074 242.812C473.69 230.702 477.154 212.174 475.028 195.436C456.822 195.31 438.616 195.394 420.425 195.38C420.439 200.596 420.439 205.812 420.411 211.028C433.209 211.084 446.008 211 458.807 211.084C458.427 218.369 455.484 225.528 450.429 230.856C435.476 246.084 408.78 246.504 392.87 232.506C378.944 220.914 373.861 199.953 381.704 183.55C388.026 168.294 404.472 157.835 421.086 158.702C431.604 158.17 441.601 162.897 449.486 169.525C453.414 166.001 457.174 162.282 460.793 158.464C449.43 147.809 433.843 141.922 418.214 142.523C404.246 143.404 390.377 148.648 380.043 158.156ZM731.935 146.732C731.864 183.047 732.146 219.39 731.794 255.705C737.468 255.872 743.157 255.816 748.845 255.83C748.775 219.432 748.831 183.047 748.817 146.662C743.185 146.648 737.553 146.62 731.935 146.732ZM863.725 146.662C863.711 183.047 863.768 219.418 863.697 255.803C869.329 255.83 874.947 255.844 880.579 255.775C880.509 242.071 880.579 228.381 880.537 214.691C891.858 214.314 903.417 215.936 914.498 213.069C927.185 209.839 937.928 199.002 939.927 186.011C940.448 179.999 940.505 173.664 937.815 168.113C932.521 154.856 918.117 146.718 904.093 146.648C890.633 146.648 877.186 146.648 863.725 146.662ZM949.572 146.648C949.544 183.047 949.6 219.432 949.544 255.83C955.162 255.816 960.78 255.83 966.398 255.789C966.342 219.432 966.398 183.061 966.37 146.69C960.766 146.634 955.162 146.648 949.572 146.648ZM511.918 184.543C497.922 187.046 485.7 197.967 482.462 211.825C478.632 225.151 483.617 240.393 494.233 249.286C507.13 260.501 527.659 261.368 541.655 251.621C551.497 244.965 558.03 233.233 557.256 221.277C558.312 207.168 549.216 193.562 536.53 187.661C528.955 183.858 520.197 183.48 511.918 184.543ZM594.963 184.571C578.39 187.536 564.366 202.722 564.887 219.809C564.028 231.206 569.111 242.728 578.109 249.846C592.879 262.081 616.843 261.018 630.234 247.203C644.271 233.625 644.483 208.804 630.346 195.226C621.433 185.746 607.578 182.432 594.963 184.571ZM668.63 187.717C658.647 192.653 651.312 202.246 648.735 212.985C647.651 221.389 647.608 230.465 651.945 238.058C658.464 251.174 673.446 259.956 688.216 258.152C694.524 257.439 700.099 254.083 704.802 250.027C705.013 257.061 704.957 264.864 700.212 270.597C694.819 277.393 684.794 278.246 677.022 275.729C671.46 273.785 668.771 268.262 664.702 264.598C659.844 265.717 655.395 268.052 650.819 269.94C653.086 274.051 655.423 278.232 658.943 281.476C671.615 294.439 694.143 295.362 708.252 284.217C716.939 277.183 720.642 265.717 720.445 254.866C720.516 231.905 720.53 208.944 720.445 185.983C715.264 185.997 710.096 185.997 704.929 185.997C704.844 188.053 704.774 190.095 704.704 192.15C695.354 182.809 680.049 181.663 668.63 187.717ZM770.993 191.241C756.941 202.036 752.886 223.179 761.264 238.589C768.571 253.383 786.65 261.116 802.631 257.62C812.403 255.886 820.485 249.636 826.539 242.085C822.33 239.176 818.021 236.449 813.769 233.611C808.32 240.617 799.083 245.79 790.058 243.259C784.102 242.155 778.751 238.072 776.766 232.296C793.465 225.403 810.277 218.802 826.934 211.811C824.343 203.868 820.119 196.219 813.403 191.003C801.533 181.201 782.933 181.928 770.993 191.241ZM977.423 200.386C982.112 202.162 986.547 204.665 991.447 205.882C996.783 200.75 1004.09 196.597 1011.78 198.988C1018.87 200.023 1024.97 205.602 1025.08 212.985C1017.03 210.706 1008.62 208.147 1000.22 210.203C990.137 211.601 979.662 217.516 976.423 227.64C973.706 234.38 975.916 242.099 980.028 247.804C990.7 261.326 1014.58 262.137 1024.77 247.594C1024.75 250.265 1024.75 252.95 1024.76 255.635C1030.24 255.747 1035.71 255.719 1041.21 255.663C1041.16 244.21 1041.18 232.744 1041.19 221.277C1041.45 213.489 1041.16 205.225 1037.04 198.331C1031.01 188.025 1018.35 183.257 1006.77 183.942C994.896 183.341 982.562 189.465 977.423 200.386ZM1042.3 186.011C1050.82 205.476 1059.65 224.801 1068.34 244.182C1069.86 247.664 1072.53 251.524 1070.66 255.397C1065.4 266.626 1060.41 277.994 1054.95 289.139C1060.78 289.237 1066.62 289.223 1072.46 289.195C1087.71 254.796 1103.22 220.508 1118.18 185.983C1112.54 186.039 1106.88 185.746 1101.26 186.081C1098.48 186.822 1098.4 190.067 1097.27 192.206C1091.57 206.008 1086.42 220.061 1080.25 233.681C1073.35 218.355 1067.47 202.61 1060.57 187.298C1055.26 184.291 1048.26 186.725 1042.3 186.011Z"/>
</mask>
<path d="M31.6002 1.09489C37.9363 0.311818 44.3568 0.689369 50.7351 0.619452C414.947 0.619452 779.16 0.619452 1143.37 0.619452C1149.75 0.689369 1156.17 0.297832 1162.52 1.10887C1176.8 3.40215 1189.16 14.9245 1192.13 29.0197C1193.65 35.1864 1193.17 41.5908 1193.23 47.8833C1193.22 127.589 1193.23 207.294 1193.23 286.999C1193.12 294.271 1193.81 301.682 1191.96 308.8C1188.26 324.755 1172.5 336.822 1156.04 336.627C783.37 336.627 410.695 336.627 38.0207 336.613C27.2494 336.613 16.6611 331.704 9.73364 323.51C3.5102 316.644 0.722319 307.289 0.820881 298.172C0.877202 211 0.764559 123.813 0.8772 36.6407C0.933521 19.511 14.535 3.68182 31.6002 1.09489ZM365.948 67.0686C360.19 77.1226 361.443 90.6865 369.116 99.4262C379.282 111.648 400.36 112.822 411.441 101.244C417.454 95.343 419.495 86.2398 418.045 78.1294C408.837 78.0455 399.642 78.1015 390.448 78.1015C390.434 80.8842 390.42 83.6808 390.42 86.4635C396.883 86.4496 403.359 86.3517 409.836 86.5754C408.823 89.6797 407.992 93.0497 405.57 95.4129C399.952 101.468 390.476 101.845 383.042 99.4961C371.074 94.6858 367.385 78.0316 375.41 68.2572C382.619 58.9302 398.234 58.3289 405.992 67.3063C407.992 65.2647 409.977 63.2091 411.92 61.1116C406.246 56.2314 399.135 52.4699 391.462 52.6237C381.113 52.2322 371.059 58.2311 365.948 67.0686ZM625.812 53.1691C618.125 54.7632 611.451 59.7832 607.353 66.3834C600.355 78.2273 603.087 95.1053 614.337 103.439C621.659 109.494 631.965 110.305 640.892 108.04C652.072 104.46 660.928 93.3713 660.098 81.4435C660.985 71.6132 655.465 61.9087 647.116 56.8048C640.836 52.8335 633.05 51.7847 625.812 53.1691ZM426.296 53.9661C426.352 72.0886 426.296 90.2111 426.324 108.334C437.419 108.376 448.5 108.376 459.596 108.32C459.624 105.565 459.652 102.81 459.666 100.055C451.612 99.9715 443.572 100.013 435.519 100.013C435.434 94.9794 435.448 89.9454 435.476 84.9114C442.699 84.9254 449.937 84.9254 457.16 84.9254C457.132 82.2266 457.104 79.5278 457.061 76.843C449.866 76.829 442.657 76.829 435.462 76.8569C435.448 71.9767 435.462 67.0965 435.434 62.2163C443.488 62.2862 451.556 62.1884 459.61 62.2862C459.624 59.5035 459.638 56.7209 459.666 53.9242C448.543 53.8543 437.419 53.8123 426.296 53.9661ZM465.143 53.8682C465.157 56.6649 465.171 59.4616 465.214 62.2583C470.085 62.2443 474.957 62.2443 479.843 62.2443C479.787 77.6121 479.787 92.9658 479.843 108.334C482.927 108.348 486.01 108.348 489.108 108.32C488.742 92.9658 489.08 77.5981 488.925 62.2303C493.768 62.2443 498.612 62.2443 503.47 62.2583C503.484 59.4616 503.512 56.6649 503.54 53.8682C490.741 53.8822 477.942 53.8822 465.143 53.8682ZM528.617 53.8962C528.645 72.0467 528.518 90.2111 528.673 108.362C531.503 108.376 534.333 108.376 537.163 108.376C537.262 90.1971 537.178 72.0327 537.206 53.8682C534.333 53.8822 531.475 53.8822 528.617 53.8962ZM544.133 53.8962C544.147 56.6789 544.161 59.4616 544.19 62.2443C549.216 62.2443 554.229 62.2303 559.255 62.2723C559.227 77.64 559.171 92.9938 559.283 108.362C562.142 108.362 565 108.348 567.858 108.334C567.943 92.9658 567.886 77.5981 567.886 62.2443C572.772 62.2443 577.658 62.2443 582.558 62.2443C582.586 59.4616 582.614 56.6649 582.657 53.8822C569.815 53.8822 556.974 53.8543 544.133 53.8962ZM668.32 53.8962C668.334 72.0467 668.25 90.1971 668.377 108.348C671.165 108.362 673.967 108.362 676.768 108.362C676.938 94.8955 676.684 81.4295 676.881 67.9495C685.766 80.3108 693.214 93.637 701.775 106.208C703.774 109.704 708.28 107.956 711.533 108.39C711.603 90.2391 711.561 72.0886 711.561 53.9382C708.702 53.9242 705.844 53.9102 703 53.8962C702.859 66.4533 703.225 79.0104 702.803 91.5535C693.791 79.6117 686.428 66.5092 678.261 53.9801C674.938 53.9102 671.629 53.9102 668.32 53.8962ZM380.043 158.156C368.103 168.672 360.204 184.263 360.781 200.302C360.007 219.795 371.397 238.617 387.801 248.853C409.864 263.144 442.122 261.703 461.074 242.812C473.69 230.702 477.154 212.174 475.028 195.436C456.822 195.31 438.616 195.394 420.425 195.38C420.439 200.596 420.439 205.812 420.411 211.028C433.209 211.084 446.008 211 458.807 211.084C458.427 218.369 455.484 225.528 450.429 230.856C435.476 246.084 408.78 246.504 392.87 232.506C378.944 220.914 373.861 199.953 381.704 183.55C388.026 168.294 404.472 157.835 421.086 158.702C431.604 158.17 441.601 162.897 449.486 169.525C453.414 166.001 457.174 162.282 460.793 158.464C449.43 147.809 433.843 141.922 418.214 142.523C404.246 143.404 390.377 148.648 380.043 158.156ZM731.935 146.732C731.864 183.047 732.146 219.39 731.794 255.705C737.468 255.872 743.157 255.816 748.845 255.83C748.775 219.432 748.831 183.047 748.817 146.662C743.185 146.648 737.553 146.62 731.935 146.732ZM863.725 146.662C863.711 183.047 863.768 219.418 863.697 255.803C869.329 255.83 874.947 255.844 880.579 255.775C880.509 242.071 880.579 228.381 880.537 214.691C891.858 214.314 903.417 215.936 914.498 213.069C927.185 209.839 937.928 199.002 939.927 186.011C940.448 179.999 940.505 173.664 937.815 168.113C932.521 154.856 918.117 146.718 904.093 146.648C890.633 146.648 877.186 146.648 863.725 146.662ZM949.572 146.648C949.544 183.047 949.6 219.432 949.544 255.83C955.162 255.816 960.78 255.83 966.398 255.789C966.342 219.432 966.398 183.061 966.37 146.69C960.766 146.634 955.162 146.648 949.572 146.648ZM511.918 184.543C497.922 187.046 485.7 197.967 482.462 211.825C478.632 225.151 483.617 240.393 494.233 249.286C507.13 260.501 527.659 261.368 541.655 251.621C551.497 244.965 558.03 233.233 557.256 221.277C558.312 207.168 549.216 193.562 536.53 187.661C528.955 183.858 520.197 183.48 511.918 184.543ZM594.963 184.571C578.39 187.536 564.366 202.722 564.887 219.809C564.028 231.206 569.111 242.728 578.109 249.846C592.879 262.081 616.843 261.018 630.234 247.203C644.271 233.625 644.483 208.804 630.346 195.226C621.433 185.746 607.578 182.432 594.963 184.571ZM668.63 187.717C658.647 192.653 651.312 202.246 648.735 212.985C647.651 221.389 647.608 230.465 651.945 238.058C658.464 251.174 673.446 259.956 688.216 258.152C694.524 257.439 700.099 254.083 704.802 250.027C705.013 257.061 704.957 264.864 700.212 270.597C694.819 277.393 684.794 278.246 677.022 275.729C671.46 273.785 668.771 268.262 664.702 264.598C659.844 265.717 655.395 268.052 650.819 269.94C653.086 274.051 655.423 278.232 658.943 281.476C671.615 294.439 694.143 295.362 708.252 284.217C716.939 277.183 720.642 265.717 720.445 254.866C720.516 231.905 720.53 208.944 720.445 185.983C715.264 185.997 710.096 185.997 704.929 185.997C704.844 188.053 704.774 190.095 704.704 192.15C695.354 182.809 680.049 181.663 668.63 187.717ZM770.993 191.241C756.941 202.036 752.886 223.179 761.264 238.589C768.571 253.383 786.65 261.116 802.631 257.62C812.403 255.886 820.485 249.636 826.539 242.085C822.33 239.176 818.021 236.449 813.769 233.611C808.32 240.617 799.083 245.79 790.058 243.259C784.102 242.155 778.751 238.072 776.766 232.296C793.465 225.403 810.277 218.802 826.934 211.811C824.343 203.868 820.119 196.219 813.403 191.003C801.533 181.201 782.933 181.928 770.993 191.241ZM977.423 200.386C982.112 202.162 986.547 204.665 991.447 205.882C996.783 200.75 1004.09 196.597 1011.78 198.988C1018.87 200.023 1024.97 205.602 1025.08 212.985C1017.03 210.706 1008.62 208.147 1000.22 210.203C990.137 211.601 979.662 217.516 976.423 227.64C973.706 234.38 975.916 242.099 980.028 247.804C990.7 261.326 1014.58 262.137 1024.77 247.594C1024.75 250.265 1024.75 252.95 1024.76 255.635C1030.24 255.747 1035.71 255.719 1041.21 255.663C1041.16 244.21 1041.18 232.744 1041.19 221.277C1041.45 213.489 1041.16 205.225 1037.04 198.331C1031.01 188.025 1018.35 183.257 1006.77 183.942C994.896 183.341 982.562 189.465 977.423 200.386ZM1042.3 186.011C1050.82 205.476 1059.65 224.801 1068.34 244.182C1069.86 247.664 1072.53 251.524 1070.66 255.397C1065.4 266.626 1060.41 277.994 1054.95 289.139C1060.78 289.237 1066.62 289.223 1072.46 289.195C1087.71 254.796 1103.22 220.508 1118.18 185.983C1112.54 186.039 1106.88 185.746 1101.26 186.081C1098.48 186.822 1098.4 190.067 1097.27 192.206C1091.57 206.008 1086.42 220.061 1080.25 233.681C1073.35 218.355 1067.47 202.61 1060.57 187.298C1055.26 184.291 1048.26 186.725 1042.3 186.011Z" fill="black" stroke="black" stroke-width="500" mask="url(#path-1-inside-1)"/>
<path d="M627.117 60.9959C633.03 60.0311 639.732 60.5904 644.294 64.8693C654.432 72.686 653.813 90.445 643.013 97.4227C638.085 101.1 631.481 100.723 625.737 99.8418C615.923 96.9333 610.079 85.5927 612.684 75.9022C614.177 68.7567 619.907 62.646 627.117 60.9959Z" fill="black"/>
<path d="M880.474 161.564C888.782 161.676 897.075 161.495 905.382 161.634C915.013 161.83 923.926 170.696 923.391 180.386C923.827 190.58 914.013 199.348 904.016 199.208C896.455 199.208 888.894 199.278 881.347 199.18L880.559 198.285C880.348 186.049 880.573 173.814 880.474 161.564Z" fill="black"/>
<path d="M517.191 198.243C524.527 197.53 532.172 200.886 536.439 206.913C540.733 212.129 540.874 219.218 540.226 225.609C538.734 237.676 524.752 246.807 513.108 242.417C501.21 238.865 494.902 224.546 499.098 213.205C501.548 205.235 508.884 199.264 517.191 198.243Z" fill="black"/>
<path d="M595.013 199.655C604.996 195.376 617.33 200.648 621.779 210.31C626.088 218.994 624.497 230.279 617.555 237.145C612.402 242.221 604.362 245.087 597.294 242.682C585.959 239.941 579.116 227.202 581.637 216.197C582.819 208.898 588.015 202.284 595.013 199.655Z" fill="black"/>
<path d="M683.323 198.299C687.984 197.614 692.785 199.194 696.685 201.655C710.033 210.926 709.034 234.544 693.911 241.55C682.647 247.493 668.088 239.257 665.371 227.385C661.245 215.037 669.933 199.768 683.323 198.299Z" fill="black"/>
<path d="M773.423 219.47C772.818 208.689 781.801 198.509 792.685 197.936C798.613 197.572 804.625 200.453 807.568 205.655C796.262 210.451 784.941 215.219 773.423 219.47Z" fill="black"/>
<path d="M992.173 236.222C990.567 229.65 996.495 224.308 1002.51 223.19C1010.04 222.043 1018.12 222.211 1024.94 226C1023.68 235.425 1015.12 243.675 1005.3 243.046C1000.1 243.465 994.2 241.368 992.173 236.222Z" fill="black"/>
<rect x="343.127" y="23.9668" width="822.893" height="293.507" fill="black"/>
<path d="M402.271 73.6606C406.884 65.6839 415.958 60.2694 425.299 60.6228C432.225 60.4839 438.643 63.8791 443.765 68.2839C442.011 70.1771 440.219 72.0325 438.415 73.8752C431.412 65.7723 417.318 66.315 410.811 74.7335C403.567 83.5558 406.897 98.5878 417.699 102.93C424.41 105.05 432.962 104.709 438.033 99.2441C440.219 97.1111 440.969 94.0694 441.884 91.2674C436.038 91.0655 430.192 91.1538 424.359 91.1665C424.359 88.6548 424.371 86.1306 424.384 83.6189C432.683 83.6189 440.982 83.5684 449.293 83.6441C450.602 90.9645 448.759 99.181 443.333 104.507C433.331 114.958 414.306 113.898 405.13 102.866C398.204 94.9781 397.073 82.7354 402.271 73.6606Z" fill="white"/>
<path d="M636.82 61.1143C643.353 59.8647 650.38 60.8114 656.049 64.3958C663.585 69.0026 668.567 77.7618 667.766 86.6346C668.516 97.4007 660.522 107.409 650.431 110.64C642.374 112.685 633.071 111.953 626.463 106.488C616.308 98.9657 613.843 83.7317 620.159 73.0414C623.857 67.0842 629.881 62.5531 636.82 61.1143ZM638.053 68.4851C631.546 69.9745 626.374 75.49 625.027 81.9395C622.675 90.6861 627.95 100.922 636.808 103.547C641.993 104.342 647.953 104.683 652.401 101.364C662.149 95.0657 662.708 79.0366 653.558 71.9812C649.44 68.1191 643.391 67.6143 638.053 68.4851Z" fill="white"/>
<path d="M456.74 61.8339C466.78 61.6951 476.82 61.7329 486.86 61.7961C486.835 64.3203 486.822 66.832 486.809 69.3436C479.54 69.2553 472.258 69.3436 464.988 69.2805C465.014 73.6854 465.001 78.0902 465.014 82.4951C471.508 82.4698 478.015 82.4698 484.509 82.4825C484.547 84.9058 484.572 87.3417 484.598 89.7776C478.078 89.7776 471.546 89.7776 465.026 89.765C465.001 94.3087 464.988 98.8524 465.064 103.396C472.334 103.396 479.591 103.358 486.86 103.434C486.847 105.92 486.822 108.407 486.796 110.893C476.782 110.944 466.78 110.944 456.766 110.906C456.74 94.5485 456.791 78.1912 456.74 61.8339Z" fill="white"/>
<path d="M491.805 61.7461C503.357 61.7587 514.909 61.7587 526.461 61.7461C526.436 64.2704 526.41 66.7946 526.398 69.3189C522.013 69.3063 517.641 69.3063 513.27 69.2937C513.409 83.1645 513.104 97.0354 513.435 110.894C510.639 110.919 507.856 110.919 505.073 110.906C505.022 97.0354 505.022 83.1772 505.073 69.3063C500.663 69.3063 496.265 69.3063 491.868 69.3189C491.83 66.7946 491.817 64.2704 491.805 61.7461Z" fill="white"/>
<path d="M549.092 61.7713C551.672 61.7587 554.252 61.7587 556.845 61.7461C556.819 78.1412 556.896 94.5364 556.807 110.944C554.252 110.944 551.698 110.944 549.143 110.932C549.003 94.549 549.118 78.1539 549.092 61.7713Z" fill="white"/>
<path d="M563.098 61.7699C574.688 61.732 586.278 61.7573 597.869 61.7573C597.831 64.2689 597.805 66.7932 597.78 69.3048C593.357 69.3048 588.947 69.3048 584.537 69.3048C584.537 83.1631 584.588 97.034 584.512 110.905C581.932 110.917 579.352 110.93 576.772 110.93C576.671 97.0592 576.721 83.201 576.747 69.3301C572.21 69.2922 567.686 69.3048 563.149 69.3048C563.123 66.7932 563.11 64.2815 563.098 61.7699Z" fill="white"/>
<path d="M675.189 61.7705C678.176 61.7831 681.162 61.7831 684.161 61.8462C691.532 73.155 698.179 84.9812 706.313 95.7598C706.694 84.4385 706.363 73.1045 706.491 61.7705C709.058 61.7831 711.638 61.7958 714.217 61.8084C714.217 78.1909 714.256 94.5734 714.192 110.956C711.256 110.565 707.19 112.142 705.385 108.987C697.658 97.6404 690.935 85.6122 682.916 74.455C682.738 86.622 682.967 98.7763 682.814 110.931C680.285 110.931 677.756 110.931 675.24 110.918C675.125 94.5355 675.202 78.153 675.189 61.7705Z" fill="white"/>
<path d="M414.991 155.875C424.32 147.293 436.838 142.56 449.445 141.764C463.551 141.222 477.62 146.535 487.876 156.153C484.61 159.598 481.216 162.956 477.671 166.136C470.554 160.154 461.531 155.888 452.037 156.367C437.041 155.585 422.197 165.026 416.491 178.796C409.412 193.6 414 212.52 426.569 222.983C440.93 235.617 465.026 235.238 478.522 221.494C483.085 216.685 485.741 210.223 486.084 203.647C474.532 203.571 462.979 203.647 451.427 203.596C451.453 198.889 451.453 194.181 451.44 189.473C467.86 189.486 484.292 189.41 500.724 189.524C502.643 204.631 499.517 221.355 488.13 232.285C471.024 249.336 441.908 250.636 421.994 237.737C407.188 228.498 396.907 211.51 397.606 193.916C397.085 179.439 404.214 165.366 414.991 155.875Z" fill="white"/>
<path d="M732.608 145.564C737.678 145.463 742.762 145.488 747.845 145.501C747.858 178.341 747.807 211.182 747.871 244.036C742.736 244.023 737.602 244.073 732.48 243.922C732.798 211.144 732.544 178.341 732.608 145.564Z" fill="white"/>
<path d="M851.561 145.5C863.71 145.487 875.847 145.487 887.997 145.487C900.654 145.55 913.655 152.896 918.434 164.861C920.861 169.872 920.81 175.589 920.34 181.016C918.536 192.742 908.839 202.523 897.388 205.439C887.387 208.026 876.953 206.562 866.735 206.903C866.773 219.259 866.709 231.615 866.773 243.984C861.689 244.047 856.619 244.035 851.535 244.01C851.599 211.169 851.548 178.341 851.561 145.5ZM866.735 159.257C866.824 170.314 866.62 181.357 866.811 192.401L867.523 193.209C874.335 193.297 881.159 193.234 887.984 193.234C897.007 193.36 905.865 185.447 905.471 176.246C905.954 167.499 897.909 159.497 889.217 159.32C881.718 159.194 874.233 159.358 866.735 159.257Z" fill="white"/>
<path d="M929.047 145.488C934.092 145.488 939.15 145.475 944.208 145.526C944.234 178.354 944.183 211.182 944.234 243.997C939.163 244.035 934.092 244.023 929.021 244.035C929.072 211.182 929.021 178.341 929.047 145.488Z" fill="white"/>
<path d="M534.022 179.692C541.495 178.732 549.399 179.073 556.237 182.506C567.687 187.832 575.897 200.113 574.944 212.848C575.643 223.639 569.746 234.228 560.863 240.236C548.23 249.033 529.701 248.251 518.06 238.128C508.477 230.101 503.978 216.344 507.435 204.316C510.358 191.808 521.389 181.951 534.022 179.692ZM538.838 192.363C531.34 193.285 524.719 198.674 522.508 205.868C518.721 216.104 524.414 229.028 535.153 232.234C545.663 236.197 558.283 227.956 559.63 217.063C560.215 211.295 560.087 204.896 556.211 200.189C552.361 194.749 545.46 191.72 538.838 192.363Z" fill="white"/>
<path d="M608.977 179.717C620.364 177.786 632.869 180.777 640.914 189.334C653.673 201.59 653.483 223.992 640.812 236.248C628.726 248.718 607.096 249.677 593.764 238.633C585.643 232.209 581.056 221.809 581.831 211.523C581.361 196.099 594.019 182.392 608.977 179.717ZM609.078 193.638C602.762 196.011 598.073 201.981 597.005 208.569C594.73 218.502 600.907 230 611.137 232.474C617.517 234.645 624.774 232.057 629.425 227.476C635.69 221.279 637.126 211.093 633.238 203.256C629.222 194.534 618.089 189.776 609.078 193.638Z" fill="white"/>
<path d="M675.468 182.556C685.775 177.091 699.589 178.126 708.028 186.557C708.091 184.702 708.155 182.859 708.231 181.004C712.895 181.004 717.559 181.004 722.236 180.991C722.312 201.715 722.3 222.44 722.236 243.164C722.414 252.958 719.072 263.308 711.23 269.656C698.496 279.715 678.162 278.882 666.725 267.182C663.547 264.254 661.438 260.48 659.392 256.77C663.522 255.066 667.538 252.958 671.922 251.948C675.595 255.255 678.023 260.241 683.042 261.995C690.058 264.267 699.106 263.497 703.974 257.363C708.257 252.188 708.307 245.145 708.117 238.797C703.872 242.457 698.839 245.486 693.146 246.13C679.814 247.758 666.292 239.832 660.408 227.993C656.494 221.14 656.532 212.948 657.511 205.363C659.836 195.67 666.458 187.011 675.468 182.556ZM688.787 192.413C676.701 193.739 668.86 207.521 672.583 218.666C675.036 229.381 688.177 236.815 698.344 231.451C711.993 225.128 712.895 203.811 700.847 195.443C697.327 193.221 692.993 191.795 688.787 192.413Z" fill="white"/>
<path d="M767.862 185.738C778.639 177.332 795.427 176.676 806.14 185.523C812.202 190.231 816.015 197.135 818.353 204.304C803.319 210.614 788.145 216.572 773.072 222.794C774.864 228.007 779.693 231.692 785.069 232.689C793.216 234.974 801.552 230.304 806.471 223.98C810.309 226.543 814.198 229.004 817.997 231.629C812.533 238.444 805.238 244.086 796.418 245.651C781.994 248.807 765.676 241.827 759.08 228.474C751.518 214.565 755.178 195.481 767.862 185.738ZM770.111 211.523C780.507 207.686 790.725 203.382 800.93 199.053C798.274 194.358 792.847 191.758 787.497 192.086C777.673 192.604 769.565 201.792 770.111 211.523Z" fill="white"/>
<path d="M954.184 193.992C958.823 184.135 969.955 178.606 980.669 179.149C991.128 178.531 1002.55 182.835 1007.99 192.136C1011.72 198.359 1011.97 205.818 1011.74 212.848C1011.73 223.198 1011.72 233.547 1011.75 243.884C1006.8 243.935 1001.85 243.96 996.911 243.859C996.898 241.436 996.898 239.012 996.923 236.602C987.722 249.728 966.168 248.996 956.535 236.791C952.824 231.641 950.829 224.674 953.282 218.591C956.205 209.453 965.66 204.114 974.759 202.852C982.347 200.997 989.934 203.306 997.203 205.364C997.101 198.7 991.598 193.664 985.193 192.73C978.254 190.571 971.658 194.32 966.842 198.952C962.419 197.854 958.416 195.595 954.184 193.992ZM967.554 226.643C969.384 231.288 974.709 233.181 979.398 232.802C988.269 233.37 995.996 225.924 997.127 217.417C990.976 213.997 983.681 213.845 976.882 214.88C971.455 215.89 966.105 220.711 967.554 226.643Z" fill="white"/>
<path d="M1012.74 181.018C1018.12 181.662 1024.44 179.466 1029.23 182.179C1035.45 195.999 1040.77 210.211 1046.99 224.044C1052.56 211.751 1057.21 199.066 1062.36 186.609C1063.38 184.678 1063.45 181.75 1065.96 181.081C1071.03 180.778 1076.14 181.043 1081.23 180.993C1067.72 212.155 1053.73 243.102 1039.97 274.151C1034.69 274.176 1029.42 274.189 1024.16 274.1C1029.09 264.041 1033.59 253.78 1038.34 243.645C1040.03 240.149 1037.62 236.665 1036.24 233.523C1028.4 216.03 1020.43 198.587 1012.74 181.018Z" fill="white"/>
<path d="M86.0332 59.1357C89.4547 57.3598 93.0311 54.8288 97.1143 55.57C103.901 56.8424 109.646 60.9256 115.63 64.1138C155.857 86.5012 196.056 108.945 236.311 131.262C223.667 143.512 210.967 155.719 198.435 168.08L197.774 168.724C192.437 162.096 186.228 156.264 180.075 150.405C170.641 141.092 161.179 131.793 151.731 122.481C140.2 110.93 128.217 99.8414 116.658 88.3191C106.449 78.5866 97.0017 68.0432 86.0332 59.1357Z" fill="#00F281"/>
<path d="M83.4414 66.6029C83.7089 63.946 85.0888 61.5828 86.0322 59.1357C97.0006 68.0432 106.448 78.5867 116.657 88.3191C128.216 99.8414 140.199 110.93 151.73 122.481C144.071 127.375 137.974 134.129 131.779 140.659C120.529 151.86 109.588 163.396 97.6483 173.884C93.0018 178.023 88.637 182.455 84.4552 187.042C84.4411 153.132 84.0891 119.222 84.3003 85.3127C84.3425 79.0621 83.7512 72.8395 83.4414 66.6029Z" fill="#00DEFC"/>
<path d="M83.4371 66.6025C83.7468 72.8391 84.3382 79.0618 84.2959 85.3123C84.0847 119.222 84.4368 153.132 84.4508 187.042C88.6326 182.455 92.9975 178.022 97.644 173.883C109.584 163.396 120.524 151.859 131.774 140.659C137.97 134.128 144.066 127.374 151.726 122.48C161.174 131.793 170.636 141.092 180.069 150.405C170.622 157.397 162.976 166.374 154.5 174.415C138.744 189.992 122.453 205.052 107.218 221.147C99.404 229.747 88.689 236.109 84.2255 247.296C84.8451 235.256 84.127 223.203 84.4086 211.149C84.6339 203.961 83.958 196.788 82.8879 189.684C82.4092 153.034 82.8598 116.369 82.6626 79.719C82.6204 75.3282 82.6204 70.9234 83.4371 66.6025Z" fill="#00DEFC"/>
<path d="M198.432 168.081C210.963 155.72 223.663 143.512 236.307 131.263C237.997 132.242 239.687 133.22 241.348 134.227C239.687 140.618 238.828 147.218 239.25 153.832C239.996 169.997 238.405 186.231 240.348 202.354C236.279 205.095 240.348 202.354 236.279 205.095C223.227 193.195 211.033 180.414 198.432 168.081Z" fill="#FFD145"/>
<path d="M239.249 153.831C238.827 147.217 239.686 140.617 241.347 134.227C254.245 141.232 267.029 148.42 279.828 155.579C285.01 158.558 290.431 163.899 289.023 170.416C287.15 177.561 279.927 180.861 273.999 184.161C262.721 190.104 251.907 196.97 240.348 202.354C238.404 186.231 239.996 169.996 239.249 153.831Z" fill="#FFD145"/>
<path d="M154.501 174.415C162.977 166.374 170.622 157.397 180.07 150.405C186.223 156.264 192.433 162.095 197.769 168.724C160.907 205.262 123.51 241.283 86.5497 277.738C84.0434 273.207 82.3538 268.159 82.6635 262.93C82.8606 238.515 82.4101 214.086 82.8888 189.685C83.9589 196.788 84.6347 203.962 84.4095 211.149C84.1279 223.203 84.8459 235.257 84.2264 247.296C88.6898 236.11 99.4049 229.747 107.219 221.147C122.454 205.052 138.745 189.992 154.501 174.415Z" fill="#00DEFC"/>
<path d="M197.768 168.724L198.43 168.081C211.032 180.414 223.225 193.195 236.278 205.095C192.967 229.3 149.6 253.408 106.233 277.515C100.291 281.305 92.4484 281.976 86.5488 277.739C123.509 241.284 160.906 205.263 197.768 168.724Z" fill="#FF3342"/>
</svg>
