<svg width="1001" height="337" viewBox="0 0 1001 337" fill="none" xmlns="http://www.w3.org/2000/svg">
<g clip-path="url(#clip0)">
<path d="M171.918 96.9627C168.853 68.5396 192.764 41.3277 220.83 38.9531C222.327 54.8077 216.304 70.7343 205.564 82.3074C197.278 91.9497 184.766 98.078 171.918 96.9627Z" fill="white"/>
<path d="M539.703 69.1624C542.098 69.1504 544.481 69.1504 546.875 69.1504C546.899 88.9506 546.875 108.751 546.899 128.551C544.493 128.551 542.098 128.539 539.703 128.539C539.715 108.751 539.703 88.9506 539.703 69.1624Z" fill="white"/>
<path d="M664.41 69.1882C666.792 69.1642 669.187 69.1402 671.582 69.1162C671.785 88.9285 671.139 108.753 671.965 128.541C669.81 128.541 667.667 128.541 665.523 128.553C665.439 126.214 665.356 123.876 665.308 121.549C660.518 130.712 646.473 132.175 639.923 124.235C632.703 115.649 632.919 101.497 639.995 92.8861C645.97 85.4865 658.95 85.0907 664.482 93.2219C664.326 85.2107 664.458 77.1994 664.41 69.1882ZM648.329 94.3972C643.36 97.4554 641.851 103.716 642.007 109.184C642.067 114.269 643.875 120.146 648.844 122.425C654.711 125.603 662.793 121.669 663.979 115.109C664.661 110.408 664.685 105.539 663.931 100.849C662.434 94.2053 654.064 90.7993 648.329 94.3972Z" fill="white"/>
<path d="M830.832 69.1519C833.215 69.1519 835.598 69.1399 837.992 69.1279C837.944 77.487 838.064 85.834 837.92 94.1931C842.183 87.9448 851.187 84.9705 857.833 89.228C861.988 91.9984 864.131 96.9394 864.287 101.833C864.562 110.731 864.31 119.642 864.406 128.553C862.071 128.553 859.76 128.541 857.45 128.541C857.342 120.433 857.629 112.314 857.306 104.207C857.042 100.094 855.594 95.0685 851.175 93.7613C845.165 91.5546 838.316 96.6996 838.1 102.948C837.801 111.475 838.076 120.014 837.992 128.541C835.598 128.541 833.203 128.541 830.832 128.553C830.844 108.752 830.832 88.9522 830.832 69.1519Z" fill="white"/>
<path d="M343.717 72.629C354.589 71.4777 366.383 70.0625 376.501 75.1955C384.822 79.5009 389.049 89.1912 388.87 98.2698C389.217 108.14 385.493 119.029 376.656 124.282C366.79 130.255 354.733 129.151 343.717 128.42C343.717 109.819 343.717 91.23 343.717 72.629ZM350.997 77.8099C350.53 92.813 350.59 107.852 350.973 122.843C358.564 123.527 366.97 123.431 373.376 118.67C379.566 114.004 381.733 105.801 381.446 98.3417C381.542 91.6617 378.848 84.5259 373.016 80.8561C366.503 76.6706 358.373 77.0184 350.997 77.8099Z" fill="white"/>
<path d="M807.913 78.4223C810.224 77.7267 812.559 77.0671 814.894 76.3955C814.918 80.3052 814.906 84.2269 814.93 88.1485C818.354 88.1485 821.767 88.1485 825.203 88.1605C825.191 90.0074 825.191 91.8663 825.203 93.7132C821.767 93.7012 818.33 93.7132 814.894 93.7012C815.001 101.233 814.798 108.776 814.978 116.308C815.037 118.862 815.528 121.944 818.151 123.144C820.234 123.563 822.401 123.264 824.521 123.18C824.58 125.027 824.652 126.874 824.736 128.72C820.449 129.248 815.373 130.363 811.721 127.401C808.332 124.823 808.033 120.217 807.913 116.308C807.865 108.776 807.925 101.245 807.901 93.7132C805.842 93.7132 803.782 93.7012 801.747 93.7012C801.723 91.8423 801.723 89.9954 801.723 88.1485C803.77 88.1485 805.842 88.1485 807.901 88.1365C807.901 84.8985 807.901 81.6604 807.913 78.4223Z" fill="white"/>
<path d="M406.328 88.3284C413.033 86.1097 421.211 87.0931 426.36 92.25C433.173 99.038 433.688 110.311 430.06 118.802C425.594 128.852 412.016 132.306 402.82 126.885C389.074 118.514 390.774 93.7132 406.328 88.3284ZM407.585 94.1209C399.204 99.7216 398.725 113.369 405.227 120.601C409.657 125.614 418.338 124.631 421.834 119.018C426.049 112.602 425.941 103.403 421.571 97.0951C418.601 92.6098 412.123 91.5664 407.585 94.1209Z" fill="white"/>
<path d="M503.148 94.5885C506.776 88.8079 514.164 85.6298 520.761 87.9325C526.76 89.6355 530.029 96.0037 530.256 101.904C530.436 110.791 530.256 119.678 530.328 128.552C527.921 128.54 525.527 128.54 523.144 128.528C523.072 120.025 523.288 111.51 523.048 103.008C522.988 98.87 520.474 94.2647 516.127 93.4732C510.26 92.058 504.262 97.095 503.986 102.972C503.687 111.487 503.962 120.025 503.878 128.54C501.472 128.54 499.077 128.54 496.694 128.552C496.574 115.072 496.97 101.592 496.383 88.1244C498.454 88.1363 500.55 88.1363 502.645 88.1483C502.813 90.2951 503.004 92.4418 503.148 94.5885Z" fill="white"/>
<path d="M568.991 87.7632C575.995 86.0363 584.125 88.147 588.604 94.0355C594.315 101.819 594.423 113.2 589.262 121.295C583.048 130.854 567.698 132.293 559.843 124.03C549.689 113.332 553.377 91.0373 568.991 87.7632ZM568.967 93.7237C561.495 97.4535 560.585 107.336 562.417 114.591C563.938 121.151 571.481 126.176 577.935 122.938C586.317 118.369 587.466 106.328 583.168 98.5568C580.701 93.3879 574.044 91.3371 568.967 93.7237Z" fill="white"/>
<path d="M600.015 90.5C606.133 87.4178 613.581 85.9307 620.131 88.5451C624.956 90.5359 627.542 95.8008 627.806 100.802C628.237 110.048 627.447 119.331 628.452 128.553C626.273 128.553 624.094 128.541 621.915 128.541C621.771 126.862 621.651 125.195 621.52 123.516C617.161 128.961 609.151 131.108 602.829 127.978C595.692 124.14 595.202 113.047 601.236 107.986C606.696 103.32 614.252 102.841 621.101 102.505C620.574 99.1588 620.131 95.0453 616.551 93.5462C611.522 91.5673 605.978 93.2583 601.332 95.477C600.877 93.822 600.446 92.167 600.015 90.5ZM607.427 110.636C603.296 113.322 603.044 120.614 607.451 123.133C612.324 125.603 618.766 122.593 620.466 117.508C621.352 114.27 620.897 110.864 620.969 107.554C616.383 107.95 611.342 107.89 607.427 110.636Z" fill="white"/>
<path d="M710.543 88.3642C717.775 85.8697 726.779 87.3088 731.784 93.4492C737.699 100.693 738.034 111.654 733.868 119.81C728.42 130.315 712.554 132.702 704.113 124.571C693.768 114.593 696.342 93.4372 710.543 88.3642ZM712.626 93.737C704.221 98.3902 703.227 110.767 707.873 118.442C710.998 124.247 719.667 125.818 724.384 121.045C730.192 115.312 730.419 105.502 726.851 98.5222C724.336 93.3772 717.715 91.3384 712.626 93.737Z" fill="white"/>
<path d="M743.494 88.1358C745.637 88.1358 747.793 88.1358 749.948 88.1358C750.044 90.3065 750.163 92.4892 750.247 94.6719C753.911 88.4236 762.125 85.4733 768.878 88.2557C774.374 90.3545 777.236 96.4229 777.451 102.036C777.667 110.874 777.463 119.713 777.535 128.552C775.129 128.54 772.734 128.54 770.351 128.528C770.303 120.457 770.435 112.373 770.303 104.29C770.351 100.069 768.531 95.0437 764.125 93.7005C758.006 91.6137 751.205 96.9026 751.097 103.211C750.87 111.654 751.085 120.097 751.026 128.54C748.607 128.54 746.212 128.552 743.805 128.552C743.686 115.084 744.093 101.592 743.494 88.1358Z" fill="white"/>
<path d="M874.943 95.4028C879.924 86.7679 893.083 84.3214 900.53 91.0614C905.607 95.7146 906.445 103.03 906.134 109.542C896.759 109.626 887.395 109.47 878.032 109.626C878.559 113.932 879.66 118.657 883.468 121.259C889.167 125.205 896.687 123.862 902.817 121.703C903.2 123.538 903.596 125.373 903.967 127.22C895.717 129.774 885.563 131.166 878.295 125.457C869.818 118.189 869.531 104.589 874.943 95.4028ZM884.821 93.5199C880.822 95.6546 879.086 100.164 878.152 104.349C885.288 104.218 892.424 104.385 899.572 104.218C898.878 101.135 898.591 97.6814 896.328 95.2709C893.454 92.1767 888.497 91.8169 884.821 93.5199Z" fill="white"/>
<path d="M434.082 88.136C436.549 88.136 439.027 88.136 441.518 88.148C444.14 99.3853 447.253 110.515 449.756 121.788C452.282 110.359 456.449 99.3734 459.634 88.124C461.693 88.136 463.753 88.148 465.824 88.16C469.021 99.4213 472.984 110.491 475.475 121.944C477.702 110.503 481.115 99.3374 484.276 88.124C486.634 88.136 489.005 88.136 491.388 88.136C487.042 101.592 483.03 115.156 478.54 128.564C476.385 128.552 474.242 128.54 472.11 128.54C468.77 117.698 465.022 106.953 462.424 95.8954C460.101 106.941 456.161 117.591 452.498 128.228C450.366 128.768 448.127 128.48 445.96 128.624C441.961 115.132 438.021 101.64 434.082 88.136Z" fill="white"/>
<path d="M210.906 99.6018C231.644 97.1672 253.676 106.486 265.206 124.187C254.155 131.155 244.815 141.505 241.151 154.265C236.218 171.091 238.637 190.556 249.365 204.707C255.077 212.383 262.812 218.355 271.337 222.613C265.458 241.574 255.376 259.059 242.684 274.254C236.182 281.87 227.322 288.969 216.761 288.586C205.661 288.778 196.31 281.87 185.701 279.807C176.362 277.66 166.603 279.447 157.826 282.949C148.666 286.799 138.345 291.14 128.419 287.494C117.128 282.769 109.501 272.587 102.58 262.921C92.45 249.105 85.0143 233.43 80.0333 217.06C74.1662 198.531 71.8672 178.767 74.238 159.422C76.8363 140.474 85.9842 121.645 101.897 110.455C114.17 101.701 130.263 97.2991 145.038 101.461C154.797 103.979 163.717 109.208 173.703 110.863C186.443 108.333 197.89 101.137 210.906 99.6018Z" fill="white"/>
<path d="M630.463 159.877C640.485 157.166 651.596 157.97 660.996 162.491C659.942 165.705 658.912 168.931 657.942 172.169C649.992 168.176 640.114 166.257 631.732 169.927C623.806 173.513 621.938 185.266 628.379 191.106C636.246 198.422 647.885 199.369 655.943 206.481C668.575 216.183 666.851 238.466 653.105 246.369C640.413 253.769 623.949 252.33 611.197 245.77C612.071 242.412 613.017 239.09 613.963 235.756C620.273 239.27 627.338 241.704 634.63 241.56C640.329 241.632 646.46 239.797 650.064 235.108C654.398 229.004 653.656 219.457 647.729 214.636C640.868 208.784 631.433 207.608 624.153 202.439C618.082 198.554 613.46 192.054 613.005 184.726C611.82 173.537 619.818 162.863 630.463 159.877Z" fill="white"/>
<path d="M383.158 159.638C387.756 159.566 392.366 159.602 396.976 159.578C407.106 189.68 416.924 219.89 427.114 249.956C423.031 249.98 418.96 249.98 414.877 249.98C411.62 240.53 408.734 230.948 405.37 221.521C395.024 221.557 384.667 221.533 374.31 221.545C371.292 231.02 368.143 240.47 365.21 249.98C361.282 249.98 357.355 249.992 353.428 249.956C363.234 219.818 373.46 189.812 383.158 159.638ZM389.66 169.616C386.619 184.247 381.135 198.207 376.681 212.431C385.493 212.443 394.306 212.443 403.119 212.431C398.461 198.219 393.408 184.116 389.66 169.616Z" fill="white"/>
<path d="M681.856 169.483C685.615 168.523 689.339 167.444 693.087 166.4C693.087 172.625 693.087 178.849 693.075 185.073C698.559 185.061 704.031 185.073 709.515 185.073C709.503 188.084 709.503 191.094 709.515 194.116C704.031 194.104 698.559 194.116 693.087 194.116C693.123 206.181 693.027 218.246 693.123 230.31C693.207 234.316 694.045 239.233 698.188 241.032C701.492 242.051 705.025 241.248 708.413 241.128C708.533 244.078 708.665 247.028 708.736 249.991C701.876 251.442 693.626 252.641 687.782 247.82C682.969 243.91 682.023 237.326 681.891 231.51C681.82 219.037 681.903 206.577 681.867 194.116C678.587 194.104 675.318 194.116 672.049 194.104C672.037 191.094 672.037 188.072 672.037 185.061C675.306 185.073 678.587 185.073 681.867 185.073C681.867 179.88 681.88 174.675 681.856 169.483Z" fill="white"/>
<path d="M463.622 185.003C472.746 182.1 483.57 184.175 490.144 191.383C498.513 200.402 500.309 213.774 498.226 225.515C496.693 235.109 491.102 244.595 482.014 248.697C471.429 253.89 457.12 251.311 450.499 241.069C450.714 252.882 450.535 264.695 450.583 276.508C446.787 276.52 442.991 276.52 439.196 276.52C438.992 246.047 439.711 215.561 438.717 185.099C442.201 185.099 445.685 185.099 449.17 185.147C449.302 188.936 449.481 192.714 449.541 196.504C452.882 191.335 457.563 186.73 463.622 185.003ZM463.874 193.925C457.97 195.724 453.432 200.809 451.612 206.626C449.996 211.963 450.714 217.623 450.607 223.116C450.355 229.005 453.085 234.845 457.767 238.407C464.424 243.66 475.021 243.072 480.9 236.896C485.737 232.027 487.174 224.915 487.593 218.307C487.605 210.931 485.893 202.884 480.301 197.667C476.063 193.506 469.477 192.115 463.874 193.925Z" fill="white"/>
<path d="M537.918 184.956C547.592 181.873 559.123 184.62 565.493 192.787C574.318 203.94 575.096 219.879 570.33 232.903C566.571 243.505 556.094 251.528 544.695 251.252C536.72 251.672 529.045 247.57 524.591 241.022C524.795 252.847 524.627 264.684 524.675 276.521C520.879 276.521 517.071 276.509 513.288 276.521C513.072 246.047 513.803 215.561 512.797 185.1C516.281 185.1 519.778 185.1 523.274 185.136C523.43 188.925 523.573 192.715 523.609 196.517C527.022 191.3 531.775 186.659 537.918 184.956ZM540.312 193.363C534.122 194.358 528.842 198.927 526.495 204.684C523.837 210.44 524.818 216.953 524.687 223.093C524.447 229.269 527.489 235.494 532.613 238.948C539.067 243.445 548.646 242.917 554.405 237.496C559.327 232.939 561.135 226.031 561.673 219.567C562.105 212.371 560.488 204.636 555.747 199.035C552.083 194.574 545.964 192.415 540.312 193.363Z" fill="white"/>
<path d="M740.73 184.619C749.973 182.544 760.426 184.151 767.778 190.423C775.19 196.588 778.77 206.422 778.794 215.908C779.117 224.819 776.842 234.149 770.867 240.961C759.947 253.758 738.047 254.921 726.169 242.832C716.555 232.866 714.771 217.215 719.105 204.455C722.182 194.645 730.648 186.729 740.73 184.619ZM742.669 193.374C734.886 195.616 730.528 203.508 729.199 211.015C727.427 220.753 729.414 232.266 737.461 238.779C743.95 244.223 754.32 243.372 759.995 237.124C768.724 227.613 769.083 212.25 762.917 201.289C759.157 194.225 750.201 190.831 742.669 193.374Z" fill="white"/>
<path d="M811.552 186.755C815.204 184.044 819.874 183.588 824.28 183.756C824.316 187.51 824.292 191.264 824.364 195.018C820.042 194.634 815.3 194.886 811.84 197.8C806.356 201.997 804.512 209.193 804.452 215.801C804.404 227.194 804.464 238.588 804.44 249.993C800.656 249.969 796.861 249.969 793.089 249.981C792.945 228.358 793.472 206.723 792.67 185.099C795.963 185.099 799.279 185.099 802.596 185.099C802.728 189.585 802.859 194.082 803.111 198.579C805.003 194.094 807.35 189.489 811.552 186.755Z" fill="white"/>
<path d="M837.213 194.465C846.062 182.316 865.974 179.762 876.93 190.376C884.389 198.039 886.389 209.432 885.323 219.746C870.404 219.782 855.497 219.662 840.59 219.806C841.045 227.254 843.679 235.469 850.659 239.223C859.736 244.032 870.811 242.245 880.079 238.887C880.678 241.729 881.312 244.572 881.947 247.414C873.014 250.928 863.172 252.115 853.689 250.64C844.589 249.129 836.435 242.905 832.83 234.366C827.49 221.509 828.951 205.751 837.213 194.465ZM847.019 197.188C843.272 200.965 841.883 206.266 840.709 211.279C852.012 211.267 863.328 211.291 874.643 211.267C874.212 206.602 873.625 201.649 870.608 197.859C865.231 190.376 852.946 190.412 847.019 197.188Z" fill="white"/>
<path d="M35.3105 0.754232C38.268 0.16658 41.2734 -0.145234 44.2907 -0.157227C348.422 -0.145234 652.542 -0.157226 956.673 -0.145233C965.402 -0.0253046 974.119 2.58914 981.315 7.57818C993.564 15.9732 1001.25 30.7005 1000.96 45.5836C1000.95 127.555 1000.95 209.514 1000.96 291.486C1001.07 298.322 999.36 305.062 996.534 311.238C989.529 326.409 973.497 336.975 956.733 336.867C652.171 336.843 347.608 336.855 43.0455 336.855C26.893 336.771 11.5068 326.829 4.35851 312.401C0.981933 305.961 -0.646486 298.681 -0.550697 291.426C-0.538723 209.095 -0.550699 126.763 -0.538725 44.4323C-0.81412 23.8405 15.0151 4.3521 35.3105 0.754232ZM171.918 96.9611C184.766 98.0765 197.279 91.9481 205.564 82.3058C216.305 70.7327 222.327 54.8062 220.831 38.9516C192.764 41.3262 168.853 68.538 171.918 96.9611ZM539.702 69.1616C539.702 88.9499 539.714 108.75 539.702 128.538C542.097 128.538 544.491 128.55 546.898 128.55C546.874 108.75 546.898 88.9499 546.874 69.1497C544.479 69.1497 542.097 69.1496 539.702 69.1616ZM664.408 69.1856C664.456 77.1969 664.324 85.2081 664.48 93.2194C658.948 85.0882 645.968 85.4839 639.993 92.8836C632.917 101.494 632.701 115.646 639.922 124.233C646.471 132.172 660.516 130.709 665.306 121.547C665.354 123.873 665.438 126.212 665.521 128.55C667.665 128.538 669.808 128.538 671.963 128.538C671.137 108.75 671.784 88.9259 671.58 69.1137C669.185 69.1376 666.791 69.1616 664.408 69.1856ZM830.83 69.1497C830.83 88.9499 830.842 108.75 830.83 128.55C833.201 128.538 835.596 128.538 837.99 128.538C838.074 120.011 837.799 111.473 838.098 102.946C838.314 96.6973 845.163 91.5523 851.173 93.759C855.592 95.0663 857.04 100.091 857.304 104.205C857.627 112.312 857.34 120.431 857.448 128.538C859.758 128.538 862.069 128.55 864.404 128.55C864.308 119.64 864.56 110.729 864.285 101.83C864.129 96.9371 861.986 91.9961 857.831 89.2257C851.185 84.9683 842.181 87.9425 837.918 94.1908C838.062 85.8317 837.942 77.4847 837.99 69.1257C835.596 69.1376 833.213 69.1497 830.83 69.1497ZM343.717 72.6276C343.717 91.2285 343.717 109.818 343.717 128.418C354.732 129.15 366.79 130.253 376.656 124.281C385.493 119.028 389.217 108.139 388.869 98.2684C389.049 89.1898 384.822 79.4995 376.501 75.1941C366.383 70.0611 354.589 71.4763 343.717 72.6276ZM807.912 78.4201C807.9 81.6582 807.9 84.8963 807.9 88.1344C805.841 88.1464 803.77 88.1464 801.722 88.1464C801.722 89.9933 801.722 91.8402 801.746 93.6991C803.782 93.6991 805.841 93.7111 807.9 93.7111C807.924 101.243 807.865 108.774 807.912 116.306C808.032 120.215 808.331 124.821 811.72 127.399C815.372 130.361 820.449 129.246 824.735 128.718C824.652 126.871 824.58 125.024 824.52 123.178C822.401 123.262 820.233 123.561 818.15 123.142C815.528 121.942 815.037 118.86 814.977 116.306C814.797 108.774 815.001 101.231 814.893 93.6991C818.33 93.7111 821.766 93.6991 825.202 93.7111C825.19 91.8642 825.19 90.0053 825.202 88.1584C821.766 88.1464 818.353 88.1464 814.929 88.1464C814.905 84.2247 814.917 80.303 814.893 76.3933C812.558 77.0649 810.223 77.7245 807.912 78.4201ZM406.327 88.3263C390.773 93.7111 389.073 118.512 402.819 126.883C412.015 132.304 425.593 128.85 430.059 118.8C433.687 110.309 433.172 99.0359 426.359 92.2479C421.21 87.091 413.032 86.1076 406.327 88.3263ZM503.146 94.5865C503.003 92.4398 502.811 90.2931 502.643 88.1464C500.548 88.1344 498.453 88.1344 496.381 88.1224C496.968 101.59 496.573 115.07 496.692 128.55C499.075 128.538 501.47 128.538 503.877 128.538C503.96 120.023 503.685 111.485 503.984 102.97C504.26 97.0931 510.259 92.056 516.126 93.4712C520.472 94.2627 522.987 98.868 523.047 103.006C523.286 111.508 523.07 120.023 523.142 128.526C525.525 128.538 527.92 128.538 530.327 128.55C530.255 119.676 530.434 110.789 530.255 101.902C530.027 96.0017 526.758 89.6335 520.76 87.9305C514.162 85.6279 506.774 88.806 503.146 94.5865ZM568.99 87.7626C553.376 91.0367 549.688 113.331 559.842 124.029C567.696 132.292 583.047 130.853 589.261 121.295C594.422 113.199 594.314 101.818 588.602 94.0349C584.124 88.1464 575.994 86.0356 568.99 87.7626ZM600.013 90.497C600.444 92.164 600.875 93.819 601.331 95.474C605.976 93.2553 611.52 91.5643 616.549 93.5432C620.129 95.0423 620.572 99.1558 621.099 102.502C614.25 102.838 606.695 103.317 601.235 107.983C595.2 113.044 595.691 124.137 602.827 127.975C609.149 131.105 617.16 128.958 621.518 123.513C621.65 125.192 621.77 126.859 621.913 128.538C624.092 128.538 626.272 128.55 628.451 128.55C627.445 119.328 628.235 110.045 627.804 100.799C627.541 95.7978 624.954 90.533 620.129 88.5421C613.579 85.9277 606.132 87.4148 600.013 90.497ZM710.542 88.3622C696.342 93.4352 693.767 114.591 704.113 124.569C712.554 132.7 728.419 130.313 733.867 119.808C738.034 111.652 737.699 100.691 731.784 93.4472C726.779 87.3069 717.774 85.8677 710.542 88.3622ZM743.494 88.1344C744.093 101.59 743.686 115.082 743.805 128.55C746.212 128.55 748.607 128.538 751.025 128.538C751.085 120.095 750.87 111.652 751.097 103.209C751.205 96.9012 758.006 91.6123 764.125 93.6991C768.531 95.0423 770.351 100.067 770.303 104.289C770.435 112.372 770.303 120.455 770.351 128.526C772.734 128.538 775.128 128.538 777.535 128.55C777.463 119.712 777.667 110.873 777.451 102.034C777.236 96.4215 774.374 90.3531 768.878 88.2543C762.125 85.4719 753.911 88.4222 750.247 94.6705C750.163 92.4878 750.044 90.3051 749.948 88.1344C747.793 88.1344 745.637 88.1344 743.494 88.1344ZM874.941 95.4021C869.529 104.589 869.816 118.189 878.294 125.456C885.562 131.165 895.715 129.774 903.965 127.219C903.594 125.372 903.199 123.537 902.816 121.702C896.685 123.861 889.166 125.204 883.466 121.259C879.659 118.656 878.557 113.931 878.03 109.626C887.394 109.47 896.757 109.626 906.133 109.542C906.444 103.03 905.606 95.7139 900.529 91.0606C893.081 84.3206 879.922 86.7672 874.941 95.4021ZM434.082 88.1344C438.021 101.638 441.961 115.13 445.96 128.622C448.127 128.478 450.366 128.766 452.498 128.227C456.161 117.589 460.101 106.939 462.424 95.8938C465.022 106.951 468.77 117.697 472.11 128.538C474.242 128.538 476.385 128.55 478.54 128.562C483.03 115.154 487.042 101.59 491.388 88.1344C489.005 88.1344 486.635 88.1344 484.276 88.1224C481.115 99.3357 477.702 110.501 475.475 121.942C472.985 110.489 469.021 99.4197 465.824 88.1584C463.753 88.1464 461.693 88.1344 459.634 88.1224C456.449 99.3717 452.282 110.357 449.756 121.786C447.253 110.513 444.14 99.3837 441.518 88.1464C439.027 88.1344 436.549 88.1344 434.082 88.1344ZM210.905 99.5996C197.889 101.135 186.442 108.33 173.702 110.861C163.716 109.206 154.796 103.977 145.037 101.458C130.262 97.2969 114.169 101.698 101.896 110.453C85.9831 121.642 76.8352 140.471 74.2369 159.42C71.8661 178.765 74.1651 198.529 80.0322 217.058C85.0132 233.428 92.4489 249.103 102.579 262.919C109.499 272.585 117.127 282.767 128.418 287.492C138.344 291.138 148.665 286.796 157.825 282.947C166.602 279.445 176.36 277.658 185.7 279.805C196.309 281.867 205.66 288.775 216.76 288.583C227.32 288.967 236.181 281.867 242.683 274.252C255.375 259.057 265.457 241.571 271.336 222.611C262.81 218.353 255.075 212.381 249.364 204.705C238.636 190.554 236.217 171.089 241.15 154.263C244.814 141.503 254.153 131.153 265.205 124.185C253.675 106.483 231.643 97.165 210.905 99.5996ZM630.462 159.876C619.818 162.862 611.819 173.536 613.005 184.725C613.46 192.053 618.082 198.553 624.152 202.439C631.432 207.607 640.868 208.783 647.729 214.635C653.655 219.456 654.398 229.003 650.063 235.107C646.459 239.796 640.329 241.631 634.629 241.559C627.337 241.703 620.273 239.269 613.963 235.755C613.017 239.089 612.071 242.411 611.197 245.769C623.949 252.329 640.413 253.768 653.105 246.368C666.85 238.465 668.575 216.182 655.942 206.48C647.884 199.368 636.246 198.421 628.379 191.105C621.937 185.265 623.805 173.512 631.732 169.926C640.113 166.256 649.992 168.175 657.942 172.169C658.912 168.93 659.942 165.704 660.995 162.49C651.596 157.969 640.484 157.165 630.462 159.876ZM383.158 159.636C373.459 189.81 363.234 219.816 353.427 249.954C357.355 249.99 361.282 249.978 365.209 249.978C368.143 240.468 371.292 231.018 374.309 221.543C384.667 221.531 395.024 221.555 405.369 221.519C408.734 230.946 411.619 240.528 414.876 249.978C418.959 249.978 423.03 249.978 427.113 249.954C416.924 219.888 407.105 189.678 396.976 159.576C392.366 159.6 387.756 159.564 383.158 159.636ZM681.854 169.482C681.877 174.675 681.865 179.88 681.865 185.073C678.585 185.073 675.304 185.073 672.035 185.061C672.035 188.071 672.035 191.093 672.047 194.104C675.316 194.115 678.585 194.103 681.865 194.115C681.901 206.576 681.818 219.037 681.889 231.509C682.021 237.326 682.967 243.91 687.78 247.82C693.624 252.641 701.873 251.441 708.734 249.99C708.663 247.028 708.531 244.078 708.411 241.128C705.023 241.248 701.49 242.051 698.186 241.032C694.043 239.233 693.205 234.316 693.121 230.31C693.025 218.245 693.121 206.18 693.085 194.115C698.557 194.115 704.029 194.103 709.513 194.115C709.501 191.093 709.501 188.083 709.513 185.073C704.029 185.073 698.557 185.061 693.073 185.073C693.085 178.849 693.085 172.624 693.085 166.4C689.337 167.443 685.613 168.523 681.854 169.482ZM463.621 185.001C457.562 186.728 452.881 191.333 449.54 196.502C449.48 192.712 449.301 188.935 449.169 185.145C445.685 185.097 442.2 185.097 438.716 185.097C439.71 215.559 438.991 246.045 439.195 276.519C442.99 276.519 446.786 276.519 450.582 276.507C450.534 264.694 450.713 252.881 450.498 241.068C457.119 251.31 471.428 253.888 482.013 248.695C491.101 244.594 496.692 235.107 498.225 225.513C500.309 213.772 498.512 200.4 490.143 191.381C483.569 184.173 472.745 182.099 463.621 185.001ZM537.918 184.953C531.775 186.656 527.022 191.297 523.609 196.514C523.573 192.712 523.43 188.923 523.274 185.133C519.778 185.097 516.281 185.097 512.797 185.097C513.803 215.559 513.072 246.045 513.288 276.519C517.072 276.507 520.879 276.519 524.675 276.519C524.627 264.682 524.795 252.845 524.591 241.02C529.045 247.568 536.72 251.669 544.695 251.25C556.094 251.525 566.571 243.502 570.331 232.9C575.096 219.876 574.318 203.938 565.493 192.784C559.123 184.617 547.593 181.871 537.918 184.953ZM740.728 184.617C730.646 186.728 722.181 194.643 719.104 204.453C714.769 217.214 716.553 232.864 726.168 242.831C738.046 254.919 759.946 253.756 770.866 240.96C776.841 234.148 779.116 224.817 778.792 215.907C778.768 206.42 775.188 196.586 767.777 190.422C760.425 184.149 749.972 182.542 740.728 184.617ZM811.552 186.752C807.35 189.486 805.003 194.091 803.111 198.577C802.859 194.08 802.728 189.582 802.596 185.097C799.279 185.097 795.963 185.097 792.67 185.097C793.472 206.72 792.945 228.355 793.089 249.978C796.861 249.966 800.656 249.966 804.44 249.99C804.464 238.585 804.404 227.192 804.452 215.799C804.512 209.191 806.356 201.995 811.84 197.797C815.3 194.883 820.042 194.631 824.364 195.015C824.292 191.261 824.316 187.507 824.28 183.754C819.874 183.586 815.204 184.041 811.552 186.752ZM837.212 194.463C828.95 205.749 827.489 221.507 832.83 234.364C836.434 242.903 844.588 249.127 853.688 250.638C863.171 252.113 873.013 250.926 881.946 247.412C881.311 244.57 880.677 241.727 880.078 238.885C870.81 242.243 859.734 244.03 850.658 239.221C843.678 235.467 841.044 227.252 840.589 219.804C855.496 219.66 870.403 219.78 885.322 219.744C886.388 209.43 884.388 198.037 876.929 190.374C865.973 179.76 846.061 182.314 837.212 194.463Z" fill="#040606"/>
<path d="M350.997 77.8093C358.373 77.0177 366.503 76.6699 373.017 80.8555C378.848 84.5253 381.542 91.661 381.446 98.3411C381.733 105.801 379.566 114.004 373.376 118.669C366.97 123.43 358.564 123.526 350.973 122.843C350.59 107.851 350.53 92.8123 350.997 77.8093Z" fill="#040606"/>
<path d="M884.82 93.5202C888.495 91.8172 893.453 92.177 896.326 95.2712C898.589 97.6818 898.877 101.136 899.571 104.218C892.423 104.386 885.287 104.218 878.15 104.35C879.084 100.164 880.82 95.655 884.82 93.5202Z" fill="#040606"/>
<path d="M407.585 94.1193C412.123 91.5648 418.601 92.6082 421.57 97.0935C425.941 103.402 426.048 112.6 421.834 119.016C418.337 124.629 409.656 125.613 405.226 120.6C398.724 113.368 399.203 99.7199 407.585 94.1193Z" fill="#040606"/>
<path d="M568.965 93.7234C574.042 91.3368 580.7 93.3876 583.166 98.5566C587.465 106.328 586.315 118.369 577.934 122.938C571.48 126.176 563.936 121.151 562.416 114.591C560.584 107.335 561.494 97.4532 568.965 93.7234Z" fill="#040606"/>
<path d="M648.327 94.3952C654.062 90.7973 662.432 94.2033 663.929 100.847C664.683 105.537 664.659 110.406 663.976 115.107C662.791 121.667 654.709 125.601 648.842 122.423C643.873 120.144 642.065 114.267 642.005 109.182C641.849 103.714 643.358 97.4534 648.327 94.3952Z" fill="#040606"/>
<path d="M712.626 93.7338C717.715 91.3352 724.336 93.374 726.851 98.519C730.419 105.499 730.191 115.309 724.384 121.042C719.666 125.815 710.998 124.244 707.872 118.439C703.227 110.764 704.22 98.3871 712.626 93.7338Z" fill="#040606"/>
<path d="M607.424 110.634C611.34 107.888 616.381 107.948 620.967 107.552C620.895 110.862 621.35 114.268 620.464 117.506C618.764 122.591 612.322 125.601 607.448 123.131C603.042 120.612 603.293 113.32 607.424 110.634Z" fill="#040606"/>
<path d="M389.659 169.614C393.407 184.114 398.46 198.217 403.118 212.429C394.305 212.441 385.492 212.441 376.68 212.429C381.134 198.205 386.618 184.246 389.659 169.614Z" fill="#040606"/>
<path d="M847.019 197.186C852.946 190.41 865.231 190.374 870.607 197.858C873.625 201.647 874.212 206.601 874.643 211.266C863.327 211.29 852.012 211.266 840.709 211.278C841.882 206.265 843.271 200.964 847.019 197.186Z" fill="#040606"/>
<path d="M463.872 193.925C469.476 192.114 476.062 193.505 480.3 197.666C485.892 202.883 487.604 210.931 487.592 218.306C487.173 224.914 485.736 232.026 480.899 236.895C475.02 243.071 464.423 243.659 457.766 238.406C453.084 234.844 450.354 229.004 450.605 223.115C450.713 217.622 449.995 211.962 451.611 206.625C453.431 200.809 457.969 195.724 463.872 193.925Z" fill="#040606"/>
<path d="M540.313 193.361C545.965 192.414 552.083 194.573 555.747 199.034C560.489 204.635 562.105 212.37 561.674 219.566C561.135 226.03 559.327 232.938 554.406 237.495C548.647 242.916 539.068 243.444 532.614 238.946C527.489 235.492 524.448 229.268 524.687 223.092C524.819 216.951 523.837 210.439 526.495 204.683C528.842 198.926 534.123 194.357 540.313 193.361Z" fill="#040606"/>
<path d="M742.669 193.373C750.201 190.83 759.157 194.224 762.917 201.288C769.083 212.249 768.724 227.612 759.995 237.123C754.32 243.371 743.95 244.222 737.461 238.778C729.414 232.266 727.427 220.752 729.199 211.014C730.528 203.507 734.886 195.615 742.669 193.373Z" fill="#040606"/>
</g>
<defs>
<clipPath id="clip0">
<rect width="1001" height="337" fill="white"/>
</clipPath>
</defs>
</svg>
