<svg width="51" height="51" viewBox="0 0 51 51" fill="none" xmlns="http://www.w3.org/2000/svg">
<circle cx="25.6037" cy="25.2824" r="25.2248" fill="#D6652D"/>
<g clip-path="url(#clip0)">
<path d="M43.7019 28.2101C43.6248 27.9757 43.4274 27.7659 43.2493 27.5755C42.1805 26.4284 40.9865 25.3887 40.1632 24.0366C39.3976 22.7772 38.9403 21.3568 38.714 19.9022C38.0062 15.3382 34.1209 11.5455 30.0477 9.71992C22.3781 6.28353 13.3604 9.26596 9.49915 16.5195C6.61522 21.9328 6.67299 28.6152 10.1299 33.3305C12.1183 36.064 15.2285 37.9725 18.6517 38.5827C22.3492 39.2319 26.2057 38.324 28.9741 36.1518C33.2109 32.8082 34.352 26.321 31.5162 21.6838C29.6337 18.6038 26.1768 16.9002 22.7103 17.3639C19.162 17.8228 16.5092 20.3903 16.1288 23.7486C15.9892 24.9396 16.1818 26.0769 16.6488 27.0288C17.4528 28.9715 19.1668 29.4499 20.1105 29.567C20.1442 29.5719 20.1731 29.5719 20.2116 29.5768C20.3849 29.5914 20.5293 29.5963 20.6256 29.6012H20.6786C20.7364 29.6012 20.7749 29.5963 20.7749 29.5963C20.7749 29.5963 23.7455 29.7769 24.8962 27.0239L25.0984 26.5651H29.6192C29.4989 27.4046 29.2967 28.1661 29.0222 28.8348C28.9597 28.952 28.9115 29.0545 28.8778 29.1424C28.613 29.7281 28.2423 30.3187 27.7801 30.9045C27.3516 31.4414 26.8749 31.9247 26.355 32.3493C24.795 33.6282 22.8981 34.3604 21.006 34.3702C20.9819 34.3702 20.9675 34.3702 20.9675 34.3702C18.5987 34.3702 16.177 33.3109 14.4774 31.5342C13.6204 30.6263 12.9223 29.5036 12.4601 28.2833C10.8761 24.061 12.0798 19.292 15.5222 16.1436C19.1668 12.8097 24.8095 12.0483 29.2485 14.3034C30.1826 14.7818 31.0444 15.3333 31.8051 15.9484C35.233 18.7014 37.13 22.6845 37.1348 27.1655C37.1444 32.0418 34.8768 36.8059 31.0588 39.9055C30.3077 40.5157 26.5764 42.8831 22.6477 44.1424L22.5803 44.1375C22.46 44.1912 22.3204 44.24 22.1663 44.2937C21.5597 44.4743 20.9482 44.6257 20.3464 44.733V44.7623C19.6675 44.9088 19.1283 45.0015 19.1283 45.0015V50.5027H32.5465C32.5128 47.2029 34.3327 43.3468 37.4718 42.0191C38.401 41.6237 39.3543 41.3308 40.1583 40.6865C40.7168 40.2374 40.9191 39.6907 40.7361 38.9781C40.558 38.3142 40.4328 37.6455 40.2835 36.9768C40.1824 36.4886 40.2161 36.0493 40.7217 35.8004C40.8035 35.7564 40.8661 35.6832 40.9431 35.6344C41.3764 35.3025 41.3235 34.9315 40.8276 34.7021C40.6687 34.6338 40.5339 34.502 40.3991 34.3995C40.4039 34.3653 40.4183 34.336 40.4328 34.297C40.7313 34.1749 41.025 34.0382 41.3187 33.9357C41.9012 33.7258 42.0457 33.267 41.6701 32.7642C41.4294 32.4421 41.155 32.1346 40.9431 31.7929C40.6109 31.2657 40.7217 30.8362 41.2513 30.5384C41.8723 30.1918 42.4982 29.8746 43.1338 29.5475C43.6971 29.2644 43.9089 28.8153 43.7019 28.2101Z" fill="white"/>
</g>
<defs>
<clipPath id="clip0">
<rect width="36.35" height="42.2129" fill="white" transform="translate(7.42773 8.29395)"/>
</clipPath>
</defs>
</svg>
