<svg width="31" height="31" viewBox="0 0 31 31" fill="none" xmlns="http://www.w3.org/2000/svg">
<g clip-path="url(#clip0)">
<path d="M18.3401 15.5253L30.4109 3.45416C31.1964 2.66898 31.1964 1.39945 30.4109 0.614275C29.6257 -0.170904 28.3562 -0.170904 27.571 0.614275L15.4998 12.6854L3.42904 0.614275C2.6435 -0.170904 1.37434 -0.170904 0.58916 0.614275C-0.196387 1.39945 -0.196387 2.66898 0.58916 3.45416L12.6599 15.5253L0.58916 27.5965C-0.196387 28.3817 -0.196387 29.6512 0.58916 30.4364C0.980462 30.828 1.49497 31.0248 2.0091 31.0248C2.52324 31.0248 3.03737 30.828 3.42904 30.4364L15.4998 18.3652L27.571 30.4364C27.9627 30.828 28.4768 31.0248 28.9909 31.0248C29.5051 31.0248 30.0192 30.828 30.4109 30.4364C31.1964 29.6512 31.1964 28.3817 30.4109 27.5965L18.3401 15.5253Z" fill="#6590FF"/>
</g>
<defs>
<clipPath id="clip0">
<rect width="31" height="31" fill="white"/>
</clipPath>
</defs>
</svg>
