<svg width="35" height="35" viewBox="0 0 35 35" fill="none" xmlns="http://www.w3.org/2000/svg">
<g clip-path="url(#clip0)">
<path d="M28.7496 17.4998C28.0592 17.4998 27.4996 18.0594 27.4996 18.7498V31.2496C27.4996 31.94 26.94 32.4996 26.2496 32.4996H3.74995C3.05958 32.4996 2.49994 31.94 2.49994 31.2496V6.24995C2.49994 5.55958 3.05958 4.99994 3.74995 4.99994H18.7498C19.4401 4.99994 19.9998 4.44031 19.9998 3.74993C19.9998 3.05956 19.4401 2.5 18.7498 2.5H3.74995C1.67891 2.5 0 4.17891 0 6.24995V31.2496C0 33.3206 1.67891 34.9995 3.74995 34.9995H26.2497C28.3207 34.9995 29.9996 33.3206 29.9996 31.2496V18.7497C29.9996 18.0594 29.44 17.4998 28.7496 17.4998Z" fill="#6590FF"/>
<path d="M33.5983 1.40171C32.7008 0.504066 31.4835 -0.000126706 30.2141 1.9776e-05C28.944 -0.00364229 27.7254 0.501429 26.8304 1.40252L10.3656 17.866C10.229 18.0036 10.1259 18.1709 10.0643 18.3547L7.56441 25.8546C7.34622 26.5096 7.70034 27.2174 8.35534 27.4355C8.48241 27.4779 8.61549 27.4995 8.74938 27.4996C8.88355 27.4994 9.01693 27.4779 9.14437 27.4359L16.6443 24.9359C16.8285 24.8744 16.9958 24.7709 17.133 24.6335L33.5978 8.16869C35.4665 6.30016 35.4668 3.27046 33.5983 1.40171ZM31.8303 6.4024L15.5805 22.6522L10.7256 24.2734L12.3418 19.4247L28.5978 3.17495C29.4915 2.28302 30.9391 2.28449 31.8311 3.17818C32.2571 3.6051 32.4972 4.18305 32.499 4.78619C32.5006 5.39255 32.2598 5.97438 31.8303 6.4024Z" fill="#6590FF"/>
</g>
<defs>
<clipPath id="clip0">
<rect width="35" height="35" fill="white"/>
</clipPath>
</defs>
</svg>
