<svg width="35" height="35" viewBox="0 0 35 35" fill="none" xmlns="http://www.w3.org/2000/svg">
<path d="M29.7993 5.08263C26.5114 1.80698 22.1375 0.00186921 17.4824 0C12.8377 0 8.4568 1.80351 5.14725 5.07835C1.83182 8.3588 0.00427246 12.7183 0 17.3379V17.3433V17.3465C0.000534058 20.1425 0.73513 22.9631 2.12955 25.5378L0.0477982 35L9.61891 32.8229C12.043 34.0446 14.7477 34.6886 17.4757 34.6897H17.4826C22.1265 34.6897 26.5074 32.8859 29.8175 29.6108C33.1359 26.3277 34.9642 21.9738 34.9664 17.3513C34.9677 12.7613 33.1329 8.4042 29.7993 5.08263ZM17.4824 31.958H17.4762C15.0268 31.9569 12.5998 31.342 10.4579 30.1791L10.0053 29.9334L3.64094 31.381L5.02335 25.0983L4.75685 24.6387C3.43185 22.3538 2.7317 19.8314 2.7317 17.3435C2.73678 9.29073 9.35322 2.7317 17.4818 2.7317C21.4088 2.73331 25.0986 4.25564 27.8714 7.01778C30.6861 9.82265 32.2357 13.4922 32.2344 17.3505C32.2312 25.4051 25.6134 31.958 17.4824 31.958Z" fill="#6590FF"/>
<path d="M12.7207 9.69531H11.9543C11.6875 9.69531 11.2544 9.79518 10.888 10.1939C10.5214 10.5928 9.48828 11.557 9.48828 13.5181C9.48828 15.4792 10.9214 17.374 11.1212 17.6402C11.3212 17.9062 13.8876 22.059 17.9523 23.6566C21.3305 24.9843 22.0181 24.7202 22.7511 24.6537C23.4843 24.5875 25.1172 23.6898 25.4505 22.7592C25.7837 21.8286 25.7837 21.0307 25.6838 20.8641C25.5837 20.698 25.3169 20.5984 24.9172 20.3992C24.5172 20.1997 22.5572 19.2192 22.1906 19.0859C21.8239 18.9532 21.5574 18.8867 21.2907 19.2859C21.0239 19.6843 20.2386 20.6061 20.0052 20.8721C19.7721 21.1383 19.5387 21.1717 19.1387 20.9722C18.7387 20.7722 17.4639 20.3439 15.9362 18.9863C14.7471 17.9297 13.922 16.5823 13.6886 16.1833C13.4555 15.7846 13.6638 15.5689 13.8643 15.3699C14.0441 15.1916 14.2868 14.9475 14.4868 14.7149C14.6865 14.4821 14.7434 14.316 14.8769 14.05C15.0102 13.7841 14.9434 13.5512 14.8435 13.352C14.7434 13.1525 13.976 11.1816 13.6203 10.3933H13.6206C13.3209 9.72949 13.0056 9.70706 12.7207 9.69531Z" fill="#6590FF"/>
</svg>
