<svg width="400" height="361" viewBox="0 0 400 361" fill="none" xmlns="http://www.w3.org/2000/svg">
<g clip-path="url(#clip0)">
<path fill-rule="evenodd" clip-rule="evenodd" d="M301.804 73.1858C341.936 118.902 307.847 184.145 276.653 236.45C244.964 289.585 203.979 351.358 143.466 338.681C80.8672 325.567 55.6805 253.816 54.3029 189.869C53.1976 138.561 91.4083 100.244 137.858 78.3454C192.556 52.5581 261.954 27.7926 301.804 73.1858Z" fill="#E0E9FF"/>
<g clip-path="url(#clip1)">
<path d="M291.961 340.633H337.001L315.994 159.482L291.961 340.633Z" fill="#E0E0E0"/>
<path d="M70.3061 159.482L41 342.797L291.269 345.999L315.993 159.482H70.3061Z" fill="#FAFAFA"/>
<path d="M304.841 243.436H56.9062L62.2661 209.682H309.336L304.841 243.436Z" fill="#EBEBEB"/>
<path d="M304.841 243.436H56.9062L62.2661 209.682H309.336L304.841 243.436ZM56.9062 243.436H304.841L309.336 209.682H62.3525L56.9062 243.436Z" fill="#263238"/>
<path d="M70.3053 159.482L62.2656 209.682H309.336L315.992 159.482H70.3053Z" fill="#6590FF"/>
<path d="M70.3061 159.482C72.1215 159.482 170.414 159.395 315.993 159.309H316.252V159.568C308.991 214.182 300.778 276.152 292.133 341.584V341.757H291.96C291.096 341.757 290.145 341.757 289.107 341.757C196.694 341.757 111.11 341.757 41.2593 341.757H41V341.584C58.8084 231.232 70.0467 160.953 70.3061 159.482C70.0467 160.953 58.8949 231.319 41.3458 341.498L41.1729 341.325C110.937 341.325 196.607 341.325 289.021 341.325C289.972 341.325 290.923 341.325 291.874 341.325L291.615 341.498C300.346 276.065 308.558 214.095 315.82 159.482L315.993 159.741C170.414 159.568 72.1215 159.482 70.3061 159.482Z" fill="#263238"/>
<path d="M309.336 209.682C309.336 209.768 254.009 209.941 185.801 209.941C117.593 209.941 62.2656 209.855 62.2656 209.682C62.2656 209.508 117.593 209.422 185.801 209.422C254.009 209.422 309.336 209.595 309.336 209.682Z" fill="#263238"/>
<path d="M304.842 243.435C304.842 243.522 249.256 243.695 180.615 243.695C111.975 243.695 56.3887 243.609 56.3887 243.435C56.3887 243.262 111.975 243.176 180.615 243.176C249.256 243.176 304.842 243.349 304.842 243.435Z" fill="#263238"/>
<path d="M299.826 274.508C299.826 274.594 244.24 274.767 175.6 274.767C106.959 274.767 51.373 274.594 51.373 274.508C51.373 274.421 106.959 274.248 175.6 274.248C244.153 274.248 299.826 274.335 299.826 274.508Z" fill="#263238"/>
<path d="M294.727 305.58C294.727 305.667 239.14 305.84 170.5 305.84C101.86 305.84 46.2734 305.753 46.2734 305.58C46.2734 305.493 101.86 305.32 170.5 305.32C239.14 305.32 294.727 305.407 294.727 305.58Z" fill="#263238"/>
<path d="M76.0989 341.757C76.0124 341.757 80.5078 312.157 86.2134 275.719C91.919 239.282 96.6736 209.681 96.7601 209.768C96.8465 209.768 92.3512 239.368 86.6456 275.806C81.0265 312.157 76.2718 341.757 76.0989 341.757Z" fill="#263238"/>
<path d="M114.396 341.757C114.309 341.757 118.805 312.157 124.51 275.719C130.216 239.282 134.971 209.681 135.057 209.768C135.143 209.768 130.648 239.368 124.942 275.806C119.237 312.157 114.482 341.757 114.396 341.757Z" fill="#263238"/>
<path d="M149.925 340.372C149.839 340.372 154.334 311.031 159.953 274.939C165.659 238.848 170.327 209.594 170.413 209.594C170.5 209.594 166.004 238.848 160.385 275.026C154.68 311.204 150.012 340.458 149.925 340.372Z" fill="#263238"/>
<path d="M185.023 341.41C184.936 341.41 189.432 311.897 195.137 275.459C200.843 239.107 205.597 209.594 205.684 209.594C205.77 209.594 201.275 239.108 195.569 275.545C189.864 311.983 185.196 341.497 185.023 341.41Z" fill="#263238"/>
<path d="M220.38 341.41C220.294 341.41 224.789 311.897 230.495 275.459C236.2 239.107 240.955 209.594 241.041 209.594C241.128 209.594 236.632 239.108 230.927 275.545C225.221 311.983 220.467 341.497 220.38 341.41Z" fill="#263238"/>
<path d="M255.652 341.671C255.565 341.671 260.061 312.071 265.766 275.633C271.472 239.195 276.226 209.682 276.313 209.682C276.399 209.682 271.904 239.282 266.198 275.72C260.493 312.158 255.738 341.671 255.652 341.671Z" fill="#263238"/>
<g opacity="0.2">
<g opacity="0.2">
<path opacity="0.2" d="M233.436 212.019C237.672 210.115 240.351 205.7 241.475 201.2C242.599 196.699 242.426 191.939 242.599 187.265C242.772 182.591 243.291 177.831 245.711 173.763C247.094 171.426 249.083 169.436 250.639 167.185C252.195 164.935 253.319 162.165 252.8 159.482L226.174 159.656L233.436 212.019Z" fill="black"/>
</g>
</g>
<path d="M123.039 245.947C123.039 245.947 122.953 246.034 122.78 246.293C122.52 246.553 122.261 246.813 122.002 247.159C121.31 247.851 120.273 248.89 118.976 250.188C116.383 252.698 112.752 256.074 108.689 259.709C104.626 263.344 100.735 266.546 97.969 268.797C96.5858 269.922 95.462 270.787 94.5975 271.393C94.2517 271.653 93.9059 271.912 93.6466 272.086C93.4737 272.259 93.3008 272.345 93.3008 272.345C93.3008 272.345 93.3872 272.259 93.5601 272.086C93.8195 271.912 94.0788 271.653 94.4246 271.307C95.2891 270.614 96.3265 269.662 97.7097 268.537C100.476 266.2 104.193 262.998 108.343 259.363C112.406 255.727 116.123 252.352 118.717 249.929C120.013 248.717 121.051 247.765 121.829 247.072C122.175 246.726 122.434 246.553 122.693 246.293C122.953 246.034 123.039 245.947 123.039 245.947Z" fill="#263238"/>
<path d="M121.138 272.518C121.138 272.518 120.706 272.172 120.101 271.48C119.409 270.701 118.458 269.749 117.421 268.623C115.087 266.113 111.974 262.825 108.517 259.103C105.059 255.468 101.86 252.092 99.5259 249.669C98.402 248.544 97.5376 247.505 96.7595 246.813C96.1544 246.12 95.8086 245.774 95.8086 245.688C95.8086 245.688 96.2408 246.034 96.9324 246.64C97.624 247.245 98.5749 248.197 99.7852 249.409C102.119 251.746 105.404 255.035 108.862 258.757C112.32 262.478 115.432 265.854 117.68 268.364C118.804 269.575 119.668 270.614 120.274 271.306C120.792 272.085 121.138 272.518 121.138 272.518Z" fill="#263238"/>
<path d="M130.3 253.908C130.3 253.908 130.387 253.649 130.56 253.216C130.733 252.783 131.078 252.177 131.597 251.398C132.635 249.927 134.623 247.85 137.994 246.638C138.859 246.378 139.723 246.119 140.674 245.946C141.625 245.773 142.663 245.773 143.786 245.859C145.948 246.032 148.195 246.811 150.357 248.109C152.518 249.408 154.506 251.312 155.976 253.735C157.445 256.159 158.569 259.101 158.31 262.304C158.223 263.862 157.705 265.506 156.84 266.891C155.976 268.276 154.765 269.574 153.296 270.526C150.357 272.43 146.726 273.382 143.008 273.209C141.107 273.123 139.291 272.69 137.476 271.997C135.66 271.305 134.018 270.18 132.635 268.708C131.943 267.93 131.424 267.151 130.992 266.199C130.56 265.246 130.3 264.294 130.128 263.256C129.782 261.179 130.041 259.101 130.646 257.111C131.857 253.129 134.796 249.494 138.686 247.417C142.49 245.253 147.504 244.994 151.653 246.811C153.728 247.677 155.63 249.148 157.1 250.966C158.569 252.783 159.434 255.12 159.693 257.457C159.952 259.794 159.607 262.304 158.569 264.468C158.05 265.593 157.359 266.545 156.494 267.41C155.63 268.276 154.679 269.055 153.642 269.661C149.406 272.084 144.219 272.43 139.723 270.959C137.476 270.266 135.401 269.055 133.672 267.497C131.943 265.939 130.733 263.775 130.3 261.525C129.868 259.274 130.128 256.851 131.251 254.86C131.77 253.822 132.548 252.956 133.413 252.264C134.277 251.571 135.314 251.052 136.352 250.706C138.427 250.014 140.674 249.84 142.749 249.84C144.91 249.927 146.985 250.1 149.06 250.706C151.048 251.312 153.036 252.177 154.506 253.649C156.062 255.034 157.013 256.938 157.445 258.928C157.878 260.919 157.705 262.91 157.1 264.727C156.494 266.545 155.371 268.189 154.074 269.487C151.394 272.084 147.85 273.555 144.392 273.728C142.663 273.815 140.934 273.555 139.378 273.036C137.821 272.43 136.438 271.565 135.314 270.353C134.191 269.228 133.413 267.756 132.98 266.372C132.462 264.9 132.289 263.429 132.375 262.044C132.462 259.188 133.758 256.591 135.401 254.774C137.13 252.87 139.205 251.658 141.193 250.966C143.268 250.273 145.256 250.187 146.985 250.446C150.529 250.879 152.95 252.35 154.42 253.476C155.198 253.995 155.716 254.514 156.062 254.86C156.408 255.207 156.581 255.38 156.581 255.38C156.581 255.38 156.408 255.207 156.062 254.86C155.716 254.514 155.198 254.081 154.42 253.562C152.95 252.524 150.529 251.052 146.985 250.706C145.256 250.533 143.268 250.619 141.279 251.312C139.291 252.004 137.216 253.216 135.574 255.034C133.931 256.851 132.721 259.361 132.635 262.217C132.548 263.602 132.807 265.073 133.24 266.458C133.672 267.843 134.45 269.228 135.574 270.353C136.611 271.478 137.994 272.344 139.464 272.949C141.02 273.469 142.663 273.728 144.305 273.642C147.677 273.469 151.135 272.084 153.728 269.487C155.025 268.189 156.062 266.631 156.667 264.814C157.272 262.996 157.359 261.092 157.013 259.188C156.667 257.284 155.63 255.466 154.16 254.168C152.691 252.783 150.875 251.918 148.887 251.312C146.899 250.706 144.824 250.533 142.749 250.446C140.674 250.446 138.513 250.619 136.438 251.312C134.45 252.004 132.548 253.302 131.511 255.207C130.473 257.111 130.214 259.448 130.646 261.611C131.078 263.775 132.202 265.766 133.931 267.324C135.574 268.882 137.649 270.007 139.81 270.699C144.219 272.084 149.233 271.824 153.382 269.401C154.42 268.795 155.371 268.103 156.149 267.237C156.927 266.372 157.618 265.42 158.137 264.381C159.174 262.304 159.52 259.88 159.261 257.63C159.001 255.38 158.137 253.129 156.754 251.398C155.371 249.581 153.555 248.196 151.48 247.33C147.417 245.513 142.576 245.773 138.859 247.936C135.055 250.014 132.289 253.476 131.078 257.457C130.473 259.448 130.214 261.438 130.56 263.429C130.733 264.381 130.992 265.333 131.424 266.285C131.857 267.151 132.375 268.016 133.067 268.708C134.364 270.18 136.006 271.218 137.735 271.911C139.464 272.603 141.366 273.036 143.181 273.123C146.812 273.296 150.443 272.43 153.209 270.526C156.062 268.708 157.964 265.679 158.137 262.563C158.31 259.448 157.272 256.505 155.803 254.168C154.333 251.745 152.345 249.927 150.27 248.629C148.195 247.33 145.948 246.552 143.786 246.378C142.749 246.292 141.712 246.292 140.761 246.465C139.81 246.552 138.945 246.811 138.081 247.071C134.796 248.196 132.721 250.273 131.684 251.745C131.165 252.524 130.819 253.129 130.646 253.562C130.473 253.649 130.3 253.908 130.3 253.908Z" fill="#6590FF"/>
<path d="M153.729 277.798C153.815 277.884 146.986 283.77 138.427 290.867C129.869 298.051 122.867 303.763 122.78 303.59C122.694 303.503 129.523 297.618 138.082 290.521C146.64 283.424 153.642 277.711 153.729 277.798Z" fill="#263238"/>
<path d="M155.284 302.897C155.284 302.897 154.852 302.637 154.16 302.031C153.382 301.426 152.345 300.647 151.135 299.695C148.541 297.704 145.083 294.848 141.193 291.732C137.303 288.616 133.845 285.76 131.338 283.683C130.128 282.644 129.177 281.865 128.399 281.173C127.707 280.567 127.361 280.221 127.361 280.221C127.361 280.221 127.794 280.48 128.485 281.086C129.263 281.692 130.301 282.471 131.511 283.423C134.104 285.414 137.562 288.27 141.452 291.386C145.343 294.502 148.801 297.358 151.308 299.435C152.518 300.474 153.469 301.253 154.247 301.945C154.852 302.551 155.284 302.897 155.284 302.897Z" fill="#263238"/>
<path d="M225.914 278.144C226 278.23 219.43 283.25 211.304 289.395C203.178 295.54 196.435 300.387 196.348 300.301C196.262 300.214 202.832 295.194 210.958 289.049C219.171 282.904 225.827 278.057 225.914 278.144Z" fill="#263238"/>
<path d="M228.507 299.434C228.421 299.521 221.505 295.193 212.947 289.74C204.388 284.288 197.559 279.787 197.645 279.7C197.732 279.614 204.648 283.941 213.206 289.394C221.678 294.847 228.507 299.348 228.507 299.434Z" fill="#263238"/>
<path d="M154.852 341.412C154.766 341.326 161.595 334.142 170.067 325.487C178.539 316.745 185.542 309.735 185.628 309.821C185.715 309.908 178.885 317.091 170.413 325.746C161.941 334.575 154.939 341.499 154.852 341.412Z" fill="#6590FF"/>
<path d="M183.639 341.412C183.639 341.412 183.553 341.325 183.38 341.152C183.207 340.892 182.948 340.633 182.688 340.286C181.997 339.421 181.132 338.296 180.009 336.911C177.761 334.055 174.562 330.247 170.845 326.179C167.128 322.111 163.583 318.562 160.99 316.052C159.693 314.841 158.656 313.802 157.878 313.11C157.532 312.763 157.273 312.504 157.013 312.331C156.84 312.157 156.754 312.071 156.754 311.984C156.754 311.984 156.84 312.071 157.1 312.244C157.359 312.417 157.618 312.677 157.964 313.023C158.742 313.715 159.78 314.667 161.163 315.879C163.843 318.303 167.387 321.851 171.104 325.919C174.822 329.987 178.02 333.882 180.181 336.738C181.305 338.209 182.17 339.334 182.775 340.2C183.034 340.546 183.294 340.892 183.466 341.152C183.639 341.325 183.639 341.412 183.639 341.412Z" fill="#6590FF"/>
<path d="M112.925 305.061C112.925 305.061 113.184 326.353 107.824 339.076L75.1465 333.536C75.1465 333.536 85.0016 313.37 82.3217 302.205L112.925 305.061Z" fill="#EBEBEB"/>
<path d="M112.924 304.282C112.924 304.282 108.861 330.334 106.354 338.124L73.8496 331.719C73.8496 331.719 80.5061 306.446 80.4197 299.436L112.924 304.282Z" fill="#6590FF"/>
<path d="M83.7051 311.119C83.7051 311.206 88.5462 312.331 94.5112 313.629C100.563 314.927 105.404 315.793 105.404 315.706C105.404 315.62 100.563 314.495 94.5976 313.196C88.6326 311.898 83.7051 311.033 83.7051 311.119Z" fill="white"/>
<path d="M82.8398 316.659C82.8398 316.746 87.681 317.871 93.6459 319.169C99.6973 320.467 104.538 321.333 104.538 321.246C104.538 321.16 99.6973 320.035 93.7324 318.736C87.7674 317.438 82.9263 316.486 82.8398 316.659Z" fill="white"/>
<path d="M87.5957 322.89C87.5957 322.977 88.2873 323.15 89.4111 323.41C90.535 323.669 92.091 324.015 93.82 324.362C95.549 324.708 97.105 325.054 98.2289 325.227C99.3527 325.4 100.044 325.487 100.044 325.487C100.044 325.4 99.3527 325.227 98.2289 324.967C97.105 324.708 95.549 324.362 93.82 324.015C92.091 323.669 90.535 323.323 89.4111 323.15C88.3737 322.977 87.6822 322.804 87.5957 322.89Z" fill="white"/>
<path d="M267.409 245.342C267.409 245.342 270.78 266.027 267.322 279.27L234.645 278.577C234.645 278.577 241.301 257.459 237.065 246.9L267.409 245.342Z" fill="#EBEBEB"/>
<path d="M267.322 244.562C267.322 244.562 267.062 270.614 265.765 278.577L233.088 277.019C233.088 277.019 235.941 251.4 234.817 244.562H267.322Z" fill="#455A64"/>
<path d="M239.484 256.16C239.484 256.247 244.412 256.42 250.463 256.42C256.515 256.42 261.442 256.333 261.442 256.247C261.442 256.16 256.515 255.987 250.463 255.987C244.412 255.901 239.484 255.987 239.484 256.16Z" fill="white"/>
<path d="M239.83 261.699C239.83 261.786 244.758 261.959 250.809 261.959C256.86 261.959 261.788 261.872 261.788 261.786C261.788 261.699 256.86 261.526 250.809 261.526C244.758 261.44 239.83 261.526 239.83 261.699Z" fill="white"/>
<path d="M245.623 266.719C245.623 266.805 246.315 266.805 247.438 266.892C248.562 266.892 250.118 266.978 251.847 266.978C253.576 266.978 255.132 266.978 256.256 266.892C257.38 266.892 258.072 266.805 258.072 266.719C258.072 266.632 257.38 266.632 256.256 266.546C255.132 266.546 253.576 266.459 251.847 266.459C250.118 266.459 248.562 266.459 247.438 266.546C246.401 266.632 245.623 266.719 245.623 266.719Z" fill="white"/>
<path d="M274.412 185.621C268.274 185.621 262.136 181.813 258.938 175.754C255.826 169.955 254.788 162.771 256.171 156.194C257.987 147.539 263.692 140.441 270.781 138.191C276.833 136.287 287.552 137.326 292.566 145.808C296.543 152.385 296.111 159.223 296.111 159.483C296.024 160.954 294.814 161.992 293.344 161.906C291.961 161.819 290.837 160.608 290.924 159.136C290.924 159.05 291.183 153.597 288.157 148.491C284.267 141.913 275.709 142.086 272.337 143.124C266.286 145.029 262.396 151.606 261.272 157.232C260.148 162.685 261.013 168.484 263.52 173.331C266.113 178.091 271.213 181.034 275.795 180.341C277.178 180.082 278.562 181.12 278.735 182.505C278.994 183.89 277.956 185.275 276.573 185.448C275.882 185.534 275.104 185.621 274.412 185.621Z" fill="#263238"/>
<path d="M106.961 185.62C100.823 185.62 94.6852 181.812 91.4866 175.753C88.3745 169.954 87.3371 162.771 88.7203 156.193C90.1899 148.923 95.3768 140.441 103.417 138.19C107.047 137.152 111.456 137.325 115.174 138.796L113.272 143.643C110.073 142.431 106.788 142.604 104.8 143.21C98.8347 144.941 94.9446 151.519 93.8207 157.318C92.6969 162.771 93.5614 168.57 96.0684 173.416C98.6618 178.177 103.762 181.119 108.344 180.427L109.122 185.534C108.431 185.534 107.652 185.62 106.961 185.62Z" fill="#263238"/>
<path d="M272.251 159.568L269.83 172.638H304.928L308.127 159.741L272.251 159.568Z" fill="#0F4C81"/>
<path d="M115.865 183.544C115.865 186.66 113.358 189.17 110.246 189.17C107.134 189.17 104.627 186.66 104.627 183.544C104.627 180.428 107.134 177.918 110.246 177.918C113.358 177.918 115.865 180.428 115.865 183.544Z" fill="#263238"/>
<path d="M283.143 183.544C283.143 186.66 280.636 189.17 277.523 189.17C274.411 189.17 271.904 186.66 271.904 183.544C271.904 180.428 274.411 177.918 277.523 177.918C280.636 177.918 283.143 180.428 283.143 183.544Z" fill="#263238"/>
<path d="M190.988 75.2695L181.824 110.149L150.098 113.611V119.237L194.705 120.795L203.004 81.6743L190.988 75.2695Z" fill="#FFBE9D"/>
<path d="M204.388 121.661C204.388 121.661 154.853 119.324 140.761 130.316C126.67 141.394 133.413 159.397 133.413 159.397L213.119 159.224L220.121 118.805L204.388 121.661Z" fill="#263238"/>
<path d="M212.772 148.404C212.772 148.404 212.513 148.404 212.081 148.318C211.649 148.231 210.957 148.231 210.093 148.058C208.364 147.798 205.77 147.452 202.658 146.933C196.434 145.894 187.789 144.077 178.452 141.307C173.784 139.922 169.375 138.537 165.312 137.499C161.249 136.547 157.532 135.854 154.333 135.768C151.135 135.595 148.628 135.854 146.899 136.2C146.034 136.287 145.343 136.547 144.91 136.633C144.478 136.72 144.219 136.806 144.219 136.72C144.219 136.72 144.478 136.633 144.91 136.46C145.343 136.374 146.034 136.114 146.899 135.941C148.628 135.508 151.221 135.248 154.42 135.335C157.618 135.421 161.336 136.027 165.485 136.979C169.548 137.931 173.957 139.316 178.625 140.701C187.875 143.471 196.52 145.288 202.744 146.413C205.857 147.019 208.364 147.365 210.179 147.625C211.044 147.798 211.735 147.885 212.167 147.971C212.513 148.318 212.772 148.404 212.772 148.404Z" fill="#455A64"/>
<path d="M166.782 137.413C166.696 137.499 165.053 135.682 162.373 134.383C159.78 132.999 157.359 132.652 157.359 132.479C157.359 132.393 157.965 132.479 158.915 132.652C159.866 132.825 161.163 133.258 162.546 133.951C163.929 134.643 164.967 135.509 165.658 136.201C166.436 136.807 166.782 137.326 166.782 137.413Z" fill="#455A64"/>
<path d="M209.574 229.416L210.266 250.275L206.03 266.892C205.684 268.104 206.462 269.316 207.672 269.489C208.364 269.576 209.055 269.402 209.574 268.883C212.686 265.767 224.27 254.429 224.098 252.871C223.925 251.14 224.876 230.801 224.876 230.801L209.574 229.416Z" fill="#0F4C81"/>
<g opacity="0.6">
<path opacity="0.6" d="M207.758 269.575L224.183 251.572V252.438C224.183 253.217 223.924 253.909 223.405 254.515C222.108 256.073 218.391 260.314 209.66 268.969C209.141 269.488 208.449 269.661 207.758 269.575Z" fill="white"/>
</g>
<g opacity="0.6">
<g opacity="0.6">
<path opacity="0.6" d="M219.776 244.909C219.257 245.255 219.084 246.034 219.43 246.64C219.776 247.16 220.554 247.333 221.072 246.987C221.591 246.64 221.85 245.688 221.418 245.169C220.986 244.65 220.035 244.563 219.603 244.996" fill="white"/>
</g>
</g>
<path d="M212.427 260.401C212.341 260.488 211.822 259.363 210.612 258.757C209.402 258.151 208.278 258.411 208.191 258.324C208.191 258.238 208.451 258.151 208.883 258.064C209.402 257.978 210.093 258.064 210.785 258.411C211.476 258.757 211.995 259.276 212.168 259.709C212.427 260.055 212.427 260.401 212.427 260.401Z" fill="#263238"/>
<path d="M210.958 263.171C210.871 263.257 210.18 262.565 209.142 262.305C208.105 261.959 207.154 262.219 207.068 262.046C206.981 261.959 208.018 261.526 209.229 261.873C210.439 262.219 211.044 263.171 210.958 263.171Z" fill="#263238"/>
<path d="M215.107 256.767C215.021 256.854 213.983 255.815 212.341 255.209C210.698 254.603 209.229 254.69 209.229 254.517C209.229 254.43 210.698 254.084 212.514 254.776C214.329 255.469 215.28 256.767 215.107 256.767Z" fill="#263238"/>
<path d="M215.453 250.447C215.366 250.534 214.242 250.101 212.773 250.101C211.303 250.015 210.093 250.448 210.006 250.274C209.92 250.188 211.13 249.582 212.773 249.582C214.415 249.669 215.539 250.361 215.453 250.447Z" fill="#263238"/>
<path d="M215.453 244.302C215.366 244.389 214.242 243.696 212.686 243.783C211.13 243.87 210.006 244.648 209.92 244.475C209.92 244.389 210.093 244.129 210.612 243.87C211.044 243.61 211.822 243.35 212.686 243.264C213.551 243.264 214.329 243.437 214.761 243.696C215.193 244.043 215.453 244.302 215.453 244.302Z" fill="#263238"/>
<path d="M212.685 242.658C212.685 242.658 212.599 242.398 212.685 241.879C212.685 241.36 212.858 240.667 213.291 239.802C213.55 239.456 213.723 238.936 214.328 238.59C214.587 238.417 215.02 238.503 215.279 238.763C215.538 239.023 215.625 239.369 215.625 239.715C215.625 241.013 214.501 242.312 213.031 242.571C211.562 242.744 210.178 241.879 209.573 240.754C209.4 240.494 209.314 240.061 209.487 239.715C209.66 239.369 210.092 239.196 210.351 239.282C210.956 239.369 211.389 239.715 211.734 239.975C212.426 240.581 212.945 241.187 213.204 241.619C213.463 242.052 213.55 242.312 213.55 242.312C213.463 242.398 213.031 241.273 211.562 240.235C211.216 239.975 210.784 239.715 210.351 239.629C210.092 239.629 209.919 239.715 209.833 239.888C209.746 240.061 209.833 240.321 209.919 240.581C210.438 241.533 211.648 242.312 212.945 242.139C214.155 241.966 215.192 240.84 215.192 239.802C215.192 239.542 215.106 239.282 215.02 239.109C214.847 238.936 214.674 238.936 214.501 239.023C214.069 239.196 213.809 239.629 213.636 239.975C212.599 241.533 212.772 242.744 212.685 242.658Z" fill="#263238"/>
<path d="M220.12 118.804C220.12 118.804 198.681 159.31 198.422 166.407C198.163 173.418 198.422 238.677 198.422 238.677H231.532C232.396 238.677 237.324 209.336 236.373 202.585C235.335 195.834 231.791 159.483 231.791 159.483H250.896C250.896 159.483 256.083 153.857 255.91 146.76C255.824 142.865 253.23 134.816 250.723 130.575C249.081 127.892 238.621 113.611 238.621 113.611L220.12 118.804Z" fill="#263238"/>
<path d="M218.739 121.574C218.739 121.574 218.739 121.661 218.652 121.834C218.566 122.007 218.48 122.267 218.307 122.526C218.047 123.132 217.615 123.998 217.096 125.036C216.578 126.161 215.886 127.46 215.108 129.018C214.676 129.797 214.33 130.662 213.898 131.528C213.466 132.393 213.033 133.345 212.601 134.384C210.786 138.365 208.538 143.039 206.117 148.318C204.907 150.915 203.61 153.684 202.314 156.541C201.622 157.925 201.017 159.397 200.325 160.868C199.72 162.34 199.202 163.897 198.856 165.542C198.51 167.186 198.337 168.744 198.337 170.389C198.251 172.033 198.251 173.591 198.251 175.149C198.251 178.265 198.164 181.294 198.164 184.237C198.164 190.036 198.251 195.229 198.251 199.556C198.337 203.884 198.337 207.432 198.424 209.942C198.424 211.154 198.424 212.106 198.424 212.799C198.424 213.058 198.424 213.318 198.424 213.491C198.424 213.664 198.424 213.751 198.424 213.751C198.424 213.751 198.424 213.664 198.424 213.491C198.424 213.318 198.424 213.058 198.424 212.799C198.424 212.106 198.337 211.154 198.337 209.942C198.251 207.519 198.164 203.97 198.078 199.556C197.991 195.142 197.905 189.949 197.818 184.237C197.818 181.381 197.818 178.351 197.818 175.149C197.818 173.591 197.905 171.947 197.905 170.389C197.905 168.744 198.078 167.1 198.424 165.455C198.769 163.811 199.288 162.253 199.893 160.695C200.585 159.224 201.276 157.752 201.881 156.368C203.178 153.511 204.475 150.742 205.772 148.145C208.192 142.952 210.44 138.192 212.342 134.297C212.774 133.345 213.293 132.393 213.638 131.441C214.071 130.575 214.503 129.71 214.935 128.931C215.713 127.373 216.405 126.075 217.01 124.95C217.615 123.911 218.047 123.046 218.307 122.44C218.48 122.18 218.566 122.007 218.652 121.834C218.652 121.574 218.739 121.574 218.739 121.574Z" fill="#455A64"/>
<path d="M211.823 135.335C211.737 135.335 210.959 133.085 210.094 130.315C209.23 127.459 208.538 125.209 208.624 125.209C208.711 125.209 209.662 127.373 210.526 130.229C211.391 132.999 211.91 135.335 211.823 135.335Z" fill="#455A64"/>
<path d="M236.46 201.287C236.46 201.287 236.374 201.114 236.374 200.854C236.287 200.508 236.287 200.075 236.201 199.556C236.028 198.344 235.855 196.699 235.596 194.622C235.164 190.468 234.472 184.755 233.78 178.437C233.089 172.119 232.484 166.407 232.138 162.252C231.965 160.262 231.792 158.531 231.706 157.319C231.706 156.8 231.619 156.367 231.619 156.021C231.619 155.674 231.619 155.588 231.619 155.588C231.619 155.588 231.706 155.761 231.706 156.021C231.792 156.367 231.792 156.8 231.878 157.319C232.051 158.531 232.224 160.175 232.397 162.252C232.829 166.407 233.435 172.119 234.126 178.437C234.818 184.755 235.423 190.381 235.855 194.622C236.028 196.613 236.201 198.344 236.287 199.556C236.287 200.075 236.374 200.508 236.374 200.854C236.46 201.114 236.46 201.287 236.46 201.287Z" fill="#455A64"/>
<path d="M228.075 10.2703C227.557 6.80827 230.496 3.51935 233.954 3.0866C237.412 2.65384 240.783 4.90416 242.426 7.93343C243.982 11.0493 243.895 14.7709 242.685 17.9733C241.907 20.1371 240.265 22.3874 237.93 22.5605C235.683 22.7336 233.867 20.916 232.311 19.3581" fill="#263238"/>
<path d="M203.697 27.4081C196.781 12.2617 213.206 4.64529 222.11 7.15525C230.496 9.49212 234.127 13.7331 235.51 19.3589C236.893 24.9847 236.807 31.0432 234.645 36.4094C233.522 39.0924 231.62 41.7755 228.767 42.0351" fill="#263238"/>
<path d="M227.557 15.5498C229.026 15.7229 230.15 16.9346 230.15 18.4925L228.508 57.0941C228.421 61.6813 221.765 64.1913 216.923 64.1047C211.996 64.0182 211.823 61.5947 211.737 57.2672C211.65 49.997 211.65 47.3139 211.65 47.3139C211.65 47.3139 205.426 46.2753 204.129 38.1395C203.524 34.0716 203.697 27.4938 204.043 22.0411C204.388 17.1943 207.587 11.2223 212.428 11.655L227.557 15.5498Z" fill="#FFBE9D"/>
<path d="M207.156 26.7138C207.156 27.2331 207.588 27.7524 208.194 27.7524C208.799 27.7524 209.231 27.4062 209.231 26.8003C209.231 26.281 208.799 25.7617 208.194 25.7617C207.675 25.7617 207.156 26.1945 207.156 26.7138Z" fill="#263238"/>
<path d="M205.426 25.5021C205.513 25.6752 206.377 25.0694 207.501 25.0694C208.625 25.0694 209.403 25.6752 209.576 25.5021C209.662 25.4156 209.489 25.1559 209.144 24.8963C208.798 24.6366 208.193 24.377 207.501 24.377C206.81 24.377 206.204 24.6366 205.859 24.8963C205.513 25.2425 205.34 25.5021 205.426 25.5021Z" fill="#263238"/>
<path d="M218.047 26.7138C218.047 27.2331 218.479 27.7524 219.084 27.7524C219.689 27.7524 220.122 27.4062 220.122 26.8003C220.122 26.281 219.689 25.7617 219.084 25.7617C218.566 25.7617 218.133 26.1945 218.047 26.7138Z" fill="#263238"/>
<path d="M216.404 25.7619C216.491 25.935 217.355 25.3291 218.479 25.3291C219.603 25.3291 220.381 25.935 220.554 25.7619C220.64 25.6753 220.467 25.4157 220.122 25.156C219.776 24.8964 219.171 24.6367 218.479 24.6367C217.787 24.6367 217.182 24.8964 216.837 25.156C216.491 25.4157 216.404 25.6753 216.404 25.7619Z" fill="#263238"/>
<path d="M212.343 34.0723C212.343 33.9857 211.651 33.8992 210.527 33.7261C210.268 33.7261 210.009 33.6395 209.922 33.4664C209.836 33.2933 210.009 32.9471 210.095 32.6009C210.354 31.9085 210.614 31.2161 210.959 30.4372C212.17 27.3213 212.948 24.8114 212.861 24.7248C212.775 24.6383 211.651 27.1482 210.527 30.2641C210.268 31.043 210.009 31.7354 209.749 32.4278C209.663 32.774 209.49 33.1202 209.576 33.553C209.663 33.7261 209.836 33.8992 210.009 33.9857C210.181 34.0723 210.354 34.0723 210.527 34.0723C211.651 34.1588 212.343 34.1588 212.343 34.0723Z" fill="#263238"/>
<path d="M211.564 47.3138C211.564 47.3138 217.011 47.66 222.457 44.3711C222.457 44.3711 219.777 49.9969 211.651 49.2179L211.564 47.3138Z" fill="#EB996E"/>
<path d="M212.86 36.7551C213.292 36.2358 213.984 35.8896 214.675 35.9761C215.194 36.0627 215.626 36.2358 215.972 36.6686C216.232 37.1013 216.318 37.6206 216.059 37.9668C215.799 38.3996 215.108 38.4861 214.589 38.313C214.07 38.1399 213.552 37.7937 213.119 37.4475C213.033 37.361 212.86 37.2744 212.774 37.1013C212.687 37.1013 212.687 36.9282 212.86 36.7551Z" fill="#EB996E"/>
<path d="M215.626 34.8516C215.454 34.8516 215.454 36.0633 214.416 36.9288C213.379 37.7943 212.082 37.6212 212.082 37.7943C212.082 37.8808 212.341 38.0539 212.947 38.0539C213.465 38.0539 214.243 37.8808 214.935 37.3615C215.54 36.8422 215.886 36.1498 215.886 35.6305C215.886 35.1112 215.713 34.8516 215.626 34.8516Z" fill="#263238"/>
<path d="M215.887 23.7723C215.973 24.1186 217.097 23.9455 218.394 24.1186C219.69 24.2917 220.814 24.6379 220.987 24.3782C221.074 24.2051 220.901 23.9455 220.468 23.6858C220.036 23.4261 219.345 23.0799 218.567 22.9934C217.789 22.9068 217.097 22.9934 216.578 23.253C216.146 23.4261 215.887 23.5992 215.887 23.7723Z" fill="#263238"/>
<path d="M205.857 22.3009C206.03 22.5606 206.808 22.3009 207.759 22.3009C208.71 22.2144 209.488 22.474 209.661 22.2144C209.748 22.1278 209.575 21.8682 209.315 21.6085C208.97 21.3489 208.451 21.1758 207.759 21.1758C207.154 21.1758 206.549 21.4354 206.203 21.6951C205.857 21.8682 205.771 22.1278 205.857 22.3009Z" fill="#263238"/>
<path d="M216.404 9.05829C213.465 9.14484 211.217 10.0969 208.623 11.4817C206.03 12.8665 203.869 15.2899 203.091 18.1461C202.918 18.752 202.831 19.4444 203.177 19.9637C203.609 20.6561 204.647 20.8292 205.425 20.483C206.203 20.1368 206.722 19.4444 207.24 18.8385C207.586 20.3099 209.142 21.435 210.612 21.435C212.168 21.435 213.637 20.2233 213.983 18.752C213.983 20.3099 215.539 21.6081 217.095 21.5216C218.651 21.435 220.035 20.2233 220.553 18.752C220.813 20.1368 221.159 21.6081 222.023 22.7333C222.887 23.8584 224.357 24.6374 225.74 24.2046C225.567 25.4163 225.394 26.7146 225.827 27.8398C226.259 28.9649 227.988 48.5254 229.112 48.1791C230.236 47.8329 230.236 27.8398 230.495 26.7146C231.014 24.4643 231.446 22.214 231.359 19.8771C231.273 17.5402 230.668 15.2899 229.285 13.4724C227.815 11.5683 225.654 10.4431 223.32 9.83724C220.813 9.05829 218.479 8.97174 216.058 9.05829" fill="#263238"/>
<path d="M232.657 44.6302C232.657 44.6302 232.57 44.7167 232.397 44.7167C232.224 44.8033 231.965 44.8898 231.619 44.8898C230.928 44.9764 229.89 44.9764 228.767 44.6302C227.643 44.284 226.26 43.4185 225.395 42.0337C224.531 40.6488 224.185 38.8313 224.358 36.9272C224.531 35.1096 224.963 33.3786 225.136 31.8207C225.395 30.2628 225.481 28.878 225.481 27.6663C225.481 26.4546 225.481 25.5025 225.481 24.8101C225.481 24.1177 225.481 23.7715 225.481 23.7715C225.481 23.7715 225.568 24.1177 225.654 24.8101C225.741 25.5025 225.827 26.4546 225.827 27.6663C225.827 28.878 225.741 30.2628 225.568 31.9072C225.395 33.4652 224.963 35.1962 224.876 37.0137C224.703 38.8313 225.049 40.5623 225.827 41.8606C226.605 43.1588 227.816 44.0243 228.939 44.3705C230.063 44.8033 231.014 44.8033 231.706 44.8033C232.311 44.7167 232.657 44.6302 232.657 44.6302Z" fill="#263238"/>
<path d="M213.551 8.01953C213.551 8.01953 213.983 8.71194 213.983 9.92364C213.983 11.1354 213.551 12.9529 212.254 14.3377C210.871 15.7225 209.142 16.2418 207.932 16.2418C206.722 16.2418 205.944 15.8956 206.03 15.8956C206.03 15.8091 206.808 16.0687 207.932 15.8956C209.056 15.8091 210.698 15.2898 211.995 13.9915C213.205 12.6933 213.724 11.0488 213.724 9.83709C213.724 8.71194 213.465 8.01953 213.551 8.01953Z" fill="#455A64"/>
<path d="M214.763 17.541C214.849 17.541 214.676 18.0603 214.071 18.6662C213.466 19.272 212.342 19.7913 211.045 19.7048C209.749 19.6182 208.711 19.0989 208.02 18.6662C207.328 18.2334 206.982 17.8872 206.982 17.8007C206.982 17.7141 207.501 17.9738 208.193 18.32C208.884 18.6662 209.922 19.0989 211.132 19.1855C212.342 19.272 213.38 18.8393 213.985 18.32C214.503 17.9738 214.676 17.541 214.763 17.541Z" fill="#455A64"/>
<path d="M234.299 15.0312C234.386 15.0312 234.386 15.8968 234.126 17.2816C233.867 18.6664 233.435 20.5705 232.138 22.3015C230.841 24.0325 228.853 24.898 227.47 24.9846C226.778 25.0711 226.173 24.9846 225.827 24.8115C225.481 24.7249 225.309 24.5518 225.309 24.5518C225.309 24.4653 226.173 24.8115 227.47 24.6384C228.767 24.4653 230.582 23.6863 231.792 22.0418C233.002 20.3974 233.521 18.5798 233.867 17.2816C234.126 15.8968 234.213 15.0312 234.299 15.0312Z" fill="#455A64"/>
<path d="M235.77 19.0117C235.77 19.0117 235.856 19.2714 235.856 19.7041C235.943 20.1369 235.943 20.8293 235.943 21.6082C235.856 23.1661 235.424 25.503 233.781 27.4071C233.003 28.3592 231.966 29.0516 230.929 29.3978C229.891 29.744 228.854 29.744 228.076 29.5709C227.298 29.3978 226.693 29.0516 226.347 28.7919C226.001 28.5323 225.828 28.3592 225.828 28.2726C225.915 28.1861 226.606 28.965 228.162 29.2247C228.94 29.3112 229.891 29.3112 230.842 28.965C231.793 28.6188 232.744 28.013 233.522 27.0609C235.078 25.2434 235.597 23.0796 235.683 21.5217C235.77 19.9638 235.683 19.0117 235.77 19.0117Z" fill="#455A64"/>
<path d="M121.829 123.651L106.182 159.569H127.794L143.182 123.305L121.829 123.651Z" fill="#455A64"/>
<path d="M110.418 85.3953L128.14 120.275H183.986L181.738 115.688L165.572 115.169L152.432 85.8281C151.654 84.0105 149.838 82.7988 147.764 82.7988H111.974C110.677 82.8854 109.813 84.2702 110.418 85.3953Z" fill="#E0E0E0"/>
<path d="M138.428 101.06C138.428 102.272 137.477 103.224 136.267 103.224C135.056 103.224 134.105 102.272 134.105 101.06C134.105 99.8485 135.056 98.8965 136.267 98.8965C137.391 98.8965 138.428 99.8485 138.428 101.06Z" fill="#263238"/>
<path d="M189.864 120.361H121.656V123.65H189.864V120.361Z" fill="#455A64"/>
<path d="M168.857 122.006L189.605 159.569H199.547L201.708 155.328L203.696 150.741L189.864 123.65L168.857 122.006Z" fill="#455A64"/>
<path d="M204.907 57.5273C204.907 57.5273 192.89 61.7683 190.297 75.2702L203.005 81.5884L204.907 57.5273Z" fill="#80A3FF"/>
<path d="M204.906 57.5258C204.906 57.5258 196.434 76.4804 196.78 86.7799C196.866 90.415 199.287 99.7625 199.287 99.7625L203.696 123.045C203.696 123.045 237.238 118.457 238.016 118.457C238.794 118.457 236.892 99.4163 236.892 99.4163L242.338 62.7188C242.338 62.7188 239.831 57.6989 228.506 55.9679C221.677 54.9293 204.906 57.5258 204.906 57.5258Z" fill="#80A3FF"/>
<path d="M201.795 68.5176C201.882 68.6041 201.017 69.9889 199.893 72.4124C199.375 73.6241 198.856 75.0954 198.337 76.8264C197.905 78.5575 197.473 80.375 197.213 82.4522C196.954 84.4429 196.954 86.4336 197.041 88.1646C197.127 89.8956 197.3 91.4535 197.559 92.8383C198.078 95.4348 198.597 96.9927 198.51 97.0793C198.51 97.0793 198.337 96.7331 198.078 95.9541C197.992 95.6079 197.819 95.1752 197.646 94.6559C197.473 94.1366 197.3 93.5307 197.213 92.9249C196.954 91.6266 196.695 89.9821 196.608 88.2511C196.522 86.4336 196.522 84.5294 196.781 82.4522C197.041 80.375 197.473 78.4709 197.905 76.8264C198.424 75.0954 199.029 73.6241 199.548 72.4124C199.807 71.8065 200.153 71.2872 200.326 70.7679C200.585 70.3351 200.844 69.9024 201.017 69.5562C201.536 68.8638 201.795 68.5176 201.795 68.5176Z" fill="#263238"/>
<path d="M209.057 57.3535L209.575 52.1605C209.662 51.0353 210.613 50.1698 211.737 50.1698L228.248 49.9102C229.286 49.9102 230.15 50.6891 230.237 51.7277L230.669 57.3535C230.669 57.3535 228.853 61.7676 224.012 64.1045C219.171 66.4413 211.564 66.5279 211.564 66.5279L209.057 57.3535Z" fill="#FFDF99"/>
<path d="M213.379 50.2563C213.466 50.3428 213.206 50.6025 213.12 51.1218C213.033 51.7277 213.12 52.5066 213.12 53.4587C213.206 55.2762 213.206 56.8341 213.12 56.8341C213.033 56.8341 212.774 55.3628 212.688 53.5452C212.601 52.5932 212.601 51.7277 212.774 51.1218C212.947 50.4294 213.293 50.1697 213.379 50.2563Z" fill="#263238"/>
<path d="M217.355 56.6618C217.269 56.6618 217.01 55.1905 216.923 53.3729C216.923 52.5074 216.837 51.6419 216.923 51.036C217.01 50.4302 217.269 50.084 217.355 50.084C217.442 50.084 217.269 50.4302 217.269 51.036C217.269 51.6419 217.355 52.4208 217.442 53.2863C217.442 55.1905 217.442 56.6618 217.355 56.6618Z" fill="#263238"/>
<path d="M222.282 56.4887C222.196 56.4887 221.85 55.1039 221.677 53.2863C221.418 51.5553 221.331 50.084 221.504 50.084C221.59 50.084 221.936 51.4688 222.109 53.2863C222.369 55.1039 222.455 56.4887 222.282 56.4887Z" fill="#263238"/>
<path d="M226.605 56.9208C226.518 56.9208 226.086 55.3628 226 53.4587C225.827 51.4681 226 49.9102 226.086 49.9102C226.173 49.9102 226.259 51.4681 226.432 53.4587C226.518 55.2763 226.691 56.8342 226.605 56.9208Z" fill="#263238"/>
<g opacity="0.3">
<g opacity="0.3">
<path opacity="0.3" d="M229.889 76.6543C229.198 82.4532 229.63 92.4931 231.705 98.0323L241.387 82.0204L229.889 76.6543Z" fill="black"/>
</g>
</g>
<path d="M241.389 61.5078C244.155 64.4505 246.143 67.9126 247.267 71.7208L249.083 79.8565L230.064 82.7993C230.064 82.7993 228.421 78.2986 229.372 72.1535C230.237 66.095 241.389 61.5078 241.389 61.5078Z" fill="#80A3FF"/>
<path d="M249.082 79.9439C249.082 79.9439 248.995 80.0305 248.736 80.0305C248.476 80.117 248.044 80.117 247.612 80.2036C246.575 80.3767 245.191 80.6363 243.549 80.896C240.004 81.4153 235.25 82.1942 229.804 82.9732H229.544V82.7135C229.458 81.5884 229.458 80.3767 229.458 79.165C229.371 75.9626 229.458 72.9333 229.631 70.1637C229.804 67.3941 230.668 64.8841 231.878 63.1531C233.002 61.3355 234.385 60.2104 235.423 59.6911C235.941 59.4314 236.374 59.1718 236.633 59.0852C236.892 58.9987 237.065 58.9121 237.065 58.9121C237.065 58.9987 236.46 59.1718 235.509 59.7776C234.558 60.3835 233.261 61.5086 232.138 63.2396C231.1 64.9707 230.236 67.3941 230.063 70.1637C229.89 72.9333 229.89 75.9626 229.89 79.165C229.89 80.3767 229.976 81.5884 229.976 82.7135L229.717 82.5404C235.163 81.7615 240.004 81.0691 243.549 80.5498C245.278 80.2901 246.575 80.117 247.612 80.0305C248.044 79.9439 248.39 79.9439 248.736 79.9439C248.995 79.9439 249.082 79.9439 249.082 79.9439Z" fill="#263238"/>
<path d="M208.97 67.9983C208.884 68.0848 207.673 67.1328 206.29 65.9211C204.907 64.7094 203.87 63.5842 203.956 63.4977C204.043 63.4111 205.253 64.3632 206.636 65.5749C207.933 66.7866 209.057 67.9117 208.97 67.9983Z" fill="#FAFAFA"/>
<path d="M206.376 78.0394C206.462 78.1259 205.425 78.9049 204.042 79.7704C202.659 80.6359 201.535 81.2417 201.448 81.0686C201.362 80.9821 202.399 80.2031 203.782 79.3376C205.166 78.4721 206.289 77.8663 206.376 78.0394Z" fill="#FAFAFA"/>
<path d="M217.01 80.4616C216.924 80.4616 216.924 78.8172 217.01 76.74C217.097 74.6627 217.356 73.0183 217.442 73.1048C217.529 73.1048 217.529 74.7493 217.442 76.8265C217.27 78.8172 217.097 80.4616 217.01 80.4616Z" fill="#FAFAFA"/>
<path d="M227.296 90.5032C227.21 90.5897 226.172 89.2915 224.876 87.9067C223.579 86.4353 222.455 85.3967 222.455 85.3101C222.542 85.2236 223.838 86.1756 225.135 87.647C226.518 89.0318 227.383 90.4166 227.296 90.5032Z" fill="#FAFAFA"/>
<path d="M228.766 69.5581C228.853 69.6446 227.729 70.5101 226.259 71.5487C224.79 72.5008 223.579 73.2798 223.493 73.1067C223.407 72.9336 224.53 72.1546 226 71.116C227.47 70.1639 228.68 69.4715 228.766 69.5581Z" fill="#FAFAFA"/>
<path d="M219.429 61.9402C219.516 62.0267 218.305 62.9788 216.663 64.0174C215.107 65.056 213.724 65.7484 213.637 65.6619C213.551 65.5753 214.761 64.6232 216.404 63.5846C218.046 62.6326 219.343 61.8536 219.429 61.9402Z" fill="#FAFAFA"/>
<path d="M227.815 64.9691C227.728 65.0557 227.123 63.7574 226.518 62.2861C225.913 60.7281 225.481 59.4299 225.654 59.4299C225.74 59.3433 226.345 60.6416 226.95 62.113C227.555 63.6709 227.901 64.9691 227.815 64.9691Z" fill="#FAFAFA"/>
<path d="M239.401 68.7785C239.314 68.8651 238.45 68.1727 237.499 67.1341C236.548 66.182 235.77 65.3165 235.856 65.2299C235.943 65.1434 236.807 65.8358 237.758 66.8744C238.709 67.8265 239.487 68.692 239.401 68.7785Z" fill="#FAFAFA"/>
<path d="M234.645 77.1728C234.558 77.1728 234.385 75.9611 234.299 74.4897C234.213 73.0183 234.213 71.8066 234.385 71.8066C234.472 71.8066 234.645 73.0183 234.731 74.4897C234.818 76.0476 234.731 77.1728 234.645 77.1728Z" fill="#FAFAFA"/>
<path d="M244.24 75.4427C244.24 75.5293 242.857 75.6158 241.215 75.3562C239.572 75.0965 238.275 74.6638 238.275 74.5772C238.275 74.4907 239.659 74.6638 241.301 74.9234C242.857 75.1831 244.24 75.3562 244.24 75.4427Z" fill="#FAFAFA"/>
<path d="M205.512 92.9266C205.426 93.0131 204.648 91.5418 203.783 89.8108C202.919 87.9932 202.314 86.5218 202.487 86.4353C202.573 86.3487 203.351 87.8201 204.216 89.5511C204.994 91.3687 205.599 92.84 205.512 92.9266Z" fill="#FAFAFA"/>
<path d="M218.133 106.601C218.046 106.687 217.095 105.562 216.058 104.091C215.02 102.619 214.242 101.408 214.329 101.321C214.415 101.235 215.366 102.36 216.404 103.831C217.441 105.216 218.219 106.514 218.133 106.601Z" fill="#FAFAFA"/>
<path d="M228.679 100.802C228.766 100.889 227.469 101.494 225.827 102.187C224.184 102.793 222.801 103.225 222.801 103.139C222.715 103.052 224.011 102.446 225.654 101.754C227.296 101.148 228.679 100.715 228.679 100.802Z" fill="#FAFAFA"/>
<path d="M202.832 111.881C202.745 111.795 203.091 110.756 203.696 109.544C204.301 108.246 204.82 107.294 204.906 107.38C204.993 107.467 204.647 108.506 204.042 109.717C203.523 110.929 202.918 111.968 202.832 111.881Z" fill="#FAFAFA"/>
<path d="M194.706 72.759C194.62 72.8456 194.101 71.8935 193.842 70.5087C193.669 69.2105 193.842 68.1719 193.928 68.1719C194.101 68.1719 194.101 69.2105 194.274 70.4222C194.533 71.7204 194.792 72.759 194.706 72.759Z" fill="#FAFAFA"/>
<path d="M209.144 103.14C209.057 103.226 207.933 102.707 206.55 102.015C205.167 101.236 204.13 100.543 204.216 100.457C204.302 100.37 205.426 100.889 206.809 101.668C208.106 102.361 209.23 103.053 209.144 103.14Z" fill="#FAFAFA"/>
<path d="M217.528 88.6852C217.615 88.7717 216.577 89.8103 215.194 91.1086C213.811 92.3203 212.687 93.2723 212.601 93.1858C212.514 93.0992 213.552 92.0606 214.935 90.7624C216.232 89.5507 217.442 88.5986 217.528 88.6852Z" fill="#FAFAFA"/>
<g opacity="0.3">
<g opacity="0.3">
<path opacity="0.3" d="M212.342 88.4258C212.86 91.3685 213.984 94.3978 216.232 96.475C218.393 98.5522 221.765 99.6774 224.531 98.5522C225.136 98.2926 225.741 97.9464 225.914 97.3405C226.087 96.6481 225.482 95.9557 224.79 95.6095C224.099 95.3498 223.321 95.3498 222.629 95.2633C218.48 95.0036 214.503 92.4937 212.515 88.772" fill="black"/>
</g>
</g>
<path d="M223.579 95.4367C223.579 95.4367 223.406 95.5232 222.974 95.5232C222.628 95.6098 222.023 95.5232 221.332 95.5232C220.64 95.4367 219.862 95.2636 218.998 95.0039C218.133 94.6577 217.269 94.2249 216.404 93.6191C215.54 93.0132 214.848 92.3208 214.243 91.6284C213.638 90.936 213.205 90.2436 212.946 89.6378C212.6 89.0319 212.427 88.5126 212.341 88.1664C212.255 87.8202 212.168 87.5605 212.255 87.5605C212.341 87.5605 212.6 88.3395 213.205 89.4647C213.551 90.0705 213.984 90.6764 214.589 91.3688C215.194 91.9746 215.885 92.667 216.663 93.2729C217.528 93.8787 218.392 94.3115 219.17 94.5711C219.948 94.9173 220.727 95.0904 221.418 95.177C222.801 95.4366 223.579 95.3501 223.579 95.4367Z" fill="#263238"/>
<path d="M176.032 109.371L188.567 107.899L197.385 113.698L231.1 105.563L231.878 82.4536L246.834 80.4629V108.505C246.661 115.602 240.782 121.228 233.694 121.055L184.245 119.67L182.17 115.429L171.537 115.083L176.032 109.371Z" fill="#FFBE9D"/>
<path d="M230.668 105.562C230.668 105.562 230.495 105.649 230.063 105.736C229.631 105.822 229.026 105.995 228.247 106.255C226.605 106.688 224.271 107.207 221.504 107.986C215.712 109.371 207.846 111.275 199.114 113.439C198.423 113.612 197.731 113.785 197.04 113.958H196.953L196.867 113.871C193.754 111.794 190.815 109.89 188.049 108.072H188.135C183.208 108.678 178.885 109.111 175.6 109.544L175.687 109.457C174.304 111.275 173.18 112.66 172.402 113.698C172.056 114.131 171.71 114.564 171.537 114.823C171.364 115.083 171.191 115.17 171.191 115.17C171.191 115.17 171.278 114.997 171.451 114.737C171.624 114.477 171.969 114.044 172.315 113.612C173.093 112.573 174.131 111.188 175.514 109.371H175.6C178.885 108.938 183.208 108.419 188.135 107.813H188.222H188.308C191.075 109.63 194.014 111.534 197.126 113.612H196.953C197.645 113.439 198.336 113.266 199.028 113.092C207.759 111.015 215.626 109.111 221.418 107.813C224.271 107.12 226.605 106.601 228.247 106.255C229.026 106.082 229.631 105.909 230.063 105.822C230.409 105.563 230.668 105.562 230.668 105.562Z" fill="#EB996E"/>
<path d="M182.862 113.006C182.862 113.092 180.701 113.179 178.021 113.179C177.675 113.179 177.416 113.179 177.157 113.179L177.243 113.092C175.514 114.564 174.131 115.602 174.131 115.516C174.045 115.429 175.341 114.304 177.07 112.833L177.157 112.746H177.243C177.503 112.746 177.848 112.746 178.108 112.746C180.701 112.746 182.862 112.833 182.862 113.006Z" fill="#EB996E"/>
<path d="M236.892 109.371C236.805 109.458 236.114 107.814 234.471 106.775C232.829 105.65 231.1 105.823 231.1 105.65C231.1 105.563 231.532 105.477 232.223 105.563C232.915 105.65 233.866 105.909 234.73 106.429C235.595 106.948 236.287 107.727 236.546 108.333C236.805 108.939 236.892 109.285 236.892 109.371Z" fill="#EB996E"/>
</g>
</g>
<defs>
<clipPath id="clip0">
<rect width="400" height="361" fill="white"/>
</clipPath>
<clipPath id="clip1">
<rect width="296" height="343" fill="white" transform="translate(41 3)"/>
</clipPath>
</defs>
</svg>
