<svg width="399" height="361" viewBox="0 0 399 361" fill="none" xmlns="http://www.w3.org/2000/svg">
<g clip-path="url(#clip0)">
<path fill-rule="evenodd" clip-rule="evenodd" d="M337.924 179.832C352.886 237.39 294.449 279.39 244.226 311.363C193.205 343.844 130.271 379.783 82.9944 342.124C34.0877 303.168 43.6173 229.44 70.5104 172.989C92.0883 127.696 142.294 111.021 192.48 112.305C251.579 113.818 323.067 122.681 337.924 179.832Z" fill="#E0E9FF"/>
<g clip-path="url(#clip1)">
<path d="M33.4961 260.463L32.6387 260.754L34.523 266.342L35.3804 266.051L33.4961 260.463Z" fill="#407BFF"/>
<path d="M31.4903 255.922C30.6757 250.477 31.8523 245.395 34.5676 241.493C36.6493 238.589 39.6361 236.32 43.2565 235.141L43.528 235.957C40.0887 237.137 37.2829 239.134 35.2917 242.037C32.6669 245.758 31.5808 250.659 32.3049 255.831L31.4903 255.922Z" fill="#407BFF"/>
<path d="M281.748 295.398H141.006L128.968 259.734C124.714 247.211 111.138 237.047 98.6477 237.047H50.6778C38.1875 237.047 31.4898 247.211 35.6533 259.734L47.691 295.398C51.5829 306.833 62.263 314.546 74.3007 314.546H147.523H281.748C285.459 314.546 288.355 311.551 288.355 307.922V302.023C288.355 298.393 285.368 295.398 281.748 295.398Z" fill="#6590FF"/>
<path opacity="0.2" d="M128.968 259.734C124.715 247.211 111.138 237.047 98.6478 237.047H66.336C53.8457 237.047 47.1481 247.211 51.3115 259.734L63.3492 295.398L141.006 295.307L128.968 259.734Z" fill="white"/>
<path opacity="0.2" d="M201.648 295.396H281.749C285.46 295.396 288.356 298.391 288.356 302.021V307.92C288.356 311.64 285.369 314.544 281.749 314.544H201.648C197.937 314.544 195.041 311.55 195.041 307.92V302.021C194.951 298.391 197.937 295.396 201.648 295.396Z" fill="white"/>
<path d="M205.81 332.242H201.646V314.637H208.435L205.81 332.242Z" fill="#263238"/>
<path d="M277.494 332.242H281.748V314.637H274.869L277.494 332.242Z" fill="#263238"/>
<path d="M83.5326 332.242H79.3691V314.637H86.1573L83.5326 332.242Z" fill="#263238"/>
<path d="M155.217 332.242H159.471V314.637H152.592L155.217 332.242Z" fill="#263238"/>
<path d="M95.5703 205.83C96.2943 208.825 99.6432 211.819 100.548 212.999C101.544 214.179 96.6564 215.54 96.6564 215.54L91.8594 210.277L95.5703 205.83Z" fill="#263238"/>
<path d="M98.8274 229.513L100.638 229.604L102.629 229.694C103.986 229.694 105.254 229.785 106.611 229.785C109.236 229.785 111.951 229.785 114.486 229.604C115.753 229.513 117.02 229.422 118.287 229.241C119.554 229.059 120.731 228.968 121.907 228.696C124.261 228.242 126.433 227.607 128.152 226.79L124.985 230.239C125.98 228.515 126.885 226.7 127.79 224.794C128.695 222.888 129.601 220.892 130.506 218.895C131.411 216.899 132.225 214.902 133.13 212.815C134.036 210.819 134.85 208.641 135.755 206.644L135.846 206.463C136.841 204.285 139.376 203.286 141.548 204.285C143.086 205.011 144.082 206.553 144.082 208.187C144.082 210.637 143.992 212.997 143.811 215.356C143.63 217.715 143.267 220.075 142.905 222.434C142.453 224.794 142 227.153 141.367 229.513C140.733 231.872 140.009 234.322 139.014 236.682C138.47 238.043 137.565 239.041 136.479 239.767L135.846 240.13C132.497 242.218 129.148 243.488 125.89 244.396C122.631 245.303 119.373 245.938 116.115 246.301C112.947 246.664 109.689 246.846 106.611 246.846C105.073 246.846 103.443 246.846 101.905 246.755C101.09 246.664 100.366 246.664 99.5515 246.573L98.3749 246.483L97.0173 246.301C92.3108 245.757 88.9619 241.492 89.505 236.773C90.048 232.235 93.9399 228.968 98.4654 229.15L98.8274 229.513Z" fill="#263238"/>
<path d="M141.006 204.195C136.39 203.106 135.485 205.919 135.033 208.188C134.58 210.457 136.209 213.451 139.92 214.359C143.631 215.175 144.174 212.634 144.355 211.364C144.536 210.003 146.437 205.375 141.006 204.195Z" fill="#407BFF"/>
<path d="M143.268 210.727L146.708 208.64L140.734 201.471C140.734 201.471 135.032 204.465 136.299 207.642L138.924 210.183C140.01 211.453 141.911 211.635 143.268 210.727Z" fill="#B55B52"/>
<path d="M136.209 207.553C135.123 202.108 140.101 200.565 140.554 197.752C140.735 196.844 141.73 196.935 141.911 197.661C142.183 198.841 142.002 200.293 141.549 200.837C140.916 201.563 144.355 205.738 141.278 207.553C139.468 207.008 136.209 207.553 136.209 207.553Z" fill="#B55B52"/>
<path d="M149.604 201.562L148.699 200.292C147.613 198.93 145.712 198.477 144.174 199.475L140.734 201.562L146.708 208.731L149.333 206.19C150.509 204.829 150.6 202.923 149.604 201.562Z" fill="#B55B52"/>
<path d="M243.19 293.945C242.104 292.13 239.932 292.584 237.488 292.13C237.488 292.13 241.561 281.513 243.824 282.783C248.44 285.415 253.78 281.513 258.577 276.068C259.211 275.342 260.93 277.701 259.754 279.698C256.857 284.78 252.603 286.958 250.431 289.499C248.53 291.677 248.53 293.31 246.72 294.762C245.272 295.942 244.276 295.76 243.19 293.945Z" fill="#263238"/>
<path d="M213.322 292.402C213.865 290.315 214.408 287.502 213.051 285.324C213.051 285.324 223.459 280.787 224.093 283.328C225.451 288.5 226.627 290.86 235.497 292.402C236.493 292.584 238.303 295.488 235.95 295.488C229.161 295.488 224.908 294.762 221.559 294.943C218.753 295.125 217.486 295.669 215.223 295.488C213.322 295.306 212.779 294.399 213.322 292.402Z" fill="#263238"/>
<path d="M102.087 231.512C94.0317 230.876 83.6231 232.601 77.559 237.229C73.5766 240.224 71.6759 245.215 72.8525 250.024C77.74 269.898 102.902 297.123 133.856 297.123L154.582 258.373C154.582 258.373 156.845 243.944 126.525 245.396C117.745 236.503 110.142 232.147 102.087 231.512Z" fill="#263238"/>
<path d="M151.595 255.557C151.595 255.557 175.58 246.301 205.538 242.126C222.101 239.858 225.088 285.686 225.088 285.686L213.05 287.682C210.788 274.887 203.909 271.438 200.832 261.819C187.889 273.888 159.378 284.325 137.928 275.522C141.186 266.992 142.363 265.63 145.712 260.458C148.517 256.193 151.595 255.557 151.595 255.557Z" fill="#407BFF"/>
<path opacity="0.3" d="M151.595 255.557C151.595 255.557 175.58 246.301 205.538 242.126C222.101 239.858 225.088 285.686 225.088 285.686L213.05 287.682C210.788 274.887 203.909 271.438 200.832 261.819C187.889 273.888 159.378 284.325 137.928 275.522C141.186 266.992 142.363 265.63 145.712 260.458C148.517 256.193 151.595 255.557 151.595 255.557Z" fill="black"/>
<path d="M142.636 265.359C142.636 265.359 175.943 265.813 205.268 273.255C219.297 276.794 245.997 282.783 245.997 282.783L240.838 293.219C240.838 293.219 223.822 294.49 196.308 289.68C177.753 296.577 161.1 297.212 133.856 297.212C133.675 279.97 142.636 265.359 142.636 265.359Z" fill="#407BFF"/>
<path opacity="0.2" d="M142.636 265.359C142.636 265.359 175.943 265.813 205.268 273.255C219.297 276.794 245.997 282.783 245.997 282.783L240.838 293.219C240.838 293.219 223.822 294.49 196.308 289.68C177.753 296.577 161.1 297.212 133.856 297.212C133.675 279.97 142.636 265.359 142.636 265.359Z" fill="#80A3FF"/>
<path d="M89.3254 249.116L88.5108 257.192C88.2393 259.915 87.9678 262.637 87.7868 265.36C87.6962 266.721 87.6057 268.082 87.5152 269.443C87.4247 270.805 87.3342 272.166 87.3342 273.436C87.2437 276.068 87.2437 278.7 87.3342 281.15L85.4335 276.885C86.4291 278.246 87.7868 279.607 89.4159 280.878C90.2305 281.513 91.0451 282.148 91.9502 282.693C92.8553 283.237 93.8509 283.872 94.756 284.417C96.7472 285.506 98.8289 286.504 101.001 287.412C102.087 287.865 103.173 288.319 104.35 288.682C104.893 288.864 105.436 289.136 106.07 289.317L107.699 289.862L108.151 290.043C110.414 290.86 111.591 293.22 110.776 295.488C110.143 297.213 108.604 298.301 106.975 298.392C106.16 298.392 105.527 298.483 104.802 298.483C104.078 298.483 103.354 298.483 102.721 298.483C101.363 298.392 99.915 298.301 98.5574 298.211C95.7516 297.938 92.9458 297.394 90.14 296.577C87.3342 295.761 84.5284 294.672 81.8131 293.22C80.4555 292.494 79.0979 291.586 77.7402 290.679C76.3826 289.68 75.1155 288.591 73.9388 287.412C72.9432 286.413 72.4002 285.234 72.1286 283.963L72.0381 283.237C71.4951 280.061 71.2236 276.885 71.0425 273.89C70.8615 270.805 70.8615 267.81 70.952 264.815C71.0425 261.821 71.2236 258.826 71.4046 255.831C71.5856 254.379 71.6761 252.836 71.8571 251.384C72.0381 249.842 72.2192 248.481 72.4907 246.847C73.2148 242.128 77.6497 238.952 82.3562 239.769C86.8817 240.495 89.959 244.669 89.5064 249.116H89.3254Z" fill="#263238"/>
<path d="M110.776 298.03C114.487 295.217 111.953 292.041 110.143 290.68C108.333 289.318 104.531 288.593 101.544 291.678C99.3721 293.856 100.006 297.94 101.182 298.575C102.449 299.21 105.889 301.842 110.776 298.03Z" fill="#407BFF"/>
<path d="M110.413 292.767L113.49 294.763L107.788 301.479C107.788 301.479 102.448 298.575 103.624 295.58L105.978 293.221C107.245 292.132 109.055 291.86 110.413 292.767Z" fill="#B55B52"/>
<path d="M116.298 301.477L115.392 302.657C114.397 304.018 112.496 304.29 111.139 303.474L107.971 301.477L113.673 294.762L116.117 297.212C117.203 298.392 117.293 300.207 116.298 301.477Z" fill="#B55B52"/>
<path d="M79.0059 217.807C81.1781 222.526 84.0744 230.965 81.7211 236.047C81.0876 237.499 81.6306 239.223 83.0788 239.949C85.432 241.129 89.5954 242.036 96.9267 240.675C105.797 238.951 106.159 236.773 104.982 235.23C104.167 234.232 102.81 233.688 101.271 233.506C98.3748 231.147 95.1165 226.246 96.5647 222.707L79.0059 217.807Z" fill="#B55B52"/>
<path opacity="0.2" d="M96.4755 222.891L86.6099 228.336C86.1574 229.062 88.4201 232.147 92.312 232.601C94.6653 232.873 96.928 232.328 98.9192 231.239C96.928 228.789 95.4799 225.432 96.4755 222.891Z" fill="black"/>
<path d="M96.5664 204.468C96.2949 199.295 92.8555 197.48 92.8555 197.48C92.8555 197.48 91.2264 200.021 92.0409 202.835L84.3477 209.096C87.606 212 96.8379 209.641 96.5664 204.468Z" fill="#263238"/>
<path d="M76.835 217.717C80.5459 224.523 82.3561 228.698 87.6056 230.604C95.4799 233.508 102.54 226.248 100.91 218.443C99.4623 211.456 93.6698 201.473 85.5239 201.927C77.4686 202.381 73.1241 210.911 76.835 217.717Z" fill="#B55B52"/>
<path d="M88.3298 214.631C88.6013 215.176 89.1443 215.539 89.5064 215.357C89.8684 215.176 89.9589 214.54 89.6874 213.996C89.4159 213.451 88.8728 213.088 88.5108 213.27C88.1487 213.451 88.0582 214.087 88.3298 214.631Z" fill="#263238"/>
<path d="M94.7555 211.635C95.0271 212.18 95.5701 212.543 95.9322 212.361C96.2942 212.18 96.3847 211.544 96.1132 211C95.8417 210.455 95.2986 210.092 94.9366 210.274C94.5745 210.455 94.484 211.091 94.7555 211.635Z" fill="#263238"/>
<path d="M92.8555 212.906C92.8555 212.906 95.6613 215.629 97.8335 216.536C97.2904 217.988 95.3897 218.351 95.3897 218.351L92.8555 212.906Z" fill="#A02724"/>
<path d="M91.5876 221.345C91.2255 221.617 90.8635 221.89 90.5015 222.253C90.411 222.343 90.411 222.434 90.5015 222.525C90.592 222.616 90.6825 222.616 90.773 222.525C92.6737 220.528 94.9364 220.891 94.9364 220.891C95.0269 220.891 95.1174 220.801 95.1174 220.71C95.1174 220.619 95.0269 220.528 94.9364 220.528C95.0269 220.528 93.3073 220.256 91.5876 221.345Z" fill="#263238"/>
<path d="M84.8902 210.366C84.7997 210.457 84.7092 210.638 84.7997 210.729C85.2523 212.272 84.3472 213.361 84.3472 213.361C84.2567 213.542 84.2567 213.724 84.3472 213.905C84.5282 213.996 84.7092 213.996 84.8902 213.905C84.9807 213.815 86.0668 212.544 85.4333 210.548C85.3428 210.366 85.1618 210.275 84.9807 210.275C84.9807 210.366 84.8902 210.366 84.8902 210.366Z" fill="#263238"/>
<path d="M93.5785 206.191C93.488 206.191 93.3975 206.282 93.3975 206.282C93.2165 206.464 93.307 206.645 93.3975 206.827C94.8456 208.188 96.5653 207.825 96.6558 207.825C96.8368 207.734 97.0178 207.553 96.9273 207.371C96.8368 207.19 96.6558 207.099 96.4748 207.099C96.3843 207.099 95.1172 207.371 93.9405 206.282C93.7595 206.282 93.669 206.191 93.5785 206.191Z" fill="#263238"/>
<path d="M81.2692 215.811C81.9932 218.805 85.3421 219.259 86.3377 220.439C87.3333 221.618 82.5363 223.07 82.5363 223.07L79.459 220.62L81.2692 215.811Z" fill="#263238"/>
<path d="M75.8382 224.431C77.4674 225.792 79.4586 226.246 81.1783 226.064C83.622 225.883 83.8936 223.432 82.3549 221.527C80.9973 219.802 78.0105 217.897 75.9287 219.076C73.847 220.256 74.028 222.888 75.8382 224.431Z" fill="#B55B52"/>
<path d="M80.6359 220.076C82.5366 217.898 80.4549 211.636 79.4593 210.366C80.5454 209.458 84.7994 204.74 82.5366 201.836C80.1834 198.932 74.2098 201.836 74.2098 201.836C74.2098 201.836 74.6623 203.106 76.1105 203.469C73.4857 204.286 69.7748 206.192 69.3223 209.549C71.8565 209.549 71.8565 209.186 71.8565 209.186C71.8565 209.186 68.3267 215.176 70.0463 218.352C71.6755 218.261 71.6755 216.718 71.6755 216.718C71.6755 216.718 72.9426 221.165 80.6359 220.076Z" fill="#263238"/>
<path d="M86.1577 199.021C82.7184 195.209 78.0119 197.115 78.0119 197.115C78.0119 197.115 77.7404 199.475 80.3651 200.927L79.46 210.364C83.895 210.546 89.5971 202.832 86.1577 199.021Z" fill="#263238"/>
<path d="M92.1301 200.746C91.1345 195.664 86.1565 194.848 86.1565 194.848C86.1565 194.848 84.7084 196.753 86.1565 199.294L80.5449 206.826C84.2558 209.367 93.1257 205.828 92.1301 200.746Z" fill="#263238"/>
<path d="M136.3 297.121C134.49 298.028 131.865 297.121 131.865 297.121C131.865 297.121 130.417 262.818 152.592 252.109C153.949 252.109 154.854 254.287 154.854 254.287C154.854 254.287 145.17 260.912 140.373 273.98C135.666 287.138 136.3 297.121 136.3 297.121Z" fill="#407BFF"/>
<path d="M285.189 93.9355C284.193 99.1082 283.198 108.546 286.727 111.995C286.727 111.995 276.771 113.991 269.078 121.705C265.458 114.989 270.707 111.995 270.707 111.995C276.409 110.633 276.319 106.368 275.323 102.375L285.189 93.9355Z" fill="#FFC3BD"/>
<path d="M270.797 116.62C271.973 111.901 268.443 111.084 274.236 108.816C278.761 107.001 287.45 106.91 289.532 108.543C290.709 109.451 289.17 112.355 289.17 112.355L270.797 116.62Z" fill="#263238"/>
<path d="M297.678 116.439C297.859 116.893 297.95 117.165 298.131 117.528L298.493 118.436C298.764 119.071 298.945 119.706 299.126 120.341C299.489 121.612 299.851 122.882 300.122 124.062C300.756 126.603 301.118 129.144 301.389 131.776C301.842 136.948 301.661 142.302 300.303 147.566C300.122 148.201 299.941 148.836 299.76 149.472L299.579 149.925L299.489 150.198L299.398 150.561C299.126 151.287 298.764 151.922 298.402 152.557C297.588 153.646 296.683 154.372 295.868 154.916C295.054 155.461 294.239 155.824 293.515 156.096C290.528 157.185 287.994 157.457 285.369 157.639C280.21 157.911 275.413 157.548 270.526 156.822C269.077 156.55 268.082 155.189 268.353 153.737C268.534 152.557 269.53 151.65 270.707 151.559H270.797C275.323 151.105 280.029 150.47 284.283 149.562C285.369 149.29 286.365 149.018 287.36 148.746C288.356 148.473 289.261 148.11 289.895 147.747C290.528 147.384 290.981 146.931 290.619 147.203C290.528 147.294 290.438 147.384 290.347 147.566V147.657V147.566V147.384L290.438 147.021C290.528 146.568 290.619 146.023 290.709 145.479C291.433 141.395 291.433 137.22 290.89 132.955C290.619 130.868 290.166 128.69 289.714 126.603C289.442 125.514 289.17 124.516 288.899 123.517L288.446 121.975L288.175 121.249L287.994 120.613L287.903 120.341C286.908 117.619 288.265 114.533 291.071 113.535C293.605 112.537 296.592 113.807 297.678 116.439Z" fill="#FFC3BD"/>
<path d="M271.973 156.914L263.918 156.006L266.814 148.928C266.814 148.928 271.068 150.833 273.693 152.739L271.973 156.914Z" fill="#FFC3BD"/>
<path d="M260.931 152.195L262.651 149.291C263.013 148.656 263.737 148.383 264.461 148.474L266.905 148.928L264.008 156.006L261.565 154.645C260.659 154.191 260.388 153.102 260.931 152.195Z" fill="#FFC3BD"/>
<path d="M295.235 112.809C299.217 115.531 302.023 120.885 303.923 130.777C302.113 134.316 289.532 138.128 289.532 138.128C289.532 138.128 281.387 105.186 295.235 112.809Z" fill="#407BFF"/>
<path d="M268.354 157.277L245.002 161.996C243.644 162.269 242.015 161.452 241.382 160.091L225.995 126.241C225.362 124.971 225.995 123.61 227.443 123.337L250.795 118.619C252.152 118.346 253.782 119.163 254.415 120.524L269.802 154.373C270.345 155.644 269.711 156.914 268.354 157.277Z" fill="#263238"/>
<path d="M244.64 159.727C244.097 159.817 243.554 159.545 243.283 159.001L227.896 125.151C227.715 124.698 227.896 124.153 228.439 124.062L251.79 119.343C252.334 119.253 252.877 119.525 253.148 120.069L268.535 153.919C268.716 154.372 268.535 154.917 267.992 155.008L244.64 159.727Z" fill="white"/>
<path d="M238.938 133.319C238.757 133.319 238.576 133.228 238.395 133.138C237.942 132.865 237.852 132.23 238.123 131.776L243.826 123.609C244.097 123.155 244.731 123.064 245.183 123.337C245.636 123.609 245.726 124.244 245.455 124.698L239.753 132.865C239.572 133.228 239.21 133.319 238.938 133.319Z" fill="#407BFF"/>
<path d="M255.23 124.061C255.411 127.509 249.89 135.495 256.678 140.214C257.492 147.202 258.488 154.099 260.298 165.624H295.506C291.795 152.919 294.33 144.389 299.036 122.065C300.122 116.892 296.502 111.901 291.252 111.356C289.804 111.175 288.356 111.084 286.817 110.993C280.934 110.721 276.047 110.539 270.888 110.993C269.168 111.175 267.358 111.356 265.638 111.628C259.484 112.445 254.958 117.89 255.23 124.061Z" fill="#6590FF"/>
<path d="M259.393 160.906C259.121 162.267 260.026 163.628 260.026 163.628C260.026 163.628 275.684 160.452 294.782 162.721C295.144 161.359 294.601 160.18 294.601 160.18C294.601 160.18 279.667 157.639 259.393 160.906Z" fill="#263238"/>
<path d="M241.381 140.033L242.286 132.592L234.955 134.77C234.955 134.77 236.403 139.216 238.123 142.03L241.381 140.033Z" fill="#FFC3BD"/>
<path d="M238.848 129.234L235.771 130.686C235.137 130.958 234.775 131.684 234.775 132.41L234.956 134.861L242.288 132.683L241.111 130.142C240.749 129.143 239.753 128.78 238.848 129.234Z" fill="#FFC3BD"/>
<path d="M268.444 122.246C268.082 123.608 267.72 124.787 267.358 126.058C266.995 127.237 266.543 128.508 266.181 129.688C265.366 132.047 264.371 134.407 263.375 136.766C262.379 139.126 261.203 141.394 260.026 143.663C258.85 145.932 257.492 148.11 256.044 150.288L255.863 150.56C255.139 151.74 253.872 152.375 252.604 152.556C250.523 152.738 248.351 152.466 246.45 151.649C244.549 150.832 242.92 149.652 241.653 148.382C240.386 147.021 239.481 145.659 238.757 144.207C238.395 143.481 238.032 142.755 237.761 141.939C237.489 141.122 237.308 140.487 237.037 139.579C236.675 138.127 237.58 136.766 239.028 136.403C240.024 136.222 241.019 136.494 241.562 137.22L241.924 137.583C242.196 137.946 242.648 138.49 243.01 138.944C243.373 139.398 243.825 139.852 244.278 140.215C245.092 141.031 245.997 141.757 246.812 142.211C247.626 142.755 248.441 143.028 249.165 143.118C249.889 143.209 250.523 143.118 251.156 142.937L247.717 145.206C248.803 143.209 249.799 141.122 250.794 139.035C251.79 136.948 252.695 134.77 253.51 132.592C254.324 130.414 255.139 128.236 255.953 125.967L257.039 122.609C257.401 121.52 257.764 120.341 258.035 119.342V119.252C258.85 116.438 261.836 114.805 264.642 115.712C267.539 116.62 269.077 119.524 268.444 122.246Z" fill="#FFC3BD"/>
<path d="M262.651 112.446C258.306 114.443 253.962 118.527 252.242 128.055C253.419 131.867 265.276 138.219 265.276 138.219C265.276 138.219 277.585 107.274 262.651 112.446Z" fill="#407BFF"/>
<path d="M262.832 89.2157C263.013 89.9417 262.742 90.4862 262.289 90.577C261.837 90.6677 261.384 90.214 261.203 89.488C261.022 88.762 261.294 88.2175 261.746 88.1267C262.289 88.036 262.742 88.4897 262.832 89.2157Z" fill="#263238"/>
<path d="M262.019 88.1249L260.299 87.9434C260.299 87.9434 261.385 89.1237 262.019 88.1249Z" fill="#263238"/>
<path d="M262.742 89.9414C262.742 89.9414 262.199 93.1176 261.203 94.8418C262.289 95.4771 263.737 94.8418 263.737 94.8418L262.742 89.9414Z" fill="#ED847E"/>
<path d="M262.561 94.2974C261.746 94.2974 260.932 93.9344 260.208 93.2992C259.303 92.4825 258.488 91.212 258.126 89.76C257.311 86.6745 258.216 83.7706 260.117 83.2261C261.113 82.9539 262.199 83.3168 263.104 84.1336C264.009 84.9503 264.824 86.2208 265.186 87.6728C266 90.7582 265.095 93.6622 263.194 94.2067C263.013 94.2974 262.742 94.2974 262.561 94.2974ZM260.841 83.4983C260.66 83.4983 260.479 83.4983 260.298 83.5891C258.579 84.0428 257.764 86.7653 258.579 89.5785C258.941 90.9397 259.665 92.1195 260.57 92.9362C261.384 93.6622 262.38 94.0252 263.194 93.7529C264.914 93.2992 265.729 90.5767 264.914 87.7635C264.552 86.4023 263.828 85.2226 262.923 84.4058C262.199 83.8613 261.475 83.4983 260.841 83.4983Z" fill="#263238"/>
<path d="M260.569 85.7674C260.479 85.7674 260.388 85.7674 260.298 85.6766C260.117 85.4952 260.117 85.2229 260.298 85.1322C261.837 83.4987 263.737 83.7709 263.828 83.7709C264.009 83.7709 264.19 84.0432 264.19 84.2247C264.19 84.4062 263.918 84.5877 263.737 84.5877C263.647 84.5877 262.199 84.3154 261.022 85.6766C260.75 85.7674 260.66 85.7674 260.569 85.7674Z" fill="#263238"/>
<path d="M285.006 82.4096C286.183 90.94 286.816 94.5699 283.558 99.6519C278.58 107.365 268.081 106.912 264.461 98.9259C261.202 91.666 259.845 78.9612 267.266 73.97C274.507 69.1603 283.83 73.8793 285.006 82.4096Z" fill="#FFC3BD"/>
<path d="M272.427 100.74C277.767 103.281 288.266 101.738 291.705 93.9339C295.144 86.2202 291.615 75.3304 283.559 72.8802C275.685 70.5207 268.625 72.7894 267.539 80.9568C266.543 89.1242 267.901 98.562 272.427 100.74Z" fill="#263238"/>
<path d="M258.308 89.8506C258.217 89.8506 258.127 89.7599 258.127 89.6691C258.127 89.5784 258.217 89.3969 258.308 89.3969C258.398 89.3969 269.169 88.3079 274.69 88.9431C274.781 88.9431 274.871 89.0339 274.871 89.2154C274.871 89.3061 274.781 89.3969 274.6 89.3969C269.169 88.7616 258.489 89.8506 258.308 89.8506Z" fill="#263238"/>
<path d="M260.299 165.625C260.299 165.625 260.209 211.816 263.738 241.128C264.281 268.625 267.449 332.965 267.449 332.965H274.418C274.418 332.965 285.189 278.153 281.75 245.575C295.869 199.02 286.547 165.625 286.547 165.625H260.299Z" fill="#FFC3BD"/>
<path d="M267.178 327.158C265.186 329.245 263.105 335.416 256.407 337.413C252.063 338.774 253.782 340.135 260.389 340.135C267.992 340.135 270.164 336.778 272.699 336.778C275.233 336.778 276.772 335.144 274.961 329.608C269.169 328.973 267.178 327.158 267.178 327.158Z" fill="#263238"/>
<path d="M275.505 332.148C276.048 335.506 275.414 340.134 275.414 340.134H273.332L270.889 334.78L275.505 332.148Z" fill="#263238"/>
<path d="M269.529 165.625C269.529 165.625 283.92 219.439 292.066 244.486C300.664 270.803 308.629 330.878 308.629 332.875H314.603C314.603 332.875 320.758 284.233 309.896 244.486C307 180.054 295.415 165.625 295.415 165.625H269.529Z" fill="#FFC3BD"/>
<path d="M308.087 328.064C306.548 330.605 304.738 336.232 300.665 337.412C296.502 338.591 298.222 340.134 304.376 340.134C308.54 340.134 309.807 336.776 312.16 336.776C314.604 336.776 316.595 335.143 314.966 329.607C309.988 330.152 308.087 328.064 308.087 328.064Z" fill="#263238"/>
<path d="M315.599 332.33C315.961 335.143 315.508 340.134 315.508 340.134H312.069L309.896 334.78L315.599 332.33Z" fill="#263238"/>
<path d="M270.798 90.8477C270.617 92.6627 269.621 94.0239 268.535 94.7499C266.906 95.8389 265.367 94.1147 265.186 91.9367C265.096 89.9402 265.729 87.0363 267.72 86.8548C269.531 86.6733 270.979 88.7605 270.798 90.8477Z" fill="#7F3E3B"/>
<path d="M293.424 96.2934C288.989 94.2062 277.766 97.9269 269.892 104.007C267.629 100.922 266.543 96.2027 266.543 96.2027C266.543 96.2027 266.724 99.9234 268.715 104.915C268.081 105.459 267.448 106.004 266.814 106.548C265.095 102.374 263.103 91.6653 263.556 83.0441C262.832 82.4089 261.203 82.4996 260.207 81.6829C260.841 70.2486 273.15 67.1631 277.766 67.2539C281.115 67.2539 284.645 68.2521 287.269 70.1578C293.967 75.2398 296.592 87.5816 293.424 96.2934Z" fill="#263238"/>
<path opacity="0.2" d="M293.424 96.2934C288.989 94.2062 277.766 97.9269 269.892 104.007C267.629 100.922 266.543 96.2027 266.543 96.2027C266.543 96.2027 266.724 99.9234 268.715 104.915C268.081 105.459 267.448 106.004 266.814 106.548C265.095 102.374 263.103 91.6653 263.556 83.0441C262.832 82.4089 261.203 82.4996 260.207 81.6829C260.841 70.2486 273.15 67.1631 277.766 67.2539C281.115 67.2539 284.645 68.2521 287.269 70.1578C293.967 75.2398 296.592 87.5816 293.424 96.2934Z" fill="white"/>
<g opacity="0.2">
<path opacity="0.2" d="M264.01 251.204C264.1 254.289 264.191 257.647 264.372 261.095C270.617 259.916 276.772 257.919 282.383 255.741C282.293 252.747 282.202 249.933 281.931 247.211C276.229 249.026 270.164 250.478 264.01 251.204Z" fill="black"/>
<path opacity="0.2" d="M309.445 234.688C306.277 236.593 299.941 240.132 291.705 243.581C291.796 243.944 291.886 244.216 292.067 244.579C292.701 246.485 293.334 248.572 293.877 250.75C301.118 247.211 306.73 243.762 309.807 241.766C309.716 239.225 309.535 236.865 309.445 234.688Z" fill="black"/>
</g>
<path d="M260.298 165.624C260.298 165.624 259.484 201.833 262.199 256.282C287.632 254.376 312.341 238.223 312.341 238.223C312.341 238.223 311.617 180.688 295.416 165.624C286.274 163.174 260.479 164.807 260.298 165.624Z" fill="#263238"/>
<path d="M102.992 186.95C102.902 186.95 102.811 186.95 102.721 186.86C102.54 186.769 102.449 186.587 102.54 186.406C103.354 180.235 101.182 170.797 94.3938 163.719C77.3781 159.635 64.8878 149.017 60.0003 134.498C51.5829 109.088 70.0468 80.0485 101.091 69.7031C132.136 59.3578 164.267 71.6089 172.684 96.9277C176.757 109.27 174.766 122.791 166.982 135.042C159.198 147.293 146.708 156.731 131.684 161.722C126.072 163.537 120.37 164.717 114.668 165.171C115.754 177.24 103.445 186.678 103.264 186.769C103.173 186.95 103.083 186.95 102.992 186.95ZM123.447 66.9807C116.297 66.9807 108.785 68.1604 101.363 70.6106C70.7709 80.7745 52.5785 109.36 60.9054 134.225C65.6119 148.473 77.9211 158.909 94.7558 162.902C94.8464 162.902 94.9369 162.993 94.9369 162.993C101.635 169.98 103.988 179.055 103.535 185.408C106.341 183.048 114.849 174.79 113.672 164.808C113.672 164.717 113.672 164.535 113.763 164.445C113.853 164.354 113.944 164.263 114.125 164.263C119.917 163.809 125.71 162.72 131.412 160.815C146.256 155.914 158.655 146.567 166.258 134.498C173.861 122.519 175.852 109.27 171.87 97.2C165.625 78.415 145.984 66.9807 123.447 66.9807Z" fill="#263238"/>
<path d="M238.394 69.34C237.941 69.2493 228.166 67.7973 224.999 60.5374C221.559 62.0801 218.029 63.1691 214.228 63.8951C204 65.8008 193.773 64.3488 185.446 59.7207C177.119 55.0925 171.598 48.0141 170.059 39.5745C166.892 22.2415 181.464 4.99925 202.643 1.09706C223.822 -2.80513 243.553 8.0847 246.721 25.4177C248.531 35.3093 244.73 45.3824 236.222 53.1868C234.593 59.3577 236.312 65.3471 238.666 68.614C238.756 68.7955 238.756 68.977 238.666 69.1585C238.756 69.2493 238.575 69.34 238.394 69.34ZM225.18 59.5392C225.27 59.5392 225.27 59.5392 225.361 59.5392C225.451 59.6299 225.542 59.7207 225.632 59.8114C227.895 65.5286 234.774 67.6158 237.398 68.251C235.226 64.7118 233.869 58.8132 235.407 52.8238C235.407 52.733 235.498 52.6423 235.498 52.6423C243.825 45.1101 247.626 35.2185 245.816 25.6899C242.738 8.90144 223.369 -1.71614 202.733 2.0953C182.097 5.90674 167.797 22.6952 170.874 39.4837C172.322 47.6511 177.662 54.548 185.808 58.9947C193.954 63.4413 204 64.8933 213.956 63.0784C217.758 62.3524 221.469 61.1726 224.908 59.6299C225.089 59.5392 225.18 59.5392 225.18 59.5392Z" fill="#263238"/>
<path d="M120.822 151.377C120.098 151.377 119.374 151.377 118.65 151.377C110.775 151.105 102.448 149.29 92.583 145.751C88.8721 144.39 84.6182 142.665 81.9934 139.308C81.2693 138.309 80.6358 137.13 80.0022 135.768C78.2825 131.685 77.83 127.147 78.4635 122.428C78.373 121.43 78.2825 120.523 78.192 119.524C78.1015 118.98 78.1015 118.345 78.011 117.8L77.83 116.076C77.2869 110.45 76.7439 104.642 78.8256 99.469C80.9073 94.2963 84.9802 90.8479 88.0575 88.9422C92.402 86.2197 97.2895 84.677 101.091 83.7695C104.621 82.862 107.879 82.136 111.137 81.5915C111.68 81.3193 112.223 81.047 112.857 80.7748C115.934 79.5951 119.464 79.6858 122.361 79.9581C123.175 80.0488 124.08 80.1395 124.985 80.3211C126.071 80.3211 127.067 80.321 128.153 80.4118C132.317 80.5933 136.48 82.7713 139.557 86.2197C142.997 90.1219 144.716 95.2946 144.264 100.739C149.513 105.64 153.315 111.992 155.034 118.98C167.344 117.074 180.648 111.448 189.971 103.643C203.728 92.2091 214.227 80.5025 223.821 57.8154C231.515 39.5749 231.786 26.8701 224.636 18.975C220.563 14.5283 214.952 11.8966 208.887 11.5336C202.823 11.2614 197.031 13.3486 192.505 17.4323C188.251 21.3345 185.717 26.6886 185.445 32.4058C185.174 38.2137 187.165 43.7494 191.057 48.0146C194.768 52.0982 199.836 54.4577 205.267 54.7299C210.788 55.0022 216.038 53.0965 220.02 49.3758C223.912 45.8366 226.175 41.0269 226.356 35.7635C226.627 30.5001 224.817 25.5089 221.287 21.6067C214.408 13.9838 202.552 13.4393 194.949 20.427C187.708 27.0516 187.256 38.3045 193.772 45.4736C196.85 48.8313 200.923 50.737 205.448 51.0093C209.974 51.1908 214.227 49.648 217.576 46.6533C220.744 43.7494 222.554 39.8472 222.826 35.4913C223.007 31.2261 221.559 27.0516 218.662 23.8754C212.96 17.6138 203.366 17.16 197.121 22.8772C191.238 28.3221 190.786 37.4877 196.216 43.3864C198.66 46.1088 202.099 47.7423 205.81 47.9238C209.521 48.1053 213.051 46.8348 215.766 44.2939C218.391 41.9344 219.839 38.6674 220.02 35.1283C220.201 31.5891 218.934 28.2314 216.581 25.6904C214.318 23.2402 211.241 21.7882 207.892 21.6067C204.543 21.4252 201.375 22.605 198.931 24.8737C194.134 29.3203 193.772 36.8525 198.117 41.6622C202.28 46.2903 209.43 46.5626 214.046 42.3881C216.128 40.4824 217.395 37.76 217.576 34.9468C217.667 32.0428 216.671 29.3203 214.771 27.2331C212.96 25.2367 210.426 24.0569 207.711 23.8754C204.995 23.7847 202.371 24.6922 200.38 26.5071C198.479 28.2314 197.302 30.6816 197.212 33.2225C197.121 35.8542 198.026 38.3045 199.746 40.2102C203.185 44.0216 209.068 44.2939 212.779 40.8454C214.499 39.3027 215.495 37.1247 215.676 34.7653C215.766 32.4058 214.952 30.1371 213.413 28.4129C211.874 26.7794 209.883 25.7812 207.62 25.6904C205.358 25.5997 203.276 26.3256 201.647 27.8684C198.388 30.8631 198.207 35.8542 201.104 39.1212C203.909 42.2066 208.706 42.3881 211.784 39.5749C214.68 36.9432 214.952 32.3151 212.236 29.4111C209.702 26.5979 205.358 26.4164 202.642 28.9574C200.017 31.4076 199.836 35.4912 202.19 38.123C204.452 40.6639 208.344 40.8454 210.879 38.486C213.232 36.308 213.413 32.5873 211.241 30.2278C210.245 29.1389 208.887 28.5036 207.439 28.4129C205.991 28.3221 204.543 28.8666 203.457 29.8648C203.276 29.9556 203.095 29.9556 203.004 29.8648C202.914 29.6833 202.914 29.5018 203.004 29.4111C204.271 28.3221 205.81 27.6869 207.439 27.7776C209.068 27.8684 210.607 28.5944 211.784 29.7741C214.227 32.4058 214.046 36.5802 211.331 39.0304C208.525 41.5714 204.271 41.3899 201.737 38.5767C199.112 35.6727 199.293 31.1353 202.19 28.5036C205.267 25.6904 209.974 25.9626 212.779 28.9574C215.676 32.1336 215.495 37.1247 212.236 40.0287C208.887 43.1141 203.728 42.8419 200.651 39.4842C197.483 35.945 197.664 30.5001 201.194 27.3239C203.004 25.6904 205.267 24.8737 207.711 24.9644C210.155 25.0552 212.327 26.1441 213.956 27.8684C215.676 29.7741 216.49 32.1336 216.4 34.6745C216.309 37.2155 215.223 39.5749 213.322 41.2084C209.249 44.9291 203.004 44.5661 199.293 40.5732C197.393 38.486 196.488 35.8542 196.578 33.041C196.669 30.2278 197.936 27.6869 199.927 25.7812C202.099 23.7847 204.905 22.7864 207.801 22.9679C210.698 23.0587 213.413 24.3292 215.314 26.5071C217.395 28.7759 218.391 31.6798 218.3 34.7653C218.119 37.8507 216.852 40.6639 214.589 42.6604C209.702 47.1071 202.099 46.7441 197.664 41.8437C192.958 36.671 193.32 28.7759 198.479 24.0569C201.104 21.6975 204.452 20.427 207.982 20.6085C211.512 20.79 214.77 22.3327 217.124 24.8737C219.567 27.5961 220.925 31.1353 220.744 34.856C220.563 38.5767 219.024 41.9344 216.219 44.4754C213.322 47.1071 209.702 48.4683 205.81 48.2868C201.918 48.1053 198.388 46.4718 195.764 43.5679C190.152 37.397 190.605 27.6869 196.759 22.0605C199.927 19.1565 204 17.7045 208.254 17.886C212.508 18.0675 216.4 19.8825 219.296 23.0587C222.283 26.3256 223.821 30.6816 223.64 35.1283C223.459 39.5749 221.468 43.7494 218.21 46.7441C214.771 49.9203 210.245 51.5537 205.629 51.2815C200.923 51.1 196.669 49.0128 193.501 45.5643C186.713 38.0322 187.165 26.3256 194.677 19.5195C202.552 12.3504 214.77 12.8949 221.921 20.79C225.541 24.7829 227.442 29.9556 227.17 35.4005C226.899 40.8454 224.546 45.8366 220.563 49.4665C216.4 53.278 210.969 55.2744 205.267 55.0022C199.565 54.7299 194.406 52.2797 190.514 48.1053C186.532 43.6586 184.45 37.9415 184.721 32.0428C184.993 26.0534 187.527 20.6085 191.962 16.5248C196.578 12.3504 202.552 10.1724 208.797 10.4446C215.042 10.7169 220.744 13.4393 224.998 18.0675C232.329 26.1441 232.148 39.1212 224.364 57.6339C214.77 80.5025 204.181 92.2091 190.333 103.734C180.92 111.539 167.434 117.346 155.034 119.252C155.396 120.704 155.577 122.065 155.758 123.517C156.211 127.601 155.758 131.14 154.672 134.135C153.043 138.4 149.513 142.121 144.445 145.116C137.838 149.29 129.692 151.377 120.822 151.377ZM103.444 148.382C108.875 149.744 113.853 150.47 118.65 150.651C128.244 151.014 137.023 149.018 144.173 144.843C147.613 142.847 152.138 139.308 154.129 134.135C155.215 131.231 155.577 127.783 155.215 123.88C155.034 122.428 154.853 121.067 154.491 119.615C151.867 119.978 149.242 120.16 146.708 120.16C146.164 122.791 145.35 125.332 144.626 127.51C144.445 128.146 144.173 128.69 143.992 129.325C143.54 131.775 142.454 134.226 140.915 136.404C138.743 139.308 135.756 141.758 131.683 143.936C123.085 148.473 112.948 150.016 103.444 148.382ZM79.0971 122.338C79.4591 125.786 80.0022 129.235 81.3598 132.411C84.3466 139.217 91.2253 144.571 100.276 146.931C109.418 149.381 119.283 148.564 127.972 144.934C127.61 145.025 127.339 145.116 126.977 145.206C122.089 146.477 116.93 146.568 112.133 146.568C105.435 146.477 98.3756 146.023 92.1304 143.119C89.5057 141.849 86.1568 139.671 85.0707 136.131C84.3466 133.863 84.7992 131.322 85.1612 129.235C85.4327 127.783 85.7948 126.331 86.1568 124.969C84.9802 118.435 86.0663 110.994 89.3246 103.643C88.8721 103.916 88.4195 104.188 88.0575 104.551C86.3378 105.912 84.8897 107.727 83.351 110.268C81.0883 114.08 79.6402 118.254 79.0971 122.338ZM78.8256 125.786C78.8256 129.144 79.3686 132.411 80.6358 135.405C81.1788 136.767 81.8124 137.856 82.5364 138.854C85.0707 142.121 89.1436 143.754 92.764 145.116C93.4881 145.388 94.1216 145.569 94.7552 145.842C88.148 142.938 83.17 138.4 80.7263 132.774C79.8212 130.505 79.1876 128.146 78.8256 125.786ZM86.9714 124.879C87.4239 127.601 88.329 130.142 89.5962 132.501C93.7596 140.215 102.539 145.479 111.861 145.751C120.55 146.023 129.601 142.121 136.118 135.405C137.566 133.863 138.743 132.411 139.648 130.959C139.919 130.505 140.191 130.051 140.372 129.598C137.657 133.59 133.041 136.404 128.244 136.585C127.52 136.585 126.795 136.585 126.071 136.494C120.912 138.672 114.939 139.398 108.603 138.672C99.6427 137.674 92.8545 133.409 90.4108 127.238C88.9626 123.517 89.2341 119.524 89.8677 116.167C88.7816 118.889 87.786 121.793 86.9714 124.879ZM143.178 124.062C142.454 126.421 141.548 128.962 140.191 131.231C139.286 132.774 138.109 134.226 136.57 135.768C131.773 140.76 125.528 144.299 119.102 145.66C121.727 145.479 124.261 145.116 126.795 144.48C130.506 143.573 135.575 141.486 139.105 137.039C141.005 134.679 142.273 131.866 143.268 129.053C143.54 127.692 143.54 126.331 143.359 125.06C143.359 124.788 143.268 124.425 143.178 124.062ZM86.6094 126.421C86.3378 127.329 86.1568 128.327 85.9758 129.325C85.6138 131.413 85.1612 133.772 85.8853 135.95C86.8809 139.217 90.0487 141.395 92.583 142.575C96.8369 144.571 101.543 145.388 106.25 145.751C98.9186 143.936 92.4925 139.308 89.0531 132.955C87.967 130.777 87.1524 128.69 86.6094 126.421ZM91.4064 112.991C91.3158 112.991 91.3158 112.991 91.4064 112.991C90.4108 116.711 89.2341 122.156 91.1348 126.966C93.4881 132.864 100.005 136.948 108.784 137.946C114.577 138.582 120.098 138.037 124.895 136.222C123.809 135.95 122.723 135.587 121.636 135.133C120.641 134.952 119.645 134.679 118.65 134.316C115.753 133.137 113.4 130.687 112.133 127.873C111.68 128.055 111.318 128.146 110.866 128.236C110.594 128.236 110.232 128.327 109.961 128.236C107.97 128.781 106.069 128.962 104.259 128.781C99.0996 128.236 93.4881 124.062 93.3976 118.163C93.307 114.987 94.8457 111.72 97.923 108.272C101.453 104.279 105.888 101.193 110.685 99.1968C107.245 99.1968 103.806 99.469 100.367 100.013C96.7464 103.734 93.7596 108.09 91.4064 112.991ZM127.429 135.859C127.701 135.859 127.972 135.859 128.244 135.859C134.127 135.678 139.648 131.413 141.458 125.877C141.911 124.425 142.273 122.338 141.367 120.704C139.919 125.332 137.295 129.235 134.036 131.775C133.222 132.411 132.407 132.955 131.502 133.409C130.416 134.226 129.239 134.952 128.063 135.587C127.882 135.587 127.61 135.768 127.429 135.859ZM124.08 135.315C124.714 135.496 125.347 135.678 126.071 135.678C126.614 135.405 127.248 135.133 127.791 134.861C127.882 134.77 128.063 134.77 128.153 134.679C126.795 135.133 125.438 135.315 124.08 135.315ZM121.817 134.498C124.895 134.952 128.244 134.316 131.14 132.774C135.394 129.598 138.562 125.151 139.648 120.341C139.738 119.978 139.829 119.706 139.829 119.343C138.833 118.98 137.928 118.526 137.023 117.982C135.394 117.709 133.765 117.891 132.136 118.072H131.864C129.33 118.345 126.524 118.617 123.628 118.617C122.451 120.25 120.912 121.793 119.102 123.336C117.473 124.697 115.844 125.786 114.124 126.603C114.124 126.694 114.215 126.784 114.215 126.784C115.753 130.233 118.469 132.955 121.817 134.498ZM112.767 127.601C113.943 130.233 116.115 132.501 118.921 133.681C119.012 133.772 119.193 133.772 119.283 133.863C116.839 132.229 114.848 129.87 113.672 127.147C113.672 127.057 113.672 127.057 113.581 126.966C113.4 127.238 113.038 127.42 112.767 127.601ZM112.405 99.2875C107.155 101.193 102.177 104.46 98.3756 108.725C95.4793 111.992 93.9406 115.169 94.0311 118.163C94.1216 123.699 99.4617 127.601 104.349 128.146C105.707 128.236 107.064 128.236 108.422 127.964C107.155 127.51 106.069 126.603 105.254 125.332C103.987 123.427 103.625 120.976 103.444 119.161C103.082 115.531 103.173 108.816 107.517 104.46C110.051 101.919 113.762 100.558 117.835 100.558C120.007 100.558 122.994 101.012 124.804 103.19C125.257 103.734 125.619 104.279 125.89 105.005C126.343 106.094 126.614 107.183 126.705 108.362C129.058 107.546 131.864 106.82 134.67 107.092C133.765 105.912 132.769 104.642 131.502 103.734C130.054 102.736 128.334 102.101 126.705 101.647C122.089 100.286 117.201 99.469 112.405 99.2875ZM117.835 101.284C113.943 101.284 110.323 102.645 107.97 105.005C103.806 109.179 103.716 115.622 104.078 119.161C104.259 120.976 104.621 123.245 105.797 125.06C106.612 126.331 108.151 127.601 109.87 127.692C110.504 127.51 111.137 127.329 111.771 127.057C111.499 126.149 111.228 125.242 111.137 124.334C109.237 124.062 107.426 123.154 106.521 121.339C106.25 120.704 105.978 120.069 105.888 119.161C105.435 115.985 106.612 112.537 108.875 110.359C111.047 108.272 114.124 107.183 117.111 107.455C117.292 107.273 117.564 107.183 117.745 107.001C119.645 105.731 121.365 105.277 122.813 105.731C124.171 106.094 125.347 107.364 125.8 108.907C125.89 108.907 125.981 108.816 125.981 108.816C125.89 107.636 125.619 106.457 125.166 105.458C124.895 104.823 124.533 104.279 124.171 103.734C122.542 101.556 119.555 101.284 117.835 101.284ZM140.553 119.524C140.462 119.887 140.462 120.16 140.372 120.432C139.829 122.701 138.924 124.788 137.566 126.875C139.014 124.879 140.1 122.428 140.824 119.887C140.824 119.797 140.643 119.706 140.553 119.524ZM111.861 124.334C111.952 125.151 112.133 125.968 112.405 126.694C112.676 126.603 113.038 126.421 113.31 126.24C113.31 126.24 113.31 126.24 113.4 126.149C113.219 125.514 113.038 124.879 112.948 124.243C112.586 124.425 112.223 124.425 111.861 124.334ZM143.54 122.791C143.721 123.517 143.992 124.334 144.083 125.06C144.173 125.605 144.173 126.149 144.173 126.694C144.897 124.697 145.531 122.519 145.983 120.16C145.35 120.16 144.716 120.16 144.173 120.069C144.083 120.432 143.992 120.795 143.902 121.158C143.811 121.702 143.721 122.247 143.54 122.791ZM113.581 124.334C113.672 124.788 113.762 125.242 113.943 125.786C114.396 125.332 114.758 124.788 115.21 124.062C114.667 124.153 114.124 124.243 113.581 124.334ZM116.115 123.699C115.753 124.334 115.391 124.879 115.029 125.332C116.296 124.606 117.473 123.699 118.74 122.701C119.464 122.065 120.098 121.521 120.731 120.886C119.374 122.065 117.835 122.973 116.206 123.608C116.206 123.699 116.206 123.699 116.115 123.699ZM111.861 123.699C112.223 123.699 112.495 123.699 112.857 123.699C112.857 123.699 112.857 123.699 112.857 123.608C112.676 121.702 113.129 119.706 114.124 117.8C114.034 117.8 113.853 117.709 113.762 117.709C113.038 118.798 112.495 119.978 112.133 121.158C111.861 121.975 111.771 122.791 111.861 123.699ZM142.544 121.975C142.635 122.519 142.635 123.064 142.635 123.699C142.725 123.427 142.816 123.154 142.906 122.882C142.725 122.519 142.635 122.247 142.544 121.975ZM114.758 117.982C113.853 119.797 113.4 121.702 113.491 123.608V123.699C114.215 123.608 114.939 123.427 115.663 123.245C115.663 123.154 115.753 123.154 115.753 123.064C116.568 121.612 117.201 120.069 117.745 118.435C116.839 118.345 115.934 118.254 115.029 118.072C114.939 117.982 114.848 117.982 114.758 117.982ZM116.387 107.999C113.853 107.999 111.318 108.998 109.508 110.813C107.336 112.9 106.25 116.076 106.702 119.071C106.793 119.887 106.974 120.523 107.245 120.976C107.97 122.428 109.508 123.245 111.137 123.517C111.137 122.61 111.228 121.793 111.409 120.886C111.68 119.615 112.314 118.435 113.038 117.346C112.676 117.165 112.314 116.802 112.042 116.439C111.499 115.532 111.68 114.352 112.495 112.809C113.491 110.994 114.848 109.361 116.387 107.909C116.387 107.999 116.387 107.999 116.387 107.999ZM90.4108 103.008C90.3202 103.19 90.2297 103.462 90.1392 103.643C87.1524 110.359 85.9758 117.165 86.6999 123.245C87.786 119.524 89.1436 115.985 90.6823 112.718C91.7684 108.725 93.2165 104.914 95.1172 101.193C93.5786 101.647 91.9494 102.191 90.4108 103.008ZM118.469 118.435C117.926 119.887 117.383 121.43 116.658 122.791C118.831 121.884 120.731 120.432 122.18 118.617C120.912 118.617 119.645 118.526 118.469 118.435ZM142.544 119.978C142.725 120.523 142.997 121.067 143.178 121.612C143.268 121.43 143.268 121.249 143.359 121.067C143.449 120.704 143.54 120.432 143.63 120.069C143.449 120.069 143.268 120.069 143.087 120.069C142.816 119.978 142.635 119.978 142.544 119.978ZM109.599 82.4083C106.974 82.9528 104.168 83.4973 101.272 84.314C97.561 85.3122 92.6735 86.7642 88.4196 89.4867C85.4327 91.3924 81.4503 94.6593 79.4591 99.6505C77.4679 104.732 78.011 110.45 78.554 115.985L78.7351 117.709C78.8256 118.254 78.8256 118.889 78.9161 119.434C78.9161 119.524 78.9161 119.706 78.9161 119.797C79.6402 116.439 80.9978 112.991 82.8985 109.814C84.4371 107.183 85.9758 105.277 87.786 103.916C88.5101 103.371 89.2341 102.917 89.9582 102.464C92.945 96.1113 96.8369 91.7554 101.543 89.6682C101.996 89.4867 102.448 89.3052 102.992 89.1237C103.716 88.2162 104.53 87.3087 105.345 86.4012C106.521 85.04 107.879 83.588 109.599 82.4083ZM144.807 102.01C146.527 106.82 147.703 112.174 147.16 117.709C147.07 118.254 146.979 118.889 146.889 119.434C149.332 119.434 151.776 119.252 154.401 118.889C152.772 112.537 149.423 106.638 144.807 102.01ZM144.354 119.434C144.988 119.434 145.531 119.524 146.164 119.524C146.255 118.889 146.345 118.345 146.436 117.709C147.07 111.811 145.621 106.003 143.63 101.012C143.359 100.83 143.178 100.558 142.906 100.376C139.919 97.8355 136.57 95.8391 133.041 94.2963C135.032 96.1113 136.661 98.1985 137.838 100.558C138.019 101.012 138.29 101.465 138.471 101.919C142.544 105.277 145.078 110.359 144.988 115.169C144.897 116.62 144.626 118.072 144.354 119.434ZM142.182 119.252C142.454 119.343 142.725 119.343 142.997 119.343C143.178 119.343 143.449 119.343 143.63 119.434C143.902 117.982 144.173 116.62 144.173 115.169C144.264 110.903 142.273 106.547 138.833 103.28C139.286 104.551 139.648 106.003 140.01 107.546C140.191 108.362 140.281 109.088 140.462 109.814C141.186 110.54 141.73 111.448 142.092 112.537C142.635 114.352 142.363 116.439 142.001 117.982C141.911 118.254 141.911 118.435 141.82 118.708C142.001 118.889 142.092 119.071 142.182 119.252ZM140.915 118.98C141.005 118.98 141.096 118.98 141.096 119.071C141.096 118.98 141.186 118.889 141.186 118.798C141.096 118.526 140.915 118.254 140.824 117.982C140.824 118.254 140.734 118.617 140.734 118.889C140.734 118.798 140.824 118.889 140.915 118.98ZM137.295 117.256C138.381 117.437 139.286 117.8 140.1 118.254C140.191 117.709 140.191 117.165 140.281 116.62C138.924 113.807 137.385 111.085 135.665 108.453C135.575 108.272 135.394 108.09 135.303 107.909C135.213 107.909 135.122 107.909 135.032 107.909C132.226 107.546 129.33 108.362 126.886 109.179C126.886 109.905 126.886 110.631 126.795 111.448C129.601 112.083 132.045 113.807 134.398 115.35C135.303 115.985 136.299 116.711 137.295 117.256ZM118.65 117.8C120.007 117.891 121.365 117.982 122.723 117.982C123.718 116.62 124.533 115.078 125.076 113.444C125.257 112.9 125.347 112.355 125.438 111.902C123.356 111.72 121.455 112.174 119.826 112.9C119.555 114.533 119.193 116.167 118.65 117.8ZM126.614 112.083C126.433 113.172 126.071 114.261 125.619 115.259C125.257 116.167 124.714 117.074 124.171 117.891C126.886 117.8 129.42 117.619 131.864 117.346H132.136C133.312 117.256 134.579 117.074 135.846 117.165C135.213 116.802 134.579 116.348 134.036 115.895C131.683 114.352 129.33 112.718 126.614 112.083ZM115.12 117.346C116.115 117.528 117.02 117.619 118.016 117.709C118.469 116.257 118.831 114.715 119.102 113.172C118.921 113.263 118.74 113.354 118.559 113.444C118.197 113.717 117.835 114.08 117.473 114.352C116.477 115.35 115.663 116.257 115.12 117.346ZM140.915 116.53C141.096 116.893 141.277 117.256 141.458 117.619C141.73 116.167 142.001 114.352 141.548 112.718C141.367 112.083 141.096 111.539 140.734 111.085C140.915 112.991 141.005 114.806 140.915 116.53ZM114.124 117.074C114.215 117.074 114.305 117.165 114.396 117.165C114.667 116.711 114.939 116.257 115.21 115.804C114.848 116.257 114.486 116.711 114.124 117.074ZM117.473 108.09C115.663 109.451 114.215 111.266 113.129 113.172C112.405 114.443 112.314 115.441 112.676 116.076C112.857 116.348 113.129 116.62 113.491 116.802C114.667 115.259 116.206 113.898 118.107 112.9C118.469 112.628 118.831 112.355 119.193 112.083C119.283 111.448 119.374 110.722 119.374 110.087C119.374 109.633 119.464 109.179 119.283 108.907C119.102 108.544 118.559 108.272 117.745 108.09C117.654 108.09 117.564 108.09 117.473 108.09ZM136.208 108.09C137.657 110.359 139.105 112.718 140.281 115.169C140.281 113.535 140.191 111.902 139.919 110.087C138.833 109.179 137.566 108.453 136.208 108.09ZM118.197 107.546C119.012 107.727 119.645 108.09 119.917 108.635C120.188 109.088 120.188 109.724 120.098 110.177C120.098 110.631 120.007 111.176 119.917 111.629C121.727 110.54 123.537 109.724 125.257 109.088C124.895 107.727 123.899 106.638 122.723 106.275C121.455 105.912 120.007 106.275 118.197 107.546C118.288 107.455 118.197 107.455 118.197 107.546ZM125.438 109.724C124.171 110.177 122.723 110.813 121.365 111.629C122.632 111.266 123.99 111.085 125.438 111.266C125.528 110.631 125.528 110.177 125.438 109.724ZM126.071 109.451C126.071 109.724 126.162 109.996 126.162 110.268C126.162 109.996 126.162 109.724 126.162 109.451H126.071ZM96.0223 100.921C94.5742 103.734 93.3976 106.547 92.402 109.542C94.3932 106.094 96.6559 103.008 99.1902 100.286C98.3756 100.467 97.6515 100.558 96.8369 100.739C96.5654 100.83 96.2939 100.921 96.0223 100.921ZM135.665 107.273C137.023 107.546 138.562 108.181 139.738 109.088C139.648 108.635 139.557 108.09 139.467 107.636C139.014 105.549 138.471 103.825 137.838 102.282C137.657 102.191 137.566 102.01 137.385 101.919C133.584 99.0153 128.425 97.4725 122.813 97.4725C119.917 97.4725 117.02 97.9263 114.124 98.743C118.469 99.0153 122.723 99.832 126.977 101.102C128.696 101.647 130.416 102.191 131.955 103.28C133.493 104.369 134.67 105.821 135.665 107.273ZM102.086 90.1219C101.996 90.1219 101.905 90.2126 101.815 90.2126C97.4705 92.2091 93.8501 96.1113 90.9538 101.919C92.4925 101.193 94.1216 100.739 95.5698 100.286C97.38 96.7465 99.5522 93.2981 102.086 90.1219ZM122.904 96.7465C128.334 96.7465 133.403 98.2893 137.295 101.012C137.295 100.921 137.204 100.921 137.204 100.83C135.846 98.1078 133.765 95.5668 131.14 93.5703C126.886 92.1184 122.361 91.4831 117.926 91.6646C115.029 91.8461 112.495 92.2999 110.232 93.1166C107.155 94.2963 104.168 96.2928 101.181 99.1968C104.892 98.6523 108.603 98.38 112.314 98.5615C115.663 97.3818 119.283 96.7465 122.904 96.7465C122.813 96.7465 122.904 96.7465 122.904 96.7465ZM103.354 89.6682C100.729 92.9351 98.3756 96.4743 96.4749 100.195C96.5654 100.195 96.6559 100.104 96.7464 100.104C97.8325 99.832 98.9186 99.6505 100.005 99.469C103.263 96.1113 106.612 93.8426 110.051 92.5721C112.405 91.6646 114.939 91.2109 118.016 91.0294C121.908 90.8479 125.8 91.3016 129.511 92.3906C128.063 91.4831 126.524 90.6664 124.804 90.0312C119.917 88.1254 114.124 87.6717 108.06 88.5792C106.159 88.8514 104.621 89.2144 103.354 89.6682ZM131.502 92.9351C135.756 94.3871 139.648 96.6558 143.087 99.469C142.273 97.5633 141.367 95.7483 140.553 94.1148C138.29 89.5774 135.484 85.1307 131.049 82.6805C129.058 81.5915 126.976 81.047 124.895 80.7748C124.895 80.7748 124.895 80.7748 124.804 80.7748C120.55 80.7748 116.115 81.1378 111.228 82.0453C109.056 83.3158 107.155 85.1307 105.616 86.7642C105.073 87.3994 104.53 88.0347 103.987 88.5792C105.073 88.2162 106.34 87.9439 107.698 87.7624C113.853 86.7642 119.736 87.3087 124.804 89.2144C127.339 90.2126 129.511 91.4831 131.502 92.9351ZM128.425 80.9563C129.42 81.2285 130.416 81.6823 131.411 82.2268C136.027 84.677 138.833 89.3052 141.186 93.9333C142.001 95.5668 142.906 97.3818 143.721 99.1968C143.721 94.4778 142.092 90.0312 139.105 86.5827C136.208 83.225 132.317 81.2285 128.425 80.9563ZM118.831 80.3211C117.201 80.3211 115.482 80.5025 113.853 80.9563C115.934 80.6841 117.926 80.4118 119.917 80.3211C119.464 80.3211 119.193 80.3211 118.831 80.3211Z" fill="#407BFF"/>
</g>
</g>
<defs>
<clipPath id="clip0">
<rect width="399" height="361" fill="white"/>
</clipPath>
<clipPath id="clip1">
<rect width="285.195" height="339.763" fill="white" transform="translate(31.2188 0.371094)"/>
</clipPath>
</defs>
</svg>
