<svg width="400" height="361" viewBox="0 0 400 361" fill="none" xmlns="http://www.w3.org/2000/svg">
<g clip-path="url(#clip0)">
<path d="M236.793 69.0957C236.793 69.0957 260.904 121.214 242.802 169.731C224.624 218.324 157.92 287.918 150.466 291.597C150.466 291.597 167.579 264.464 136.319 264.694C105.058 264.924 89.3901 257.26 85.9675 246.223C82.6208 235.186 101.179 199.546 84.066 190.962C67.0287 182.377 46.1884 184.983 32.2695 173.103C32.2695 173.103 64.8229 170.344 88.7817 167.891C113.957 165.285 189.712 112.17 195.797 73.0813" fill="#FFB3D1"/>
<g opacity="0.4">
<g opacity="0.4">
<path opacity="0.4" d="M236.793 69.0957C236.793 69.0957 260.904 121.214 242.802 169.731C224.624 218.324 157.92 287.918 150.466 291.597C150.466 291.597 167.579 264.464 136.319 264.694C105.058 264.924 89.3901 257.26 85.9675 246.223C82.6208 235.186 101.179 199.546 84.066 190.962C67.0287 182.377 46.1884 184.983 32.2695 173.103C32.2695 173.103 64.8229 170.344 88.7817 167.891C113.957 165.285 189.712 112.17 195.797 73.0813" fill="#FB72A8"/>
</g>
</g>
<path d="M148.944 158.848C148.944 158.848 148.792 159.001 148.488 159.155C148.183 159.385 147.727 159.691 147.195 159.998C146.13 160.764 144.456 161.761 142.479 163.064C138.448 165.593 132.743 168.812 126.202 171.954C119.661 175.097 113.576 177.55 109.089 179.159C106.883 180.002 105.058 180.615 103.765 180.999C103.156 181.152 102.7 181.305 102.32 181.458C102.015 181.535 101.787 181.612 101.787 181.612C101.787 181.612 101.939 181.535 102.243 181.382C102.624 181.229 103.08 181.075 103.689 180.845C104.906 180.385 106.731 179.772 108.937 178.929C113.348 177.243 119.433 174.79 125.974 171.648C132.515 168.505 138.22 165.286 142.327 162.834C144.38 161.607 145.978 160.611 147.118 159.921C147.651 159.615 148.107 159.308 148.411 159.155C148.792 158.925 148.944 158.771 148.944 158.848Z" fill="#263238"/>
<path d="M169.481 187.743C169.481 187.743 169.329 187.896 168.949 188.126C168.568 188.432 168.036 188.739 167.427 189.275C166.134 190.272 164.233 191.652 161.875 193.414C157.236 196.94 150.847 201.999 144.153 207.9C137.46 213.802 131.68 219.474 127.572 223.613C125.519 225.682 123.845 227.445 122.781 228.595C122.248 229.131 121.792 229.591 121.488 229.974C121.183 230.281 121.031 230.434 121.031 230.434C121.031 230.434 121.183 230.281 121.412 229.897C121.716 229.514 122.172 229.054 122.628 228.518C123.693 227.292 125.367 225.529 127.344 223.459C131.375 219.244 137.156 213.495 143.849 207.594C150.542 201.692 156.931 196.71 161.647 193.184C164.005 191.422 165.906 190.042 167.275 189.122C167.96 188.662 168.416 188.356 168.873 188.049C169.329 187.819 169.481 187.666 169.481 187.743Z" fill="#263238"/>
<path d="M166.743 196.25C166.743 196.25 166.667 196.327 166.515 196.557C166.287 196.787 166.059 197.016 165.831 197.323C165.222 198.013 164.309 198.933 163.168 200.082C160.887 202.382 157.616 205.447 153.889 208.667C150.162 211.886 146.588 214.645 144.002 216.638C142.709 217.634 141.644 218.4 140.883 218.86C140.503 219.09 140.275 219.32 140.046 219.474C139.818 219.627 139.742 219.703 139.742 219.627C139.742 219.627 139.818 219.55 140.046 219.397C140.275 219.244 140.503 219.014 140.883 218.784C141.644 218.171 142.709 217.404 143.925 216.408C146.511 214.415 149.934 211.579 153.737 208.36C157.464 205.141 160.735 202.075 163.092 199.852C164.233 198.779 165.146 197.86 165.831 197.17C166.135 196.863 166.363 196.633 166.591 196.48C166.591 196.327 166.743 196.25 166.743 196.25Z" fill="#263238"/>
<path d="M162.635 319.344L158.756 337.125L151.682 350.232C151.15 351.152 151.53 352.378 152.519 352.838C153.052 353.068 153.66 353.068 154.192 352.761C157.463 350.845 169.633 343.717 169.785 342.414C170.013 340.881 175.109 323.942 175.109 323.942L162.635 319.344Z" fill="#263238"/>
<path d="M170.393 340.576C170.393 340.576 170.165 340.806 169.709 341.113C169.177 341.496 168.568 341.879 167.807 342.416C166.134 343.565 163.928 345.022 161.495 346.708C159.061 348.317 156.855 349.85 155.182 351C154.421 351.536 153.813 351.92 153.28 352.303C152.824 352.609 152.596 352.763 152.52 352.763C152.52 352.763 152.748 352.533 153.204 352.226C153.66 351.92 154.269 351.383 155.029 350.847C156.627 349.697 158.832 348.164 161.266 346.478C163.7 344.792 165.982 343.335 167.655 342.339C168.492 341.802 169.177 341.419 169.633 341.113C170.165 340.729 170.393 340.576 170.393 340.576Z" fill="#455A64"/>
<path d="M240.748 323.56L239.683 337.739C239.683 337.739 253.602 343.564 253.678 346.247H226.297L227.057 323.023L240.748 323.56Z" fill="#263238"/>
<path d="M252.841 345.251C252.841 345.251 252.461 345.251 251.776 345.251C251.016 345.251 250.103 345.174 248.886 345.174C246.452 345.098 243.106 345.021 239.455 344.944C235.804 344.868 232.457 344.868 230.023 344.944C228.883 344.944 227.894 344.944 227.133 344.944C226.449 344.944 226.068 344.944 226.068 344.868C226.068 344.868 226.449 344.791 227.133 344.791C227.818 344.714 228.806 344.714 230.023 344.638C232.457 344.561 235.804 344.484 239.455 344.561C243.106 344.638 246.452 344.791 248.886 344.944C250.103 345.021 251.092 345.098 251.776 345.174C252.461 345.174 252.841 345.251 252.841 345.251Z" fill="#455A64"/>
<path d="M179.445 180.846L155.258 331.3L177.467 332.603L211.77 180.846H179.445Z" fill="#FB72A8"/>
<path d="M212.15 174.255L223.331 332.604H244.171V164.904L212.15 174.255Z" fill="#FB72A8"/>
<path d="M236.641 322.715C236.565 322.715 234.815 291.367 232.838 252.661C230.86 213.955 229.339 182.607 229.491 182.607C229.567 182.607 231.316 213.955 233.294 252.661C235.272 291.367 236.793 322.715 236.641 322.715Z" fill="#263238"/>
<path d="M244.171 322.717C244.171 322.717 244.247 322.717 244.171 322.717C244.247 322.717 244.247 322.717 244.171 322.717C244.247 322.793 244.247 322.717 244.171 322.717C244.095 322.793 244.095 322.793 244.019 322.793C243.867 322.793 243.639 322.87 243.411 322.947C242.878 323.023 242.118 323.177 241.129 323.253C239.151 323.483 236.489 323.79 233.523 324.02C227.59 324.556 222.723 324.786 222.723 324.48C222.723 324.48 222.799 324.48 222.951 324.48C223.103 324.48 223.331 324.48 223.559 324.48C224.168 324.403 224.928 324.403 225.841 324.326C227.895 324.173 230.557 323.943 233.447 323.637C236.337 323.407 238.999 323.177 241.053 322.947C243.031 322.793 244.324 322.717 244.171 322.717Z" fill="#263238"/>
<path d="M192.603 184.373C192.603 184.373 192.603 184.526 192.603 184.756C192.603 184.986 192.526 185.369 192.45 185.829C192.298 186.749 192.146 188.129 191.842 189.815C191.309 193.264 190.549 198.246 189.484 204.377C187.43 216.717 184.54 233.656 180.965 252.357C177.391 271.059 173.892 287.921 171.23 300.107C169.937 306.239 168.796 311.144 168.035 314.517C167.655 316.203 167.351 317.506 167.123 318.426C167.047 318.885 166.97 319.192 166.894 319.422C166.818 319.652 166.818 319.728 166.818 319.728C166.818 319.728 166.818 319.575 166.894 319.345C166.97 319.115 167.047 318.732 167.123 318.349C167.351 317.429 167.579 316.126 167.959 314.44C168.72 310.991 169.709 306.086 171.002 300.031C173.588 287.844 177.086 270.982 180.585 252.281C184.16 233.579 187.126 216.641 189.18 204.301C190.245 198.169 191.081 193.187 191.614 189.738C191.918 188.052 192.146 186.672 192.298 185.753C192.374 185.293 192.45 184.986 192.45 184.756C192.603 184.45 192.603 184.373 192.603 184.373Z" fill="#263238"/>
<path d="M179.749 322.716C179.749 322.716 179.445 322.716 178.837 322.716C178.152 322.716 177.315 322.716 176.403 322.64C174.273 322.563 171.383 322.41 168.264 322.333C165.146 322.18 162.332 322.026 160.126 321.95C159.137 321.873 158.3 321.873 157.692 321.796C157.084 321.796 156.779 321.796 156.779 321.72C156.779 321.643 158.072 321.566 160.126 321.643C162.18 321.643 165.07 321.796 168.264 321.873C171.459 322.026 174.273 322.18 176.327 322.333C177.391 322.41 178.228 322.486 178.76 322.486C179.369 322.64 179.749 322.716 179.749 322.716Z" fill="#263238"/>
<g opacity="0.3">
<path opacity="0.3" d="M178.303 188.126L178.759 185.136L211.16 183.297L209.943 188.739L178.303 188.126Z" fill="black"/>
</g>
<g opacity="0.3">
<path opacity="0.3" d="M213.061 188.741L212.148 183.299L244.169 181.689V189.431L213.061 188.741Z" fill="black"/>
</g>
<path d="M181.498 69.5566L204.164 64.498L223.179 65.2645L239.76 70.6297L230.328 118.226L194.2 121.522L181.498 69.5566Z" fill="#263238"/>
<path d="M200.74 65.2617L176.934 70.5502L188.799 134.779C188.799 134.779 178.151 160.838 176.934 185.058L212.149 183.219C212.149 183.219 214.583 151.258 213.746 138.994C212.91 126.731 212.377 105.194 212.377 105.194L200.74 65.2617Z" fill="#FB72A8"/>
<path d="M132.668 102.131C132.668 102.131 140.73 93.8529 149.173 89.4075C155.41 86.1117 167.579 82.0495 172.371 76.761C175.489 73.3886 176.934 70.5527 176.934 70.5527L182.563 100.904L158.68 104.736C158.68 104.736 162.255 106.729 160.049 108.109L175.033 125.737L164.765 145.205C164.689 145.205 131.299 116.157 132.668 102.131Z" fill="#FB72A8"/>
<path d="M223.179 65.2617C223.179 65.2617 228.199 65.8749 231.697 67.0246C236.793 68.7108 245.312 70.5502 245.312 70.5502L233.143 135.622C233.143 135.622 249.647 156.24 245.312 181.456C245.312 181.456 222.494 183.295 212.15 183.219L211.998 104.044C211.998 104.044 220.669 92.9306 221.734 82.047C222.875 71.1634 223.179 65.2617 223.179 65.2617Z" fill="#FB72A8"/>
<path d="M245.389 70.6289C245.389 70.6289 259.003 84.8849 266.533 90.2501C274.063 95.6152 283.494 103.663 283.494 107.955C283.494 110.484 282.582 113.627 281.897 115.773C281.365 117.382 280.604 118.839 279.615 120.142C276.193 124.74 267.066 136.774 260.981 142.445L245.769 126.273L260.22 110.178C260.22 110.178 240.825 102.13 239.836 99.9074C238.924 97.7613 245.389 70.6289 245.389 70.6289Z" fill="#FB72A8"/>
<path d="M211.846 112.632C211.846 112.632 211.694 112.555 211.466 112.325C211.238 112.096 210.934 111.789 210.553 111.329C209.717 110.486 208.5 109.26 207.055 107.727C204.088 104.584 199.981 100.216 195.189 95.2336L195.113 95.157V95.0803C195.646 92.9342 196.102 90.7115 196.711 88.4888C196.939 87.4924 197.167 86.496 197.395 85.5763L197.623 85.8062C194.961 85.8062 192.451 85.8062 190.093 85.8062H189.865L189.941 85.5763C191.767 79.9812 193.364 75.1526 194.505 71.7035C195.037 70.0173 195.494 68.7144 195.874 67.718C196.026 67.2581 196.178 66.9515 196.254 66.6449C196.33 66.415 196.406 66.2617 196.406 66.2617C196.406 66.2617 196.406 66.415 196.33 66.6449C196.254 66.9515 196.178 67.2581 196.026 67.718C195.722 68.7144 195.342 70.0173 194.809 71.7035C193.744 75.1526 192.147 79.9812 190.398 85.653L190.246 85.423C192.603 85.423 195.113 85.423 197.775 85.423H198.004L197.928 85.653C197.699 86.6493 197.471 87.5691 197.243 88.5655C196.711 90.8648 196.178 93.0875 195.646 95.157L195.57 95.0037C200.285 99.9856 204.317 104.431 207.283 107.573C208.728 109.106 209.869 110.409 210.706 111.252C211.086 111.636 211.39 112.019 211.618 112.249C211.77 112.555 211.846 112.632 211.846 112.632Z" fill="#263238"/>
<path d="M212.15 183.296C212.074 183.296 211.922 165.438 211.846 143.364C211.77 121.29 211.846 103.432 211.922 103.432C211.998 103.432 212.15 121.29 212.226 143.364C212.302 165.438 212.302 183.296 212.15 183.296Z" fill="#263238"/>
<path d="M226.829 65.875C226.829 65.875 226.905 66.0283 226.905 66.3349C226.982 66.6415 227.058 67.1013 227.134 67.5612C227.362 68.7109 227.59 70.3204 227.894 72.2365C228.579 76.2987 229.415 81.8938 230.48 88.2554L230.556 88.4853H230.328C228.959 88.332 227.59 88.1021 226.145 87.9488L226.373 87.6422C226.677 88.1788 226.906 88.7919 227.21 89.4051C227.818 90.6314 228.351 91.7811 228.883 92.8541L228.959 92.9308L228.883 93.0074C224.472 98.5259 220.593 103.431 217.778 106.957C216.409 108.643 215.268 110.099 214.432 111.096C214.051 111.556 213.747 111.939 213.519 112.169C213.291 112.399 213.215 112.552 213.215 112.552C213.215 112.552 213.291 112.399 213.519 112.169C213.747 111.862 214.051 111.479 214.356 111.019C215.116 110.023 216.257 108.566 217.55 106.804C220.364 103.201 224.167 98.2959 228.503 92.7775V93.0074C227.97 91.8577 227.362 90.708 226.829 89.5584C226.525 88.9452 226.221 88.332 225.993 87.7955L225.841 87.4889L226.221 87.5656C227.666 87.7955 229.111 87.9488 230.404 88.1788L230.176 88.4087C229.187 81.9705 228.351 76.3754 227.742 72.3132C227.438 70.3204 227.21 68.7109 227.058 67.6378C226.982 67.1013 226.905 66.7181 226.905 66.3349C226.829 66.0283 226.829 65.875 226.829 65.875Z" fill="#263238"/>
<path d="M208.878 157.392C208.042 156.395 206.521 155.859 205.76 156.855C204.999 157.468 204.695 158.618 204.999 159.538C205.456 160.764 207.053 161.3 208.194 160.687C209.335 160.074 209.639 158.388 208.878 157.392Z" fill="#263238"/>
<path d="M209.259 136.696C208.423 135.7 206.901 135.163 206.141 136.16C205.38 136.773 205.076 137.923 205.38 138.842C205.837 140.069 207.434 140.605 208.575 139.992C209.716 139.379 210.096 137.693 209.259 136.696Z" fill="#263238"/>
<path d="M263.566 135.013C262.729 134.016 261.208 133.48 260.447 134.476C259.687 135.089 259.383 136.239 259.687 137.159C260.143 138.385 261.741 138.922 262.881 138.308C264.022 137.695 264.403 136.009 263.566 135.013Z" fill="#263238"/>
<path d="M164.537 136.927C163.7 135.93 162.179 135.394 161.418 136.39C160.658 137.003 160.353 138.153 160.658 139.073C161.114 140.299 162.711 140.836 163.852 140.222C164.993 139.609 165.373 137.923 164.537 136.927Z" fill="#263238"/>
<path d="M160.201 108.339C160.125 108.493 157.691 106.883 154.192 106.653C150.693 106.347 148.031 107.42 147.955 107.266C147.955 107.19 148.564 106.883 149.704 106.577C150.845 106.27 152.443 106.04 154.192 106.193C155.941 106.347 157.539 106.883 158.603 107.343C159.668 107.88 160.201 108.263 160.201 108.339Z" fill="#263238"/>
<path d="M147.955 104.658C147.955 104.581 148.487 104.275 149.476 103.968C150.465 103.662 151.91 103.355 153.507 103.432C155.105 103.432 156.55 103.738 157.539 104.045C158.527 104.352 159.06 104.658 159.06 104.735C159.06 104.888 156.626 103.815 153.507 103.815C150.389 103.815 148.031 104.811 147.955 104.658Z" fill="#263238"/>
<path d="M183.248 104.735C183.248 104.735 183.096 104.275 182.944 103.432C182.716 102.512 182.488 101.362 182.183 99.9061C181.499 96.917 180.51 92.8548 179.445 88.3327C178.38 83.8106 177.544 79.6718 177.087 76.6826C176.859 75.1497 176.707 73.9234 176.631 73.0803C176.555 72.2372 176.479 71.7773 176.555 71.7773C176.555 71.7773 176.707 72.2372 176.783 73.0803C176.935 73.9234 177.163 75.1497 177.392 76.606C177.924 79.5952 178.837 83.6573 179.902 88.1794C180.966 92.7015 181.955 96.7637 182.488 99.7528C182.792 101.209 183.02 102.435 183.172 103.279C183.248 104.275 183.248 104.735 183.248 104.735Z" fill="#263238"/>
<path d="M244.552 72.0859C244.552 72.0859 244.552 72.5458 244.4 73.4655C244.248 74.3853 244.02 75.6116 243.791 77.1445C243.259 80.287 242.574 84.5025 241.814 89.1778C241.053 93.8532 240.293 98.1453 239.76 101.211C239.456 102.744 239.228 103.97 239.076 104.813C238.924 105.657 238.771 106.116 238.771 106.116C238.771 106.116 238.771 105.657 238.924 104.737C239.076 103.817 239.304 102.591 239.532 101.058C240.064 97.9154 240.749 93.6999 241.51 89.0245C242.27 84.3492 243.031 80.057 243.563 76.9912C243.867 75.4583 244.096 74.232 244.248 73.3889C244.4 72.5458 244.476 72.0859 244.552 72.0859Z" fill="#263238"/>
<path d="M270.488 102.284C270.488 102.361 269.651 102.284 268.282 102.361C266.989 102.437 265.011 102.744 263.49 104.047C261.969 105.427 261.284 107.189 260.828 108.492C260.372 109.795 260.144 110.562 260.068 110.562C259.991 110.562 260.144 109.719 260.6 108.416C260.98 107.113 261.665 105.197 263.262 103.817C264.099 103.127 265.011 102.667 265.924 102.437C266.837 102.207 267.673 102.131 268.282 102.131C268.966 102.131 269.499 102.207 269.879 102.207C270.259 102.207 270.488 102.284 270.488 102.284Z" fill="#263238"/>
<path d="M274.062 105.886C274.062 105.963 273.225 105.886 271.856 105.963C270.487 106.039 268.661 106.346 266.76 106.959C264.858 107.649 263.185 108.492 262.044 109.259C260.903 110.025 260.295 110.562 260.219 110.485C260.219 110.485 260.371 110.332 260.599 110.025C260.903 109.718 261.284 109.412 261.816 109.029C262.881 108.186 264.554 107.266 266.532 106.576C268.509 105.886 270.411 105.656 271.78 105.656C272.464 105.656 272.997 105.656 273.377 105.733C273.909 105.81 274.062 105.81 274.062 105.886Z" fill="#263238"/>
<path d="M194.504 136.696C194.428 136.773 193.363 136.313 191.918 135.777C190.549 135.24 189.332 134.857 189.408 134.78C189.408 134.704 190.625 134.857 192.07 135.393C193.515 135.93 194.58 136.62 194.504 136.696Z" fill="#263238"/>
<path d="M195.492 128.957C195.568 129.034 193.743 130.26 191.765 132.023C189.788 133.786 188.267 135.319 188.191 135.242C188.114 135.165 189.484 133.479 191.461 131.716C193.515 129.953 195.416 128.88 195.492 128.957Z" fill="#263238"/>
<path d="M245.387 181.535C245.387 181.612 230.099 182.532 211.16 183.528C192.222 184.524 176.934 185.291 176.934 185.138C176.934 185.061 192.222 184.141 211.16 183.145C230.023 182.148 245.387 181.382 245.387 181.535Z" fill="#263238"/>
<g opacity="0.3">
<g opacity="0.3">
<path opacity="0.3" d="M259.458 109.793C258.469 106.881 259.61 103.355 262.12 101.592C262.652 101.209 263.337 100.903 263.945 101.056C264.63 101.209 265.162 101.899 264.858 102.512C264.706 102.895 264.25 103.125 263.945 103.355C262.805 104.122 261.968 105.348 261.436 106.651C260.903 107.954 260.675 109.334 260.447 110.713" fill="black"/>
</g>
</g>
<g opacity="0.3">
<g opacity="0.3">
<path opacity="0.3" d="M190.094 85.5738C190.246 85.957 192.984 86.2636 193.44 87.4133C193.973 88.563 193.745 89.8659 193.516 91.0922C193.212 92.3186 192.832 93.5449 192.984 94.7712C193.212 96.9939 195.038 98.6801 196.711 100.136C201.427 104.199 207.131 108.567 211.847 112.63C207.587 107.571 202.111 102.436 197.472 97.7604C196.787 97.0706 196.102 96.3808 195.722 95.461C195.342 94.3113 195.646 93.0084 195.95 91.8587C196.331 90.2491 196.787 88.7162 197.167 87.1067C197.243 86.7235 197.472 86.0337 197.548 85.8037C197.548 85.8037 196.255 85.5738 195.874 85.6504C195.874 85.6504 191.843 85.3439 190.094 85.5738Z" fill="black"/>
</g>
</g>
<path d="M163.928 138.767C163.928 138.767 164.004 138.537 164.156 138.154C164.308 137.771 164.612 137.234 164.993 136.544C165.753 135.165 166.818 133.325 168.263 131.486C169.708 129.569 171.077 128.037 172.218 126.887C172.751 126.35 173.207 125.891 173.511 125.661C173.815 125.354 174.044 125.201 174.044 125.277C174.12 125.354 173.435 125.967 172.37 127.117C171.306 128.267 169.936 129.876 168.567 131.716C167.198 133.632 166.057 135.395 165.221 136.697C164.46 137.924 164.004 138.767 163.928 138.767Z" fill="#263238"/>
<path d="M169.557 119.758C169.633 119.834 168.72 120.678 167.427 122.134C166.134 123.59 164.385 125.736 162.788 128.265C161.191 130.795 159.974 133.247 159.213 135.087C158.452 136.926 158.072 138.076 157.996 138.076C157.996 138.076 158.072 137.769 158.224 137.233C158.376 136.696 158.605 135.93 158.985 135.01C159.669 133.171 160.886 130.641 162.484 128.112C164.081 125.583 165.83 123.437 167.199 121.981C167.884 121.291 168.492 120.678 168.873 120.371C169.329 119.911 169.557 119.758 169.557 119.758Z" fill="#263238"/>
<path d="M267.598 135.242C267.598 135.242 267.37 135.012 266.99 134.628C266.533 134.169 266.001 133.555 265.392 132.866C264.023 131.409 262.198 129.34 259.992 127.194C257.862 125.048 255.809 123.132 254.364 121.752C253.679 121.139 253.071 120.602 252.614 120.142C252.234 119.759 252.006 119.529 252.006 119.529C252.006 119.529 252.31 119.683 252.69 119.989C253.147 120.296 253.755 120.832 254.516 121.522C256.037 122.825 258.091 124.665 260.22 126.887C262.35 129.033 264.251 131.103 265.544 132.636C266.229 133.402 266.685 134.015 267.066 134.475C267.446 134.935 267.598 135.242 267.598 135.242Z" fill="#263238"/>
<path d="M172.828 129.723L177.848 132.405L188.877 135.548C188.877 135.548 186.595 150.8 185.15 152.103C183.705 153.406 167.58 139.687 167.58 139.687L172.828 129.723Z" fill="#FFBE9D"/>
<path d="M248.126 128.803L244.551 131.639L234.207 136.621C234.207 136.621 238.999 151.26 240.596 152.333C242.193 153.406 255.884 137.157 255.884 137.157L248.126 128.803Z" fill="#FFBE9D"/>
<path d="M197.09 18.8945C196.938 22.8034 191.766 25.1794 191.842 29.0883C191.842 30.7745 192.906 32.3074 193.135 33.917C193.439 36.1397 192.146 38.2858 191.689 40.5085C190.777 45.1072 193.363 49.8592 197.318 52.3885C201.197 54.9178 206.141 55.3776 210.704 54.7645" fill="#263238"/>
<path d="M228.426 17.8984C228.274 19.9679 229.643 21.884 231.012 23.4935C232.381 25.1031 233.978 26.7126 234.283 28.7821C234.815 32.461 231.24 35.9101 231.925 39.589C232.305 41.5818 233.902 43.1147 234.206 45.1075C234.511 47.0236 233.446 48.9397 232.229 50.396C230.936 51.8523 229.491 51.6223 228.35 53.2319C227.209 54.9181 225.307 56.6043 223.482 57.6007C219.451 59.8234 214.583 56.6043 212.682 55.9911" fill="#263238"/>
<path d="M196.329 21.1172C196.253 19.2011 198.003 17.7448 199.828 17.055C201.577 16.3652 203.555 16.0586 205.152 15.0622C206.521 14.1425 207.51 12.6096 208.651 11.4599C211.541 8.47072 216.029 7.32104 220.06 8.39408C224.015 9.46711 227.286 12.8395 228.274 16.9017C228.959 19.5843 228.502 22.8034 226.373 24.6429C223.939 26.7123 220.212 26.2524 217.094 25.6393C213.899 24.9494 210.324 24.3363 207.738 26.2524C206.141 27.4021 205.228 29.2416 204.239 30.9278C203.251 32.614 202.034 34.3768 200.208 34.99C198.383 35.6031 195.873 34.5301 195.797 32.5373" fill="#263238"/>
<path d="M203.782 21.4993C202.109 21.6526 200.892 23.1088 200.968 24.7184L202.87 67.8696C202.946 72.9282 210.324 75.8407 215.724 75.6874C221.2 75.5341 221.352 72.8516 221.428 68.0229C221.58 59.8985 221.504 56.9094 221.504 56.9094C221.504 56.9094 228.426 55.7597 229.795 46.6389C230.479 42.1168 230.251 34.6822 229.871 28.6273C229.491 23.1855 225.916 16.5173 220.515 17.0539L203.782 21.4993Z" fill="#FFBE9D"/>
<path d="M227.058 33.9192C227.058 34.5327 226.602 35.0694 225.917 35.0694C225.308 35.0694 224.775 34.6094 224.699 33.9959C224.699 33.3825 225.156 32.8457 225.841 32.8457C226.525 32.8457 227.058 33.3058 227.058 33.9192Z" fill="#263238"/>
<path d="M228.35 32.6167C228.198 32.77 227.361 32.0802 226.068 32.1568C224.851 32.1568 223.939 32.77 223.787 32.6167C223.711 32.54 223.863 32.3101 224.243 32.0035C224.623 31.6969 225.308 31.3903 226.068 31.467C226.829 31.467 227.514 31.7736 227.894 32.0802C228.274 32.2334 228.426 32.54 228.35 32.6167Z" fill="#263238"/>
<path d="M215.041 33.9173C215.041 34.5307 214.584 35.0675 213.899 35.0675C213.29 35.0675 212.758 34.6074 212.682 33.994C212.682 33.3805 213.138 32.8438 213.823 32.8438C214.432 32.8438 214.964 33.3038 215.041 33.9173Z" fill="#263238"/>
<path d="M216.104 32.8472C215.952 33.0004 215.115 32.3106 213.822 32.3873C212.605 32.3873 211.693 33.0004 211.54 32.8472C211.464 32.7705 211.617 32.5406 211.997 32.234C212.377 31.9274 213.062 31.6208 213.822 31.6975C214.583 31.6975 215.267 32.004 215.648 32.3106C216.104 32.5406 216.18 32.7705 216.104 32.8472Z" fill="#263238"/>
<path d="M220.667 42.1206C220.667 42.044 221.428 41.8907 222.721 41.7374C223.025 41.7374 223.329 41.6607 223.405 41.4308C223.481 41.2009 223.329 40.8176 223.177 40.5111C222.873 39.7446 222.569 38.9015 222.264 38.0584C220.971 34.6094 219.982 31.7735 220.135 31.6969C220.287 31.6202 221.428 34.3795 222.797 37.9051C223.101 38.7482 223.405 39.5913 223.709 40.3578C223.861 40.741 224.014 41.1242 223.861 41.5841C223.785 41.814 223.557 41.9673 223.329 42.044C223.101 42.1206 222.949 42.1206 222.797 42.1206C221.428 42.1973 220.667 42.1973 220.667 42.1206Z" fill="#263238"/>
<path d="M221.58 56.9906C221.58 56.9906 215.495 57.3738 209.486 53.7715C209.562 53.7715 212.833 60.0564 221.428 59.1366L221.58 56.9906Z" fill="#EB996E"/>
<path d="M220.136 45.1848C219.679 44.5716 218.919 44.265 218.158 44.3417C217.626 44.4183 217.093 44.6482 216.713 45.1081C216.409 45.568 216.333 46.1811 216.637 46.5644C216.941 47.0242 217.702 47.1775 218.234 46.9476C218.843 46.7943 219.375 46.4111 219.832 45.9512C219.984 45.8746 220.136 45.7213 220.212 45.568C220.288 45.4913 220.288 45.338 220.136 45.1848Z" fill="#E8505B"/>
<path d="M217.017 43.0391C217.245 43.0391 217.245 44.4187 218.386 45.3384C219.527 46.3348 220.972 46.1815 220.972 46.3348C220.972 46.4114 220.668 46.5647 220.06 46.6414C219.451 46.6414 218.614 46.4881 217.854 45.8749C217.169 45.2618 216.865 44.4953 216.789 43.9588C216.789 43.3456 216.941 43.0391 217.017 43.0391Z" fill="#263238"/>
<path d="M216.713 30.6975C216.561 31.0041 215.344 30.8508 213.899 31.0807C212.454 31.234 211.237 31.6939 211.085 31.3873C211.009 31.234 211.237 30.9274 211.693 30.6208C212.15 30.3142 212.91 30.0077 213.823 29.8544C214.736 29.7777 215.496 29.931 216.029 30.0843C216.485 30.2376 216.713 30.4675 216.713 30.6975Z" fill="#263238"/>
<path d="M227.894 28.9373C227.665 29.2438 226.829 28.9373 225.764 28.9373C224.699 28.8606 223.862 29.1672 223.634 28.8606C223.558 28.7073 223.71 28.4007 224.091 28.1708C224.471 27.8642 225.079 27.7109 225.764 27.7109C226.448 27.7109 227.057 28.0175 227.437 28.2475C227.894 28.554 227.97 28.8606 227.894 28.9373Z" fill="#263238"/>
<path d="M199.981 51.9298C202.491 52.4664 202.643 51.1634 204.544 49.4006C206.37 47.6377 207.359 45.0318 207.054 42.5025C206.75 40.2798 205.609 37.9804 206.37 35.911C207.359 33.1518 211.238 32.232 212.302 29.4728C212.911 27.8633 212.379 25.9471 213.063 24.3376C213.672 22.8813 215.269 21.9616 216.79 21.4251C218.311 20.8885 219.908 20.5053 221.201 19.5089C222.494 18.5125 223.255 16.5964 222.418 15.2168C215.725 16.0599 209.032 17.6694 202.719 20.0454C201.274 20.582 199.677 21.2718 198.84 22.5747C197.927 23.9543 197.927 25.7938 198.079 27.48C198.46 35.6044 198.84 43.8055 199.22 51.9298" fill="#263238"/>
<path d="M194.352 33.3794C194.048 30.3903 191.614 27.7077 188.724 27.1712C185.757 26.6346 182.563 28.2442 181.27 30.9268C180.053 33.4561 180.433 36.5985 181.65 39.2045C183.019 42.2703 185.91 45.1061 189.256 44.9529C192.451 44.7996 194.961 42.0403 195.873 38.9745C196.786 35.9087 196.406 32.613 196.025 29.4705" fill="#263238"/>
<path d="M192.527 45.7955C192.527 45.7955 192.298 45.6422 192.07 45.259C191.842 44.8757 191.538 44.2626 191.386 43.4195C191.234 42.5764 191.31 41.58 191.462 40.5836C191.614 39.5106 191.994 38.3609 192.298 37.2112C192.527 36.0615 192.679 34.8352 192.527 33.8388C192.374 32.8424 191.842 31.9993 191.69 31.1562C191.462 30.3898 191.462 29.6233 191.614 29.2401C191.766 28.7802 191.918 28.627 191.994 28.627C191.994 28.627 191.842 28.8569 191.766 29.3168C191.69 29.7766 191.69 30.3898 191.918 31.1562C192.146 31.9227 192.679 32.7658 192.907 33.8388C193.135 34.9119 192.983 36.1382 192.755 37.3645C192.45 38.5908 192.146 39.6639 191.918 40.7369C191.69 41.7333 191.69 42.7297 191.766 43.4961C191.842 45.029 192.603 45.7955 192.527 45.7955Z" fill="#455A64"/>
<path d="M192.451 34.9128C192.451 34.9128 192.071 35.6026 191.082 36.2924C190.094 36.9822 188.496 37.7486 186.671 37.7486C184.769 37.7486 183.172 37.1355 182.183 36.4457C181.195 35.7559 180.738 35.1427 180.738 35.1427C180.814 35.066 181.271 35.6026 182.336 36.2157C183.324 36.8289 184.922 37.3654 186.671 37.3654C188.42 37.3654 189.941 36.6756 190.93 36.0624C191.843 35.4493 192.375 34.8361 192.451 34.9128Z" fill="#455A64"/>
<path d="M191.995 36.3686C192.071 36.3686 191.843 36.9818 191.234 37.8249C190.626 38.668 189.713 39.6643 188.344 40.4308C187.051 41.1973 185.682 41.6571 184.693 41.7338C183.704 41.8871 183.096 41.8104 183.096 41.7338C183.096 41.6571 183.704 41.6571 184.693 41.4272C185.606 41.1973 186.899 40.814 188.192 40.0476C189.485 39.2811 190.397 38.3614 191.082 37.5949C191.614 36.8285 191.919 36.292 191.995 36.3686Z" fill="#455A64"/>
<path d="M194.276 48.863C194.276 48.863 194.2 48.863 194.2 48.7864C194.124 48.7098 194.048 48.5565 193.972 48.4032C193.744 48.0966 193.516 47.5601 193.364 46.7936C193.211 46.1038 193.211 45.1074 193.516 44.111C193.82 43.1147 194.504 42.0416 195.645 41.2752C196.71 40.5087 198.079 39.9722 198.992 38.7459C199.448 38.1327 199.6 37.3663 199.448 36.5998C199.296 35.8334 198.992 35.0669 198.688 34.2238C198.003 32.6143 198.003 30.5448 198.84 28.782C199.22 27.9389 199.829 27.0958 200.665 26.4826C201.502 25.8695 202.491 25.5629 203.403 25.333C204.392 25.103 205.381 24.9497 206.294 24.7198C207.206 24.4132 208.043 24.03 208.652 23.4168C209.26 22.8037 209.564 21.8839 209.716 21.0408C209.868 20.1977 209.869 19.278 210.173 18.4349C210.629 16.7487 211.466 15.2158 212.607 14.1428C213.748 13.0697 215.117 12.4566 216.41 12.2266C217.703 11.9967 218.996 12.3033 219.908 12.7631C220.821 13.223 221.506 13.9128 221.886 14.526C222.342 15.1391 222.494 15.6757 222.57 16.0589C222.646 16.4421 222.646 16.6721 222.646 16.6721C222.57 16.6721 222.57 15.829 221.734 14.6026C221.277 14.0661 220.669 13.3763 219.756 12.9164C218.844 12.4566 217.703 12.2266 216.41 12.4566C215.193 12.6865 213.824 13.2997 212.759 14.2961C211.694 15.3691 210.857 16.8253 210.477 18.4349C210.249 19.278 210.173 20.1211 210.097 21.0408C209.945 21.9606 209.716 22.957 208.956 23.6468C208.271 24.3366 207.359 24.7964 206.37 25.103C205.457 25.4096 204.468 25.4863 203.48 25.7162C202.567 25.9461 201.578 26.2527 200.893 26.7892C200.133 27.3257 199.6 28.0922 199.22 28.9353C198.46 30.6215 198.46 32.461 199.068 34.0705C199.372 34.837 199.753 35.6801 199.829 36.5232C199.981 37.3663 199.753 38.286 199.296 38.8992C198.307 40.2021 196.862 40.7386 195.874 41.4285C194.809 42.1183 194.124 43.1147 193.82 44.111C193.516 45.1074 193.516 46.0272 193.592 46.717C193.668 48.1732 194.276 48.863 194.276 48.863Z" fill="#455A64"/>
<path d="M194.808 23.4937C194.808 23.4937 194.732 23.3404 194.732 23.1104C194.732 22.8039 194.732 22.344 195.037 21.8841C195.341 21.4243 195.797 20.8877 196.558 20.6578C197.318 20.3512 198.231 20.3512 199.144 20.5812C200.057 20.7344 201.045 21.1177 202.11 21.3476C203.175 21.5775 204.392 21.5775 205.381 20.8111C206.37 20.0446 206.826 18.8183 207.282 17.5153C207.739 16.2124 208.423 14.9094 209.336 13.7597C211.161 11.4604 213.671 9.85083 216.181 9.31431C217.398 9.00773 218.691 9.08437 219.756 9.39096C220.821 9.69754 221.734 10.3873 222.418 11.0771C223.027 11.8436 223.331 12.6867 223.407 13.4532C223.483 14.2196 223.331 14.9094 223.103 15.3693C222.874 15.9058 222.646 16.2124 222.418 16.4423C222.19 16.6722 222.114 16.7489 222.114 16.7489C222.038 16.7489 222.57 16.3657 222.95 15.3693C223.103 14.9094 223.255 14.2196 223.179 13.5298C223.103 12.7633 222.798 11.9969 222.19 11.3071C221.581 10.6173 220.745 10.0041 219.68 9.69754C218.615 9.39095 217.474 9.39095 216.257 9.62089C213.899 10.1574 211.465 11.6903 209.64 13.9897C208.727 15.1393 208.119 16.3657 207.586 17.592C207.054 18.8183 206.598 20.1979 205.533 21.041C205 21.4243 204.392 21.6542 203.783 21.7308C203.175 21.8075 202.567 21.7308 202.034 21.5775C200.893 21.3476 199.981 20.9644 199.068 20.7344C198.155 20.5045 197.318 20.5045 196.634 20.7344C195.949 20.9644 195.493 21.4243 195.189 21.8841C194.885 22.344 194.808 22.7272 194.808 23.0338C194.808 23.3404 194.885 23.4937 194.808 23.4937Z" fill="#455A64"/>
</g>
<defs>
<clipPath id="clip0">
<rect width="400" height="361" fill="white"/>
</clipPath>
</defs>
</svg>
