<svg width="400" height="361" viewBox="0 0 400 361" fill="none" xmlns="http://www.w3.org/2000/svg">
<g clip-path="url(#clip0)">
<path fill-rule="evenodd" clip-rule="evenodd" d="M331.49 275.817C308.377 329.321 237.904 326.578 179.82 321.033C120.813 315.4 66.6684 305.643 39.8992 261.885C7.54912 209.005 74.1149 136.846 128.913 109.414C172.881 87.4047 221.734 104.764 259.752 135.994C304.522 172.769 354.439 222.691 331.49 275.817Z" fill="#E0E9FF"/>
<mask id="mask0" mask-type="alpha" maskUnits="userSpaceOnUse" x="28" y="58" width="366" height="264">
<path fill-rule="evenodd" clip-rule="evenodd" d="M388.727 253.947C365.99 319.639 281.924 322.638 212.346 321.203C141.662 319.745 55.9998 312 33.4998 247C11.16 177.411 70.2543 111.519 132.995 74.0231C183.335 43.9381 242.984 60.2454 290.978 94.0124C347.496 133.776 411.303 188.719 388.727 253.947Z" fill="#E0E9FF"/>
</mask>
<g mask="url(#mask0)">
<path d="M250.055 213.925C247.762 217.498 241.742 221.714 237.514 221.643C223.037 221.357 218.307 211.567 216.73 207.994C217.017 207.923 217.519 207.851 217.877 207.851C220.529 207.494 223.252 204.85 224.04 201.848C225.044 197.99 226.334 190.415 226.19 185.627L244.465 195.703C244.465 197.061 244.322 198.633 244.179 200.133C244.107 201.062 243.964 201.991 243.892 202.849C243.82 203.706 243.677 204.492 243.605 205.279C243.247 207.78 244.394 210.281 246.472 211.638L250.055 213.925Z" fill="#FE8E68"/>
<path d="M251.632 174.623C250.628 177.196 251.058 180.126 252.062 182.698C252.778 184.556 254.355 182.913 256.29 182.913C259.3 182.984 261.665 179.84 263.528 171.479C264.675 165.333 264.962 162.261 264.747 161.618C263.887 159.474 261.163 158.33 258.87 158.188" fill="#3D302A"/>
<path d="M256.22 156.258C261.021 161.975 262.741 178.196 258.728 189.487C255.861 197.49 252.493 202.707 248.623 202.493C242.675 202.207 231.208 197.419 227.481 193.346C220.745 186.057 222.68 171.765 224.113 162.761C225.403 154.543 229.201 143.967 239.521 145.968C246.33 147.325 251.92 151.113 256.22 156.258Z" fill="#FE8E68"/>
<path d="M229.058 161.473C230.133 162.759 231.996 163.045 233.501 163.259C235.58 163.617 236.583 164.331 237.658 166.189C238.375 167.404 239.02 168.69 240.238 169.333C240.811 169.619 241.671 169.691 241.958 169.119C241.385 168.762 241.241 167.976 241.385 167.404C241.528 166.761 241.886 166.189 242.316 165.689C242.675 166.189 242.675 166.761 242.89 167.333C243.176 168.047 243.678 168.69 244.395 169.048C244.538 169.119 244.61 169.119 244.753 169.119C244.896 169.119 245.04 168.976 245.183 168.833C245.971 167.904 246.688 166.189 247.691 165.689C247.906 166.689 248.265 167.475 248.91 168.262C249.411 168.976 250.056 169.691 250.916 169.834C251.203 169.905 251.561 169.834 251.705 169.619C251.848 169.333 251.633 168.976 251.633 168.69C251.705 168.404 251.776 168.262 251.991 168.047C252.35 167.404 252.708 166.761 253.21 166.261C254.213 167.404 255.36 168.476 256.578 169.476C256.865 169.691 257.223 169.905 257.51 169.691C257.653 169.548 257.653 169.405 257.725 169.191C257.868 168.262 258.011 167.404 258.155 166.475C258.226 165.975 258.513 165.332 259.015 165.403C259.23 165.475 259.373 165.689 259.516 165.903C259.66 166.189 262.598 169.262 262.67 169.048C263.1 167.261 264.103 165.689 264.533 163.902C267.471 152.612 254.285 143.465 244.251 143.465C242.03 143.465 239.951 143.894 237.73 144.394C235.436 144.894 233 145.251 230.921 146.466C227.983 148.11 225.761 150.968 226.335 154.47" fill="#3D302A"/>
<path d="M233.931 158.47C235.364 160.113 235.794 162.472 235.937 164.615C236.152 167.902 235.866 171.333 234.361 174.262C233.931 175.12 233.572 179.265 232.927 178.979C232.712 178.907 232.784 175.692 232.211 173.977C231.351 171.261 227.337 170.261 225.474 171.976C222.607 174.691 224.256 177.978 225.259 179.979C225.832 181.194 226.764 182.623 226.907 183.91C227.122 185.553 227.194 191.627 226.047 193.056C225.116 194.271 224.184 188.483 223.324 187.411C217.232 178.979 211.356 157.612 221.819 152.967C223.396 152.253 228.269 151.895 229.774 152.824" fill="#3D302A"/>
<path d="M272.418 328.688C272.991 328.76 273.636 328.903 274.281 328.903C277.649 329.046 280.874 328.259 284.171 327.688C287.037 327.188 287.826 326.902 287.754 323.472C287.252 296.031 283.239 268.662 275.929 242.15C274.783 238.077 273.636 234.004 271.486 230.431C267.831 224.285 259.518 218.925 253.139 215.924C252.208 215.495 248.481 217.854 247.549 217.496C246.761 217.139 246.044 216.567 245.256 216.21C242.891 215.21 241.314 217.353 239.379 218.211C238.376 218.64 237.229 218.925 236.083 218.925C235.151 218.854 234.363 218.354 233.503 218.783C229.776 220.712 220.459 206.42 220.459 206.42L216.446 210.636L204.693 222.927L175.238 263.374C175.238 263.374 169.863 296.531 166.208 318.184C165.563 321.9 163.054 330.046 162.553 332.833C162.624 332.19 187.636 332.047 188.998 332.047C206.413 332.047 222.609 332.047 239.953 332.047C242.819 332.047 250.488 333.262 252.494 331.189C254.931 328.617 257.798 316.826 257.941 313.467C258.443 302.319 257.654 291.315 257.511 280.095C257.583 284.669 258.873 288.742 259.446 293.244C260.163 298.961 261.166 304.749 262.098 310.394C262.814 314.968 263.531 319.613 264.104 324.186C264.391 326.259 264.033 327.473 265.824 328.331C267.473 329.046 270.698 328.402 272.418 328.688Z" fill="#BC744A"/>
<path d="M263.027 319.185C261.666 318.613 253.281 316.541 249.482 315.755C247.476 315.326 238.517 313.039 236.439 313.039C234.361 313.039 231.494 316.04 231.494 316.04L232.211 326.259C234.217 326.045 236.869 327.117 238.374 327.331C239.807 327.545 244.681 327.545 247.691 326.045C247.834 325.973 248.049 325.83 248.192 325.759C249.411 326.831 250.916 327.903 252.636 327.974C252.636 327.974 253.926 327.831 253.854 327.331C253.782 327.045 252.922 325.759 252.062 324.473C253.352 325.759 255.431 327.903 257.867 328.046C257.867 328.046 259.157 327.903 259.086 327.403C259.014 327.117 257.724 325.187 256.721 323.687C256.721 323.687 256.721 323.687 256.792 323.687C257.867 324.616 260.376 327.831 263.386 327.974C263.386 327.974 264.676 327.831 264.604 327.331C264.532 327.117 264.031 326.331 263.457 325.402C264.246 325.973 265.177 326.616 266.324 327.188C269.549 328.76 271.412 327.545 271.412 327.188C271.269 326.759 264.389 319.756 263.027 319.185Z" fill="#FE8E68"/>
<path d="M233.788 307.322C233.788 307.322 239.019 310.252 238.589 316.541C238.159 322.829 236.224 330.118 228.341 329.332C220.386 328.617 233.788 307.322 233.788 307.322Z" fill="#874C2E"/>
<path d="M226.55 328.76C207.63 335.334 182.26 329.046 166.207 318.184C156.173 311.395 149.723 302.748 150.798 294.316C153.593 272.378 170.865 222.141 185.843 214.781C196.02 209.779 208.347 207.706 215.227 206.92C218.452 206.563 220.458 206.42 220.458 206.42L217.95 213.423L205.48 248.51C205.05 269.376 190.072 281.739 193.01 286.527C195.948 291.386 219.455 296.603 231.782 304.892C235.293 307.25 239.593 323.9 226.55 328.76Z" fill="#BC744A"/>
<path d="M150.871 294.816L150.799 296.246C150.799 296.46 150.799 296.746 150.799 296.96L150.871 297.675C150.942 298.175 150.942 298.675 151.086 299.104L151.444 300.533C152.017 302.391 152.806 304.178 153.881 305.75C155.959 309.037 158.682 311.824 161.764 314.182C167.856 318.97 174.879 322.614 182.189 325.187C189.499 327.831 197.167 329.617 204.907 330.261C208.777 330.618 212.719 330.618 216.589 330.332C220.459 330.046 224.329 329.332 228.055 328.188C224.4 329.546 220.53 330.404 216.66 330.904C212.79 331.333 208.777 331.404 204.907 331.19C200.965 330.975 197.095 330.404 193.225 329.546C189.355 328.689 185.629 327.617 181.902 326.259C178.247 324.901 174.592 323.329 171.152 321.4C167.712 319.542 164.344 317.398 161.334 314.825C158.324 312.324 155.601 309.394 153.522 306.036C152.519 304.392 151.731 302.534 151.229 300.605C150.656 298.747 150.656 296.746 150.871 294.816Z" fill="#874C2E"/>
<path d="M205.479 248.512C205.479 252.442 204.978 256.444 203.903 260.231C202.828 264.09 201.323 267.734 199.603 271.308C198.743 273.094 197.811 274.809 196.808 276.524C195.876 278.239 194.873 279.954 194.084 281.741C193.654 282.598 193.368 283.527 193.224 284.385C193.153 284.813 193.153 285.242 193.296 285.671C193.296 285.885 193.439 286.028 193.511 286.243C193.654 286.386 193.726 286.6 193.941 286.743C195.231 288.029 197.023 288.887 198.814 289.744C205.981 292.96 213.578 295.39 220.816 298.677C224.471 300.32 228.054 302.035 231.351 304.251L231.996 304.679C232.211 304.822 232.426 305.037 232.569 305.18C232.927 305.537 233.286 305.966 233.501 306.394C234.002 307.252 234.361 308.181 234.647 309.181C235.149 311.111 235.364 313.112 235.436 315.041C235.292 313.04 235.006 311.111 234.361 309.253C233.716 307.395 232.784 305.608 230.992 304.751C227.624 302.679 224.041 301.035 220.386 299.534C216.731 298.034 213.076 296.604 209.349 295.247C205.623 293.817 201.896 292.531 198.313 290.888C196.521 290.03 194.658 289.173 193.153 287.6C192.938 287.386 192.794 287.172 192.651 286.957C192.508 286.671 192.364 286.457 192.293 286.171C192.149 285.6 192.149 285.028 192.221 284.528C192.364 283.456 192.794 282.527 193.224 281.598C194.084 279.74 195.088 278.025 196.019 276.31C197.023 274.595 197.954 272.88 198.886 271.165C202.541 264.09 205.121 256.444 205.479 248.512Z" fill="#874C2E"/>
<path d="M254.571 216.638C252.78 218.424 244.753 224.141 237.085 224.141C235.795 224.141 234.433 223.998 233 223.784C226.55 222.641 221.175 218.353 217.95 213.422C217.377 212.493 216.875 211.564 216.445 210.635C215.872 209.42 215.442 208.134 215.227 206.919C218.452 206.562 221.533 205.704 222.035 205.133C222.608 208.849 227.195 215.637 234.218 216.924C235.078 217.067 235.938 217.138 236.727 217.21C240.023 217.281 242.531 216.209 244.251 215.137L247.62 212.493L254.571 216.638Z" fill="#BC744A"/>
<path d="M243.679 182.053C244.391 182.053 244.969 180.902 244.969 179.481C244.969 178.06 244.391 176.908 243.679 176.908C242.966 176.908 242.389 178.06 242.389 179.481C242.389 180.902 242.966 182.053 243.679 182.053Z" fill="#56211A"/>
<path d="M244.251 181.268C244.568 181.268 244.825 180.916 244.825 180.482C244.825 180.047 244.568 179.695 244.251 179.695C243.935 179.695 243.678 180.047 243.678 180.482C243.678 180.916 243.935 181.268 244.251 181.268Z" fill="white"/>
<path d="M257.653 183.196C258.366 183.196 258.943 182.044 258.943 180.623C258.943 179.203 258.366 178.051 257.653 178.051C256.941 178.051 256.363 179.203 256.363 180.623C256.363 182.044 256.941 183.196 257.653 183.196Z" fill="#56211A"/>
<path d="M253.209 191.63C253.209 192.201 250.916 195.489 248.694 195.203C246.831 194.988 245.254 191.558 246.186 189.986C246.759 189.414 253.209 191.058 253.209 191.63Z" fill="white"/>
<path d="M239.809 173.193C240.239 172.693 240.955 172.621 241.6 172.55C242.245 172.478 242.819 172.478 243.464 172.478C244.682 172.478 245.9 172.693 246.975 173.407C247.334 173.622 247.62 173.193 247.405 172.907C246.975 172.407 246.259 172.121 245.614 171.978C244.825 171.835 244.037 171.764 243.32 171.764C242.675 171.764 241.959 171.835 241.314 171.907C240.597 172.05 239.809 172.264 239.665 173.121C239.522 173.193 239.737 173.264 239.809 173.193Z" fill="#3D302A"/>
<path d="M255.574 174.123C256.076 174.123 256.506 173.98 257.007 173.98C257.509 173.98 258.011 173.98 258.512 174.123C259.014 174.266 259.444 174.409 259.874 174.695C260.089 174.838 260.304 174.981 260.447 175.123C260.662 175.266 260.877 175.409 261.092 175.481C261.236 175.481 261.379 175.409 261.379 175.266C261.307 174.766 260.734 174.337 260.376 174.052C259.874 173.766 259.372 173.48 258.799 173.337C258.226 173.194 257.652 173.123 257.079 173.194C256.506 173.266 255.861 173.337 255.502 173.766C255.216 173.909 255.359 174.123 255.574 174.123Z" fill="#3D302A"/>
<path d="M251.633 179.55C251.49 180.979 251.633 182.551 251.848 183.981C251.991 184.695 252.135 185.41 252.421 186.053C252.421 186.124 252.636 186.41 252.565 186.482C252.565 186.553 252.35 186.696 252.278 186.768C251.92 187.053 251.633 187.339 251.275 187.625C250.845 187.982 251.49 188.626 251.92 188.268C252.206 187.982 252.565 187.697 252.851 187.339C253.066 187.125 253.353 186.911 253.353 186.553C253.425 186.196 253.138 185.839 253.066 185.553C252.923 185.195 252.851 184.838 252.78 184.481C252.565 183.695 252.493 182.909 252.421 182.051C252.35 181.194 252.35 180.408 252.278 179.55C252.206 179.121 251.633 179.121 251.633 179.55Z" fill="#CC6144"/>
<path d="M258.083 182.485C258.4 182.485 258.657 182.101 258.657 181.627C258.657 181.154 258.4 180.77 258.083 180.77C257.767 180.77 257.51 181.154 257.51 181.627C257.51 182.101 257.767 182.485 258.083 182.485Z" fill="white"/>
<path d="M236.153 197.705C236.583 198.348 237.228 198.848 237.873 199.277C238.59 199.777 239.306 200.206 240.023 200.563C241.528 201.278 243.105 201.707 244.753 201.778C245.04 201.778 245.111 201.278 244.825 201.207C243.248 200.992 241.743 200.635 240.31 199.92C239.593 199.634 238.948 199.206 238.375 198.777C237.73 198.348 237.156 197.776 236.511 197.348C236.225 197.348 236.01 197.562 236.153 197.705Z" fill="#CC6144"/>
<path d="M220.458 205.281C218.666 203.923 216.445 205.424 215.298 206.925C213.865 208.854 213.148 211.212 212.79 213.57C212.145 218.859 213.865 223.861 215.943 228.649C218.093 233.436 220.315 238.153 222.68 242.869C224.686 246.871 226.765 250.873 228.413 255.017C229.345 257.376 230.133 259.805 230.706 262.235C231.065 263.521 231.28 264.879 231.566 266.237C231.781 267.666 231.781 269.381 232.498 270.667C232.713 270.953 233.143 270.882 233.286 270.596C233.645 269.452 233.358 268.238 233.143 267.094C232.928 265.879 232.713 264.736 232.498 263.593C232.068 261.449 231.495 259.305 230.778 257.233C229.488 253.374 227.768 249.586 225.976 245.942C223.97 241.869 221.891 237.867 220.028 233.794C217.878 229.077 215.442 224.361 214.51 219.216C214.08 216.572 214.08 213.856 214.797 211.355C215.155 210.14 215.657 208.926 216.373 207.925C217.018 206.996 218.38 205.781 219.598 206.567C220.53 206.925 221.175 205.781 220.458 205.281Z" fill="#874C2E"/>
<path d="M247.692 212.78C251.49 213.924 251.634 219.283 251.49 222.499C251.347 227.215 250.559 231.931 249.269 236.505C246.76 245.509 242.317 253.87 237.73 261.945C235.079 266.661 232.355 271.378 229.704 276.094C229.274 276.88 230.492 277.595 230.922 276.808C240.669 259.73 252.924 242.508 253.139 221.999C253.21 218.14 252.494 212.637 247.979 211.422C247.19 211.208 246.832 212.494 247.692 212.78Z" fill="#874C2E"/>
<path d="M239.879 271.093C235.364 270.95 230.849 270.807 226.263 270.664C225.546 270.664 225.116 271.236 225.044 271.879C224.184 278.668 223.898 285.599 222.894 292.316C222.751 293.103 223.181 293.889 224.113 293.889C228.556 293.96 233.071 294.103 237.514 294.174C237.729 294.174 237.944 294.103 238.087 294.032C238.159 294.032 238.159 293.96 238.231 293.96C238.446 293.817 238.589 293.603 238.661 293.317C240.381 286.671 240.381 279.168 241.097 272.308C241.169 271.664 240.524 271.093 239.879 271.093Z" fill="#874C2E"/>
<path d="M257.868 298.606C257.868 298.249 257.939 297.891 257.939 297.534C257.939 297.177 257.939 296.748 257.939 296.391C257.939 295.676 257.868 294.962 257.868 294.247C257.796 292.746 257.796 291.317 257.724 289.816C257.653 286.887 257.653 283.957 257.796 281.027C257.939 275.167 258.369 269.307 259.086 263.519C259.301 261.876 259.516 260.303 259.731 258.66C259.874 257.802 260.018 257.016 260.161 256.159C260.304 255.373 260.448 254.515 260.519 253.729C260.519 253.229 259.803 253.157 259.659 253.586C259.229 255.015 259.086 256.516 258.871 257.945C258.656 259.374 258.441 260.875 258.226 262.304C257.868 265.234 257.509 268.164 257.294 271.165C256.864 277.025 256.721 282.956 256.864 288.816C256.936 290.46 257.008 292.103 257.079 293.747C257.151 294.604 257.223 295.462 257.294 296.248C257.294 296.605 257.366 296.962 257.438 297.391C257.509 297.82 257.653 298.249 257.724 298.678C257.724 298.678 257.868 298.678 257.868 298.606Z" fill="#874C2E"/>
<path d="M220.172 212.14C220.387 213.426 221.247 214.641 221.964 215.713C222.752 216.785 223.684 217.785 224.687 218.643C226.693 220.358 229.202 221.787 231.853 222.073C232.212 222.144 232.283 221.501 231.925 221.43C229.488 220.643 227.123 219.643 225.117 217.999C224.114 217.213 223.254 216.284 222.465 215.284C221.677 214.284 221.104 213.14 220.387 212.068C220.387 211.782 220.172 211.925 220.172 212.14Z" fill="#874C2E"/>
<path d="M236.44 221.997C237.228 221.782 238.088 221.639 238.876 221.425C239.235 221.282 239.665 221.211 240.023 221.068C240.238 220.996 240.453 220.925 240.668 220.853C240.74 220.853 240.811 220.782 240.883 220.782C241.026 220.71 241.098 220.639 241.17 220.567C241.385 220.425 241.313 220.139 241.027 220.139C240.883 220.139 240.811 220.139 240.668 220.139C240.596 220.139 240.525 220.139 240.381 220.21C240.166 220.21 239.951 220.282 239.736 220.353C239.378 220.496 238.948 220.567 238.59 220.71C237.801 220.925 237.013 221.211 236.225 221.496C235.938 221.568 236.081 222.068 236.44 221.997Z" fill="#874C2E"/>
<path d="M228.198 175.548L228.342 175.405C228.342 175.476 228.055 175.405 228.198 175.476C228.342 175.548 228.485 175.548 228.628 175.691C228.987 175.976 229.202 176.477 229.273 176.905C229.417 177.406 229.488 177.906 229.417 178.406C229.417 178.692 229.345 178.906 229.273 179.192C229.273 179.335 229.202 179.407 229.202 179.55C229.13 179.692 229.13 179.764 229.13 179.907C229.13 180.05 229.488 179.978 229.56 179.978C229.775 179.978 229.99 179.907 230.133 179.764C230.348 179.55 230.42 179.121 230.492 178.835C230.563 178.549 230.563 178.192 230.563 177.834C230.563 177.191 230.42 176.477 230.133 175.905C229.847 175.405 229.417 174.976 228.843 174.976C228.198 174.905 227.41 175.119 227.123 175.762C227.052 175.976 227.482 175.905 227.553 175.905C227.768 175.834 228.127 175.762 228.198 175.548Z" fill="#CC6144"/>
<path d="M229.704 177.338C229.704 177.266 229.704 177.195 229.704 177.123V177.195C229.704 177.195 229.704 177.195 229.775 177.123C229.775 177.052 229.847 177.052 229.775 176.98C229.632 176.766 229.417 176.623 229.202 176.551C229.058 176.48 228.915 176.48 228.843 176.408C228.628 176.408 228.485 176.408 228.27 176.48C228.198 176.48 227.983 176.623 228.126 176.694C228.126 176.694 228.126 176.694 228.198 176.694H228.27H228.341C228.485 176.694 228.557 176.766 228.7 176.837C228.7 176.837 228.7 176.837 228.772 176.837C228.772 176.837 228.843 176.837 228.843 176.909C228.915 176.909 228.915 176.98 228.987 176.98C229.058 177.052 229.058 177.052 229.13 177.123L229.202 177.195C229.274 177.266 229.345 177.266 229.417 177.266H229.345C229.417 177.338 229.489 177.409 229.56 177.409C229.489 177.481 229.704 177.409 229.704 177.338Z" fill="#CC6144"/>
<path d="M246.114 195.701C246.329 195.987 246.616 196.273 246.974 196.416C247.189 196.487 247.333 196.559 247.548 196.559C247.834 196.559 248.121 196.559 248.336 196.487C248.264 196.487 248.193 196.559 248.121 196.559C248.264 196.559 248.479 196.487 248.623 196.344C248.694 196.273 248.623 196.273 248.551 196.273C248.408 196.273 248.336 196.273 248.193 196.273C248.264 196.273 248.264 196.273 248.336 196.273C248.336 196.273 248.264 196.273 248.193 196.201C248.121 196.201 248.121 196.201 248.049 196.201C247.978 196.201 248.049 196.201 248.049 196.201C247.978 196.201 247.906 196.201 247.834 196.201C247.691 196.201 247.548 196.13 247.404 196.058C247.118 195.915 246.831 195.701 246.616 195.415C246.616 195.344 246.473 195.344 246.401 195.344C246.329 195.344 246.186 195.344 246.114 195.415C246.186 195.487 246.043 195.558 246.114 195.701Z" fill="#CC6144"/>
<path d="M240.811 180.695C240.811 180.838 240.811 180.909 240.811 181.052C240.811 181.195 240.811 181.338 240.811 181.409C240.811 181.695 240.954 181.91 241.097 182.124C241.241 182.338 241.384 182.553 241.599 182.696C241.671 182.767 241.814 182.839 241.957 182.91C242.101 182.982 242.244 183.053 242.387 183.053C242.459 183.053 242.602 183.053 242.674 182.91C242.674 182.839 242.531 182.767 242.459 182.696C242.387 182.624 242.316 182.553 242.172 182.481C241.957 182.338 241.814 182.124 241.671 181.91C241.527 181.695 241.456 181.481 241.384 181.266C241.384 181.195 241.312 181.124 241.312 181.124C241.312 181.052 241.241 181.052 241.241 180.981C241.241 180.838 241.169 180.766 241.169 180.623C241.097 180.552 240.811 180.623 240.811 180.695Z" fill="#CC6144"/>
<path d="M257.94 184.268C258.011 184.268 258.153 184.197 258.011 184.197C258.011 184.197 257.869 184.268 257.94 184.268Z" fill="#CC6144"/>
<path d="M258.8 184.129C259.087 183.986 259.374 183.771 259.517 183.485C259.589 183.342 259.661 183.199 259.661 183.056C259.661 182.985 259.661 182.913 259.661 182.842C259.661 182.77 259.589 182.699 259.517 182.627C259.446 182.556 259.374 182.627 259.302 182.699C259.23 182.77 259.23 182.842 259.23 182.913C259.23 182.985 259.159 183.056 259.159 183.128C259.087 183.271 259.087 183.414 259.015 183.485C258.944 183.628 258.872 183.7 258.8 183.771C258.729 183.843 258.729 183.843 258.657 183.914C258.657 183.914 258.657 183.914 258.585 183.914C258.585 183.914 258.514 183.914 258.514 183.986C258.442 183.986 258.37 184.129 258.442 184.129C258.514 184.2 258.657 184.129 258.8 184.129Z" fill="#CC6144"/>
<path d="M258.083 270.024C258.155 269.309 258.155 268.666 258.298 267.951C258.441 267.308 258.728 266.665 259.015 266.022C259.588 264.878 260.376 263.735 261.165 262.735C261.881 261.734 262.741 260.805 263.673 259.948C264.175 259.519 264.676 259.09 265.178 258.661C265.393 258.518 265.68 258.304 265.895 258.161C266.11 258.018 266.396 257.804 266.54 257.589C266.611 257.375 266.54 257.232 266.325 257.232C265.751 257.161 265.035 257.804 264.605 258.09C264.031 258.447 263.53 258.876 263.028 259.376C262.025 260.305 261.165 261.377 260.305 262.449C259.445 263.592 258.656 264.807 258.083 266.165C257.581 267.379 257.151 268.88 257.725 270.095C257.796 270.309 258.083 270.238 258.083 270.024Z" fill="#874C2E"/>
<path d="M257.726 271.807C258.227 271.306 258.514 270.663 258.801 270.092C259.159 269.448 259.517 268.877 259.947 268.305C260.807 267.09 261.739 266.018 262.814 265.018C263.244 264.661 264.032 263.732 264.605 264.089C265.179 264.446 264.175 265.518 263.817 265.804C263.244 266.304 262.455 266.304 261.81 266.733C261.38 267.019 260.807 267.59 261.022 268.162C261.094 268.377 261.381 268.448 261.524 268.234C261.667 268.019 261.739 267.733 261.954 267.519C262.169 267.305 262.527 267.162 262.814 267.019C263.387 266.804 263.96 266.59 264.462 266.09C265.107 265.375 266.039 263.946 264.749 263.374C263.602 262.874 262.455 264.16 261.739 264.875C260.807 265.804 259.947 266.804 259.231 267.876C258.801 268.448 258.442 269.091 258.084 269.734C257.797 270.306 257.367 271.021 257.367 271.735C257.511 271.807 257.654 271.878 257.726 271.807Z" fill="#874C2E"/>
<path d="M229.272 309.538C229.2 310.753 229.344 311.968 229.2 313.183C229.057 314.397 228.77 315.612 228.34 316.756C227.91 317.899 227.337 318.971 226.62 320.043C225.975 321.043 225.115 321.901 224.399 322.901C224.255 323.044 224.471 323.187 224.614 323.116C225.76 322.544 226.62 321.543 227.409 320.472C228.197 319.4 228.77 318.185 229.2 316.97C229.63 315.755 229.917 314.469 229.989 313.183C230.06 311.968 230.06 310.539 229.559 309.467C229.559 309.181 229.272 309.324 229.272 309.538Z" fill="#874C2E"/>
<path d="M248.122 286.739C247.907 288.168 247.763 289.668 247.405 291.098C247.047 292.527 246.545 293.956 245.9 295.314C244.61 298.029 242.89 300.53 240.74 302.603C239.522 303.818 238.232 304.89 236.798 305.819C236.512 305.961 236.798 306.39 237.013 306.247C242.46 303.246 246.402 297.958 247.978 291.955C248.408 290.312 248.767 288.525 248.623 286.81C248.695 286.524 248.193 286.453 248.122 286.739Z" fill="#874C2E"/>
<path d="M311.259 309.254C314.425 309.254 316.992 307.399 316.992 305.11C316.992 302.82 314.425 300.965 311.259 300.965C308.092 300.965 305.525 302.82 305.525 305.11C305.525 307.399 308.092 309.254 311.259 309.254Z" fill="#5A4F72"/>
<path d="M322.295 307.686C323.958 307.686 325.305 306.726 325.305 305.542C325.305 304.358 323.958 303.398 322.295 303.398C320.633 303.398 319.285 304.358 319.285 305.542C319.285 306.726 320.633 307.686 322.295 307.686Z" fill="#5A4F72"/>
<path d="M182.045 317.19C185.7 316.762 192.221 315.761 192.365 313.546C190 312.045 187.348 310.473 184.553 310.33C182.331 310.187 180.11 311.045 178.031 311.974C176.311 312.76 174.591 313.617 172.871 314.546C172.155 314.904 170.363 316.261 170.363 317.19C170.291 318.334 172.441 317.69 173.301 317.69C176.24 317.905 179.106 317.548 182.045 317.19Z" fill="#C1ADA4"/>
<path d="M173.373 315.256C173.373 315.256 178.246 331.191 180.826 331.549C183.406 331.906 208.633 332.12 209.278 331.835C209.923 331.549 210.066 331.049 210.066 331.049C210.066 331.049 226.12 332.12 226.406 331.692C226.693 331.263 226.406 329.405 225.618 329.119C224.83 328.833 200.606 323.402 198.528 322.616C196.45 321.83 189.856 322.045 189.856 322.045L188.495 312.826L173.373 315.256Z" fill="#FE8E68"/>
<path d="M179.248 115.742C180.825 117.458 181.685 119.744 181.542 122.102C181.47 123.46 181.04 124.818 180.682 126.104C179.893 128.605 178.962 131.249 176.955 133.036C176.668 133.322 176.238 133.608 175.808 133.536C175.02 131.106 174.232 128.677 173.443 126.247C173.085 125.104 172.655 123.889 172.44 122.674C172.082 120.602 172.225 118.529 172.87 116.529C173.157 115.671 173.658 114.742 174.375 114.17C176.31 112.884 178.03 114.456 179.248 115.742Z" fill="#433735"/>
<path d="M132.523 250.299C132.379 251.299 132.523 252.3 132.523 253.229C132.594 254.515 132.666 255.801 132.738 257.087C132.881 259.446 133.168 261.947 132.809 264.233C132.809 264.376 132.809 264.519 132.953 264.591C132.953 264.591 132.953 264.591 132.953 264.662C132.953 264.805 133.168 264.805 133.168 264.662C133.168 264.662 133.168 264.662 133.168 264.591C133.239 264.591 133.383 264.448 133.383 264.376C133.741 262.018 133.598 259.588 133.454 257.23C133.383 254.872 133.239 252.514 133.168 250.227C133.311 249.798 132.594 249.798 132.523 250.299Z" fill="#9B8580"/>
<path d="M139.617 245.374C138.398 248.232 137.61 251.376 136.463 254.306C135.818 255.95 135.102 257.522 134.313 259.094C133.597 260.523 132.665 261.738 131.877 263.096C131.662 263.453 132.163 263.667 132.378 263.382C133.31 262.167 133.955 260.666 134.672 259.237C135.46 257.665 136.177 256.164 136.822 254.592C138.04 251.734 139.473 248.589 139.903 245.517C139.975 245.374 139.688 245.231 139.617 245.374Z" fill="#9B8580"/>
<path d="M81.3523 332.482L83.0007 277.529L94.969 332.482H129.297C127.004 314.188 116.899 237.797 106.292 231.365L64.7257 205.568C64.7257 205.568 40.6457 211.857 41.2191 246.515C43.1541 279.887 47.239 319.19 48.6724 332.553H81.3523V332.482Z" fill="#6590FF"/>
<path d="M192.221 313.615C191.361 314.973 186.774 313.972 185.413 314.115C184.194 314.258 183.048 314.687 181.901 314.973C178.174 315.973 174.018 315.402 170.721 317.331C170.649 317.403 170.506 317.474 170.363 317.403C170.219 317.331 170.148 317.26 170.148 317.117C167.998 311.257 166.349 305.111 164.486 299.109C161.691 290.105 158.896 281.101 156.101 272.025C154.668 267.38 153.234 262.736 151.729 258.019L141.553 210.927L146.068 177.698L147.143 169.837L147.214 169.266C147.214 169.266 147.429 169.337 147.859 169.48C149.293 169.98 152.948 171.338 156.961 173.339C163.411 176.483 170.936 181.199 171.939 186.559V186.63C172.513 190.346 173.086 194.134 173.659 197.85C174.734 204.495 175.738 211.141 176.813 217.787C178.103 226.076 179.464 234.294 180.826 242.584C182.188 251.159 183.621 259.806 184.983 268.381C186.201 276.027 187.491 283.745 188.709 291.391C189.569 296.893 190.501 302.324 191.361 307.827C191.576 309.328 191.863 310.828 192.078 312.4C192.149 312.686 192.364 313.258 192.293 313.544C192.293 313.472 192.293 313.544 192.221 313.615Z" fill="#EED9CE"/>
<path d="M147.215 169.191L147.143 169.763L146.068 177.623L141.553 210.852L119.336 224.501C118.19 225.216 117.186 230.075 116.685 231.362C115.18 235.363 113.818 239.508 112.098 243.367C111.74 244.153 111.453 246.368 110.593 246.797C109.016 247.797 102.495 246.44 100.488 246.297C93.0346 245.796 85.5096 244.725 78.7013 241.509C73.3263 239.008 68.5963 235.435 63.508 232.362C60.4263 230.504 56.9863 229.289 53.6897 227.788C51.468 226.788 46.8097 224.859 45.9497 222.286C45.7347 221.571 46.093 220.785 46.4513 220.071C48.028 217.069 49.0313 213.425 50.8947 210.638C52.6147 208.065 54.693 205.707 56.3413 203.063C59.7096 197.704 62.648 192.13 66.8046 187.342C73.8996 179.267 79.8479 170.049 87.1579 161.974C90.3829 158.401 100.488 154.971 105.361 154.756C109.733 154.542 114.033 155.328 117.76 156.328C120.77 157.186 123.421 158.186 125.5 159.187C128.581 160.544 130.445 161.759 130.445 161.759L147.215 169.191Z" fill="#EED9CE"/>
<path d="M155.455 213.429C157.82 212 168.713 205.068 169.717 202.567C170.147 201.423 172.655 197.779 174.805 194.42C176.095 192.419 179.248 188.489 180.108 187.703C181.47 186.274 183.477 182.701 184.695 183.916C186.2 185.345 183.835 188.989 182.545 191.276C182.043 192.062 181.542 192.92 181.327 193.849C181.112 194.778 181.183 195.492 181.685 196.278C181.972 196.707 184.05 196.921 184.695 196.85C189.855 196.636 192.077 196.921 195.947 195.492C199.817 194.063 203.4 192.062 206.983 190.133C207.628 189.775 207.987 189.132 209.42 188.989C210.137 188.918 211.57 188.989 211.498 189.704C211.427 190.276 207.127 193.634 206.625 193.92C204.188 195.635 204.475 195.421 202.11 197.136C201.752 197.422 201.322 197.708 201.25 198.136C201.178 198.494 201.322 198.922 201.322 199.28C201.322 199.994 200.892 200.566 200.39 201.066C199.602 201.924 198.67 202.781 197.81 203.567C196.52 204.639 197.595 205.568 196.162 206.569C194.657 207.641 190.643 208.712 189.067 209.713C187.777 210.499 186.558 211.285 185.197 211.857C183.548 212.5 181.757 212.786 180.037 213.143C175.235 214.143 166.922 222.79 162.837 225.648" fill="#FE8E68"/>
<path d="M182.902 212.428C182.902 212.428 188.922 211.642 193.724 209.427C198.526 207.211 210.351 199.922 210.351 199.922C210.351 199.922 210.494 199.494 210.422 199.208C210.279 198.922 208.487 198.493 207.054 199.136C205.621 199.779 196.376 203.781 196.376 203.781" fill="#FE8E68"/>
<path d="M181.686 210.427C181.686 210.427 189.282 208.855 194.084 206.639C198.886 204.424 210.71 197.135 210.71 197.135C210.71 197.135 210.854 196.706 210.782 196.421C210.639 196.135 208.847 195.706 207.414 196.349C205.98 196.992 196.736 200.994 196.736 200.994" fill="#FE8E68"/>
<path d="M184.121 206.068C184.121 206.068 191.718 204.496 196.519 202.281C201.321 200.066 208.703 196.278 212.931 193.42C213.218 193.205 213.289 192.419 213.146 192.134C213.003 191.848 211.211 191.419 209.778 192.062C208.344 192.705 199.099 196.707 199.099 196.707" fill="#FE8E68"/>
<path d="M155.886 160.547C155.886 160.547 174.305 171.766 178.605 149.113C179.68 139.752 180.97 124.46 173.086 118.529C165.275 112.597 147.215 111.883 146.785 129.605C147.501 134.679 147.286 135.107 147.286 135.107C147.286 135.107 140.55 133.249 141.983 141.682C142.771 145.469 143.775 146.827 143.775 146.827L129.943 157.617C128.653 158.618 127.578 160.261 125.858 159.475C125.643 159.404 125.5 159.261 125.285 159.261C125.07 159.261 124.855 159.261 124.711 159.475C124.64 159.618 124.64 159.761 124.64 159.832C124.64 160.476 124.353 161.119 124.138 161.833C123.421 164.334 124.138 166.693 125.5 168.836C126.646 170.694 128.223 172.195 130.086 173.267C131.878 174.267 133.885 174.839 135.963 175.196C138.543 175.625 141.195 175.84 143.775 175.125C145.351 174.696 146.355 174.196 147.43 172.981C147.645 172.767 147.788 172.481 147.931 172.195C148.218 171.552 148.218 170.837 148.218 170.123C148.218 170.051 148.218 169.908 148.146 169.837C148.075 169.765 148.003 169.765 147.86 169.694C146.713 169.48 147.501 168.908 147.931 168.408C148.433 167.907 148.863 167.407 149.365 166.978C150.368 165.978 151.371 164.978 152.375 163.977C153.593 162.834 154.74 161.69 155.886 160.547Z" fill="#FE8E68"/>
<path d="M169.575 141.821C170.288 141.821 170.865 140.669 170.865 139.248C170.865 137.828 170.288 136.676 169.575 136.676C168.863 136.676 168.285 137.828 168.285 139.248C168.285 140.669 168.863 141.821 169.575 141.821Z" fill="#56211A"/>
<path d="M172.44 130.537C172.082 130.323 171.58 130.251 171.222 130.251C170.792 130.18 170.362 130.18 169.932 130.18C169 130.18 168.14 130.323 167.28 130.608C166.42 130.823 165.632 131.18 164.844 131.609C164.199 131.966 163.267 132.466 162.909 133.181C162.837 133.395 163.052 133.538 163.195 133.467C163.554 133.395 163.912 133.181 164.199 132.967C164.557 132.752 164.915 132.538 165.274 132.395C165.99 132.038 166.779 131.752 167.567 131.537C168.355 131.323 169.144 131.252 169.932 131.18C170.362 131.18 170.72 131.18 171.15 131.18C171.58 131.18 172.01 131.323 172.369 131.18C172.655 131.037 172.727 130.68 172.44 130.537Z" fill="#433735"/>
<path d="M179.32 136.969C178.89 138.326 179.32 139.899 179.893 141.185C180.466 142.471 181.326 143.686 182.115 144.829C182.473 145.33 182.903 145.83 183.261 146.402C182.043 146.759 180.896 147.259 179.821 147.831C179.176 148.188 178.46 148.617 178.316 149.403" fill="#FE8E68"/>
<path d="M170.792 150.684C171.581 150.97 172.441 151.041 173.301 150.97C173.372 150.97 173.516 150.97 173.516 151.041C173.587 151.112 173.587 151.112 173.587 151.184C173.659 151.97 173.301 152.756 172.942 153.542C172.727 154.042 172.441 154.543 172.082 154.971C171.294 155.829 169.574 156.401 168.499 155.9C167.997 155.686 167.639 155.186 167.352 154.757C166.564 153.471 166.062 151.327 166.707 149.898C167.137 148.969 167.281 149.326 168.069 149.683C168.857 150.041 169.646 150.326 170.434 150.612C170.577 150.612 170.721 150.684 170.792 150.684Z" fill="#FFFBF9"/>
<path d="M156.53 209.427C143.057 215.644 122.131 226.863 122.131 226.863L119.121 205.211L87.5156 205.497C87.5156 205.497 96.6889 255.805 103.712 260.521C103.712 260.521 112.097 266.81 125.642 257.377C134.601 251.16 155.455 234.867 165.704 226.006L156.53 209.427Z" fill="#EED9CE"/>
<path d="M97.1194 245.869C97.1194 244.583 96.5461 243.154 96.1877 241.867C95.7577 240.367 95.3277 238.794 94.9694 237.294C94.0377 233.792 93.1061 230.291 92.1744 226.789C90.3111 219.572 88.5911 212.354 87.0144 205.137C86.2977 201.778 85.7244 198.419 84.9361 195.061C84.8644 194.775 84.4344 194.846 84.5061 195.132C84.7211 198.134 85.2944 201.064 85.8677 203.993C86.5127 207.495 87.3011 210.996 88.0894 214.498C89.7377 221.787 91.6011 229.076 93.7511 236.293C94.2527 238.008 94.7544 239.723 95.2561 241.438C95.6861 242.868 95.9727 244.654 96.8327 245.869C96.8327 246.155 97.1194 246.083 97.1194 245.869Z" fill="#DBC4BD"/>
<path d="M164.988 224.859C163.34 225.788 161.835 227.146 160.33 228.289C158.753 229.576 157.248 230.862 155.743 232.148C152.733 234.792 149.866 237.579 147.143 240.509C146.641 241.009 147.43 241.795 147.931 241.295C150.655 238.437 153.45 235.721 156.388 233.077C157.821 231.791 159.326 230.505 160.831 229.29C162.336 228.075 164.056 226.932 165.49 225.574C165.92 225.217 165.418 224.645 164.988 224.859Z" fill="#DBC4BD"/>
<path d="M142.986 216.425C144.061 216.282 144.993 215.925 145.996 215.496C146.999 215.067 148.074 214.638 149.006 214.138C150.009 213.638 150.941 213.138 151.873 212.637C152.374 212.352 152.804 212.137 153.306 211.851C153.808 211.566 154.166 211.351 154.381 210.78C154.524 210.565 154.381 210.279 154.094 210.279C153.521 210.279 153.163 210.422 152.733 210.708C152.231 210.994 151.801 211.28 151.299 211.494C150.368 211.994 149.436 212.495 148.504 212.995C147.573 213.495 146.641 213.924 145.638 214.353C144.634 214.781 143.631 215.139 142.699 215.782C142.484 215.925 142.556 216.425 142.986 216.425Z" fill="#DBC4BD"/>
<path d="M125.069 158.975C124.281 157.403 122.489 158.26 121.629 159.189C120.339 160.618 119.551 162.405 119.049 164.263C117.974 168.55 118.547 173.195 119.551 177.411C120.697 182.199 122.704 186.487 124.567 190.989C126.431 195.491 127.506 200.207 128.581 204.924C129.799 210.498 130.444 216.143 130.229 221.86C130.229 222.36 130.946 222.36 130.946 221.86C131.376 217.429 130.802 212.927 130.086 208.568C129.297 204.138 128.222 199.707 126.932 195.348C125.714 191.132 123.636 187.273 122.131 183.2C120.554 178.984 119.407 174.553 119.264 170.051C119.192 167.907 119.336 165.692 119.981 163.62C120.267 162.619 120.769 161.619 121.342 160.69C121.844 159.975 123.636 157.617 124.496 159.261C124.711 159.689 125.284 159.332 125.069 158.975Z" fill="#9B8580"/>
<path d="M149.221 168.047C149.221 167.976 149.149 167.976 149.149 167.904C149.149 168.047 149.149 168.19 149.078 168.333L149.149 168.262C149.006 168.262 148.863 168.333 148.719 168.333C151.514 169.762 151.658 173.407 151.371 176.194C151.084 179.195 150.368 182.196 149.938 185.126C149.006 191.629 147.931 198.204 146.354 204.635C145.494 208.279 144.419 211.852 143.273 215.354C143.129 215.783 143.774 215.926 143.918 215.497C146.283 208.851 147.859 202.062 149.149 195.131C149.794 191.558 150.368 187.985 150.869 184.412C151.299 181.339 152.088 178.266 152.374 175.193C152.589 172.692 152.231 168.19 149.078 167.619C148.863 167.547 148.719 167.69 148.648 167.833C148.648 167.904 148.648 167.904 148.576 167.976C148.504 168.047 148.576 168.262 148.648 168.333L148.719 168.405C149.006 168.619 149.436 168.405 149.221 168.047Z" fill="#9B8580"/>
<path d="M140.548 260.234C140.548 259.591 139.975 258.948 139.33 259.019C134.815 259.305 130.3 259.591 125.785 259.948C125.068 260.02 124.567 260.448 124.567 261.163C124.352 268.095 124.71 275.098 124.352 282.029C124.352 282.672 124.925 283.316 125.57 283.244C130.013 282.887 134.457 282.601 138.9 282.244C138.972 282.244 138.972 282.244 138.972 282.244C139.473 282.244 139.975 282.029 140.047 281.386C141.193 274.526 140.477 267.094 140.548 260.234Z" fill="#D6CED7"/>
<path d="M141.41 138.682C139.976 138.896 138.4 139.539 137.11 138.467C136.608 138.039 136.178 137.467 135.82 136.895C135.461 136.395 135.031 135.895 134.386 135.752C134.243 135.752 134.171 135.895 134.243 135.966C134.816 136.467 135.318 136.967 135.748 137.61C136.178 138.182 136.608 138.753 137.253 139.182C138.543 139.897 140.263 139.611 141.481 138.968C141.625 138.896 141.553 138.682 141.41 138.682Z" fill="#594C4A"/>
<path d="M169.287 145.827C172.77 145.827 175.594 143.012 175.594 139.538C175.594 136.065 172.77 133.25 169.287 133.25C165.804 133.25 162.98 136.065 162.98 139.538C162.98 143.012 165.804 145.827 169.287 145.827Z" stroke="#F9F9F9" stroke-width="1.12667" stroke-miterlimit="10"/>
<path d="M175.666 137.895C175.738 137.895 175.881 137.824 175.881 137.752C176.168 137.18 176.741 136.966 177.315 136.823C177.745 136.752 178.461 136.752 178.748 137.18C178.82 137.323 178.891 137.466 179.035 137.538C179.25 137.609 179.393 137.395 179.393 137.252C179.393 136.966 179.106 136.68 178.891 136.537C178.39 136.251 177.745 136.251 177.171 136.323C176.455 136.466 175.81 136.823 175.451 137.466C175.38 137.538 175.38 137.681 175.523 137.752C175.595 137.895 175.595 137.895 175.666 137.895Z" fill="#F9F9F9"/>
<path d="M141.336 128.318C144.561 130.605 164.556 127.818 171.006 124.817C184.121 118.814 185.411 108.238 182.401 106.237C182.043 106.022 181.613 105.808 181.183 105.737C180.18 105.594 179.176 106.237 178.388 106.88C178.746 105.665 179.893 100.449 176.74 98.3763C172.44 95.5893 167.065 100.306 166.205 100.877C160.113 104.951 156.816 105.665 156.816 105.665C156.816 105.665 157.891 95.3749 149.435 103.307C146.783 105.808 141.838 108.095 139.186 110.596C136.391 113.24 134.815 117.528 136.463 121.172" fill="#433735"/>
<path d="M150.726 122.101C152.589 123.602 153.378 125.96 153.879 128.247C154.668 131.677 155.026 135.393 153.879 138.752C153.593 139.68 153.951 144.111 153.234 144.04C153.019 143.968 152.446 140.609 151.586 138.894C150.224 136.25 145.781 135.822 144.133 137.965C142.126 140.538 143.416 142.396 144.276 144.969C144.921 146.898 144.276 149.328 141.911 149.971C139.689 150.614 140.334 148.899 139.474 147.398C137.611 144.04 135.604 141.11 134.314 137.394C132.308 131.534 130.659 122.53 136.823 118.457C138.399 117.456 143.488 116.17 145.208 116.885" fill="#433735"/>
<path d="M170.076 141.111C170.392 141.111 170.649 140.791 170.649 140.397C170.649 140.002 170.392 139.682 170.076 139.682C169.759 139.682 169.502 140.002 169.502 140.397C169.502 140.791 169.759 141.111 170.076 141.111Z" fill="white"/>
<path d="M149.148 135.176C149.506 136.034 150.223 136.606 151.083 136.963C152.23 137.392 153.376 137.678 154.595 137.963C155.885 138.249 157.175 138.535 158.465 138.678C159.038 138.749 159.683 138.821 160.256 138.892C160.901 138.964 161.618 139.107 162.263 138.964C162.621 138.892 162.55 138.392 162.263 138.249C161.69 138.106 161.116 138.106 160.543 138.106C159.898 138.035 159.325 137.963 158.68 137.892C157.533 137.749 156.386 137.535 155.168 137.249C154.093 137.034 152.946 136.749 151.871 136.391C151.011 136.105 150.008 135.748 149.506 134.962C149.435 134.819 149.076 134.891 149.148 135.176Z" fill="#F9F9F9"/>
<path d="M152.088 156.046C152.303 156.546 152.59 156.975 152.948 157.475C153.307 157.904 153.665 158.333 154.023 158.762C154.382 159.19 154.812 159.548 155.242 159.905C155.672 160.262 156.102 160.619 156.603 160.762C156.675 160.762 156.747 160.691 156.675 160.619C156.388 160.191 155.887 159.905 155.528 159.548C155.17 159.19 154.74 158.833 154.382 158.404C153.665 157.618 153.02 156.761 152.375 155.975C152.232 155.76 152.017 155.903 152.088 156.046Z" fill="#CC6144"/>
<path d="M58.7055 231.005C57.9172 230.862 57.4872 231.433 57.2006 232.076C56.8422 233.005 56.8422 234.077 56.6989 235.078C56.5556 236.007 56.4122 236.936 56.4839 237.865C56.5556 238.651 56.7706 239.651 57.4872 240.08C57.7022 240.223 57.9889 240.008 57.9889 239.794C57.9889 239.723 57.9889 239.651 57.9889 239.651C57.9889 239.437 57.8456 239.294 57.7022 239.437C57.6306 239.437 57.6306 239.508 57.5589 239.508C57.7022 239.58 57.8456 239.651 57.9889 239.651C57.8456 239.365 57.6306 239.08 57.4872 238.794C57.3439 238.436 57.3439 238.151 57.2722 237.793C57.2006 237.007 57.3439 236.293 57.4156 235.578C57.5589 234.72 57.5589 233.863 57.7739 233.005C57.9172 232.434 58.1322 231.791 58.7055 231.433C58.8489 231.29 58.8489 231.076 58.7055 231.005Z" fill="black"/>
<path d="M60.7129 232.436C59.9962 233.507 59.8529 234.937 59.7812 236.223C59.7812 236.866 59.7812 237.509 59.7812 238.152C59.7812 238.51 59.8529 238.795 59.9246 239.153C59.9962 239.439 59.9962 239.796 60.2829 239.867C60.3546 239.939 60.4979 239.939 60.5696 239.796C60.7846 239.582 60.7129 239.296 60.6412 239.01C60.5696 238.724 60.5696 238.367 60.4979 238.081C60.4262 237.438 60.4262 236.866 60.4262 236.223C60.4262 235.58 60.4979 234.937 60.6412 234.365C60.7846 233.722 60.9279 233.15 60.9279 232.507C61.0712 232.293 60.7846 232.293 60.7129 232.436Z" fill="black"/>
<path d="M96.0444 247.512C95.8294 248.227 95.6144 249.013 95.2561 249.656C95.1127 250.013 94.8977 250.371 94.6827 250.657C94.611 250.8 94.4677 251.014 94.396 251.157C94.2527 251.3 94.1094 251.514 94.1094 251.729C94.1094 251.943 94.3244 252.086 94.4677 252.014C94.6827 251.943 94.8261 251.729 94.9694 251.586C95.1127 251.443 95.1844 251.228 95.3277 251.085C95.5427 250.728 95.7577 250.371 95.9011 249.942C96.2594 249.156 96.4744 248.37 96.5461 247.512C96.4744 247.298 96.1161 247.298 96.0444 247.512Z" fill="black"/>
<path d="M97.6193 250.083C97.5477 250.511 97.4043 250.869 97.1893 251.226C97.1177 251.44 96.9743 251.583 96.9027 251.798C96.831 251.869 96.831 252.012 96.7593 252.083C96.6877 252.226 96.616 252.298 96.616 252.441C96.5443 252.584 96.616 252.726 96.7593 252.798C96.9027 252.869 97.046 252.869 97.1893 252.726C97.261 252.655 97.3327 252.512 97.4043 252.441C97.476 252.369 97.5476 252.226 97.5476 252.155C97.6193 251.94 97.7626 251.726 97.8343 251.512C97.9776 251.083 98.0493 250.654 98.121 250.154C98.0493 249.868 97.691 249.868 97.6193 250.083Z" fill="black"/>
<path d="M43.3679 230.933C43.8696 231.29 44.4429 231.505 45.0162 231.719C45.5896 232.005 46.1629 232.291 46.6646 232.577C47.7396 233.22 48.8146 233.934 49.8895 234.578C51.8962 235.864 54.1895 237.293 56.5545 237.507C56.9129 237.507 56.9845 237.007 56.6262 236.936C55.4079 236.65 54.1895 236.293 53.1145 235.721C52.0395 235.149 50.9645 234.506 49.8895 233.863C48.8146 233.22 47.8112 232.505 46.7362 231.934C46.1629 231.648 45.5896 231.362 45.0162 231.148C44.5146 230.933 43.9412 230.719 43.3679 230.719C43.2962 230.719 43.2246 230.862 43.3679 230.933Z" fill="black"/>
<path d="M60.4252 238.01C62.6469 239.153 64.7969 240.297 66.9469 241.512C69.0252 242.727 71.1035 244.013 73.2535 245.228C75.3319 246.371 77.4819 247.514 79.7752 248.3C81.9969 249.158 84.3619 249.73 86.7268 250.158C88.0168 250.373 89.3785 250.587 90.6685 250.73C91.3135 250.802 92.0302 250.873 92.6752 250.944C93.3202 251.016 93.9652 251.087 94.6102 250.944C94.8968 250.873 94.8252 250.516 94.6102 250.444C94.1085 250.23 93.5352 250.23 93.0335 250.23C92.3885 250.158 91.8152 250.087 91.1702 250.015C90.0235 249.873 88.8052 249.73 87.6585 249.515C85.2935 249.086 83.0002 248.586 80.7785 247.8C76.1919 246.228 72.1069 243.584 67.9502 241.226C65.5852 239.868 63.2202 238.51 60.7119 237.51C60.3536 237.438 60.2102 237.867 60.4252 238.01Z" fill="black"/>
<path d="M86.3687 278.671C87.4437 277.456 88.5904 276.242 89.8087 275.17C90.4537 274.67 91.0987 274.169 91.8153 273.741C92.1737 273.526 93.392 272.669 93.7503 273.312C93.822 273.383 93.9653 273.383 93.9653 273.24C93.8937 272.526 93.0337 272.526 92.532 272.74C91.672 273.026 90.812 273.669 90.0953 274.241C88.5187 275.384 87.0854 276.813 86.082 278.528C86.082 278.6 86.297 278.743 86.3687 278.671Z" fill="black"/>
<path d="M79.5605 277.813C78.1271 276.383 76.5505 275.24 74.6871 274.383C73.8271 273.954 72.8955 273.668 71.9638 273.382C71.0321 273.096 69.9571 272.882 69.0255 272.953C68.8821 272.953 68.8821 273.096 69.0255 273.168C69.8855 273.454 70.8171 273.596 71.7488 273.882C72.6805 274.168 73.6121 274.525 74.4721 274.954C76.1921 275.74 77.8405 276.884 79.2021 278.17C79.4888 278.313 79.7755 278.027 79.5605 277.813Z" fill="black"/>
<path d="M86.0823 280.456C87.7306 281.028 89.3073 281.742 90.5256 282.957C91.744 284.172 92.604 285.744 92.9623 287.459C93.1056 287.316 93.3206 287.173 93.464 287.03C92.174 286.316 91.1706 285.101 90.454 283.886C90.1673 283.386 89.7373 282.743 89.164 282.6C88.6623 282.457 88.089 282.386 87.659 282.743C87.5873 282.743 87.659 282.814 87.7306 282.814C88.089 282.6 88.519 282.6 88.8773 282.886C89.0923 283.1 89.3073 283.315 89.4506 283.529C89.809 284.029 90.0956 284.529 90.454 285.03C90.8123 285.53 91.1706 285.959 91.6006 286.387C92.0306 286.816 92.604 287.173 93.1056 287.602C93.3923 287.817 93.7506 287.602 93.679 287.245C93.3923 285.387 92.389 283.672 91.0273 282.386C89.7373 281.099 88.0173 280.099 86.154 280.027C85.939 280.099 85.939 280.385 86.0823 280.456Z" fill="black"/>
<path d="M42.9401 254.161C46.3801 252.017 49.6768 249.373 51.5401 245.657C51.7551 245.228 51.1101 244.8 50.8235 245.228C49.0318 248.801 45.8785 251.374 42.5101 253.446C42.0801 253.732 42.5101 254.447 42.9401 254.161Z" fill="black"/>
<path d="M84.7203 250.087C85.007 252.945 85.3653 255.732 85.437 258.662C85.5087 261.592 85.2937 264.45 84.9353 267.309C84.7203 268.952 84.4337 270.596 84.0753 272.168C84.0037 272.525 84.5053 272.668 84.6486 272.311C85.9386 266.594 86.3687 260.734 85.867 254.875C85.7237 253.231 85.5087 251.588 85.0787 250.015C85.007 249.872 84.7203 249.944 84.7203 250.087Z" fill="black"/>
<path d="M84.1477 273.666C83.9327 273.881 83.8611 274.238 83.8611 274.524C83.7894 274.881 83.7177 275.167 83.646 275.524C83.5744 275.882 83.5027 276.167 83.431 276.525C83.431 276.668 83.3594 276.882 83.3594 277.025C83.3594 277.168 83.3594 277.311 83.431 277.454C83.5027 277.597 83.5744 277.597 83.646 277.454C83.7177 277.311 83.8611 277.168 83.8611 277.025C83.8611 276.882 83.9327 276.668 83.9327 276.525C84.0044 276.239 84.0044 275.882 84.0761 275.596C84.1477 275.31 84.2194 274.953 84.2911 274.667C84.3627 274.381 84.5061 274.024 84.3627 273.738C84.3627 273.666 84.2194 273.595 84.1477 273.666Z" fill="black"/>
<path d="M89.8094 250.516C89.6661 252.731 89.8094 254.946 89.8094 257.09C89.8094 259.306 89.8811 261.521 89.8811 263.665C89.8811 265.594 90.0961 267.738 89.2361 269.524C88.5911 270.954 87.5161 272.097 86.5128 273.24C85.3661 274.527 84.2194 275.884 83.5744 277.528C83.5028 277.814 83.9328 277.957 84.0044 277.742C85.2944 274.741 88.2328 273.026 89.6661 270.167C90.5261 268.452 90.5978 266.594 90.5978 264.737C90.5978 262.45 90.5261 260.235 90.4544 257.948C90.4544 256.733 90.3828 255.518 90.3828 254.303C90.3828 253.017 90.3828 251.731 90.2394 250.444C90.3111 250.159 89.8811 250.159 89.8094 250.516Z" fill="black"/>
<path d="M122.274 168.194C122.203 169.409 122.489 170.552 123.063 171.624C123.636 172.696 124.424 173.625 125.356 174.34C126.359 175.126 127.506 175.769 128.724 176.269C129.943 176.769 131.376 177.341 132.738 177.341C133.024 177.341 133.168 176.912 132.881 176.769C131.806 176.269 130.516 176.055 129.369 175.697C128.223 175.269 127.076 174.697 126.073 173.911C124.281 172.553 122.848 170.481 122.704 168.194C122.633 167.98 122.274 167.98 122.274 168.194Z" fill="#C1ADA4"/>
<path d="M135.675 177.342C136.105 177.413 136.463 177.485 136.893 177.485C137.252 177.485 137.682 177.485 138.04 177.485C138.828 177.485 139.617 177.556 140.333 177.27C140.477 177.199 140.477 176.985 140.333 176.985C139.617 176.699 138.828 176.699 138.04 176.77C137.682 176.77 137.252 176.77 136.893 176.77C136.463 176.77 136.105 176.842 135.675 176.913C135.46 176.913 135.46 177.27 135.675 177.342Z" fill="#C1ADA4"/>
<path d="M84.4333 196.637C84.3616 195.994 84.2899 195.35 84.0033 194.779C83.7166 194.207 83.4299 193.635 82.9999 193.207C82.5699 192.706 82.0683 192.349 81.4949 191.992C81.2083 191.849 80.9216 191.706 80.5633 191.563C80.2049 191.42 79.9183 191.349 79.56 191.563C79.4883 191.634 79.4883 191.777 79.4883 191.92C79.6316 192.206 79.99 192.278 80.2766 192.349C80.5633 192.421 80.7783 192.563 80.9933 192.635C81.4949 192.921 81.9249 193.278 82.3549 193.635C82.7849 194.064 83.1433 194.493 83.3583 194.993C83.5016 195.208 83.6449 195.493 83.7166 195.708C83.8599 195.994 83.8599 196.279 83.9316 196.565C84.1466 196.851 84.4333 196.851 84.4333 196.637Z" fill="#C1ADA4"/>
<path d="M150.295 143.681C150.51 143.038 150.366 142.395 150.151 141.823C149.936 141.251 149.721 140.608 149.363 140.108C149.076 139.608 148.646 139.108 148.145 138.822C147.858 138.679 147.571 138.607 147.285 138.607C146.926 138.607 146.281 138.75 146.138 139.108C145.995 139.393 146.711 139.251 146.783 139.251C146.855 139.251 147.141 139.179 146.926 139.179C146.855 139.179 146.783 139.179 146.711 139.179H146.783C146.855 139.251 146.926 139.251 146.998 139.251C147.213 139.322 147.356 139.536 147.5 139.679C147.858 140.037 148.216 140.465 148.503 140.894C148.79 141.323 149.005 141.823 149.148 142.252C149.291 142.752 149.363 143.324 149.65 143.753C149.721 143.967 150.223 143.824 150.295 143.681Z" fill="#CC6144"/>
<path d="M148.862 140.896C148.862 140.396 148.432 140.038 147.931 139.967C147.501 139.967 147.142 140.038 146.784 140.253C146.712 140.324 146.641 140.324 146.641 140.396L146.569 140.467V140.396L146.497 140.467C146.497 140.538 146.426 140.538 146.426 140.61C146.426 140.681 146.426 140.681 146.497 140.753C146.569 140.824 146.641 140.753 146.712 140.753C146.784 140.753 146.856 140.681 146.927 140.681C146.999 140.61 147.071 140.61 147.142 140.538L147.214 140.467C147.286 140.467 147.214 140.467 147.214 140.467C147.142 140.538 147.142 140.538 147.286 140.467C147.357 140.467 147.429 140.396 147.429 140.324C147.501 140.253 147.357 140.396 147.429 140.324C147.429 140.324 147.429 140.324 147.357 140.324C147.357 140.324 147.429 140.324 147.357 140.324C147.286 140.324 147.357 140.324 147.357 140.324C147.286 140.324 147.214 140.324 147.286 140.324C147.214 140.324 147.214 140.324 147.286 140.324C147.286 140.324 147.357 140.324 147.286 140.324C147.214 140.324 147.286 140.324 147.286 140.324C147.357 140.324 147.286 140.324 147.286 140.324H147.357H147.429H147.501C147.501 140.324 147.501 140.324 147.572 140.324C147.572 140.324 147.644 140.324 147.644 140.396C147.716 140.396 147.716 140.467 147.716 140.467C147.859 140.61 147.931 140.753 148.002 140.896C148.002 141.039 148.289 140.967 148.432 140.967C148.647 141.11 148.862 141.039 148.862 140.896Z" fill="#CC6144"/>
<path d="M167.781 140.966V141.038V141.109V141.181C167.781 141.181 167.781 141.181 167.781 141.252V141.324C167.853 141.467 167.925 141.61 167.996 141.681C168.211 141.896 168.57 142.11 168.857 142.039H168.785C168.857 142.039 168.928 142.039 169.072 142.039C169.072 142.039 169.287 141.967 169.215 141.896C169.215 141.896 169.215 141.896 169.144 141.824C169.144 141.824 169.144 141.753 169.072 141.753C169 141.753 168.928 141.681 168.928 141.681C168.857 141.681 168.857 141.61 168.785 141.61C168.713 141.61 168.713 141.538 168.642 141.467C168.57 141.395 168.498 141.252 168.355 141.181C168.283 141.109 168.283 141.109 168.211 141.038C168.211 141.038 168.211 140.966 168.14 140.966C168.14 140.895 168.068 140.895 168.068 140.895C168.068 140.895 168.068 140.895 168.14 140.895C168.068 140.823 168.068 140.752 168.068 140.68C168.068 140.609 167.925 140.68 167.853 140.68C167.925 140.823 167.781 140.895 167.781 140.966Z" fill="#CC6144"/>
<path d="M117.759 189.485C117.974 195.345 118.619 201.205 119.264 206.993C119.837 211.71 120.482 216.426 121.127 221.142C121.199 221.786 121.271 222.5 121.414 223.143C121.486 223.286 121.486 223.501 121.557 223.643C121.557 223.715 121.557 223.715 121.629 223.786C121.629 223.858 121.701 223.858 121.701 223.929C121.844 224.144 121.629 223.858 121.629 223.858C121.701 224.144 122.131 224.144 122.202 223.858C122.202 223.786 122.202 223.786 122.202 223.715C122.131 223.358 121.557 223.501 121.629 223.858V223.715C121.844 223.715 121.987 223.715 122.202 223.715C122.202 223.786 122.131 223.929 122.131 224.001C122.202 223.858 122.202 223.715 122.202 223.572C122.202 223.358 122.202 223.358 122.202 223.143C122.131 222.572 122.059 222 121.987 221.428C121.701 219.57 121.486 217.641 121.199 215.783C120.411 210.209 119.766 204.707 119.121 199.133C118.762 195.917 118.404 192.773 118.117 189.557C118.189 189.2 117.687 189.2 117.759 189.485Z" fill="#C1ADA4"/>
<path d="M130.73 222.361C130.3 222.432 129.942 222.504 129.512 222.575C129.01 222.718 128.508 222.933 128.007 223.076C126.788 223.576 125.57 224.076 124.352 224.648C121.772 225.791 119.263 227.006 116.755 228.292C115.752 228.792 114.82 229.364 113.96 230.007C113.745 230.15 113.888 230.436 114.103 230.365C116.253 229.721 118.26 228.721 120.338 227.721C122.847 226.506 125.427 225.291 127.935 224.147C128.508 223.862 129.082 223.647 129.583 223.361C130.013 223.147 130.372 222.861 130.802 222.647C131.088 222.575 130.873 222.29 130.73 222.361Z" fill="#C1ADA4"/>
<path d="M181.47 253.942C181.183 254.656 181.183 255.442 181.04 256.228C180.896 256.943 180.753 257.657 180.61 258.372C180.251 259.801 179.75 261.159 179.176 262.517C178.603 263.875 177.886 265.089 177.026 266.304C176.596 266.947 176.166 267.519 175.665 268.091C175.163 268.662 174.661 269.163 174.231 269.806C174.088 270.02 174.375 270.377 174.661 270.234C175.306 269.806 175.736 269.234 176.238 268.662C176.74 268.091 177.17 267.519 177.6 266.876C178.46 265.59 179.248 264.232 179.893 262.874C180.538 261.445 180.968 260.016 181.326 258.515C181.47 257.8 181.613 257.014 181.756 256.3C181.828 255.585 181.971 254.799 181.756 254.084C181.756 253.799 181.541 253.799 181.47 253.942Z" fill="#C1ADA4"/>
<path d="M56.4124 228.574C56.2691 228.002 56.1258 227.43 55.9824 226.787C55.8391 226.216 55.6958 225.644 55.5524 225.072C55.3374 223.929 55.1941 222.714 55.1941 221.499C55.1941 220.356 55.2658 219.141 55.4808 217.998C55.6958 216.854 56.0541 215.711 56.1974 214.496C56.1974 214.21 55.8391 214.139 55.6958 214.353C55.0508 215.425 54.8358 216.711 54.6208 217.926C54.4058 219.141 54.3341 220.356 54.4058 221.571C54.4058 222.785 54.5491 224 54.8358 225.215C54.9791 225.858 55.1224 226.43 55.3374 227.073C55.5524 227.645 55.8391 228.145 56.1258 228.717C56.1258 229.002 56.5558 228.788 56.4124 228.574Z" fill="#C1ADA4"/>
<path d="M62.8614 231.649C62.073 229.506 61.0697 227.433 60.8547 225.147C60.783 224.718 60.7114 224.075 60.998 223.717C61.3564 223.289 61.9297 223.717 62.2164 224.003C63.0047 224.861 63.0047 226.004 63.0764 227.076C63.0764 227.362 63.4347 227.362 63.5063 227.147C63.9363 226.004 63.4347 224.432 62.6464 223.574C61.9297 222.788 60.568 222.503 60.2097 223.789C60.0664 224.361 60.138 225.075 60.2097 225.647C60.2814 226.361 60.4964 227.076 60.7114 227.791C61.213 229.22 61.858 230.506 62.4314 231.864C62.5747 232.078 62.933 231.864 62.8614 231.649Z" fill="#C1ADA4"/>
<path d="M76.5511 240.156C75.8345 239.013 75.1178 237.726 74.6878 236.44C74.1862 235.154 73.8995 233.796 73.6128 232.51C73.5412 232.367 73.3262 232.367 73.3262 232.581C73.3262 235.44 74.5445 238.227 76.3361 240.442C76.4078 240.513 76.6945 240.299 76.5511 240.156Z" fill="#C1ADA4"/>
<path d="M88.805 244.87C90.0233 244.799 91.0983 244.37 92.1017 243.584C92.6034 243.227 93.0334 242.798 93.3917 242.298C93.535 242.083 93.75 241.798 93.8934 241.512C93.965 241.369 94.0367 241.297 94.1084 241.155C94.18 241.012 94.18 240.869 94.18 240.654C94.2517 240.368 93.8934 240.297 93.75 240.511C93.6784 240.654 93.535 240.726 93.4633 240.797C93.3917 240.94 93.32 241.012 93.2483 241.155C93.105 241.369 92.9617 241.583 92.7467 241.798C92.3883 242.226 92.03 242.584 91.6 242.941C90.8117 243.584 89.7367 244.084 88.7333 244.37C88.5183 244.513 88.5183 244.87 88.805 244.87Z" fill="#C1ADA4"/>
<path d="M88.8777 242.511C89.6661 242.226 90.3827 241.797 90.9561 241.225C91.2427 240.939 91.5294 240.653 91.7444 240.296C91.8877 240.153 91.9594 239.939 92.0311 239.796C92.1027 239.582 92.2461 239.367 92.2461 239.153C92.2461 238.938 92.0311 238.867 91.8877 239.01C91.7444 239.153 91.6727 239.296 91.5294 239.439C91.3861 239.582 91.3144 239.725 91.2427 239.939C91.0277 240.225 90.8127 240.511 90.5261 240.725C90.0244 241.225 89.3794 241.654 88.6627 241.94C88.376 242.083 88.591 242.583 88.8777 242.511Z" fill="#C1ADA4"/>
<path d="M167.353 159.047C167.424 159.047 167.424 159.047 167.496 158.975C167.424 158.975 167.496 158.975 167.496 158.975H167.568C167.568 158.975 167.568 158.975 167.639 158.975C167.711 158.975 167.568 158.975 167.639 158.975C167.711 158.975 167.711 158.975 167.783 158.975C167.854 158.975 167.854 158.975 167.783 158.975H167.854H167.926C167.926 158.975 167.854 158.975 167.926 158.975C167.998 158.975 167.998 158.975 168.069 158.975H168.141C168.213 158.975 168.069 158.975 168.141 158.975C168.284 159.047 168.428 159.047 168.571 159.118C168.643 159.19 168.714 159.19 168.858 159.261C168.929 159.332 169.073 159.332 169.216 159.332C169.288 159.332 169.431 159.332 169.431 159.261C169.503 159.19 169.431 159.047 169.431 158.975C169.431 158.904 169.288 158.832 169.216 158.761C169.001 158.618 168.786 158.546 168.571 158.546C168.069 158.475 167.496 158.546 167.138 158.904C167.066 158.975 167.066 158.975 167.138 159.047C167.138 159.118 167.281 159.118 167.353 159.047Z" fill="#CC6144"/>
<g opacity="0.16">
<g opacity="0.16">
<path opacity="0.16" d="M295.35 137.679C293.702 143.325 294.705 149.185 294.06 154.901C293.989 155.687 293.845 156.473 293.702 157.188C293.63 157.545 293.487 157.974 293.416 158.331C293.272 158.76 293.129 159.189 293.416 159.618C293.631 159.975 293.989 159.975 294.347 159.832C294.992 159.546 295.064 158.474 295.207 157.831C295.35 157.117 295.494 156.402 295.565 155.687C295.78 154.258 295.852 152.829 295.852 151.4C295.924 148.541 295.78 145.612 295.995 142.753C296.139 141.11 296.425 139.537 296.855 137.965C297.07 137.179 295.565 136.75 295.35 137.679Z" fill="black"/>
</g>
</g>
<g opacity="0.16">
<g opacity="0.16">
<path opacity="0.16" d="M299.078 142.042C298.72 145.758 298.433 149.402 298.29 153.118C298.218 154.047 299.723 154.047 299.723 153.118C299.651 149.402 299.723 145.758 300.01 142.042C300.081 141.399 299.15 141.47 299.078 142.042Z" fill="black"/>
</g>
</g>
<g opacity="0.16">
<g opacity="0.16">
<path opacity="0.16" d="M211.644 72.5076C218.81 72.8649 225.977 73.0793 233.072 73.2222C240.167 73.4366 247.334 73.5795 254.429 73.7939C256.435 73.8653 258.442 73.9368 260.449 73.9368C262.455 74.0082 264.534 74.1512 266.54 74.0082C266.899 74.0082 267.042 73.3651 266.612 73.2936C264.892 73.0793 263.1 73.0793 261.309 73.0078C259.517 72.9363 257.725 72.9363 255.934 72.8649C252.35 72.7934 248.767 72.6505 245.184 72.579C238.017 72.3647 230.85 72.2217 223.755 72.0074C219.67 71.9359 215.657 71.793 211.572 71.793C211.285 71.8644 211.285 72.4361 211.644 72.5076Z" fill="black"/>
</g>
</g>
<g opacity="0.16">
<g opacity="0.16">
<path opacity="0.16" d="M209.35 79.0161C216.23 79.3734 223.11 79.5877 229.99 79.7307C236.87 79.8736 243.75 79.8736 250.63 79.8736C254.5 79.8736 258.37 79.8736 262.24 79.5877C262.742 79.5163 262.742 78.8017 262.24 78.8017C258.8 78.7302 255.36 78.8731 251.92 78.8731C248.48 78.8731 245.112 78.9446 241.672 78.8731C234.792 78.8731 227.912 78.7302 221.032 78.5158C217.162 78.3729 213.292 78.23 209.422 78.0156C208.705 78.0156 208.705 78.9446 209.35 79.0161Z" fill="black"/>
</g>
</g>
<g opacity="0.16">
<g opacity="0.16">
<path opacity="0.16" d="M207.917 84.8708C214.582 85.3711 221.319 85.6569 227.984 85.8713C234.649 86.0142 241.314 86.0856 247.979 86.0142C251.777 85.9427 255.504 85.8713 259.302 85.7283C259.947 85.7283 259.947 84.7279 259.302 84.7279C252.565 84.9423 245.9 85.1567 239.164 85.0852C232.499 85.0852 225.834 84.9423 219.169 84.6565C215.37 84.5135 211.644 84.3706 207.845 84.1562C207.559 84.2277 207.559 84.8708 207.917 84.8708Z" fill="black"/>
</g>
</g>
<g opacity="0.16">
<g opacity="0.16">
<path opacity="0.16" d="M206.554 91.2356C215.728 92.0216 224.973 92.4504 234.218 92.5219C236.798 92.5219 239.449 92.6648 242.101 92.4504C242.603 92.4504 242.603 91.6643 242.101 91.6643C239.808 91.5929 237.443 91.6643 235.149 91.6643C232.856 91.6643 230.491 91.6643 228.198 91.5929C223.611 91.5214 219.024 91.3785 214.438 91.1641C211.858 91.0212 209.206 90.9498 206.626 90.8068C206.268 90.7354 206.268 91.1641 206.554 91.2356Z" fill="black"/>
</g>
</g>
<g opacity="0.29">
<g opacity="0.29">
<path opacity="0.29" d="M39.9294 90.7287C46.3078 91.0146 52.6861 91.1575 59.0644 91.3004C65.4427 91.4433 71.7494 91.5862 78.1277 91.7292C79.9194 91.8006 81.711 91.8006 83.5027 91.8721C85.2943 91.9435 87.1577 92.015 88.9493 91.9435C89.3077 91.9435 89.3077 91.4433 88.9493 91.4433C87.3727 91.3004 85.7243 91.3004 84.1477 91.2289C82.571 91.1575 80.9944 91.1575 79.4177 91.086C76.2644 91.0146 73.0394 90.9431 69.886 90.8716C63.5077 90.7287 57.2011 90.5858 50.8228 90.4429C47.2394 90.3714 43.5844 90.3 40.0011 90.3C39.6428 90.2285 39.6428 90.7287 39.9294 90.7287Z" fill="black"/>
</g>
</g>
<g opacity="0.29">
<g opacity="0.29">
<path opacity="0.29" d="M37.7798 99.5193C43.8715 99.8766 50.0348 100.091 56.1265 100.162C62.2898 100.234 68.3815 100.162 74.5448 100.019C77.9848 99.948 81.4964 99.8051 84.9364 99.5193C85.2948 99.5193 85.2948 98.9476 84.9364 98.9476C81.8548 99.019 78.7731 99.162 75.7631 99.3049C72.6815 99.3763 69.5998 99.4478 66.5898 99.5193C60.4265 99.5907 54.3348 99.5193 48.1715 99.3049C44.7315 99.162 41.2915 99.019 37.8515 98.8761C37.2782 98.8047 37.2782 99.5193 37.7798 99.5193Z" fill="black"/>
</g>
</g>
<g opacity="0.29">
<g opacity="0.29">
<path opacity="0.29" d="M8.68281 106.81C17.7845 107.453 26.9578 107.882 36.1311 108.096C45.3044 108.311 54.4061 108.382 63.5794 108.239C68.7394 108.168 73.8994 108.096 79.0594 107.882C79.6327 107.882 79.6327 106.953 79.0594 107.024C69.886 107.382 60.7844 107.525 51.6111 107.525C42.4378 107.525 33.3361 107.31 24.1628 106.953C19.0028 106.739 13.8428 106.524 8.68281 106.238C8.32448 106.238 8.32448 106.81 8.68281 106.81Z" fill="black"/>
</g>
</g>
<g opacity="0.29">
<g opacity="0.29">
<path opacity="0.29" d="M6.82047 115.525C13.1271 116.026 19.4338 116.454 25.7404 116.74C32.0471 117.026 38.3537 117.169 44.7321 117.241C48.3154 117.312 51.8987 117.312 55.4104 117.169C55.912 117.169 55.912 116.454 55.4104 116.454C52.2571 116.383 49.1037 116.454 45.9504 116.454C42.7971 116.454 39.5721 116.383 36.4187 116.383C30.1121 116.24 23.8054 116.026 17.4988 115.74C13.9155 115.597 10.4038 115.383 6.82047 115.168C6.5338 115.097 6.5338 115.525 6.82047 115.525Z" fill="black"/>
</g>
</g>
<g opacity="0.29">
<g opacity="0.29">
<path opacity="0.29" d="M11.1196 87.1568C10.7613 89.515 10.4746 91.9447 10.1163 94.3029C9.97294 95.3748 9.68627 96.5181 9.61461 97.59C9.54294 98.4475 9.75794 99.3765 10.4746 99.9482C11.1196 100.448 12.0513 100.591 12.8396 100.663C14.0579 100.806 15.2763 100.877 16.4229 101.02C18.8596 101.234 21.2963 101.52 23.6612 101.663C24.8079 101.735 25.8829 101.878 27.0296 101.878C28.0329 101.878 29.1796 101.735 30.0396 101.163C30.9712 100.52 30.9712 99.5909 30.8996 98.5905C30.8279 97.5186 30.7562 96.3752 30.6846 95.3033C30.5412 93.088 30.5412 90.8728 31.3296 88.729C31.6879 87.7285 31.9746 86.6566 31.3296 85.7276C30.8279 85.013 29.9679 84.7987 29.1796 84.6557C27.9612 84.5128 26.7429 84.5843 25.5962 84.5843C24.2346 84.5843 22.8729 84.5843 21.5113 84.6557C18.7879 84.7272 16.0646 84.7272 13.3413 84.7987C12.8396 84.7987 12.4813 85.2274 12.4813 85.6562C12.4813 86.0849 12.9113 86.5852 13.3413 86.5137C15.5629 86.2279 17.7846 86.0135 20.0063 85.942C22.1562 85.8706 24.3779 85.7991 26.5279 85.7991C27.3879 85.7991 28.3912 85.7276 29.2512 85.8706C30.0396 86.0135 30.6129 86.3708 30.4696 87.2998C30.3979 87.7285 30.1829 88.1573 30.0396 88.586C29.8962 89.0863 29.7529 89.5865 29.6812 90.0867C29.5379 91.0872 29.4662 92.0876 29.4662 93.1595C29.5379 95.1604 29.8962 97.1613 29.8962 99.2336C29.8962 99.7338 29.8246 100.091 29.3946 100.377C28.9646 100.663 28.4629 100.734 28.0329 100.806C27.0296 100.949 26.0262 100.877 24.9512 100.806C22.8012 100.591 20.5796 100.448 18.4296 100.234C17.2829 100.163 16.2079 100.091 15.0613 99.9482C14.0579 99.8767 13.1263 99.8768 12.1229 99.7338C11.1196 99.5909 10.1879 99.1622 10.1163 98.0188C10.0446 96.8754 10.3313 95.6606 10.5463 94.5172C10.9046 92.0876 11.3346 89.6579 11.6929 87.2283C11.9079 86.871 11.1913 86.6566 11.1196 87.1568Z" fill="black"/>
</g>
</g>
<path d="M31.1151 168.904C32.0255 168.904 32.7634 168.168 32.7634 167.261C32.7634 166.353 32.0255 165.617 31.1151 165.617C30.2048 165.617 29.4668 166.353 29.4668 167.261C29.4668 168.168 30.2048 168.904 31.1151 168.904Z" fill="#2D2442"/>
</g>
<mask id="mask1" mask-type="alpha" maskUnits="userSpaceOnUse" x="54" y="50" width="234" height="273">
<path d="M287.5 186.5C287.5 261.887 250.788 323 205.5 323C134.5 318.5 -43.4998 299 123.5 186.5C123.5 111.113 160.213 50 205.5 50C250.788 50 287.5 111.113 287.5 186.5Z" fill="#C4C4C4"/>
</mask>
<g mask="url(#mask1)">
<path d="M250.374 214.46C248.08 218.033 242.06 222.25 237.832 222.178C223.355 221.892 218.625 212.102 217.049 208.529C217.335 208.458 217.837 208.386 218.195 208.386C220.847 208.029 223.57 205.385 224.359 202.384C225.362 198.525 226.652 190.95 226.509 186.162L244.784 196.238C244.784 197.596 244.64 199.168 244.497 200.669C244.425 201.598 244.282 202.527 244.21 203.384C244.139 204.242 243.995 205.028 243.924 205.814C243.565 208.315 244.712 210.816 246.79 212.174L250.374 214.46Z" fill="#FE8E68"/>
<path d="M251.95 175.158C250.947 177.731 251.377 180.661 252.38 183.233C253.097 185.091 254.673 183.448 256.608 183.448C259.618 183.519 261.983 180.375 263.847 172.014C264.993 165.869 265.28 162.796 265.065 162.153C264.205 160.009 261.482 158.866 259.188 158.723" fill="#3D302A"/>
<path d="M256.538 156.793C261.34 162.51 263.06 178.731 259.046 190.022C256.18 198.025 252.811 203.242 248.941 203.028C242.993 202.742 231.526 197.954 227.8 193.881C221.063 186.592 222.998 172.3 224.431 163.296C225.721 155.078 229.52 144.502 239.84 146.503C246.648 147.86 252.238 151.648 256.538 156.793Z" fill="#FE8E68"/>
<path d="M229.376 162.008C230.451 163.294 232.315 163.58 233.82 163.794C235.898 164.152 236.901 164.866 237.976 166.724C238.693 167.939 239.338 169.225 240.556 169.869C241.13 170.154 241.99 170.226 242.276 169.654C241.703 169.297 241.56 168.511 241.703 167.939C241.846 167.296 242.205 166.724 242.635 166.224C242.993 166.724 242.993 167.296 243.208 167.868C243.495 168.582 243.996 169.225 244.713 169.583C244.856 169.654 244.928 169.654 245.071 169.654C245.215 169.654 245.358 169.511 245.501 169.368C246.29 168.439 247.006 166.724 248.01 166.224C248.225 167.225 248.583 168.011 249.228 168.797C249.73 169.511 250.375 170.226 251.235 170.369C251.521 170.44 251.88 170.369 252.023 170.154C252.166 169.869 251.951 169.511 251.951 169.225C252.023 168.94 252.095 168.797 252.31 168.582C252.668 167.939 253.026 167.296 253.528 166.796C254.531 167.939 255.678 169.011 256.896 170.012C257.183 170.226 257.541 170.44 257.828 170.226C257.971 170.083 257.971 169.94 258.043 169.726C258.186 168.797 258.33 167.939 258.473 167.01C258.545 166.51 258.831 165.867 259.333 165.938C259.548 166.01 259.691 166.224 259.835 166.438C259.978 166.724 262.916 169.797 262.988 169.583C263.418 167.796 264.421 166.224 264.851 164.438C267.79 153.147 254.603 144 244.57 144C242.348 144 240.27 144.429 238.048 144.929C235.755 145.429 233.318 145.787 231.24 147.001C228.301 148.645 226.08 151.503 226.653 155.005" fill="#3D302A"/>
<path d="M234.249 159.007C235.682 160.65 236.112 163.009 236.256 165.152C236.471 168.44 236.184 171.87 234.679 174.8C234.249 175.657 233.891 179.802 233.246 179.516C233.031 179.444 233.102 176.229 232.529 174.514C231.669 171.798 227.656 170.798 225.792 172.513C222.926 175.228 224.574 178.515 225.577 180.516C226.151 181.731 227.082 183.16 227.226 184.447C227.441 186.09 227.512 192.164 226.366 193.594C225.434 194.808 224.502 189.02 223.642 187.948C217.551 179.516 211.674 158.149 222.137 153.504C223.714 152.79 228.587 152.433 230.092 153.362" fill="#3D302A"/>
<path d="M272.735 329.649C273.309 329.721 273.954 329.864 274.599 329.864C277.967 330.007 281.192 329.22 284.489 328.649C287.355 328.149 288.144 327.863 288.072 324.433C287.57 296.992 283.557 269.623 276.247 243.111C275.1 239.038 273.954 234.964 271.804 231.391C268.149 225.246 259.835 219.886 253.457 216.885C252.525 216.456 248.799 218.814 247.867 218.457C247.079 218.1 246.362 217.528 245.574 217.171C243.209 216.17 241.632 218.314 239.697 219.172C238.694 219.601 237.547 219.886 236.4 219.886C235.469 219.815 234.68 219.315 233.82 219.743C230.094 221.673 220.777 207.381 220.777 207.381L216.764 211.597L205.01 223.888L175.555 264.335C175.555 264.335 170.18 297.492 166.525 319.145C165.88 322.86 163.554 326.014 163.053 328.801C163.124 328.158 183.644 330.434 189.307 330.861C194.97 331.287 222.769 334.038 240.272 333.523C243.138 333.523 250.805 334.223 252.812 332.15C255.249 329.578 258.115 317.787 258.259 314.428C258.76 303.28 257.972 292.276 257.829 281.056C257.9 285.63 259.19 289.703 259.764 294.205C260.48 299.922 261.484 305.71 262.415 311.355C263.132 315.929 263.849 320.574 264.422 325.147C264.709 327.22 264.35 328.434 266.142 329.292C267.79 330.007 271.015 329.363 272.735 329.649Z" fill="#BC744A"/>
<path d="M263.346 319.72C261.984 319.148 253.599 317.076 249.801 316.29C247.794 315.861 238.836 313.574 236.758 313.574C234.679 313.574 231.812 316.576 231.812 316.576L232.529 326.794C234.536 326.58 237.187 327.652 238.692 327.866C240.126 328.081 244.999 328.081 248.009 326.58C248.152 326.508 248.367 326.366 248.511 326.294C249.729 327.366 251.234 328.438 252.954 328.509C252.954 328.509 254.244 328.366 254.172 327.866C254.101 327.58 253.241 326.294 252.381 325.008C253.671 326.294 255.749 328.438 258.186 328.581C258.186 328.581 259.476 328.438 259.404 327.938C259.332 327.652 258.042 325.722 257.039 324.222C257.039 324.222 257.039 324.222 257.111 324.222C258.186 325.151 260.694 328.366 263.704 328.509C263.704 328.509 264.994 328.366 264.922 327.866C264.851 327.652 264.349 326.866 263.776 325.937C264.564 326.508 265.496 327.152 266.642 327.723C269.867 329.295 271.731 328.081 271.731 327.723C271.587 327.295 264.707 320.291 263.346 319.72Z" fill="#FE8E68"/>
<path d="M234.106 307.857C234.106 307.857 239.338 310.787 238.908 317.076C238.478 323.364 236.543 330.653 228.659 329.867C220.704 329.153 234.106 307.857 234.106 307.857Z" fill="#874C2E"/>
<path d="M226.868 329.295C207.948 335.869 182.578 329.581 166.525 318.719C156.492 311.93 150.042 303.283 151.117 294.851C153.912 272.913 171.183 222.676 186.162 215.316C196.338 210.314 208.665 208.241 215.545 207.455C218.77 207.098 220.777 206.955 220.777 206.955L218.268 213.958L205.798 249.045C205.368 269.911 190.39 282.274 193.328 287.062C196.267 291.921 219.773 297.138 232.1 305.427C235.612 307.785 239.912 324.436 226.868 329.295Z" fill="#BC744A"/>
<path d="M151.189 295.352L151.117 296.781C151.117 296.995 151.117 297.281 151.117 297.495L151.189 298.21C151.261 298.71 151.261 299.21 151.404 299.639L151.762 301.068C152.336 302.926 153.124 304.713 154.199 306.285C156.277 309.572 159.001 312.359 162.082 314.717C168.174 319.505 175.197 323.15 182.507 325.722C189.817 328.366 197.485 330.153 205.225 330.796C209.095 331.153 213.037 331.153 216.907 330.867C220.777 330.581 224.647 329.867 228.374 328.723C224.719 330.081 220.849 330.939 216.979 331.439C213.109 331.868 209.095 331.939 205.225 331.725C201.284 331.51 197.414 330.939 193.544 330.081C189.674 329.224 185.947 328.152 182.221 326.794C178.566 325.436 174.911 323.864 171.471 321.935C168.031 320.077 164.662 317.933 161.652 315.36C158.642 312.859 155.919 309.929 153.841 306.571C152.837 304.927 152.049 303.069 151.547 301.14C150.974 299.282 150.974 297.281 151.189 295.352Z" fill="#874C2E"/>
<path d="M205.798 249.047C205.798 252.977 205.296 256.979 204.221 260.766C203.146 264.625 201.641 268.27 199.921 271.843C199.061 273.629 198.129 275.344 197.126 277.059C196.194 278.774 195.191 280.489 194.403 282.276C193.973 283.133 193.686 284.062 193.543 284.92C193.471 285.349 193.471 285.777 193.614 286.206C193.614 286.421 193.758 286.563 193.829 286.778C193.973 286.921 194.044 287.135 194.259 287.278C195.549 288.564 197.341 289.422 199.133 290.279C206.299 293.495 213.896 295.925 221.134 299.212C224.789 300.855 228.373 302.571 231.669 304.786L232.314 305.215C232.529 305.357 232.744 305.572 232.888 305.715C233.246 306.072 233.604 306.501 233.819 306.93C234.321 307.787 234.679 308.716 234.966 309.717C235.468 311.646 235.682 313.647 235.754 315.576C235.611 313.575 235.324 311.646 234.679 309.788C234.034 307.93 233.103 306.144 231.311 305.286C227.943 303.214 224.359 301.57 220.704 300.069C217.049 298.569 213.394 297.14 209.668 295.782C205.941 294.353 202.214 293.066 198.631 291.423C196.839 290.565 194.976 289.708 193.471 288.136C193.256 287.921 193.113 287.707 192.969 287.492C192.826 287.207 192.683 286.992 192.611 286.706C192.468 286.135 192.468 285.563 192.539 285.063C192.683 283.991 193.113 283.062 193.543 282.133C194.403 280.275 195.406 278.56 196.338 276.845C197.341 275.13 198.273 273.415 199.204 271.7C202.859 264.625 205.439 256.979 205.798 249.047Z" fill="#874C2E"/>
<path d="M254.89 217.173C253.098 218.96 245.072 224.676 237.403 224.676C236.113 224.676 234.752 224.533 233.318 224.319C226.868 223.176 221.493 218.888 218.268 213.957C217.695 213.028 217.193 212.099 216.763 211.17C216.19 209.956 215.76 208.669 215.545 207.454C218.77 207.097 221.852 206.24 222.353 205.668C222.927 209.384 227.513 216.173 234.537 217.459C235.397 217.602 236.257 217.673 237.045 217.745C240.342 217.816 242.85 216.744 244.57 215.672L247.938 213.028L254.89 217.173Z" fill="#BC744A"/>
<path d="M243.997 182.588C244.709 182.588 245.287 181.437 245.287 180.016C245.287 178.595 244.709 177.443 243.997 177.443C243.285 177.443 242.707 178.595 242.707 180.016C242.707 181.437 243.285 182.588 243.997 182.588Z" fill="#56211A"/>
<path d="M244.57 181.803C244.886 181.803 245.143 181.451 245.143 181.017C245.143 180.583 244.886 180.23 244.57 180.23C244.253 180.23 243.996 180.583 243.996 181.017C243.996 181.451 244.253 181.803 244.57 181.803Z" fill="white"/>
<path d="M257.972 183.731C258.684 183.731 259.262 182.579 259.262 181.159C259.262 179.738 258.684 178.586 257.972 178.586C257.259 178.586 256.682 179.738 256.682 181.159C256.682 182.579 257.259 183.731 257.972 183.731Z" fill="#56211A"/>
<path d="M253.528 192.165C253.528 192.737 251.234 196.024 249.013 195.738C247.149 195.524 245.573 192.093 246.504 190.521C247.078 189.95 253.528 191.593 253.528 192.165Z" fill="white"/>
<path d="M240.127 173.728C240.557 173.228 241.274 173.156 241.919 173.085C242.564 173.013 243.137 173.013 243.782 173.013C245 173.013 246.219 173.228 247.294 173.942C247.652 174.157 247.939 173.728 247.724 173.442C247.294 172.942 246.577 172.656 245.932 172.513C245.144 172.37 244.355 172.299 243.639 172.299C242.994 172.299 242.277 172.37 241.632 172.442C240.915 172.585 240.127 172.799 239.984 173.657C239.84 173.728 240.055 173.799 240.127 173.728Z" fill="#3D302A"/>
<path d="M255.892 174.658C256.394 174.658 256.824 174.515 257.326 174.515C257.827 174.515 258.329 174.515 258.831 174.658C259.332 174.801 259.762 174.944 260.192 175.23C260.407 175.373 260.622 175.516 260.766 175.659C260.981 175.802 261.196 175.944 261.411 176.016C261.554 176.016 261.697 175.944 261.697 175.802C261.626 175.301 261.052 174.873 260.694 174.587C260.192 174.301 259.691 174.015 259.117 173.872C258.544 173.729 257.971 173.658 257.397 173.729C256.824 173.801 256.179 173.872 255.821 174.301C255.534 174.444 255.677 174.658 255.892 174.658Z" fill="#3D302A"/>
<path d="M251.951 180.085C251.808 181.514 251.951 183.087 252.166 184.516C252.31 185.23 252.453 185.945 252.74 186.588C252.74 186.66 252.955 186.945 252.883 187.017C252.883 187.088 252.668 187.231 252.596 187.303C252.238 187.589 251.951 187.874 251.593 188.16C251.163 188.518 251.808 189.161 252.238 188.803C252.525 188.518 252.883 188.232 253.17 187.874C253.385 187.66 253.671 187.446 253.671 187.088C253.743 186.731 253.456 186.374 253.385 186.088C253.241 185.731 253.17 185.373 253.098 185.016C252.883 184.23 252.811 183.444 252.74 182.586C252.668 181.729 252.668 180.943 252.596 180.085C252.525 179.656 251.951 179.656 251.951 180.085Z" fill="#CC6144"/>
<path d="M258.402 183.021C258.719 183.021 258.975 182.636 258.975 182.163C258.975 181.689 258.719 181.305 258.402 181.305C258.085 181.305 257.828 181.689 257.828 182.163C257.828 182.636 258.085 183.021 258.402 183.021Z" fill="white"/>
<path d="M236.471 198.24C236.901 198.883 237.546 199.383 238.191 199.812C238.908 200.312 239.625 200.741 240.341 201.099C241.846 201.813 243.423 202.242 245.071 202.313C245.358 202.313 245.43 201.813 245.143 201.742C243.566 201.527 242.061 201.17 240.628 200.455C239.911 200.17 239.266 199.741 238.693 199.312C238.048 198.883 237.475 198.312 236.83 197.883C236.543 197.883 236.328 198.097 236.471 198.24Z" fill="#CC6144"/>
<path d="M220.777 205.816C218.985 204.458 216.763 205.959 215.617 207.46C214.183 209.389 213.467 211.747 213.108 214.106C212.463 219.394 214.183 224.396 216.262 229.184C218.412 233.972 220.633 238.688 222.998 243.404C225.005 247.406 227.083 251.408 228.731 255.553C229.663 257.911 230.451 260.34 231.025 262.77C231.383 264.056 231.598 265.414 231.885 266.772C232.1 268.201 232.1 269.916 232.816 271.202C233.031 271.488 233.461 271.417 233.605 271.131C233.963 269.987 233.676 268.773 233.461 267.629C233.246 266.414 233.031 265.271 232.816 264.128C232.386 261.984 231.813 259.84 231.096 257.768C229.806 253.909 228.086 250.122 226.295 246.477C224.288 242.404 222.21 238.402 220.347 234.329C218.197 229.612 215.76 224.896 214.828 219.751C214.398 217.107 214.398 214.391 215.115 211.89C215.473 210.676 215.975 209.461 216.692 208.46C217.337 207.531 218.698 206.316 219.917 207.103C220.848 207.46 221.493 206.316 220.777 205.816Z" fill="#874C2E"/>
<path d="M248.01 213.315C251.809 214.459 251.952 219.818 251.809 223.034C251.665 227.75 250.877 232.467 249.587 237.04C247.079 246.044 242.635 254.405 238.049 262.48C235.397 267.196 232.674 271.913 230.022 276.629C229.592 277.415 230.81 278.13 231.24 277.344C240.987 260.265 253.242 243.043 253.457 222.534C253.529 218.675 252.812 213.172 248.297 211.958C247.509 211.743 247.15 213.029 248.01 213.315Z" fill="#874C2E"/>
<path d="M240.198 271.628C235.683 271.485 231.168 271.342 226.581 271.199C225.864 271.199 225.434 271.771 225.363 272.414C224.503 279.203 224.216 286.134 223.213 292.852C223.069 293.638 223.499 294.424 224.431 294.424C228.874 294.495 233.389 294.638 237.833 294.71C238.048 294.71 238.263 294.638 238.406 294.567C238.478 294.567 238.478 294.495 238.549 294.495C238.764 294.352 238.908 294.138 238.979 293.852C240.699 287.206 240.699 279.703 241.416 272.843C241.488 272.2 240.843 271.628 240.198 271.628Z" fill="#874C2E"/>
<path d="M258.186 299.141C258.186 298.784 258.258 298.427 258.258 298.069C258.258 297.712 258.258 297.283 258.258 296.926C258.258 296.211 258.186 295.497 258.186 294.782C258.114 293.281 258.114 291.852 258.043 290.352C257.971 287.422 257.971 284.492 258.114 281.562C258.258 275.702 258.688 269.843 259.404 264.054C259.619 262.411 259.834 260.839 260.049 259.195C260.193 258.338 260.336 257.551 260.479 256.694C260.623 255.908 260.766 255.05 260.838 254.264C260.838 253.764 260.121 253.693 259.978 254.121C259.548 255.551 259.404 257.051 259.189 258.48C258.974 259.91 258.759 261.41 258.544 262.839C258.186 265.769 257.828 268.699 257.613 271.701C257.183 277.56 257.039 283.491 257.183 289.351C257.254 290.995 257.326 292.638 257.398 294.282C257.469 295.139 257.541 295.997 257.613 296.783C257.613 297.14 257.684 297.498 257.756 297.926C257.828 298.355 257.971 298.784 258.043 299.213C258.043 299.213 258.186 299.213 258.186 299.141Z" fill="#874C2E"/>
<path d="M220.49 212.675C220.705 213.961 221.565 215.176 222.282 216.248C223.07 217.32 224.002 218.32 225.005 219.178C227.012 220.893 229.52 222.322 232.172 222.608C232.53 222.679 232.602 222.036 232.243 221.965C229.807 221.179 227.442 220.178 225.435 218.535C224.432 217.749 223.572 216.82 222.784 215.819C221.995 214.819 221.422 213.675 220.705 212.603C220.705 212.318 220.49 212.461 220.49 212.675Z" fill="#874C2E"/>
<path d="M236.758 222.532C237.546 222.317 238.406 222.174 239.195 221.96C239.553 221.817 239.983 221.746 240.342 221.603C240.557 221.531 240.772 221.46 240.987 221.388C241.058 221.388 241.13 221.317 241.202 221.317C241.345 221.246 241.417 221.174 241.488 221.103C241.703 220.96 241.632 220.674 241.345 220.674C241.202 220.674 241.13 220.674 240.987 220.674C240.915 220.674 240.843 220.674 240.7 220.745C240.485 220.745 240.27 220.817 240.055 220.888C239.696 221.031 239.267 221.103 238.908 221.246C238.12 221.46 237.331 221.746 236.543 222.032C236.256 222.103 236.4 222.603 236.758 222.532Z" fill="#874C2E"/>
<path d="M228.517 176.083L228.66 175.94C228.66 176.011 228.373 175.94 228.517 176.011C228.66 176.083 228.803 176.083 228.947 176.226C229.305 176.512 229.52 177.012 229.592 177.441C229.735 177.941 229.807 178.441 229.735 178.941C229.735 179.227 229.663 179.442 229.592 179.727C229.592 179.87 229.52 179.942 229.52 180.085C229.448 180.228 229.448 180.299 229.448 180.442C229.448 180.585 229.807 180.513 229.878 180.513C230.093 180.513 230.308 180.442 230.452 180.299C230.667 180.085 230.738 179.656 230.81 179.37C230.882 179.084 230.882 178.727 230.882 178.37C230.882 177.726 230.738 177.012 230.452 176.44C230.165 175.94 229.735 175.511 229.162 175.511C228.517 175.44 227.728 175.654 227.442 176.297C227.37 176.512 227.8 176.44 227.872 176.44C228.087 176.369 228.445 176.297 228.517 176.083Z" fill="#CC6144"/>
<path d="M230.022 177.873C230.022 177.801 230.022 177.73 230.022 177.658V177.73C230.022 177.73 230.022 177.73 230.094 177.658C230.094 177.587 230.165 177.587 230.094 177.515C229.95 177.301 229.735 177.158 229.52 177.086C229.377 177.015 229.233 177.015 229.162 176.943C228.947 176.943 228.803 176.943 228.588 177.015C228.516 177.015 228.301 177.158 228.445 177.229C228.445 177.229 228.445 177.229 228.516 177.229H228.588H228.66C228.803 177.229 228.875 177.301 229.018 177.372C229.018 177.372 229.018 177.372 229.09 177.372C229.09 177.372 229.162 177.372 229.162 177.444C229.233 177.444 229.233 177.515 229.305 177.515C229.377 177.587 229.377 177.587 229.449 177.658L229.52 177.73C229.592 177.801 229.664 177.801 229.735 177.801H229.664C229.735 177.873 229.807 177.944 229.879 177.944C229.807 178.016 230.022 177.944 230.022 177.873Z" fill="#CC6144"/>
<path d="M246.433 196.236C246.648 196.522 246.934 196.808 247.293 196.951C247.508 197.022 247.651 197.094 247.866 197.094C248.153 197.094 248.439 197.094 248.654 197.022C248.583 197.022 248.511 197.094 248.439 197.094C248.583 197.094 248.798 197.022 248.941 196.879C249.013 196.808 248.941 196.808 248.869 196.808C248.726 196.808 248.654 196.808 248.511 196.808C248.583 196.808 248.583 196.808 248.654 196.808C248.654 196.808 248.583 196.808 248.511 196.736C248.439 196.736 248.439 196.736 248.368 196.736C248.296 196.736 248.368 196.736 248.368 196.736C248.296 196.736 248.224 196.736 248.153 196.736C248.009 196.736 247.866 196.665 247.723 196.594C247.436 196.451 247.149 196.236 246.934 195.95C246.934 195.879 246.791 195.879 246.719 195.879C246.648 195.879 246.504 195.879 246.433 195.95C246.504 196.022 246.361 196.093 246.433 196.236Z" fill="#CC6144"/>
<path d="M241.129 181.23C241.129 181.373 241.129 181.444 241.129 181.587C241.129 181.73 241.129 181.873 241.129 181.945C241.129 182.23 241.272 182.445 241.416 182.659C241.559 182.874 241.702 183.088 241.917 183.231C241.989 183.302 242.132 183.374 242.276 183.445C242.419 183.517 242.562 183.588 242.706 183.588C242.777 183.588 242.921 183.588 242.992 183.445C242.992 183.374 242.849 183.302 242.777 183.231C242.706 183.159 242.634 183.088 242.491 183.016C242.276 182.874 242.132 182.659 241.989 182.445C241.846 182.23 241.774 182.016 241.702 181.802C241.702 181.73 241.631 181.659 241.631 181.659C241.631 181.587 241.559 181.587 241.559 181.516C241.559 181.373 241.487 181.301 241.487 181.159C241.416 181.087 241.129 181.159 241.129 181.23Z" fill="#CC6144"/>
<path d="M258.258 184.803C258.329 184.803 258.472 184.732 258.329 184.732C258.329 184.732 258.187 184.803 258.258 184.803Z" fill="#CC6144"/>
<path d="M259.119 184.664C259.405 184.521 259.692 184.306 259.836 184.02C259.907 183.877 259.979 183.734 259.979 183.591C259.979 183.52 259.979 183.448 259.979 183.377C259.979 183.305 259.907 183.234 259.836 183.162C259.764 183.091 259.692 183.162 259.621 183.234C259.549 183.305 259.549 183.377 259.549 183.448C259.549 183.52 259.477 183.591 259.477 183.663C259.405 183.806 259.405 183.949 259.334 184.02C259.262 184.163 259.19 184.235 259.119 184.306C259.047 184.378 259.047 184.378 258.975 184.449C258.975 184.449 258.975 184.449 258.904 184.449C258.904 184.449 258.832 184.449 258.832 184.521C258.76 184.521 258.688 184.664 258.76 184.664C258.832 184.735 258.975 184.664 259.119 184.664Z" fill="#CC6144"/>
<path d="M258.401 270.559C258.473 269.844 258.473 269.201 258.616 268.486C258.76 267.843 259.046 267.2 259.333 266.557C259.906 265.413 260.695 264.27 261.483 263.27C262.2 262.269 263.06 261.34 263.991 260.483C264.493 260.054 264.995 259.625 265.496 259.196C265.711 259.054 265.998 258.839 266.213 258.696C266.428 258.553 266.715 258.339 266.858 258.125C266.93 257.91 266.858 257.767 266.643 257.767C266.07 257.696 265.353 258.339 264.923 258.625C264.35 258.982 263.848 259.411 263.346 259.911C262.343 260.84 261.483 261.912 260.623 262.984C259.763 264.127 258.975 265.342 258.401 266.7C257.9 267.915 257.47 269.415 258.043 270.63C258.115 270.845 258.401 270.773 258.401 270.559Z" fill="#874C2E"/>
<path d="M258.044 272.342C258.546 271.842 258.832 271.198 259.119 270.627C259.477 269.984 259.836 269.412 260.266 268.84C261.126 267.625 262.057 266.554 263.132 265.553C263.562 265.196 264.351 264.267 264.924 264.624C265.497 264.981 264.494 266.053 264.135 266.339C263.562 266.839 262.774 266.839 262.129 267.268C261.699 267.554 261.126 268.126 261.341 268.697C261.412 268.912 261.699 268.983 261.842 268.769C261.986 268.554 262.057 268.269 262.272 268.054C262.487 267.84 262.846 267.697 263.132 267.554C263.706 267.34 264.279 267.125 264.78 266.625C265.425 265.91 266.357 264.481 265.067 263.91C263.921 263.409 262.774 264.696 262.057 265.41C261.126 266.339 260.266 267.34 259.549 268.411C259.119 268.983 258.761 269.626 258.402 270.269C258.116 270.841 257.686 271.556 257.686 272.27C257.829 272.342 257.972 272.413 258.044 272.342Z" fill="#874C2E"/>
<path d="M229.591 310.073C229.519 311.288 229.662 312.503 229.519 313.718C229.375 314.933 229.089 316.147 228.659 317.291C228.229 318.434 227.656 319.506 226.939 320.578C226.294 321.578 225.434 322.436 224.717 323.436C224.574 323.579 224.789 323.722 224.932 323.651C226.079 323.079 226.939 322.079 227.727 321.007C228.516 319.935 229.089 318.72 229.519 317.505C229.949 316.29 230.235 315.004 230.307 313.718C230.379 312.503 230.379 311.074 229.877 310.002C229.877 309.716 229.591 309.859 229.591 310.073Z" fill="#874C2E"/>
<path d="M248.44 287.274C248.225 288.703 248.082 290.204 247.723 291.633C247.365 293.062 246.863 294.491 246.218 295.849C244.928 298.564 243.208 301.066 241.058 303.138C239.84 304.353 238.55 305.425 237.117 306.354C236.83 306.497 237.117 306.925 237.332 306.782C242.778 303.781 246.72 298.493 248.297 292.49C248.727 290.847 249.085 289.06 248.942 287.345C249.013 287.059 248.512 286.988 248.44 287.274Z" fill="#874C2E"/>
</g>
<path d="M328.045 318.791H209.078C207.932 318.791 207 319.72 207 320.863V321.006C207 322.15 207.932 323.079 209.078 323.079H328.045C329.191 323.079 330.123 322.15 330.123 321.006V320.863C330.123 319.72 329.191 318.791 328.045 318.791Z" fill="#2D2442"/>
<path d="M351.266 265.983C326.541 265.769 301.744 265.483 277.019 265.269C273.508 265.269 269.996 265.197 266.484 265.197C265.911 265.197 265.266 265.483 264.979 266.055C258.171 281.705 251.363 297.354 244.554 313.004C243.551 315.219 242.619 317.506 241.616 319.721C241.616 319.793 241.544 319.864 241.544 319.936C241.544 320.007 241.473 320.079 241.473 320.15C241.258 321.079 241.759 322.151 242.834 322.223C243.121 322.294 243.336 322.294 243.623 322.223C269.064 322.437 294.506 322.651 319.948 322.794C323.603 322.794 327.186 322.866 330.841 322.866C331.629 322.866 332.203 322.294 332.489 321.579C339.298 303.714 346.034 285.921 352.843 268.056C353.273 267.055 352.269 265.983 351.266 265.983Z" fill="#6590FF"/>
<path d="M351.265 264.768C330.696 264.553 310.056 264.339 289.488 264.125C284.4 264.053 279.311 264.053 274.151 263.982C271.715 263.982 269.206 263.91 266.77 263.91C265.766 263.91 264.906 264.125 264.19 264.911C263.473 265.768 263.115 267.197 262.613 268.269C258.528 277.631 254.515 286.992 250.43 296.353C248.423 300.998 246.345 305.714 244.338 310.359C243.335 312.646 242.331 314.933 241.328 317.291C240.611 318.934 239.465 320.935 241.041 322.507C241.686 323.222 242.618 323.436 243.55 323.436C244.911 323.365 246.201 323.436 247.563 323.436C250.071 323.436 252.58 323.508 255.088 323.508C260.176 323.579 265.336 323.579 270.425 323.651C280.673 323.722 290.85 323.794 301.098 323.865C306.258 323.937 311.418 323.937 316.578 324.008C319.086 324.008 321.666 324.08 324.175 324.08C325.321 324.08 326.54 324.08 327.686 324.08C328.905 324.08 330.338 324.294 331.485 324.008C333.635 323.508 334.065 320.721 334.781 319.006C335.713 316.576 336.645 314.147 337.576 311.717C339.368 306.929 341.231 302.213 343.023 297.425C346.678 287.921 350.405 278.417 353.916 268.841C354.633 266.769 353.343 264.982 351.265 264.768C349.76 264.625 349.76 266.983 351.265 267.126C352.34 267.197 351.48 268.627 351.265 269.127C350.835 270.342 350.333 271.556 349.903 272.771C349.043 274.986 348.183 277.202 347.395 279.417C345.675 283.99 343.955 288.492 342.235 293.066C338.795 302.07 335.426 311.002 331.986 320.006C331.843 320.435 331.7 321.078 331.413 321.436C331.198 321.721 330.983 321.721 330.625 321.721C329.335 321.721 328.045 321.721 326.755 321.721C324.39 321.721 322.096 321.65 319.731 321.65C314.858 321.578 309.985 321.578 305.111 321.507C295.508 321.436 285.833 321.364 276.23 321.293C266.483 321.221 256.736 321.15 246.99 321.078C245.843 321.078 244.768 321.078 243.621 321.078C242.976 321.078 242.618 320.864 242.833 320.221C243.048 319.149 243.765 318.077 244.195 317.076C244.625 316.005 245.126 314.933 245.556 313.861C247.491 309.43 249.426 304.928 251.361 300.498C255.231 291.637 259.03 282.776 262.9 273.915C263.903 271.699 264.835 269.484 265.838 267.197C265.981 266.84 266.053 266.411 266.483 266.268C266.913 266.125 267.558 266.268 267.988 266.268C269.135 266.268 270.353 266.268 271.5 266.268C276.373 266.34 281.175 266.34 286.048 266.411C305.47 266.626 324.82 266.769 344.241 266.983C346.606 266.983 348.971 267.054 351.408 267.054C352.77 267.126 352.77 264.839 351.265 264.768Z" fill="#80A3FF"/>
<path d="M294.218 299.924C297.384 299.924 299.951 298.069 299.951 295.779C299.951 293.49 297.384 291.635 294.218 291.635C291.051 291.635 288.484 293.49 288.484 295.779C288.484 298.069 291.051 299.924 294.218 299.924Z" fill="#5A4F72"/>
<path d="M305.254 298.356C306.917 298.356 308.264 297.396 308.264 296.212C308.264 295.028 306.917 294.068 305.254 294.068C303.592 294.068 302.244 295.028 302.244 296.212C302.244 297.396 303.592 298.356 305.254 298.356Z" fill="#5A4F72"/>
<g opacity="0.16">
<g opacity="0.16">
<path opacity="0.16" d="M290.917 128.351C289.269 133.997 290.272 139.856 289.627 145.573C289.555 146.359 289.412 147.145 289.269 147.86C289.197 148.217 289.054 148.646 288.982 149.003C288.839 149.432 288.695 149.861 288.982 150.29C289.197 150.647 289.555 150.647 289.914 150.504C290.559 150.218 290.63 149.146 290.774 148.503C290.917 147.789 291.06 147.074 291.132 146.359C291.347 144.93 291.419 143.501 291.419 142.072C291.49 139.213 291.347 136.283 291.562 133.425C291.705 131.781 291.992 130.209 292.422 128.637C292.637 127.851 291.132 127.422 290.917 128.351Z" fill="black"/>
</g>
</g>
<g opacity="0.16">
<g opacity="0.16">
<path opacity="0.16" d="M294.642 132.714C294.284 136.43 293.997 140.074 293.854 143.79C293.782 144.719 295.287 144.719 295.287 143.79C295.216 140.074 295.287 136.43 295.574 132.714C295.646 132.071 294.714 132.142 294.642 132.714Z" fill="black"/>
</g>
</g>
</g>
<defs>
<clipPath id="clip0">
<rect width="400" height="361" fill="white"/>
</clipPath>
</defs>
</svg>
