<svg width="399" height="360" viewBox="0 0 399 360" fill="none" xmlns="http://www.w3.org/2000/svg">
<g clip-path="url(#clip0)">
<path fill-rule="evenodd" clip-rule="evenodd" d="M131.972 322.164C79.2404 291.832 90.4691 219.082 103.129 159.511C115.99 98.9954 134.865 27.306 196.233 19.7916C259.717 12.0181 306.697 71.8142 328.622 131.9C346.214 180.111 322.401 228.703 285.495 264.411C242.035 306.46 184.331 352.281 131.972 322.164Z" fill="#E0E9FF"/>
<path d="M268.943 24.9941C267.786 25.2208 181.921 45.9578 180.761 46.3124C178.056 47.0118 177.147 52.6187 178.776 59.0572C180.277 65.4925 183.741 70.1861 186.445 69.4866C187.603 69.2599 273.468 48.5229 274.628 48.1683C277.333 47.4689 278.242 41.862 276.613 35.4235C274.984 28.9849 271.648 24.2946 268.943 24.9941Z" fill="#EDA664"/>
<path d="M189.516 64.4475C190.391 65.2373 190.359 66.516 189.569 67.3917C188.78 68.2674 187.501 68.2352 186.625 67.4454C185.749 66.6556 185.782 65.3769 186.571 64.5012C187.358 63.7534 188.64 63.6577 189.516 64.4475Z" fill="#FFC078"/>
<path d="M185.524 50.2737C186.4 51.0634 186.368 52.3421 185.578 53.2178C184.788 54.0936 183.51 54.0613 182.634 53.2715C181.758 52.4817 181.79 51.2031 182.58 50.3274C183.498 49.4549 184.776 49.4871 185.524 50.2737Z" fill="#FFC078"/>
<path d="M191.679 54.7795C192.554 55.5693 192.522 56.848 191.732 57.7237C190.943 58.5994 189.664 58.5672 188.788 57.7774C187.912 56.9876 187.945 55.7089 188.734 54.8332C189.524 53.9575 190.803 53.9897 191.679 54.7795Z" fill="#FFC078"/>
<path d="M203.115 52.8947C203.99 53.6845 203.958 54.9632 203.168 55.8389C202.378 56.7146 201.1 56.6824 200.224 55.8926C199.348 55.1028 199.381 53.8241 200.17 52.9484C200.957 52.2006 202.364 52.236 203.115 52.8947Z" fill="#FFC078"/>
<path d="M199.055 61.6194C199.93 62.4092 199.898 63.6878 199.108 64.5636C198.319 65.4393 197.04 65.407 196.164 64.6173C195.288 63.8275 195.321 62.5488 196.111 61.6731C196.897 60.9252 198.179 60.8296 199.055 61.6194Z" fill="#FFC078"/>
<path d="M196.114 46.3166C196.99 47.1064 196.958 48.3851 196.168 49.2608C195.378 50.1365 194.099 50.1043 193.224 49.3145C192.348 48.5247 192.38 47.246 193.17 46.3703C193.96 45.4946 195.238 45.5268 196.114 46.3166Z" fill="#FFC078"/>
<path d="M214.707 49.8616C215.583 50.6514 215.551 51.93 214.761 52.8058C213.971 53.6815 212.692 53.6492 211.817 52.8594C210.941 52.0697 210.973 50.791 211.763 49.9153C212.677 49.1706 213.959 49.075 214.707 49.8616Z" fill="#FFC078"/>
<path d="M210.647 58.5823C211.523 59.372 211.491 60.6507 210.701 61.5264C209.911 62.4022 208.633 62.3699 207.757 61.5801C206.881 60.7903 206.913 59.5117 207.703 58.6359C208.493 57.7602 209.772 57.7925 210.647 58.5823Z" fill="#FFC078"/>
<path d="M207.711 43.1565C208.587 43.9463 208.554 45.225 207.765 46.1007C206.975 46.9764 205.696 46.9442 204.82 46.1544C203.945 45.3646 203.977 44.0859 204.767 43.2102C205.553 42.4623 206.835 42.3667 207.711 43.1565Z" fill="#FFC078"/>
<path d="M225.64 47.5744C226.515 48.3642 226.483 49.6429 225.693 50.5186C224.903 51.3943 223.625 51.3621 222.749 50.5723C221.873 49.7825 221.906 48.5038 222.695 47.6281C223.485 46.7524 224.764 46.7847 225.64 47.5744Z" fill="#FFC078"/>
<path d="M221.457 56.1682C222.333 56.958 222.301 58.2367 221.511 59.1124C220.721 59.9881 219.442 59.9559 218.567 59.1661C217.691 58.3763 217.723 57.0976 218.513 56.2219C219.427 55.4773 220.709 55.3817 221.457 56.1682Z" fill="#FFC078"/>
<path d="M218.514 40.8713C219.39 41.6611 219.358 42.9398 218.568 43.8155C217.778 44.6912 216.5 44.659 215.624 43.8692C214.748 43.0794 214.781 41.8007 215.57 40.925C216.488 40.0525 217.767 40.0848 218.514 40.8713Z" fill="#FFC078"/>
<path d="M276.613 35.4267C278.114 41.862 277.201 47.5967 274.628 48.1716C271.923 48.871 268.587 44.1807 266.958 37.7422C265.457 31.3068 266.37 25.5721 268.943 24.9973C271.648 24.2978 274.984 28.9882 276.613 35.4267Z" fill="#F6BB99"/>
<path d="M287.096 20.596C285.939 20.8227 226.72 35.1946 225.562 35.4213C222.858 36.1208 221.949 41.7276 223.577 48.1662C225.078 54.6015 228.543 59.295 231.247 58.5956C232.404 58.3689 291.624 43.9969 292.781 43.7702C295.485 43.0707 296.395 37.4639 294.766 31.0254C293.137 24.5868 289.8 19.8965 287.096 20.596Z" fill="#F5F5F5"/>
<path d="M294.765 31.0205C296.266 37.4558 295.354 43.1905 292.78 43.7653C290.076 44.4648 286.739 39.7745 285.111 33.3359C283.61 26.9006 284.522 21.1659 287.095 20.5911C289.8 19.8916 293.136 24.5819 294.765 31.0205Z" fill="#701E00"/>
<path d="M290.869 43.4652L288.318 43.145L287.842 41.7255L286.078 40.6574L286.779 38.2441L284.624 37.422L285.683 36.0413L282.151 34.033L283.245 31.2457L280.988 29.3975L282.833 27.2689L281.734 25.194L283.035 24.3311C283.035 24.3311 282.294 23.2888 282.556 23.0396C282.815 22.9181 286.818 21.4837 286.818 21.4837L290.869 43.4652Z" fill="#701E00"/>
<path d="M315.044 84.3817C318.386 78.7083 322.955 75.113 325.349 76.5808C327.746 77.9208 326.961 83.6587 323.62 89.3321C320.278 95.0055 315.709 98.6008 313.315 97.133C311.045 95.7963 311.83 90.0583 315.044 84.3817Z" fill="#F6BB99"/>
<path d="M297.266 87.0611C298.239 87.7039 383.435 136.842 384.411 137.362C386.728 138.657 391.14 135.305 394.37 129.822C397.6 124.339 398.234 118.791 396.041 117.499C395.068 116.856 309.872 67.7177 308.896 67.1985C306.579 65.9035 302.166 69.2546 298.937 74.7376C295.583 80.2176 294.949 85.7661 297.266 87.0611Z" fill="#F2F2F2"/>
<path d="M298.902 75.0155C302.244 69.342 306.813 65.7468 309.207 67.2146C311.604 68.5546 310.82 74.2925 307.478 79.9659C304.136 85.6393 299.567 89.2346 297.173 87.7668C294.904 86.43 295.56 80.6889 298.902 75.0155Z" fill="#701E00"/>
<path d="M310.322 68.6509L311.935 70.6109L311.261 72.0013L311.848 74.0633L309.642 75.2872L310.614 77.3588L308.942 77.7005L310.124 81.5688L307.403 82.9076L307.712 85.8583L305.017 86.1741L304.448 88.4628L302.92 88.1684C302.92 88.1684 302.632 89.4406 302.376 89.4342C302.12 89.4277 298.199 87.6655 298.199 87.6655L310.322 68.6509Z" fill="#701E00"/>
<path d="M137.058 84.6191C130.764 85.6119 128.992 89.9175 129.56 92.7467C130.132 95.4481 120.065 98.9047 121.524 107.002C123.111 115.103 105.558 126.176 136.258 131.556C166.958 136.937 165.881 123.859 163.05 119.437C160.218 115.015 168.662 94.7566 153.787 85.9367C145.214 80.8584 137.058 84.6191 137.058 84.6191Z" fill="#C8742C"/>
<path d="M110.55 323.986L104.314 337.903L95.4305 334.992C96.2622 332.454 99.6815 323.711 100.376 321.554C100.795 320.157 101.211 318.888 101.495 317.743L110.55 323.986Z" fill="#E2C6B5"/>
<path d="M111.043 350.101C111.744 347.688 110.52 345.482 109.034 343.525C107.423 341.437 105.695 338.963 105.634 336.274C105.651 335.635 105.788 335.255 105.667 334.996C105.542 334.865 97.1931 331.071 96.6784 331.186C96.5505 331.183 91.0273 342.175 91.1455 342.562C91.8611 344.628 99.6825 349.047 103.604 350.809C107.021 352.303 109.441 352.748 109.831 352.502C110.484 352.007 110.899 350.738 111.043 350.101Z" fill="#CF403C"/>
<path d="M103.017 333.519C103.017 333.519 103.001 334.159 102.978 335.054C102.965 335.565 103.08 336.08 103.067 336.591C103.182 337.106 103.294 337.749 103.406 338.391C103.517 339.034 103.76 339.552 104.003 340.07C104.246 340.588 104.361 341.102 104.607 341.492C104.853 341.882 104.971 342.269 105.22 342.531C105.342 342.79 105.466 342.921 105.466 342.921C105.466 342.921 105.342 342.79 105.089 342.656C104.84 342.394 104.591 342.132 104.345 341.742C104.22 341.611 103.971 341.348 103.849 341.089C103.728 340.83 103.479 340.568 103.357 340.309C103.236 340.05 103.114 339.791 102.996 339.405C102.875 339.146 102.757 338.759 102.763 338.503C102.412 337.215 102.444 335.936 102.598 334.916C102.745 334.152 103.017 333.519 103.017 333.519Z" fill="#25243E"/>
<path d="M103.858 340.708C103.858 340.708 103.993 340.455 104.255 340.206C104.386 340.081 104.645 339.96 104.901 339.966C105.16 339.845 105.415 339.851 105.671 339.858C106.182 339.871 106.687 340.139 106.937 340.401C107.186 340.664 107.307 340.923 107.307 340.923C107.307 340.923 107.052 340.916 106.671 340.779C106.543 340.775 106.288 340.769 106.163 340.638C105.907 340.631 105.78 340.628 105.527 340.494C105.143 340.484 104.76 340.474 104.376 340.465C104.114 340.714 103.858 340.708 103.858 340.708Z" fill="#25243E"/>
<path d="M103.153 338.261C103.153 338.261 103.287 338.009 103.546 337.887C103.808 337.638 104.323 337.523 104.706 337.533C104.962 337.539 105.215 337.674 105.342 337.677C105.595 337.811 105.72 337.942 105.844 338.073C106.093 338.336 106.087 338.591 106.087 338.591C106.087 338.591 105.831 338.585 105.579 338.451C105.451 338.447 105.323 338.444 105.071 338.31C104.943 338.307 104.687 338.3 104.559 338.297C104.175 338.287 103.92 338.281 103.536 338.271C103.28 338.265 103.153 338.261 103.153 338.261Z" fill="#25243E"/>
<path d="M102.708 335.561C102.708 335.561 102.967 335.44 103.222 335.446C103.478 335.453 103.862 335.463 104.242 335.6C104.622 335.738 105.003 335.875 105.255 336.01C105.508 336.144 105.633 336.275 105.633 336.275C105.633 336.275 105.374 336.396 105.118 336.39C104.862 336.383 104.479 336.374 104.098 336.236C103.718 336.099 103.337 335.961 103.085 335.827C102.832 335.693 102.708 335.561 102.708 335.561Z" fill="#25243E"/>
<path d="M91.8184 341.17C91.8184 341.17 92.9498 341.966 94.7141 343.034C95.5963 343.568 96.6031 344.233 97.6099 344.899C98.7446 345.567 99.8793 346.235 101.017 346.776C101.65 347.048 102.152 347.444 102.785 347.716C103.418 347.988 103.923 348.257 104.556 348.528C105.188 348.8 105.697 348.941 106.205 349.082C106.713 349.223 107.221 349.363 107.73 349.504C108.238 349.645 108.622 349.655 109.133 349.667C109.517 349.677 109.9 349.687 110.156 349.693C110.799 349.582 111.054 349.588 111.054 349.588C111.054 349.588 110.667 349.706 110.153 349.821C109.894 349.943 109.51 349.933 109.127 349.923C108.871 349.917 108.743 349.914 108.487 349.907C108.232 349.901 107.976 349.894 107.723 349.76C107.212 349.747 106.704 349.606 106.067 349.462C105.431 349.318 104.923 349.177 104.29 348.906C103.654 348.762 103.021 348.49 102.516 348.221C101.883 347.949 101.25 347.677 100.618 347.406C99.355 346.734 98.2203 346.066 97.2134 345.4C96.0788 344.732 95.2031 343.942 94.3209 343.408C92.8187 342.091 91.8184 341.17 91.8184 341.17Z" fill="#25243E"/>
<path d="M99.8739 346.492C99.8739 346.492 99.8772 346.364 100.011 346.112C100.146 345.859 100.411 345.482 100.677 345.105C100.942 344.728 101.466 344.229 101.988 343.859C102.25 343.609 102.509 343.488 102.896 343.37C103.154 343.248 103.541 343.13 103.8 343.009C104.446 342.769 105.213 342.788 105.853 342.805C106.108 342.811 106.492 342.821 106.744 342.955C107 342.962 107.253 343.096 107.508 343.102C108.017 343.243 108.397 343.381 108.65 343.515C108.902 343.649 109.027 343.78 109.027 343.78C109.027 343.78 108.899 343.777 108.515 343.767C108.263 343.633 107.879 343.623 107.368 343.611C107.112 343.604 106.856 343.598 106.6 343.591C106.345 343.585 106.089 343.578 105.705 343.569C105.066 343.552 104.551 343.667 103.906 343.907C102.745 344.262 101.703 345.003 100.919 345.623C100.526 345.997 100.264 346.246 100.133 346.371C100.005 346.368 99.8739 346.492 99.8739 346.492Z" fill="#25243E"/>
<path d="M172.907 327.222L173.035 342.451L163.796 343.497C163.48 340.802 162.948 331.449 162.619 329.265C162.399 327.852 162.179 326.439 162.08 325.285L172.907 327.222Z" fill="#E2C6B5"/>
<path d="M184.214 350.663C183.764 348.22 181.757 346.634 179.737 345.56C177.336 344.348 174.814 342.877 173.6 340.287C173.36 339.641 173.37 339.258 173.118 339.123C172.993 338.992 163.78 339.016 163.259 339.386C163.131 339.383 162.69 351.783 162.94 352.045C164.435 353.618 173.373 354.356 177.596 354.334C181.435 354.303 183.756 353.594 184.022 353.217C184.546 352.718 184.326 351.305 184.214 350.663Z" fill="#CF403C"/>
<path d="M170.049 339.047C170.049 339.047 170.288 339.693 170.653 340.47C170.899 340.86 171.142 341.378 171.384 341.895C171.755 342.417 171.998 342.935 172.372 343.328C172.743 343.849 173.117 344.242 173.618 344.639C173.992 345.032 174.494 345.428 174.871 345.694C175.248 345.959 175.498 346.221 175.75 346.356C176.003 346.49 176.127 346.621 176.127 346.621C176.127 346.621 175.999 346.618 175.747 346.484C175.494 346.349 175.114 346.212 174.606 346.071C174.353 345.937 174.101 345.802 173.976 345.671C173.724 345.537 173.471 345.403 173.222 345.14C172.973 344.878 172.72 344.744 172.471 344.482C172.221 344.22 171.972 343.957 171.851 343.698C170.981 342.653 170.499 341.489 170.269 340.46C170.033 339.686 170.049 339.047 170.049 339.047Z" fill="#25243E"/>
<path d="M173.734 345.154C173.734 345.154 173.741 344.898 174.006 344.521C174.137 344.396 174.272 344.144 174.403 344.019C174.534 343.894 174.793 343.773 175.052 343.652C175.566 343.537 176.078 343.55 176.458 343.687C176.839 343.825 176.963 343.956 176.963 343.956C176.963 343.956 176.704 344.077 176.449 344.071C176.321 344.067 176.062 344.189 175.934 344.186C175.806 344.182 175.547 344.304 175.419 344.301C175.032 344.419 174.645 344.537 174.383 344.786C173.993 345.032 173.734 345.154 173.734 345.154Z" fill="#25243E"/>
<path d="M172.121 343.194C172.121 343.194 172.127 342.938 172.262 342.685C172.396 342.433 172.789 342.059 173.176 341.941C173.435 341.819 173.691 341.826 173.819 341.829C174.074 341.835 174.199 341.967 174.327 341.97C174.579 342.104 174.832 342.238 174.832 342.238C174.832 342.238 174.576 342.232 174.317 342.353C174.189 342.35 174.058 342.475 173.802 342.468C173.675 342.465 173.416 342.587 173.288 342.583C173.029 342.705 172.642 342.823 172.383 342.944C172.377 343.2 172.121 343.194 172.121 343.194Z" fill="#25243E"/>
<path d="M170.64 340.983C170.64 340.983 170.771 340.859 171.03 340.737C171.289 340.616 171.676 340.498 172.062 340.379C172.449 340.261 172.833 340.271 173.085 340.405C173.341 340.412 173.594 340.546 173.594 340.546C173.594 340.546 173.462 340.671 173.203 340.792C172.945 340.913 172.558 341.032 172.171 341.15C171.784 341.268 171.4 341.258 171.148 341.124C170.895 340.99 170.64 340.983 170.64 340.983Z" fill="#25243E"/>
<path d="M163.106 350.52C163.106 350.52 164.382 350.68 166.421 350.988C167.441 351.141 168.589 351.298 169.864 351.458C171.139 351.618 172.415 351.778 173.821 351.814C174.461 351.83 175.1 351.846 175.867 351.866C176.507 351.882 177.146 351.898 177.789 351.786C178.428 351.802 179.07 351.69 179.585 351.575C180.097 351.588 180.739 351.477 181.126 351.358C181.641 351.243 182.028 351.125 182.414 351.007C182.801 350.889 183.188 350.771 183.319 350.646C183.837 350.403 184.099 350.154 184.099 350.154C184.099 350.154 183.837 350.403 183.316 350.774C183.054 351.023 182.795 351.145 182.408 351.263C182.277 351.387 182.018 351.509 181.762 351.502C181.503 351.624 181.247 351.617 181.116 351.742C180.602 351.857 180.084 352.1 179.444 352.084C178.93 352.199 178.287 352.31 177.648 352.294C177.005 352.406 176.366 352.39 175.727 352.374C175.087 352.358 174.32 352.338 173.681 352.322C172.274 352.287 170.999 352.127 169.723 351.966C168.448 351.806 167.303 351.522 166.284 351.368C164.375 350.936 163.106 350.52 163.106 350.52Z" fill="#25243E"/>
<path d="M172.537 352.038C172.537 352.038 172.541 351.91 172.55 351.526C172.557 351.271 172.57 350.759 172.707 350.379C172.848 349.87 172.989 349.362 173.388 348.733C173.523 348.48 173.785 348.231 173.922 347.85C174.185 347.601 174.319 347.349 174.581 347.099C175.106 346.601 175.755 346.233 176.272 345.99C176.531 345.869 176.918 345.751 177.174 345.757C177.433 345.636 177.689 345.642 177.944 345.649C178.459 345.534 178.843 345.543 179.098 345.55C179.354 345.556 179.61 345.563 179.61 345.563C179.61 345.563 179.482 345.56 179.223 345.681C178.967 345.675 178.577 345.921 178.063 346.036C177.807 346.029 177.548 346.151 177.289 346.272C177.03 346.393 176.771 346.515 176.512 346.636C175.994 346.879 175.473 347.25 174.952 347.62C174.037 348.365 173.369 349.5 172.963 350.385C172.825 350.766 172.56 351.143 172.55 351.526C172.668 351.913 172.537 352.038 172.537 352.038Z" fill="#25243E"/>
<path d="M174.102 335.697L176.177 288.92C176.783 280.107 176.622 271.275 175.694 262.423C175.434 252.436 174.813 241.545 173.444 229.867C171.76 215.494 169.276 202.381 166.369 190.792C159.073 195.982 149.338 201.494 141.914 206.681C143.309 217.335 147.631 228.576 150.518 240.932C153.166 252.642 156.223 263.339 159.43 273.144C159.26 274.803 158.949 276.97 158.76 279.397C158.571 281.823 158.369 284.761 158.416 287.961C158.315 297.042 159.072 302.563 159.725 312.176C159.814 313.714 161.593 334.486 161.676 336.28C166.135 337.032 169.719 336.994 174.102 335.697Z" fill="#668BF9"/>
<path d="M126.489 194.265C125.216 199.095 124.07 203.928 123.046 209.02C118.393 231.166 116.851 251.727 116.901 270.025C115.942 272.559 113.956 275.196 112.05 279.754C107.968 289.376 106.519 296.12 103.841 305.905C103.415 307.557 97.0916 324.927 96.5285 326.96C99.651 329.982 104.491 330.871 109.222 330.991L130.995 284.455C133.567 278.89 136.052 271.659 137.355 265.678C139.549 259.848 141.638 253.12 143.235 245.611C144.531 239.886 146.469 234.049 146.975 229.2C148.251 229.36 151.499 227.395 152.775 227.555L155.368 195.761L126.489 194.265Z" fill="#668BF9"/>
<path d="M183.452 157.699C180.375 152.887 175.834 145.224 172.562 137.976C167.236 125.942 154.428 121.397 154.428 121.397C154.02 127.4 136.5 152.42 176.199 171.335C179.637 161.825 178.242 156.288 183.452 157.699Z" fill="#E6ECF1"/>
<path d="M148.896 132.773C155.771 134.098 158.065 129.422 158.852 123.556C154.192 120.624 146.873 116.6 134.203 121.783C132.393 122.505 130.964 123.364 129.784 124.486C137.233 123.395 141.78 130.802 148.896 132.773Z" fill="#E2C6B5"/>
<path d="M166.538 163.795C168.333 158.595 169.88 158.122 170.104 154.289C170.381 148.41 166.737 145.76 163.859 138.138C162.66 134.909 162.6 132.221 162.506 125.821C161.493 125.411 160.233 124.612 158.849 123.681C158.065 129.419 155.644 134.092 148.893 132.898C141.777 130.928 137.233 123.392 129.909 124.615C122.456 130.952 124.986 142.275 125.642 151.76C126.305 160.989 127.615 164.861 128.201 172.041C128.399 174.349 122.164 193.256 122.093 196.069C138.795 213.636 159.756 199.322 169.207 194.954C168.39 186.745 164.465 169.885 166.538 163.795Z" fill="#E6ECF1"/>
<path d="M136.813 109.565L137.936 120.853C142.612 123.146 148.223 123.928 152.894 121.358L151.113 105.704L136.813 109.565Z" fill="#E2C6B5"/>
<path d="M146.007 84.9764C138.712 85.0483 132.832 89.89 134.684 102.732C136.663 115.576 142.352 118.279 148.378 117.791C154.276 117.3 158.065 114.197 158.195 103.964C158.322 93.8597 158.295 84.7746 146.007 84.9764Z" fill="#E2C6B5"/>
<path d="M145.576 96.9925C145.576 96.9925 145.71 96.74 145.969 96.6186C146.1 96.4939 146.231 96.3693 146.49 96.2479C146.621 96.1232 146.88 96.0018 147.139 95.8804C147.526 95.7622 148.041 95.6472 148.424 95.6569C148.808 95.6666 149.064 95.673 149.064 95.673C149.064 95.673 148.805 95.7945 148.546 95.9159C148.418 95.9126 148.159 96.0341 148.028 96.1587C147.897 96.2833 147.641 96.2769 147.382 96.3983C146.995 96.5165 146.605 96.7626 146.222 96.7529C145.832 96.9989 145.576 96.9925 145.576 96.9925Z" fill="#1A2E35"/>
<path d="M153.805 95.407C153.805 95.407 153.936 95.2824 154.195 95.161C154.323 95.1642 154.454 95.0396 154.71 95.046C154.837 95.0492 155.093 95.0557 155.349 95.0621C155.605 95.0686 155.729 95.1997 155.854 95.3308C155.979 95.4619 156.103 95.593 156.228 95.7241C156.477 95.9862 156.471 96.242 156.474 96.1141C156.474 96.1141 156.349 95.983 156.097 95.8487C155.844 95.7144 155.592 95.5801 155.208 95.5704C154.956 95.4361 154.572 95.4264 154.316 95.4199C153.933 95.4103 153.805 95.407 153.805 95.407Z" fill="#1A2E35"/>
<path d="M154.258 107.83C154.258 107.83 154.13 107.826 154.127 107.954C153.996 108.079 153.865 108.203 153.606 108.325C153.347 108.446 153.088 108.568 152.704 108.558C152.318 108.676 152.062 108.67 151.678 108.66C151.295 108.65 150.911 108.641 150.659 108.506C150.275 108.497 150.022 108.362 149.77 108.228C149.262 108.087 149.012 107.825 149.012 107.825C149.012 107.825 149.396 107.835 149.904 107.976C150.16 107.982 150.416 107.988 150.799 107.998C151.055 108.005 151.439 108.014 151.822 108.024C152.206 108.034 152.462 108.04 152.845 108.05C153.101 108.056 153.488 107.938 153.744 107.944C153.999 107.951 154.258 107.83 154.258 107.83Z" fill="#1A2E35"/>
<path d="M141.426 114.414C141.426 114.414 141.678 114.548 141.931 114.683C142.308 114.948 142.688 115.086 143.318 115.485C143.951 115.757 144.584 116.029 145.345 116.304C146.105 116.579 146.997 116.73 147.889 116.88C149.548 117.05 151.341 116.967 152.63 116.616C153.276 116.376 153.666 116.13 154.052 116.012C154.315 115.763 154.574 115.641 154.574 115.641C154.574 115.641 154.442 115.766 154.177 116.143C153.915 116.392 153.394 116.763 152.748 117.003C152.489 117.124 152.102 117.242 151.715 117.361C151.329 117.479 150.942 117.597 150.558 117.587C149.66 117.693 148.765 117.67 147.873 117.52C146.981 117.369 146.089 117.219 145.328 116.944C144.948 116.806 144.568 116.668 144.187 116.531C143.807 116.393 143.558 116.131 143.177 115.994C142.548 115.594 142.17 115.328 141.921 115.066C141.55 114.545 141.426 114.414 141.426 114.414Z" fill="#1A2E35"/>
<path d="M152.755 106.512C152.755 106.512 152.759 106.384 152.89 106.26C153.021 106.135 153.024 106.007 153.158 105.755C153.293 105.502 153.299 105.247 153.434 104.994C153.44 104.738 153.574 104.486 153.581 104.23C153.587 103.974 153.594 103.719 153.472 103.46C153.351 103.201 153.226 103.07 152.97 103.063C152.843 103.06 152.587 103.053 152.459 103.05C152.331 103.047 152.203 103.044 152.203 103.044C152.203 103.044 152.203 103.044 152.334 102.919C152.465 102.794 152.596 102.67 152.852 102.676C152.98 102.68 153.108 102.683 153.364 102.689C153.488 102.82 153.616 102.824 153.738 103.082C153.987 103.345 153.977 103.728 153.968 104.112C153.958 104.495 153.824 104.748 153.814 105.132C153.68 105.384 153.545 105.637 153.411 105.889C153.277 106.142 153.145 106.266 153.018 106.263C152.887 106.388 152.755 106.512 152.755 106.512Z" fill="#1A2E35"/>
<path d="M146.35 233.66C146.65 231.877 146.955 229.965 147.255 228.181C147.406 227.289 147.556 226.398 147.835 225.509L148.414 222.837C148.417 222.709 148.417 222.709 148.545 222.712C150.489 221.737 152.56 220.766 154.501 219.919C152.554 221.022 150.735 222.127 148.791 223.102L148.922 222.977L148.343 225.65C148.193 226.542 147.914 227.43 147.764 228.322C147.335 230.103 146.906 231.883 146.35 233.66Z" fill="#1A2E35"/>
<path d="M171.8 163.162C172.053 173.405 182.266 174.302 183.768 165.512L185.678 140.482C182.619 140.021 179.698 139.179 176.917 137.83L171.8 163.162Z" fill="#E6ECF1"/>
<path d="M178.389 130.19L176.786 137.954C179.567 139.304 182.616 140.148 185.547 140.606L186.307 130.773L178.389 130.19Z" fill="#E2C6B5"/>
<path d="M185.828 134.596C185.828 134.596 187.517 128.498 188.141 124.035C188.609 120.72 187.791 117.629 186.259 122.58C186.88 118.246 185.24 117.309 184.35 122.148C185.138 116.282 183.328 117.004 182.167 122.477C182.621 119.674 182.028 112.749 179.695 124.078C180.605 118.471 179.035 119.839 178.2 122.505C177.083 126.187 176.744 129.505 178.057 133.249L185.828 134.596Z" fill="#E2C6B5"/>
<path d="M182.131 123.885C182.131 123.885 182.134 123.757 182.016 123.37C182.019 123.242 182.023 123.114 182.029 122.859C182.032 122.731 182.039 122.475 182.042 122.347C182.045 122.219 182.18 121.967 182.183 121.839C182.186 121.711 182.317 121.586 182.32 121.458C182.455 121.206 182.586 121.081 182.586 121.081C182.586 121.081 182.582 121.209 182.701 121.596C182.697 121.724 182.694 121.852 182.688 122.107C182.685 122.235 182.678 122.491 182.675 122.619C182.672 122.747 182.537 122.999 182.534 123.127C182.531 123.255 182.4 123.38 182.397 123.508C182.262 123.76 182.131 123.885 182.131 123.885Z" fill="#1A2E35"/>
<path d="M183.93 123.546C183.93 123.546 183.933 123.418 183.939 123.162C183.942 123.035 183.946 122.907 183.949 122.779C183.952 122.651 183.955 122.523 184.086 122.399C184.09 122.271 184.221 122.146 184.224 122.019C184.227 121.891 184.358 121.766 184.361 121.638C184.492 121.514 184.623 121.389 184.623 121.389C184.623 121.389 184.62 121.517 184.614 121.773C184.611 121.9 184.607 122.028 184.604 122.156C184.601 122.284 184.598 122.412 184.467 122.536C184.463 122.664 184.332 122.789 184.329 122.916C184.326 123.044 184.195 123.169 184.192 123.297C184.061 123.421 183.93 123.546 183.93 123.546Z" fill="#1A2E35"/>
<path d="M186.349 123.992C186.349 123.992 186.225 123.861 186.228 123.733C186.231 123.605 186.234 123.477 186.106 123.474C186.11 123.346 186.113 123.218 186.116 123.09C186.119 122.963 186.123 122.835 186.126 122.707C186.129 122.579 186.26 122.454 186.26 122.454C186.391 122.33 186.394 122.202 186.394 122.202C186.394 122.202 186.519 122.333 186.516 122.461C186.513 122.589 186.509 122.716 186.637 122.72C186.634 122.848 186.631 122.975 186.628 123.103C186.624 123.231 186.621 123.359 186.618 123.487C186.615 123.615 186.484 123.739 186.484 123.739C186.352 123.864 186.349 123.992 186.349 123.992Z" fill="#1A2E35"/>
<path d="M187.374 124.018C187.374 124.018 186.987 124.136 186.348 124.12C186.092 124.113 185.708 124.103 185.325 124.094C184.941 124.084 184.558 124.074 184.174 124.065C183.79 124.055 183.407 124.045 183.026 123.908C182.643 123.898 182.262 123.761 182.007 123.754C181.371 123.61 180.987 123.601 180.987 123.601C180.987 123.601 181.374 123.482 182.013 123.498C182.269 123.505 182.653 123.515 183.036 123.524C183.42 123.534 183.803 123.544 184.187 123.553C184.571 123.563 184.954 123.573 185.335 123.71C185.718 123.72 186.098 123.857 186.354 123.864C186.994 123.88 187.374 124.018 187.374 124.018Z" fill="#1A2E35"/>
<path d="M175.598 144.449C175.598 144.449 176.234 144.593 177.122 144.872C177.631 145.012 178.139 145.153 178.647 145.294C179.155 145.435 179.792 145.579 180.428 145.723C181.7 146.011 182.844 146.295 183.739 146.318C183.995 146.324 184.123 146.328 184.379 146.334C184.507 146.337 184.762 146.344 184.89 146.347C185.146 146.353 185.274 146.357 185.274 146.357C185.274 146.357 185.146 146.353 184.887 146.475C184.759 146.472 184.628 146.596 184.372 146.59C184.116 146.583 183.985 146.708 183.73 146.702C183.218 146.689 182.707 146.676 182.067 146.66C181.428 146.643 180.792 146.499 180.284 146.359C179.011 146.071 177.87 145.658 176.985 145.252C176.103 144.718 175.598 144.449 175.598 144.449Z" fill="#1A2E35"/>
<path d="M137.716 119.441C137.716 119.441 137.837 119.7 137.959 119.959C137.955 120.087 138.077 120.345 138.074 120.473C138.067 120.729 138.192 120.86 138.185 121.116C138.179 121.372 138.172 121.627 138.169 121.755C138.163 122.011 138.159 122.139 138.153 122.395C138.143 122.778 138.009 123.031 138.009 123.031C138.009 123.031 137.888 122.772 137.766 122.513C137.769 122.385 137.648 122.126 137.651 121.998C137.658 121.742 137.533 121.611 137.54 121.356C137.546 121.1 137.552 120.844 137.556 120.716C137.562 120.46 137.565 120.333 137.572 120.077C137.581 119.693 137.716 119.441 137.716 119.441Z" fill="#1A2E35"/>
<path d="M152.438 119.172C152.438 119.172 152.559 119.431 152.68 119.69C152.677 119.818 152.799 120.077 152.795 120.204C152.789 120.46 152.913 120.591 152.907 120.847C152.901 121.103 152.897 121.231 153.019 121.49C153.012 121.745 153.009 121.873 153.006 122.001C152.996 122.385 152.993 122.513 152.993 122.513C152.993 122.513 152.872 122.254 152.75 121.995C152.753 121.867 152.632 121.608 152.635 121.48C152.642 121.224 152.517 121.093 152.523 120.837C152.53 120.582 152.533 120.454 152.412 120.195C152.418 119.939 152.421 119.811 152.425 119.683C152.431 119.428 152.438 119.172 152.438 119.172Z" fill="#1A2E35"/>
<path d="M143.59 94.5118C143.718 94.515 143.718 94.515 143.59 94.5118C145.649 94.0519 147.465 93.0741 148.782 91.5719L150.889 89.1941L152.51 90.8983C154.255 92.7336 156.786 93.821 159.219 93.7544C159.219 93.7544 159.342 73.6695 136.802 84.6164C132.33 84.3756 124.503 105.546 136.643 111.226C135.398 104.797 134.951 102.227 136.495 101.882C138.039 101.537 139.019 108.343 139.019 108.343C139.019 108.343 140.781 104.421 139.874 99.7919C139.552 97.3527 141.148 94.9619 143.59 94.5118Z" fill="#C8742C"/>
<path d="M138.72 105.009C139.291 107.71 138.719 110.127 137.302 110.475C135.886 110.823 134.272 108.863 133.701 106.161C133.129 103.46 133.702 101.044 135.118 100.695C136.406 100.344 138.02 102.304 138.72 105.009Z" fill="#E2C6B5"/>
<path d="M125.072 194.611C125.072 194.611 125.197 194.742 125.319 195.001C125.568 195.263 125.814 195.653 126.312 196.178C126.562 196.44 126.811 196.702 127.06 196.964C127.31 197.226 127.687 197.492 128.064 197.757C128.818 198.288 129.573 198.819 130.586 199.228C131.468 199.762 132.612 200.047 133.878 200.591C135.15 200.879 136.291 201.291 137.698 201.327C138.337 201.343 139.101 201.49 139.741 201.506C140.38 201.522 141.147 201.542 141.914 201.561L142.937 201.587C143.321 201.597 143.708 201.478 143.964 201.485L146.144 201.284C146.911 201.303 147.557 201.064 148.327 200.955C149.098 200.847 149.74 200.735 150.511 200.626L151.54 200.397L152.569 200.167C153.215 199.927 153.858 199.815 154.628 199.707C155.271 199.595 155.916 199.355 156.559 199.244C157.205 199.004 157.847 198.892 158.365 198.649C159.526 198.295 160.686 197.94 161.719 197.583C162.752 197.225 163.656 196.864 164.433 196.499C165.21 196.135 165.984 195.899 166.629 195.659C167.793 195.177 168.439 194.937 168.439 194.937C168.439 194.937 167.793 195.177 166.626 195.787C166.108 196.03 165.331 196.394 164.555 196.758C163.778 197.123 162.87 197.612 161.837 197.969C160.804 198.327 159.644 198.682 158.48 199.164C157.834 199.404 157.317 199.647 156.674 199.758C156.031 199.87 155.386 200.11 154.74 200.349C154.094 200.589 153.452 200.701 152.678 200.937L151.648 201.167L150.619 201.397C149.849 201.505 149.206 201.617 148.436 201.726C147.665 201.834 147.023 201.946 146.252 202.054L144.072 202.255C143.688 202.246 143.302 202.364 142.918 202.354L141.767 202.325C141 202.306 140.361 202.29 139.593 202.27C138.826 202.251 138.19 202.107 137.554 201.963C136.151 201.8 134.882 201.384 133.737 201.099C132.596 200.686 131.455 200.274 130.445 199.736C129.435 199.199 128.681 198.668 127.926 198.138C127.549 197.872 127.3 197.61 127.051 197.348C126.801 197.086 126.552 196.823 126.303 196.561C125.932 196.04 125.558 195.647 125.437 195.388C125.069 194.739 125.072 194.611 125.072 194.611Z" fill="#1A2E35"/>
<path d="M156.746 100.472C156.727 101.239 156.33 101.74 155.688 101.852C155.046 101.964 154.548 101.44 154.439 100.67C154.458 99.9027 154.855 99.4012 155.497 99.2895C156.136 99.3056 156.634 99.8297 156.746 100.472Z" fill="#1A2E35"/>
<path d="M149.044 101.429C149.025 102.196 148.629 102.697 147.987 102.809C147.344 102.921 146.846 102.397 146.737 101.627C146.757 100.86 147.153 100.358 147.795 100.247C148.438 100.135 148.936 100.659 149.044 101.429Z" fill="#1A2E35"/>
<path d="M128.728 125.737C128.728 125.737 128.856 125.741 129.115 125.619C129.374 125.498 129.76 125.379 130.4 125.396C131.554 125.297 133.088 125.335 134.859 126.148C135.744 126.554 136.63 126.96 137.637 127.625C138.519 128.159 139.522 128.952 140.398 129.742C142.281 131.197 144.291 132.655 146.57 133.608C148.846 134.689 151.39 135.265 153.583 134.553C154.616 134.195 155.655 133.582 156.314 132.831C157.1 132.083 157.634 131.201 158.037 130.443C158.443 129.558 158.846 128.8 159.122 128.039C159.397 127.279 159.541 126.642 159.681 126.134C159.963 125.118 160.107 124.482 160.107 124.482C160.107 124.482 159.963 125.118 159.809 126.137C159.669 126.646 159.525 127.282 159.249 128.043C158.974 128.803 158.699 129.564 158.293 130.449C157.887 131.335 157.353 132.217 156.566 132.965C155.78 133.713 154.865 134.457 153.577 134.809C152.416 135.163 151.135 135.259 149.859 135.099C148.584 134.939 147.315 134.523 146.177 133.982C143.901 132.901 141.763 131.44 139.88 129.985C139.004 129.195 138.125 128.533 137.246 127.871C136.368 127.21 135.482 126.803 134.597 126.397C132.826 125.585 131.295 125.418 130.269 125.52C129.757 125.507 129.242 125.622 128.983 125.744C128.859 125.613 128.728 125.737 128.728 125.737Z" fill="#1A2E35"/>
<path d="M176.049 141.778C176.049 141.778 176.033 142.418 175.882 143.309C175.873 143.693 175.729 144.329 175.716 144.841C175.575 145.349 175.559 145.988 175.418 146.496C175.274 147.133 175.133 147.641 174.993 148.149C174.852 148.657 174.711 149.166 174.57 149.674C174.292 150.562 174.151 151.071 174.151 151.071C174.151 151.071 174.167 150.431 174.318 149.539C174.328 149.156 174.472 148.52 174.484 148.008C174.625 147.5 174.641 146.861 174.782 146.352C174.926 145.716 175.067 145.208 175.208 144.7C175.348 144.192 175.489 143.683 175.63 143.175C175.905 142.414 176.049 141.778 176.049 141.778Z" fill="#1A2E35"/>
<path d="M211.599 147.661C217.13 146.521 215.362 145.581 212.543 145.766C208.697 146.053 205.478 146.867 202.472 149.35" fill="#E2C6B5"/>
<path d="M174.187 93.8754C165.647 102.744 164.685 115.515 172.058 122.482C179.303 129.446 192.135 127.979 200.548 119.107C201.072 118.608 201.6 117.982 202.127 117.355C204.9 113.97 207.921 110.848 211.569 108.253C220.173 101.945 232.898 94.5887 244.255 95.7708C248.721 96.2673 253.229 95.1015 257.001 92.6377C285.76 73.531 308.025 58.2269 319.615 50.2026C325.214 46.3774 328.696 40.1957 329.123 33.4252L329.126 33.2973L207.741 102.783C207.729 98.1762 206.176 93.7867 202.929 90.634C195.431 83.5356 182.599 85.0032 174.187 93.8754ZM178.185 97.6868C184.097 91.5664 192.952 90.5103 198.076 95.3737C203.071 100.234 202.462 109.175 196.55 115.295C190.637 121.416 181.782 122.472 176.659 117.608C171.536 112.745 172.273 103.807 178.185 97.6868Z" fill="#668BF9"/>
<path d="M182.07 131.306C182.957 126.594 179.249 126.501 179.249 126.501L179.719 123.058C180.558 120.264 174.441 124.332 177.946 132.482" fill="#E2C6B5"/>
<path d="M179.726 122.806C179.697 123.957 179.668 125.107 179.511 126.255L179.262 125.993C179.518 125.999 179.901 126.009 180.154 126.143C180.406 126.278 180.662 126.284 180.911 126.546C181.164 126.681 181.413 126.943 181.538 127.074C181.787 127.336 181.909 127.595 182.03 127.854C182.273 128.372 182.257 129.011 182.372 129.526C182.359 130.037 182.215 130.674 182.074 131.182C182.08 130.926 182.087 130.67 182.093 130.415L182.113 129.647C182.119 129.392 181.998 129.133 182.004 128.877C181.883 128.618 181.889 128.362 181.765 128.231C181.643 127.972 181.519 127.841 181.397 127.582C181.272 127.451 181.02 127.317 180.767 127.182C180.39 126.917 179.882 126.776 179.371 126.763C179.243 126.76 179.118 126.629 179.121 126.501C179.157 125.095 179.442 123.95 179.726 122.806Z" fill="#1A2E35"/>
<path d="M328.39 37.1168C322.802 40.5585 317.344 43.8754 311.759 47.1892L295.127 57.2615L286.815 62.1698L278.374 67.0748C272.789 70.3886 267.203 73.7023 261.621 76.8882L256.168 74.9593L261.752 76.7635C267.213 73.3187 272.795 70.1328 278.384 66.6912L286.7 61.6551L295.015 56.6189L311.768 46.8056C317.095 43.6132 322.805 40.4306 328.39 37.1168Z" fill="#1A2E35"/>
<path d="M247.523 133.596C244.276 130.443 239.833 129.052 235.095 129.188L299.642 5.04225L299.514 5.03903C292.843 5.76638 286.733 9.5787 283.135 15.2457C275.544 27.0814 261.147 50.005 243.258 79.4939C240.856 83.3997 239.976 87.8557 240.631 92.3505C242.265 103.651 235.411 116.657 229.428 125.591C227.033 129.241 224.008 132.491 220.737 135.351C220.213 135.85 219.561 136.345 219.033 136.972C210.493 145.841 209.531 158.611 216.904 165.579C224.15 172.543 236.982 171.075 245.394 162.203C253.807 153.331 254.768 140.56 247.523 133.596ZM221.505 160.705C216.51 155.845 217.119 146.903 223.031 140.783C228.944 134.663 237.799 133.607 242.922 138.47C247.917 143.33 247.308 152.271 241.396 158.392C235.484 164.512 226.629 165.568 221.505 160.705Z" fill="#668BF9"/>
<path d="M242.057 81.5126C242.057 81.5126 241.922 81.7651 241.785 82.1455C241.647 82.5259 241.503 83.162 241.359 83.7981C241.215 84.4342 241.065 85.3261 240.915 86.2179C240.764 87.1098 240.742 88.0049 240.716 89.0278C240.693 89.9229 240.667 90.9458 240.773 91.8441C240.878 92.7424 240.983 93.6407 240.967 94.2801C240.932 95.6866 240.906 96.7095 240.906 96.7095C240.906 96.7095 240.932 95.6866 240.711 94.2736C240.603 93.5032 240.494 92.7328 240.389 91.8345C240.284 90.9362 240.182 89.91 240.204 89.0149C240.253 87.0969 240.685 85.1885 241.232 83.7949C241.503 83.162 241.775 82.5291 241.913 82.1487C242.05 81.7684 242.057 81.5126 242.057 81.5126Z" fill="#1A2E35"/>
<path d="M295.656 5.83874C292.694 11.6497 289.608 17.3296 286.522 23.0094L277.388 40.1801L272.694 48.7623L267.999 57.3444C264.913 63.0242 261.827 68.7041 258.613 74.3808L260.651 79.806L258.485 74.3775C261.446 68.5666 264.532 62.8867 267.619 57.2068L272.185 48.6215L276.752 40.0361L286.011 22.9965C289.359 17.0674 292.573 11.3907 295.656 5.83874Z" fill="#1A2E35"/>
<path d="M253.887 89.2358C253.887 89.2358 253.756 89.3604 253.625 89.4851C253.494 89.6097 253.232 89.859 252.842 90.1051C252.189 90.6004 250.901 90.9518 249.498 90.7884C248.734 90.6412 247.973 90.3661 247.347 89.8385C246.592 89.3077 246.097 88.6554 245.608 87.7475C245.247 86.8427 245.145 85.8166 245.295 84.9247C245.449 83.905 245.983 83.0228 246.642 82.2717C247.301 81.5206 248.336 81.035 249.238 80.8018C250.267 80.5719 251.287 80.7256 252.176 81.0039C253.95 81.6884 255.062 83.2518 255.279 84.7927C255.499 86.2057 255.211 87.4779 254.808 88.2354C254.543 88.6126 254.408 88.8651 254.277 88.9897C253.887 89.2358 253.887 89.2358 253.887 89.2358ZM253.887 89.2358C253.887 89.2358 254.018 89.1112 254.149 88.9865C254.281 88.8619 254.546 88.4847 254.68 88.2322C255.083 87.4747 255.499 86.2057 255.151 84.7895C255.039 84.1469 254.675 83.37 254.052 82.7145C253.556 82.0623 252.799 81.6593 251.91 81.381C251.022 81.1027 250.127 81.0801 249.225 81.3133C248.323 81.5464 247.543 82.0386 246.888 82.6618C246.232 83.285 245.826 84.1704 245.676 85.0622C245.525 85.9541 245.631 86.8524 245.864 87.7539C246.228 88.5308 246.72 89.3109 247.347 89.8385C247.973 90.3661 248.734 90.6412 249.37 90.7852C250.77 91.0764 252.062 90.5972 252.711 90.2297C253.101 89.9837 253.36 89.8622 253.494 89.6097C253.756 89.3604 253.887 89.2358 253.887 89.2358Z" fill="#1A2E35"/>
<path d="M266.555 68.9533C266.555 68.9533 265.746 70.5962 264.531 73.1246C263.859 74.3871 263.184 75.7775 262.375 77.4205C261.569 78.9355 260.76 80.5785 259.823 82.2182C259.014 83.8611 258.077 85.5008 257.271 87.0159C256.465 88.5309 255.662 89.9181 254.991 91.1807C253.651 93.5779 252.714 95.2176 252.714 95.2176C252.714 95.2176 253.523 93.5747 254.738 91.0463C255.41 89.7838 256.085 88.3934 256.894 86.7504C257.7 85.2354 258.509 83.5925 259.446 81.9528C260.255 80.3098 261.192 78.6701 261.998 77.1551C262.804 75.64 263.607 74.2528 264.278 72.9902C265.621 70.4651 266.555 68.9533 266.555 68.9533Z" fill="#1A2E35"/>
<path d="M205.31 148.401L197.474 149.61C197.269 152.676 197.447 155.751 198.137 158.84L207.674 156.137L205.31 148.401Z" fill="#E2C6B5"/>
<path d="M202.475 149.227L203.688 156.934C203.688 156.934 210.097 156.456 214.474 155.415C217.818 154.732 220.296 152.875 215.299 153.133C219.545 152.216 219.977 150.308 215.092 151.208C220.881 149.947 219.51 148.505 213.986 149.389C216.684 148.945 223.031 145.907 211.599 147.666L202.475 149.227Z" fill="#E2C6B5"/>
<path d="M143.796 137.126L168.119 151.814L200.065 148.397L201.821 159.957C201.821 159.957 170.73 170.048 161.083 166.99C151.436 163.932 132.891 153.484 132.891 153.484" fill="#E6ECF1"/>
<path d="M209.684 147.486C209.684 147.486 209.943 147.365 210.458 147.25C210.714 147.256 210.973 147.135 211.228 147.141C211.484 147.148 211.871 147.029 212.127 147.036C212.382 147.042 212.766 147.052 213.022 147.058C213.278 147.065 213.533 147.071 213.789 147.078C214.301 147.091 214.553 147.225 214.553 147.225C214.553 147.225 214.294 147.346 213.779 147.461C213.524 147.455 213.265 147.576 213.009 147.57C212.753 147.563 212.366 147.682 212.111 147.675C211.855 147.669 211.471 147.659 211.216 147.653C210.96 147.646 210.704 147.64 210.448 147.633C210.068 147.496 209.684 147.486 209.684 147.486Z" fill="#1A2E35"/>
<path d="M213.471 149.502C213.471 149.502 213.603 149.377 213.734 149.252C213.862 149.256 213.865 149.128 213.993 149.131C214.12 149.134 214.252 149.01 214.379 149.013C214.507 149.016 214.635 149.019 214.763 149.022C214.891 149.026 215.019 149.029 215.147 149.032C215.402 149.039 215.527 149.17 215.527 149.17C215.527 149.17 215.396 149.294 215.265 149.419C215.137 149.416 215.134 149.544 215.006 149.54C214.878 149.537 214.747 149.662 214.619 149.659C214.491 149.655 214.363 149.652 214.235 149.649C214.108 149.646 213.98 149.642 213.852 149.639C213.727 149.508 213.471 149.502 213.471 149.502Z" fill="#1A2E35"/>
<path d="M214.45 151.314C214.45 151.314 214.581 151.19 214.712 151.065C214.84 151.068 214.843 150.94 214.971 150.944C215.099 150.947 215.23 150.822 215.358 150.825C215.486 150.829 215.614 150.832 215.742 150.835C215.869 150.838 215.997 150.841 216.125 150.845C216.381 150.851 216.506 150.982 216.506 150.982C216.506 150.982 216.374 151.107 216.243 151.231C216.115 151.228 216.112 151.356 215.984 151.353C215.857 151.35 215.725 151.474 215.598 151.471C215.47 151.468 215.342 151.465 215.214 151.461C215.086 151.458 214.958 151.455 214.83 151.452C214.575 151.445 214.45 151.314 214.45 151.314Z" fill="#1A2E35"/>
<path d="M214.526 153.365C214.526 153.365 214.657 153.24 214.788 153.116C214.916 153.119 214.919 152.991 215.047 152.994C215.175 152.997 215.306 152.873 215.434 152.876C215.562 152.879 215.69 152.883 215.818 152.886C215.946 152.889 216.073 152.892 216.201 152.895C216.457 152.902 216.582 153.033 216.582 153.033C216.582 153.033 216.451 153.158 216.319 153.282C216.192 153.279 216.188 153.407 216.061 153.404C215.933 153.4 215.802 153.525 215.674 153.522C215.546 153.519 215.418 153.515 215.29 153.512C215.162 153.509 215.034 153.506 214.907 153.503C214.651 153.496 214.526 153.365 214.526 153.365Z" fill="#1A2E35"/>
<path d="M194.803 149.027C194.803 149.027 194.784 149.794 194.879 151.076C194.978 152.23 195.064 153.895 195.281 155.436C195.39 156.207 195.498 156.977 195.734 157.751C195.853 158.138 195.971 158.525 195.964 158.78C196.083 159.167 196.204 159.426 196.325 159.685C196.568 160.203 196.683 160.718 196.932 160.98C197.054 161.239 197.175 161.498 197.175 161.498C197.175 161.498 197.051 161.367 196.801 161.104C196.552 160.842 196.306 160.452 196.066 159.806C195.824 159.289 195.584 158.643 195.348 157.869C195.111 157.095 195.003 156.325 194.894 155.555C194.786 154.784 194.68 153.886 194.7 153.119C194.719 152.351 194.738 151.584 194.751 151.073C194.656 149.791 194.803 149.027 194.803 149.027Z" fill="#1A2E35"/>
<path d="M124.742 136.641C124.742 136.641 124.873 136.516 125.26 136.398C125.519 136.277 126.04 135.906 126.558 135.663C127.207 135.296 127.856 134.928 128.758 134.695C129.662 134.334 130.567 133.973 131.721 133.874C132.878 133.647 134.157 133.68 135.429 133.968C136.701 134.256 138.095 134.803 139.223 135.727C140.483 136.526 141.477 137.703 142.742 138.246C144.136 138.793 145.533 139.212 147.064 139.379C148.595 139.546 149.999 139.709 151.539 139.492C152.31 139.383 152.949 139.4 153.723 139.163C154.11 139.045 154.493 139.055 154.752 138.933C155.139 138.815 155.398 138.694 155.782 138.703C156.424 138.592 157.07 138.352 157.716 138.112C157.975 137.991 158.362 137.873 158.621 137.751C158.88 137.63 159.266 137.512 159.529 137.262C160.692 136.78 161.735 136.039 162.646 135.422C163.56 134.677 164.34 134.185 164.999 133.434C165.654 132.811 166.307 132.315 166.706 131.686C167.499 130.682 168.027 130.056 168.027 130.056C168.027 130.056 167.627 130.685 166.834 131.689C166.438 132.191 165.91 132.817 165.255 133.44C164.596 134.191 163.813 134.811 162.898 135.556C161.987 136.173 160.945 136.914 159.778 137.525C159.519 137.646 159.129 137.892 158.87 138.013C158.611 138.135 158.224 138.253 157.965 138.375C157.319 138.614 156.673 138.854 155.9 139.09C155.513 139.208 155.254 139.33 154.87 139.32C154.484 139.438 154.1 139.429 153.841 139.55C153.071 139.658 152.428 139.77 151.658 139.879C150.12 139.968 148.586 139.929 147.054 139.763C145.523 139.596 143.998 139.174 142.608 138.499C141.087 137.949 140.22 136.775 138.961 135.976C137.83 135.18 136.567 134.508 135.295 134.22C134.023 133.932 132.872 133.903 131.715 134.13C130.561 134.229 129.656 134.59 128.754 134.823C127.85 135.184 127.204 135.423 126.555 135.791C125.909 136.031 125.519 136.277 125.129 136.523C124.873 136.516 124.742 136.641 124.742 136.641Z" fill="white"/>
<path d="M125.252 146.89C125.252 146.89 125.779 146.263 126.949 145.525C128.123 144.659 129.814 143.55 132.138 142.713C133.299 142.358 134.712 142.138 136.115 142.302C136.882 142.321 137.515 142.593 138.273 142.996C138.902 143.395 139.532 143.795 140.162 144.195C141.424 144.866 142.949 145.289 144.477 145.583C146.005 145.878 147.664 146.047 149.199 146.086C155.589 146.375 162.145 145.133 166.548 143.069C167.584 142.584 168.623 141.97 169.406 141.35C170.189 140.73 170.842 140.235 171.369 139.608C171.894 139.11 172.162 138.605 172.424 138.355C172.69 137.978 172.693 137.85 172.693 137.85C172.693 137.85 172.562 137.975 172.424 138.355C172.287 138.736 171.894 139.11 171.494 139.739C170.57 140.868 169 142.235 166.797 143.331C164.594 144.427 161.883 145.383 158.926 145.948C155.969 146.513 152.635 146.813 149.313 146.601C147.651 146.559 145.992 146.389 144.467 145.967C142.939 145.672 141.287 145.247 139.9 144.444C139.519 144.307 139.27 144.044 138.893 143.779C138.64 143.645 138.263 143.379 138.011 143.245C137.378 142.973 136.745 142.701 135.981 142.554C134.578 142.391 133.296 142.486 132.135 142.841C129.814 143.55 127.998 144.528 126.825 145.394C125.779 146.263 125.252 146.89 125.252 146.89Z" fill="white"/>
<path d="M126.474 159.334C126.474 159.334 126.998 158.835 128.171 157.969C128.693 157.598 129.473 157.106 130.253 156.614C131.033 156.122 132.069 155.636 133.233 155.154C133.75 154.911 134.393 154.799 135.039 154.56C135.681 154.448 136.327 154.208 136.97 154.096C138.383 153.876 139.792 153.784 141.32 154.078C142.084 154.225 142.848 154.373 143.609 154.648C144.37 154.923 145.131 155.198 145.764 155.47C147.157 156.017 148.816 156.187 150.354 156.097C153.554 156.05 156.645 155.233 159.484 154.281C162.323 153.329 164.909 152.242 167.112 151.146C171.515 149.082 174.242 147.488 174.242 147.488C174.242 147.488 171.636 149.341 167.23 151.533C165.028 152.629 162.566 153.846 159.727 154.798C156.888 155.75 153.793 156.696 150.466 156.74C148.8 156.826 147.141 156.656 145.623 155.978C144.862 155.703 144.229 155.431 143.468 155.156C142.708 154.881 142.072 154.737 141.308 154.59C139.904 154.426 138.37 154.388 137.085 154.611C136.442 154.723 135.8 154.835 135.157 154.946C134.511 155.186 133.997 155.301 133.351 155.541C132.187 156.023 131.282 156.384 130.374 156.873C129.466 157.362 128.817 157.729 128.168 158.097C126.998 158.835 126.474 159.334 126.474 159.334Z" fill="white"/>
<path d="M127.569 166.653C127.569 166.653 128.333 166.8 129.73 167.22C131.13 167.511 133.038 167.943 135.461 168.26C136.609 168.417 138.012 168.58 139.291 168.612C140.697 168.648 142.104 168.683 143.645 168.466C144.415 168.358 145.058 168.246 145.835 167.882C146.608 167.645 147.257 167.278 148.031 167.041C149.578 166.569 151.119 166.352 152.791 166.01C154.335 165.665 155.879 165.32 157.427 164.847C158.974 164.375 160.393 163.899 161.816 163.295C163.111 162.688 164.409 161.953 165.582 161.087C166.107 160.588 166.625 160.345 167.149 159.847C167.545 159.345 168.067 158.974 168.463 158.472C168.86 157.971 169.125 157.594 169.521 157.092C169.656 156.839 169.915 156.718 170.049 156.465C170.183 156.213 170.318 155.96 170.449 155.836C170.983 154.953 171.383 154.324 171.658 153.563C172.201 152.297 172.476 151.536 172.476 151.536C172.476 151.536 172.201 152.297 171.658 153.563C171.514 154.199 170.983 154.953 170.577 155.839C170.442 156.091 170.308 156.344 170.177 156.468C170.043 156.721 169.912 156.846 169.649 157.095C169.381 157.6 168.987 157.974 168.591 158.476C168.194 158.977 167.673 159.348 167.277 159.85C166.88 160.352 166.231 160.719 165.707 161.218C164.661 162.087 163.363 162.822 161.937 163.554C160.512 164.285 159.092 164.761 157.545 165.234C155.997 165.707 154.453 166.052 152.781 166.394C151.237 166.738 149.569 166.952 148.149 167.428C147.375 167.665 146.73 167.904 145.953 168.269C145.176 168.633 144.405 168.741 143.635 168.85C142.094 169.067 140.56 169.028 139.281 168.996C137.878 168.833 136.602 168.672 135.327 168.512C132.907 168.067 130.999 167.635 129.599 167.344C128.33 166.928 127.569 166.653 127.569 166.653Z" fill="white"/>
<path d="M176.837 151.134C176.837 151.134 176.811 152.157 176.644 153.688C176.478 155.219 176.171 157.259 175.735 159.295C175.454 160.311 175.172 161.328 174.894 162.216C174.616 163.105 174.209 163.99 173.81 164.62C173.672 165 173.41 165.25 173.276 165.502C173.141 165.755 173.007 166.007 172.748 166.129C172.486 166.378 172.224 166.627 172.224 166.627C172.224 166.627 172.358 166.375 172.62 166.125C172.751 166.001 172.886 165.748 173.02 165.496C173.154 165.243 173.292 164.863 173.426 164.61C173.698 163.977 173.976 163.089 174.255 162.2C174.533 161.312 174.814 160.295 174.968 159.275C175.25 158.259 175.403 157.239 175.554 156.347C175.704 155.455 175.855 154.564 176.002 153.8C176.555 152.15 176.837 151.134 176.837 151.134Z" fill="white"/>
<path d="M183.253 150.401C183.253 150.401 183.355 151.427 183.444 152.965C183.424 153.732 183.402 154.627 183.379 155.522C183.357 156.417 183.203 157.437 183.049 158.457C182.896 159.476 182.614 160.493 182.336 161.382C182.057 162.27 181.651 163.156 181.379 163.788C180.98 164.418 180.708 165.051 180.442 165.428C180.177 165.805 180.043 166.058 180.043 166.058C180.043 166.058 180.177 165.805 180.315 165.425C180.449 165.172 180.58 165.048 180.718 164.667C180.852 164.415 180.989 164.035 181.124 163.782C181.261 163.402 181.399 163.021 181.536 162.641C181.674 162.26 181.815 161.752 181.952 161.372C182.231 160.483 182.384 159.464 182.538 158.444C182.692 157.424 182.845 156.404 182.996 155.513C183.146 154.621 183.169 153.726 183.316 152.962C183.227 151.424 183.253 150.401 183.253 150.401Z" fill="white"/>
<path d="M188.773 149.646C188.773 149.646 188.879 150.545 188.978 151.699C189.089 152.341 189.07 153.109 189.178 153.879C189.159 154.646 189.264 155.545 189.373 156.315C189.35 157.21 189.459 157.98 189.439 158.748C189.42 159.515 189.401 160.282 189.385 160.921C189.352 162.2 189.333 162.967 189.333 162.967C189.333 162.967 189.228 162.069 189.129 160.915C189.017 160.272 189.037 159.505 188.928 158.735C188.947 157.968 188.842 157.069 188.734 156.299C188.756 155.404 188.648 154.633 188.667 153.866C188.686 153.099 188.706 152.332 188.722 151.692C188.751 150.542 188.773 149.646 188.773 149.646Z" fill="white"/>
<path d="M127.33 176.117C127.33 176.117 127.963 176.389 128.979 176.67C129.993 177.08 131.521 177.374 133.426 177.934C134.318 178.084 135.334 178.366 136.482 178.523C137.501 178.676 138.646 178.961 139.793 179.118C140.941 179.275 142.216 179.435 143.367 179.464C144.643 179.624 145.925 179.529 147.075 179.558C148.357 179.462 149.636 179.494 150.79 179.395C151.433 179.284 152.072 179.3 152.587 179.185L153.485 179.08C153.744 178.958 154.128 178.968 154.386 178.846C155.544 178.62 156.701 178.393 157.734 178.035C158.248 177.92 158.766 177.677 159.281 177.562C159.796 177.447 160.186 177.201 160.7 177.086C161.605 176.725 162.382 176.361 163.031 175.994C163.68 175.626 164.201 175.256 164.719 175.013C165.63 174.396 166.148 174.153 166.148 174.153C166.148 174.153 165.627 174.524 164.716 175.141C164.198 175.383 163.674 175.882 163.025 176.249C162.376 176.617 161.599 176.981 160.691 177.47C160.301 177.716 159.786 177.831 159.268 178.074C158.753 178.189 158.235 178.432 157.721 178.547C156.688 178.904 155.531 179.131 154.37 179.486C154.111 179.607 153.728 179.597 153.469 179.719L152.571 179.824C151.928 179.936 151.289 179.92 150.774 180.035C149.492 180.13 148.21 180.226 146.931 180.194C145.653 180.162 144.374 180.129 143.099 179.969C141.823 179.809 140.672 179.78 139.4 179.492C138.253 179.335 137.108 179.05 135.961 178.893C134.941 178.74 133.928 178.33 132.908 178.177C129.606 177.198 127.33 176.117 127.33 176.117Z" fill="white"/>
<path d="M124.515 186.279C124.515 186.279 127.181 187.114 131.253 187.984C135.326 188.855 140.929 189.892 146.427 190.031C147.834 190.066 149.241 190.102 150.523 190.006C151.932 189.914 153.214 189.818 154.496 189.722C155.781 189.499 157.066 189.275 158.224 189.049C159.381 188.822 160.413 188.464 161.446 188.106C162.479 187.748 163.256 187.384 164.032 187.02C164.809 186.656 165.458 186.288 165.976 186.045C167.015 185.432 167.54 184.933 167.54 184.933C167.54 184.933 167.019 185.304 165.976 186.045C165.458 186.288 164.806 186.784 164.029 187.148C163.252 187.512 162.344 188.001 161.44 188.362C160.407 188.72 159.374 189.078 158.214 189.432C157.053 189.787 155.768 190.01 154.483 190.234C153.198 190.457 151.788 190.55 150.379 190.642C148.969 190.734 147.562 190.699 146.156 190.663C143.343 190.592 140.536 190.266 137.988 189.818C135.441 189.37 133.021 188.925 130.988 188.362C127.05 187.239 124.515 186.279 124.515 186.279Z" fill="white"/>
<path d="M161.125 134.875C161.125 134.875 161.119 135.131 161.234 135.645C161.227 135.901 161.348 136.16 161.339 136.544C161.457 136.931 161.575 137.317 161.693 137.704C161.812 138.091 162.054 138.609 162.173 138.996C162.419 139.386 162.534 139.901 162.904 140.422C163.393 141.33 164.007 142.369 164.751 143.283C165.496 144.198 166.113 145.109 166.857 146.023C167.602 146.938 168.094 147.718 168.586 148.498C169.078 149.278 169.187 150.048 169.305 150.435C169.42 150.95 169.414 151.206 169.414 151.206C169.414 151.206 169.292 150.947 169.177 150.432C169.062 149.917 168.695 149.268 168.199 148.616C167.212 147.184 165.592 145.48 164.23 143.654C163.486 142.739 162.872 141.7 162.386 140.665C162.144 140.147 161.901 139.629 161.783 139.242C161.668 138.727 161.549 138.34 161.434 137.826C161.316 137.439 161.329 136.927 161.208 136.668C161.09 136.282 161.096 136.026 161.102 135.77C161.119 135.131 161.125 134.875 161.125 134.875Z" fill="#1A2E35"/>
<path d="M149.34 140.463C152.495 142.206 155.646 144.077 158.798 145.947C161.949 147.818 165.101 149.689 168.252 151.56L168.124 151.557C170.947 151.244 173.77 150.931 176.462 150.743C179.284 150.431 182.104 150.246 184.924 150.061C182.101 150.374 179.403 150.817 176.58 151.13C173.757 151.443 170.934 151.755 168.239 152.071L168.112 152.068C164.96 150.197 161.812 148.199 158.788 146.331C155.509 144.457 152.488 142.462 149.34 140.463Z" fill="#1A2E35"/>
<path d="M138.822 156.701L152.48 163.059C154.756 164.14 157.032 165.221 159.314 166.047C159.947 166.318 160.455 166.459 161.092 166.603C161.728 166.747 162.364 166.891 162.875 166.904C164.151 167.064 165.298 167.221 166.577 167.253C169.4 166.941 172.35 166.631 175.173 166.319C177.996 166.006 180.947 165.697 183.769 165.384C180.943 165.824 178.117 166.265 175.167 166.574C172.341 167.015 169.518 167.328 166.567 167.637C165.289 167.605 164.013 167.445 162.738 167.284C162.102 167.14 161.462 167.124 160.826 166.98C160.19 166.836 159.554 166.692 159.049 166.424C156.642 165.467 154.494 164.39 152.218 163.309C147.788 161.406 143.24 159.116 138.822 156.701Z" fill="#1A2E35"/>
<path d="M148.407 86.189C148.407 86.189 148.401 86.4447 148.263 86.8251C148.125 87.2055 147.981 87.8416 147.578 88.5991C147.179 89.2288 146.52 89.9798 145.612 90.4687C145.094 90.7116 144.711 90.7019 144.193 90.9447C143.803 91.1908 143.288 91.3058 142.898 91.5518C141.99 92.0407 141.082 92.5296 140.302 93.0217C139.522 93.5138 138.866 94.1371 138.342 94.6356C137.817 95.1342 137.421 95.636 137.28 96.1442C137.143 96.5246 137.136 96.7804 137.136 96.7804C137.136 96.7804 137.015 96.5214 137.156 96.0131C137.162 95.7574 137.296 95.5049 137.431 95.2524C137.565 94.9999 137.83 94.6227 138.093 94.3735C139.148 93.1206 140.842 91.8838 142.655 91.0339C143.173 90.7911 143.563 90.545 144.078 90.43C144.596 90.1872 145.11 90.0722 145.497 89.954C146.274 89.5898 146.929 88.9666 147.329 88.3369C147.729 87.7073 147.998 87.2022 148.138 86.694C148.273 86.4415 148.407 86.189 148.407 86.189Z" fill="#1A2E35"/>
<path d="M144.596 85.0667C144.596 85.0667 144.2 85.5685 143.282 86.441C142.889 86.8149 142.236 87.3103 141.587 87.6777C140.935 88.1731 139.909 88.2752 139.004 88.6362C138.099 88.9972 137.064 89.4829 136.152 90.0996C135.241 90.7164 134.199 91.4578 133.406 92.4614C133.009 92.9632 132.741 93.4682 132.597 94.1043C132.59 94.36 132.453 94.7404 132.446 94.9962C132.44 95.2519 132.43 95.6355 132.421 96.0191C132.401 96.7863 131.874 97.4127 131.349 97.9113C130.825 98.4099 130.304 98.7806 129.655 99.1481C128.484 99.8862 127.314 100.624 126.649 101.631C125.981 102.766 126.46 104.058 126.815 105.218C127.521 107.667 128.358 109.991 128.434 112.04C128.536 113.066 128.51 114.089 128.235 114.85C128.088 115.614 127.685 116.372 127.416 116.877C127.282 117.129 127.148 117.382 127.016 117.506C126.885 117.631 126.751 117.883 126.62 118.008C126.358 118.257 126.355 118.385 126.355 118.385C126.355 118.385 126.486 118.261 126.62 118.008C126.751 117.883 126.882 117.759 127.016 117.506C127.151 117.254 127.282 117.129 127.416 116.877C127.685 116.372 127.957 115.739 128.107 114.847C128.254 114.083 128.28 113.06 128.175 112.162C127.971 110.109 127.13 107.913 126.425 105.464C126.185 104.818 125.942 104.3 125.961 103.533C125.85 102.891 125.997 102.127 126.269 101.494C126.94 100.231 128.238 99.4962 129.409 98.758C129.93 98.3873 130.579 98.0198 130.972 97.6459C131.496 97.1473 131.765 96.6423 131.906 96.1341C131.916 95.7505 131.922 95.4947 131.932 95.1111C131.941 94.7275 132.079 94.3471 132.085 94.0914C132.229 93.4553 132.629 92.8256 133.026 92.3238C133.819 91.3203 134.861 90.5788 135.9 89.9653C136.939 89.3518 137.975 88.8661 138.88 88.5051C139.912 88.1473 140.81 88.042 141.459 87.6745C142.236 87.3103 142.761 86.8117 143.282 86.441C144.2 85.5685 144.596 85.0667 144.596 85.0667Z" fill="#1A2E35"/>
<path d="M151.262 84.5957C151.262 84.5957 151.511 84.8579 152.01 85.3823C152.384 85.7755 153.007 86.431 153.505 86.9554C153.755 87.2176 154.004 87.4798 154.381 87.7452C154.63 88.0074 154.88 88.2695 155.132 88.4039C155.385 88.5382 155.637 88.6725 155.762 88.8036C155.886 88.9347 156.014 88.9379 156.014 88.9379C156.014 88.9379 155.631 88.9282 154.998 88.6564C154.365 88.3845 153.735 87.9848 153.112 87.3293C152.863 87.0671 152.617 86.6771 152.367 86.4149C152.118 86.1527 152 85.7659 151.751 85.5037C151.38 84.9825 151.262 84.5957 151.262 84.5957Z" fill="#1A2E35"/>
<path d="M159.561 100.543C159.561 100.543 160.171 101.71 160.634 103.641C160.867 104.542 161.094 105.7 161.189 106.982C161.285 108.263 161.381 109.545 161.221 110.821C161.077 111.457 161.06 112.096 160.916 112.732C160.772 113.368 160.628 114.005 160.488 114.513C160.203 115.657 159.918 116.802 159.64 117.69C159.489 118.582 159.211 119.471 159.198 119.982C159.057 120.49 159.048 120.874 159.048 120.874C159.048 120.874 159.057 120.49 159.07 119.979C159.083 119.467 159.106 118.572 159.259 117.553C159.413 116.533 159.567 115.513 159.855 114.241C159.999 113.605 160.143 112.969 160.284 112.46C160.428 111.824 160.572 111.188 160.588 110.549C160.908 107.998 160.589 105.431 160.254 103.503C160.02 102.602 159.915 101.703 159.8 101.189C159.682 100.802 159.561 100.543 159.561 100.543Z" fill="#1A2E35"/>
<path d="M131.965 109.061C131.965 109.061 132.336 109.582 132.697 110.486C132.815 110.873 133.054 111.519 133.169 112.034C133.281 112.676 133.393 113.319 133.377 113.958C133.367 114.342 133.361 114.598 133.351 114.981C133.344 115.237 133.335 115.621 133.2 115.873C133.066 116.126 133.056 116.509 132.922 116.762C132.788 117.014 132.781 117.27 132.647 117.522C132.382 117.9 132.116 118.277 131.982 118.529C131.848 118.782 131.716 118.906 131.716 118.906C131.716 118.906 131.848 118.782 131.982 118.529C132.113 118.405 132.116 118.277 132.247 118.152C132.378 118.027 132.385 117.772 132.519 117.519C132.654 117.267 132.66 117.011 132.794 116.758C132.929 116.506 132.935 116.25 132.941 115.994C133.076 115.742 132.958 115.355 133.092 115.103C133.098 114.847 133.108 114.463 133.115 114.208C133.147 112.929 132.792 111.768 132.559 110.867C132.077 109.703 131.965 109.061 131.965 109.061Z" fill="#1A2E35"/>
<path d="M125.353 112.478C125.353 112.478 124.826 113.105 124.164 113.984C123.499 114.99 122.699 116.25 122.152 117.643C122.015 118.024 121.877 118.404 121.743 118.657C121.605 119.037 121.596 119.421 121.589 119.676C121.58 120.06 121.445 120.312 121.564 120.699C121.554 121.083 121.547 121.339 121.541 121.594C121.535 121.85 121.656 122.109 121.649 122.365C121.771 122.624 121.768 122.752 121.761 123.007C121.879 123.394 121.876 123.522 121.876 123.522C121.876 123.522 121.752 123.391 121.633 123.004C121.509 122.873 121.515 122.617 121.391 122.486C121.269 122.227 121.276 121.972 121.154 121.713C121.033 121.454 121.042 121.07 121.049 120.814C121.059 120.431 121.068 120.047 121.075 119.791C121.084 119.408 121.222 119.027 121.232 118.644C121.369 118.263 121.507 117.883 121.516 117.499C121.791 116.739 122.191 116.109 122.591 115.479C122.991 114.85 123.387 114.348 123.784 113.846C124.701 112.974 125.353 112.478 125.353 112.478Z" fill="#1A2E35"/>
</g>
<defs>
<clipPath id="clip0">
<rect width="399" height="360" fill="white"/>
</clipPath>
</defs>
</svg>
