<svg width="44" height="44" viewBox="0 0 44 44" fill="none" xmlns="http://www.w3.org/2000/svg">
<g clip-path="url(#clip0)">
<path d="M21.8888 43.6703C33.8299 43.6703 43.5101 33.9901 43.5101 22.049C43.5101 10.1079 33.8299 0.427734 21.8888 0.427734C9.94775 0.427734 0.267578 10.1079 0.267578 22.049C0.267578 33.9901 9.94775 43.6703 21.8888 43.6703Z" fill="#039BE5"/>
<path d="M10.1609 21.5814L31.0074 13.5437C31.975 13.1941 32.82 13.7797 32.5065 15.2428L32.5083 15.241L28.9588 31.9632C28.6958 33.1488 27.9913 33.437 27.0057 32.8785L21.6004 28.8948L18.9932 31.4065C18.7049 31.6947 18.4617 31.938 17.9031 31.938L18.2869 26.4372L28.3048 17.3869C28.7408 17.0031 28.2075 16.7869 27.6327 17.1689L15.2527 24.9633L9.91589 23.2985C8.75735 22.9309 8.73213 22.1399 10.1609 21.5814Z" fill="white"/>
</g>
<defs>
<clipPath id="clip0">
<rect width="43.2425" height="43.2425" fill="white" transform="translate(0.267578 0.427734)"/>
</clipPath>
</defs>
</svg>
