<svg width="44" height="44" viewBox="0 0 44 44" fill="none" xmlns="http://www.w3.org/2000/svg">
<path d="M22.0055 0H21.9945C9.86425 0 0 9.867 0 22C0 26.8125 1.551 31.273 4.18825 34.8947L1.4465 43.0677L9.90275 40.3645C13.3815 42.669 17.5312 44 22.0055 44C34.1357 44 44 34.1302 44 22C44 9.86975 34.1357 0 22.0055 0Z" fill="#55CD6C"/>
<path d="M34.8075 31.067C34.2767 32.5658 32.1702 33.8088 30.49 34.1718C29.3405 34.4165 27.839 34.6118 22.7845 32.5163C16.3192 29.8378 12.1558 23.268 11.8313 22.8417C11.5205 22.4155 9.21875 19.363 9.21875 16.206C9.21875 13.049 10.822 11.5118 11.4683 10.8518C11.999 10.31 12.8762 10.0625 13.7177 10.0625C13.99 10.0625 14.2348 10.0763 14.4548 10.0873C15.101 10.1148 15.4255 10.1533 15.8517 11.1735C16.3825 12.4523 17.675 15.6093 17.829 15.9338C17.9857 16.2583 18.1425 16.6983 17.9225 17.1245C17.7163 17.5645 17.5347 17.7597 17.2102 18.1337C16.8857 18.5077 16.5777 18.7937 16.2532 19.1953C15.9562 19.5445 15.6207 19.9185 15.9948 20.5648C16.3688 21.1973 17.6613 23.3065 19.5642 25.0005C22.02 27.1867 24.011 27.8853 24.7232 28.1823C25.254 28.4023 25.8865 28.35 26.2743 27.9375C26.7665 27.4068 27.3742 26.5268 27.993 25.6605C28.433 25.039 28.9885 24.962 29.5715 25.182C30.1655 25.3882 33.3088 26.942 33.955 27.2637C34.6012 27.5882 35.0275 27.7423 35.1842 28.0145C35.3382 28.2868 35.3382 29.5655 34.8075 31.067Z" fill="#FAFAFA"/>
</svg>
