<svg width="390" height="482" viewBox="0 0 390 482" fill="none" xmlns="http://www.w3.org/2000/svg">
<g clip-path="url(#clip0)">
<path opacity="0.95" d="M136.951 233.765H17.6452C8.21948 233.765 0.568359 226.116 0.568359 216.692V97.4112C0.568359 87.9874 8.21948 80.3379 17.6452 80.3379H136.951C146.376 80.3379 154.027 87.9874 154.027 97.4112V216.692C153.998 226.145 146.376 233.765 136.951 233.765Z" fill="url(#paint0_linear)"/>
<path d="M112.804 198.832H41.7617V202.351H112.804V198.832Z" fill="#96BFE6"/>
<path d="M102.739 209.912H51.8281V213.431H102.739V209.912Z" fill="#96BFE6"/>
<path opacity="0.95" d="M369.161 380.01H199.352C188.239 380.01 179.25 371.022 179.25 359.912V153.665C179.25 142.554 188.239 133.566 199.352 133.566H369.161C380.274 133.566 389.264 142.554 389.264 153.665V359.912C389.264 371.022 380.274 380.01 369.161 380.01Z" fill="url(#paint1_linear)"/>
<path d="M291.138 278.965H274.469V282.048H291.138V278.965Z" fill="#4598E6"/>
<path d="M308.186 307.207H211.252V313.17H308.186V307.207Z" fill="#96BFE6"/>
<path d="M289.625 335.885H211.252V341.847H289.625V335.885Z" fill="#96BFE6"/>
<path d="M257.188 321.545H211.252V327.508H257.188V321.545Z" fill="#96BFE6"/>
<path d="M333.525 158.141V161.166H351.3V177.832H354.326V158.141H333.525ZM212.91 177.832H215.936V161.166H233.711V158.141H212.939V177.832H212.91ZM351.271 263.809V280.475H333.496V283.5H354.268V263.809H351.271ZM215.936 263.809H212.91V283.5H233.682V280.475H215.907V263.809H215.936Z" fill="#4598E6"/>
<path d="M344.9 342.312C335.096 342.312 327.125 334.343 327.125 324.541C327.125 314.739 335.096 306.77 344.9 306.77C354.704 306.77 362.675 314.739 362.675 324.541C362.646 334.343 354.675 342.312 344.9 342.312ZM344.9 310.231C336.987 310.231 330.587 316.659 330.587 324.541C330.587 332.452 337.016 338.851 344.9 338.851C352.813 338.851 359.213 332.423 359.213 324.541C359.213 316.63 352.784 310.231 344.9 310.231Z" fill="#4598E6"/>
<path d="M343.765 331.521L335.678 323.464L338.121 321.021L343.765 326.663L351.678 318.752L354.093 321.195L343.765 331.521Z" fill="#4598E6"/>
<path opacity="0.95" d="M128.98 86.0957H25.5586V174.807H128.98V86.0957Z" fill="url(#paint2_linear)"/>
<path opacity="0.95" d="M267.777 125.07H183.091C175.352 125.07 169.068 118.787 169.068 111.05V37.5799C169.068 29.8431 175.352 23.5605 183.091 23.5605H267.777C275.515 23.5605 281.799 29.8431 281.799 37.5799V111.05C281.828 118.787 275.544 125.07 267.777 125.07Z" fill="url(#paint3_linear)"/>
<path d="M229.492 105.846H220.561V107.504H229.492V105.846Z" fill="#4598E6"/>
<path d="M252.241 41.9158V43.5446H261.783V52.503H263.412V41.9449H252.241V41.9158ZM187.512 52.4739H189.141V43.5155H198.683V41.8867H187.541V52.4739H187.512ZM261.783 98.633V107.591H252.241V109.22H263.383V98.6621H261.783V98.633ZM189.112 98.633H187.482V109.191H198.625V107.562H189.082V98.633H189.112Z" fill="#4598E6"/>
<path d="M83.2771 181.701H71.3203V183.912H83.2771V181.701Z" fill="#4598E6"/>
<path d="M113.066 96.3047V98.457H125.809V110.411H127.961V96.3047H113.066ZM26.6055 110.411H28.7583V98.457H41.5005V96.3047H26.6055V110.411ZM125.809 172.073V184.027H113.066V186.18H127.961V172.073H125.809ZM28.7583 172.073H26.6055V186.18H41.5005V184.027H28.7583V172.073Z" fill="#4598E6"/>
<path d="M347.692 251.422H327.764C326.455 241.882 324.855 231.004 324.855 231.004C324.855 231.004 324.04 239.991 323.08 251.422H243.369C242.641 241.126 241.769 233.447 241.449 233.272C240.983 233.04 238.161 242.173 235.776 251.422H214.189C219.746 227.513 230.103 189.149 236.067 186.852C244.59 183.565 279.326 172.861 279.326 172.861H299.167C299.167 172.861 334.397 182.925 337.684 193.832C340.274 202.558 346.005 231.265 347.692 251.422Z" fill="#E65353"/>
<path d="M290.148 108.553C290.148 108.553 308.651 111.462 305.858 140.431C303.036 169.401 286.686 167.016 285.61 166.987C284.504 166.958 269.202 167.51 268.009 132.142C267.98 132.171 267.457 106.023 290.148 108.553Z" fill="#EEA987"/>
<path d="M298.789 158.464C298.789 158.464 298.294 170.389 299.429 172.948C300.563 175.508 284.156 183.797 274.119 174.577C274.119 174.577 276.534 161.634 275.865 157.038C275.196 152.472 298.789 158.464 298.789 158.464Z" fill="#EEA987"/>
<path d="M306.119 132.259C306.119 132.259 308.156 130.106 308.883 132.288C309.639 134.469 305.741 144.271 306.003 144.707C306.003 144.707 305.625 145.551 305.159 145.085C304.665 144.62 306.119 132.259 306.119 132.259Z" fill="#EEA987"/>
<path d="M268.213 131.909C268.213 131.909 266.235 129.699 265.45 131.88C264.664 134.061 268.359 143.921 268.097 144.358C268.097 144.358 268.446 145.201 268.941 144.765C269.435 144.3 268.213 131.909 268.213 131.909Z" fill="#EEA987"/>
<path d="M306.119 136.707L303.472 140.256C303.472 140.256 303.559 132.49 303.123 131.268C302.686 130.047 302.047 126.324 301.697 125.451C301.348 124.579 285.784 120.216 272.082 126.731C272.082 126.731 272.693 132.316 271.384 132.81C270.075 133.304 270.715 141.914 270.715 141.914L268.533 139.442C268.533 139.442 265.187 117.162 266.031 114.835C266.846 112.508 269.493 98.547 297.654 106.836C297.654 106.836 306.439 104.975 308.185 111.025C309.901 117.104 306.119 136.707 306.119 136.707Z" fill="#D98B52"/>
<path d="M299.43 172.948C299.43 172.948 303.619 173.85 286.134 190.574C286.134 190.574 273.741 176.875 274.148 174.577C274.527 172.309 299.43 172.948 299.43 172.948Z" fill="#EEA987"/>
<path d="M286.135 190.604L290.906 198.748L305.044 174.723L298.935 170.477L286.135 190.604Z" fill="#B84343"/>
<path d="M286.134 190.603L274.555 172.191L267.98 176.409L279.763 198.747L286.134 190.603Z" fill="#B84343"/>
<path d="M282.555 241.619C282.7 244.324 282.758 247.669 282.758 251.421H282.089C282.089 247.698 282.031 244.383 281.886 241.678C280.809 221.259 285.755 196.391 285.784 190.545L286.424 190.661C286.395 196.478 281.478 221.289 282.555 241.619Z" fill="#B84343"/>
<path d="M277.609 163.581C277.609 163.581 282.002 168.235 288.228 166.984C294.453 165.733 297.188 162.912 297.188 162.912C297.188 162.912 294.744 169.049 287.559 169.631C280.373 170.183 277.609 163.581 277.609 163.581Z" fill="#C78D71"/>
<path d="M63.085 97.121H63.0559C62.6486 97.0338 61.9795 95.0268 61.834 94.6196C61.8049 94.5033 61.7467 94.2997 61.6595 94.0379C61.1358 92.4382 59.9139 88.6861 60.4085 87.2318C60.5539 86.7664 60.7867 86.5047 61.1067 86.4465C61.7758 86.3011 62.5322 87.1446 62.5613 87.2027L62.5904 87.2318V87.2609C62.765 88.8316 63.6087 96.7429 63.2305 97.0919C63.1723 97.0919 63.1141 97.121 63.085 97.121ZM61.2231 86.5628C61.194 86.5628 61.1358 86.5628 61.1067 86.5628C60.8449 86.621 60.6703 86.8537 60.5248 87.2318C60.0594 88.6279 61.3104 92.4673 61.7758 93.9216C61.8631 94.2124 61.9213 94.416 61.9504 94.5033C62.2704 95.4631 62.7941 96.8302 63.0559 96.8883C63.0559 96.8883 63.0559 96.8883 63.085 96.8883C63.3177 96.5684 62.7941 90.7803 62.3868 87.2027C62.2995 87.1446 61.7176 86.5628 61.2231 86.5628Z" fill="#EEA886"/>
<path d="M76.8468 65.6498C76.8468 65.6498 87.0289 64.5736 90.7236 74.4337C94.3892 84.2647 97.8511 87.4932 98.2875 92.6704C100.033 113.583 109.808 108.842 107.044 120.913C104.31 132.954 102.389 134.787 102.389 134.787L79.0286 130.22L55.377 130.307C55.377 130.307 64.6282 125.683 62.5626 115.852C60.4971 106.021 55.377 89.8782 58.2571 78.9129C61.1953 67.8603 70.7375 66.4642 76.8468 65.6498Z" fill="#16202E"/>
<path d="M89.2981 97.1208C89.2399 97.1208 89.2108 97.0917 89.1817 97.0626C88.8326 96.7136 89.6472 88.8023 89.8218 87.2317V87.2026L89.8508 87.1735C89.8799 87.1444 90.6363 86.3009 91.3054 86.4173C91.6254 86.4754 91.8581 86.7372 92.0036 87.2026C92.469 88.6278 91.2763 92.3798 90.7527 94.0086C90.6654 94.2995 90.6072 94.5031 90.5781 94.5903C90.4618 94.9975 89.7926 97.0044 89.3563 97.0917C89.3272 97.1208 89.2981 97.1208 89.2981 97.1208ZM89.9672 87.2608C89.589 90.8383 89.0363 96.6263 89.269 96.9463C89.269 96.9463 89.269 96.9463 89.2981 96.9463C89.5308 96.8881 90.0836 95.492 90.4036 94.5322C90.4327 94.4158 90.4908 94.2122 90.5781 93.9505C91.0436 92.4962 92.2945 88.6278 91.829 87.2608C91.6836 86.8536 91.509 86.6209 91.2472 86.5918C90.7236 86.4754 90.0836 87.1444 89.9672 87.2608Z" fill="#EEA886"/>
<path d="M124.76 159.655H110.214C107.189 154.158 104.745 149.853 104.745 149.853C104.745 149.853 102.796 153.431 101.254 159.655H52.2634C51.507 155.787 51.478 152.064 51.6234 149.417C51.6234 149.417 49.0052 154.158 45.9796 159.655H29.5137C33.8774 151.482 42.0522 136.59 43.9141 134.642C46.2414 132.198 59.7691 122.833 69.4567 119.779C79.1152 116.725 84.6135 119.662 84.6135 119.662C84.6135 119.662 94.5338 121.437 103.727 125.101C107.334 126.556 117.313 144.938 124.76 159.655Z" fill="#FAA146"/>
<path d="M78.1845 71.3795C78.1845 71.3795 91.6831 73.3282 89.7048 93.252C87.7266 113.176 75.8281 111.605 75.0135 111.576C74.228 111.547 63.0568 111.983 62.0968 87.6675C62.0968 87.6966 61.6604 69.7216 78.1845 71.3795Z" fill="#8E4F3A"/>
<path d="M84.1776 108.056C84.1776 108.056 83.334 118.411 85.3413 121.523C87.3487 124.635 83.6249 128.853 76.0028 127.398C68.3807 125.944 68.8171 121.639 68.8171 121.639C68.8171 121.639 70.9408 115.24 70.3299 110.121C69.6899 105.002 84.1776 108.056 84.1776 108.056Z" fill="#8E4F3A"/>
<path d="M76.6417 78.6219C76.6417 78.6219 82.9546 85.2535 85.8638 88.5984C88.8021 91.9432 89.1221 98.4294 89.1221 98.4294C89.1221 98.4294 94.0677 92.4086 92.0022 85.3989C89.9367 78.3892 85.0493 64.7189 72.6852 68.9364C60.3212 73.1247 59.8557 91.5942 61.3103 100.756C61.3394 100.727 66.8959 80.5125 76.6417 78.6219Z" fill="#16202E"/>
<path d="M88.9201 120.592C88.9201 120.592 79.5526 144.297 73.8796 148.428C73.8796 148.428 66.403 124.257 66.9267 120.709C66.9267 120.709 78.1852 116.288 88.9201 120.592Z" fill="#8E4F3A"/>
<path d="M69.137 114.863C69.137 114.863 52.4384 129.697 56.773 138.975C60.4677 146.887 73.588 142.029 71.4062 133.74C69.2534 125.48 69.137 114.863 69.137 114.863Z" fill="#16202E"/>
<path d="M71.3184 110.676C71.3184 110.676 77.0785 113.381 82.6642 109.367C82.6642 109.367 81.1223 112.567 76.9913 113.032C72.8602 113.497 71.3184 110.676 71.3184 110.676Z" fill="#633029"/>
<path d="M219.425 55.8457C219.425 55.8457 213.898 76.6711 212.734 81.3539C212.385 82.7791 211.28 85.2223 209.883 87.9855C209.883 88.0145 209.854 88.0145 209.854 88.0436C209.563 88.6544 209.418 89.2071 209.33 89.7306C209.098 91.4757 209.767 92.8428 208.632 94.9079L208.429 95.7804H197.461C198.741 91.9702 200.37 87.142 201.65 83.2736C202.727 79.9869 203.599 77.3692 203.832 76.6129C204.501 74.3442 207.003 67.0437 209.098 62.1864C209.825 60.4994 212.676 58.8124 215.178 57.6199C217.447 56.5438 219.425 55.8457 219.425 55.8457Z" fill="#323657"/>
<path d="M212.094 26.0907C212.094 26.0907 208.603 3.52012 227.309 3.92732C246.015 4.33452 245.782 15.5034 245.433 26.5851C245.084 37.6668 237.927 36.8233 246.015 52.2678C254.102 67.6833 239.004 67.6833 239.004 67.6833L227.309 51.5989L212.094 26.0907Z" fill="#FCCCA2"/>
<path d="M225.273 6.10835C225.273 6.10835 212.589 8.11527 212.094 26.1193C211.599 44.1234 215.498 47.9628 226.611 44.2107C237.695 40.4586 241.186 21.6401 241.448 18.7025C241.68 15.7648 242.349 3.92692 225.273 6.10835Z" fill="#EEA886"/>
<path d="M247.528 68.7009C247.586 74.8961 240.458 89.7008 239.353 94.2963C239.237 94.8199 239.091 95.3143 238.946 95.7797H204.355C204.181 93.6564 204.006 91.824 203.919 90.777C203.657 87.403 200.224 80.1025 200.341 76.6994C200.457 73.2382 202.144 70.2424 204.53 66.5776C205.257 65.4433 206.043 64.2798 206.828 63.1455C209.359 59.4516 211.861 56.1067 213.083 54.9433C214.014 54.0998 214.858 53.4309 215.614 52.9364C217.156 51.8893 218.203 51.5694 218.203 51.5694L229.084 49.8242C229.084 49.8242 235.862 52.2965 239.789 53.1982C239.789 53.1982 247.411 54.3034 247.528 68.7009Z" fill="#E55353"/>
<path d="M215.614 52.9375L209.301 62.8848L203.482 72.0759C203.482 72.0177 203.89 70.6507 204.53 66.6078C204.646 65.8516 204.792 64.979 204.937 64.0192C204.966 63.7283 205.053 63.4375 205.112 63.1757C207.613 57.4167 215.323 53.0829 215.614 52.9375Z" fill="#E55353"/>
<path d="M233.738 36.0666C232.633 38.1317 231.469 51.0167 231.469 51.0167C231.469 51.0167 215.963 56.8629 217.563 53.5472C218.29 52.0347 218.494 50.086 218.494 48.399C218.494 47.061 218.407 45.9267 218.319 45.2577C218.29 44.9087 218.261 44.7342 218.261 44.7342C218.261 44.7342 234.814 34.0015 233.738 36.0666Z" fill="#EEA886"/>
<path d="M220.094 19.0227C220.094 19.0227 226.581 29.6099 232.516 33.7691C238.422 37.9284 235.425 41.2733 235.425 41.2733C235.425 41.2733 250.873 8.78451 236.182 6.51583C221.49 4.27623 212.501 4.10171 212.094 26.0905C212.094 26.0905 218.756 18.8482 220.094 19.0227Z" fill="#FCCCA2"/>
<path d="M227.164 43.9785C224.779 47.4979 218.495 48.4286 218.495 48.4286C218.495 47.0907 218.408 45.9563 218.32 45.2874C222.364 46.0727 227.164 43.9785 227.164 43.9785Z" fill="#A77860"/>
<path d="M205.14 63.0884C205.14 63.0884 204.791 63.7865 204.529 66.5787L206.798 63.1466C206.798 63.1466 210.871 57.3004 212.268 55.7879C213.664 54.2754 215.584 52.9375 215.584 52.9375C215.584 52.9375 207.584 56.8059 205.14 63.0884Z" fill="#EBEEFF"/>
<path d="M235.978 71.8135C235.978 71.8135 245.927 67.916 248.865 67.6833C248.865 67.6833 246.858 51.7152 237.083 53.4022C227.337 55.1182 235.978 71.8135 235.978 71.8135Z" fill="#E55353"/>
<path d="M218.204 51.5702C218.204 51.5702 210.902 62.7973 213.374 63.7862C215.847 64.7751 229.23 62.4773 234.902 51.8028C234.902 51.8028 226.408 47.44 218.204 51.5702Z" fill="#EEA886"/>
<path d="M248.866 67.6842C248.371 76.4972 245.869 84.8448 243.804 92.4944C243.513 93.5997 243.222 94.7049 242.96 95.7811H222.712C222.654 92.7562 222.683 90.0803 222.77 87.8407C223.788 63.4086 231.527 50.5527 231.527 50.5527C231.527 50.5527 234 51.3962 241.127 53.4031C246.015 54.7702 247.847 60.9945 248.517 64.7466C248.517 64.7466 248.517 64.7757 248.517 64.8048C248.807 66.4917 248.866 67.6842 248.866 67.6842Z" fill="#323657"/>
<path d="M218.204 51.5684C218.117 51.7138 216.779 53.9534 215.208 57.6182C212.822 63.1154 209.826 71.812 209.564 81.4103C209.477 84.4934 208.866 89.4671 207.935 95.7787H203.891C203.484 90.5142 202.524 86.2967 201.68 83.2718C201.127 81.294 200.633 79.8397 200.342 78.909C199.062 74.517 203.164 68.6999 204.56 66.6057C205.898 64.5115 209.215 54.9132 218.204 51.5684Z" fill="#323657"/>
<path d="M255.325 95.7784H244.445C244.445 95.0804 244.212 93.917 243.805 92.4918C241.826 85.4821 235.979 71.8118 235.979 71.8118C235.979 71.8118 227.222 57.5307 235.513 53.8659C243.805 50.2302 247.383 60.4102 248.488 64.7439C248.488 64.7439 248.488 64.773 248.488 64.8021C248.779 65.8492 253.725 84.6677 255.325 95.7784Z" fill="#323657"/>
<path d="M187.077 230.04C187.077 230.04 186.902 227.742 187.164 226.666C187.629 224.805 186.931 221.809 189.288 220.355C191.644 218.9 198.335 225.008 198.859 226.695C199.382 228.411 196.881 231.291 191.644 233.734C186.407 236.177 187.077 230.04 187.077 230.04Z" fill="#EEA886"/>
<path d="M188.561 220.965C188.561 220.965 190.83 217.562 193.826 214.072C196.444 211.018 200.139 207.585 200.895 208.254C202.088 209.243 198.743 211.716 196.328 214.915C194.117 217.853 195.048 217.649 195.048 217.649C195.048 217.649 194.786 217.707 197.812 214.944C201.07 212.006 204.707 208.952 205.347 209.476C206.161 210.116 206.19 210.261 205.172 211.541C205.899 210.93 206.19 211.047 206.452 211.337C207.907 212.821 203.805 217.911 202.176 219.918C203.426 218.376 204.532 217.387 204.852 218.871C205.201 220.558 199.063 227.48 197.114 230.185C195.048 233.123 188.561 220.965 188.561 220.965Z" fill="#EEA886"/>
<path d="M110.129 465.576C110.129 465.576 116.5 469.357 119.409 470.753C122.289 472.149 133.518 472.557 134.624 473.604C135.729 474.651 135.322 478.025 133.46 478.345C131.598 478.694 117.954 479.915 113.387 478.868C108.82 477.792 100.325 479.595 98.4338 478.955C96.5429 478.316 97.7647 468.165 98.492 465.867C99.2193 463.598 110.129 465.576 110.129 465.576Z" fill="#181929"/>
<path d="M110.652 461.418L110.129 465.577C110.129 465.577 101.605 467.177 99.0156 465.868L99.6556 461.563L110.652 461.418Z" fill="#22243B"/>
<path d="M144.865 319.48C144.778 322.359 144.254 328.612 143.643 335.157C143.498 336.611 143.352 338.094 143.236 339.549C142.392 348.362 141.519 356.535 141.519 356.535C140.443 363.574 138.232 375.76 135.73 384.981C135.003 387.627 134.276 390.042 133.548 392.019C132.821 393.939 132.094 395.422 131.395 396.324C126.101 403.072 113.999 462.93 113.999 462.93L97.4453 462.814C97.4453 462.814 101.082 422.269 104.747 412.001C108.82 400.512 115.919 385.068 114.144 373.986C113.039 367.035 111.613 344.93 111.613 344.93C111.613 344.93 110.217 320.09 116.733 301.883C118.362 297.345 144.865 319.48 144.865 319.48Z" fill="#292C47"/>
<path d="M156.617 467.147C156.617 467.147 162.959 470.986 165.839 472.44C168.719 473.865 179.919 474.418 181.025 475.494C182.13 476.57 181.665 479.915 179.803 480.235C177.941 480.555 164.268 481.631 159.73 480.497C155.191 479.392 146.668 481.079 144.777 480.41C142.886 479.741 144.224 469.59 144.98 467.321C145.737 465.053 156.617 467.147 156.617 467.147Z" fill="#181929"/>
<path d="M157.199 462.986L156.617 467.145C156.617 467.145 148.064 468.629 145.504 467.291L146.202 462.986H157.199Z" fill="#22243B"/>
<path d="M137.416 403.625C136.979 390.391 135.816 381.578 132.412 373.928C129.561 367.5 127.088 347.344 127.088 347.344C127.088 347.344 119.32 323.697 120.891 304.442C121.299 299.643 151.263 311.714 151.263 311.714C151.932 314.506 153.911 323.348 154.638 329.892C158.711 367.297 157.169 391.641 157.169 391.641C154.842 399.902 160.718 464.85 160.718 464.85H143.845C143.845 464.85 139.423 441.727 138.957 427.359C138.987 427.388 137.241 405.922 137.416 403.625Z" fill="#292C47"/>
<path d="M137.039 232.311C137.039 232.311 144.893 245.196 147.192 252.38C149.49 259.564 147.628 280.477 148.035 284.665C149.286 297.695 151.119 312.064 151.119 312.064L124.791 328.904C124.791 328.904 120.049 317.852 115.947 304.094C111.816 290.337 111.496 277.946 111.525 269.686C111.641 243.741 125.693 229.082 125.693 229.082L137.039 232.311Z" fill="#CFBEB6"/>
<path d="M146.726 197.726C146.726 197.726 152.137 203.514 150.595 205.027C149.344 206.277 154.29 212.036 155.017 213.025C155.715 213.985 152.806 215.585 152.34 216.457C151.875 217.33 152.137 226.405 149.635 227.336C147.133 228.266 134.507 227.277 130.492 224.834C126.478 222.391 120.019 208.255 120.485 201.478C120.95 194.672 137.213 187.662 146.726 197.726Z" fill="#EEA886"/>
<path d="M147.949 208.352C148.119 209.174 147.578 209.994 146.755 210.163C145.931 210.333 145.11 209.794 144.941 208.972C144.771 208.149 145.312 207.33 146.135 207.16C146.952 206.954 147.772 207.493 147.949 208.352Z" fill="#1E294C"/>
<path d="M142.348 206.894C142.133 206.939 141.896 206.876 141.716 206.727C141.434 206.449 141.382 206.013 141.66 205.732C141.781 205.595 144.832 202.282 147.962 202.793C148.35 202.862 148.61 203.218 148.54 203.605C148.471 203.992 148.114 204.252 147.726 204.183C145.752 203.845 143.439 205.849 142.748 206.663C142.62 206.764 142.491 206.865 142.348 206.894Z" fill="#1E294C"/>
<path d="M150.551 220.794C145.88 221.683 145.17 218.959 145.147 218.852C145.066 218.459 145.287 218.078 145.681 217.996C146.075 217.915 146.456 218.135 146.53 218.492C146.552 218.6 147.069 220.021 150.3 219.393C150.694 219.311 151.047 219.574 151.128 219.967C151.166 220.332 150.945 220.713 150.551 220.794Z" fill="#1E294C"/>
<path d="M141.605 225.387C141.605 225.387 141.518 226.143 141.402 227.365C141.343 227.859 141.285 228.441 141.227 229.052C141.198 229.43 141.169 229.808 141.14 230.215C141.14 230.331 141.111 230.419 141.111 230.535C141.082 230.709 141.082 230.913 141.053 231.088C140.994 231.96 140.936 232.862 140.878 233.764C140.762 236.061 140.733 238.272 140.994 239.493C141.663 242.867 127.176 228.673 127.176 228.673C127.176 228.673 128.398 217.679 127.816 205.318C127.234 192.956 141.605 225.387 141.605 225.387Z" fill="#EEA886"/>
<path d="M147.832 199.006C147.832 199.006 150.392 192.985 142.508 188.796C133.228 183.881 123.395 196.242 122.086 196.97C120.777 197.697 114.842 204.386 120.66 213.229C127.991 224.397 127.613 224.019 127.613 224.019C127.613 224.019 128.34 215.788 128.311 214.188C128.224 211.28 135.846 210.931 135.846 210.931C135.846 210.931 132.704 206.771 136.195 204.91C139.657 203.019 143.701 198.598 147.832 199.006Z" fill="#3A3F47"/>
<path d="M131.802 209.884C131.25 209.099 129.213 205.667 126.595 208.692C123.977 211.717 130.988 217.359 131.57 217.301C132.181 217.243 136.486 216.429 131.802 209.884Z" fill="#EEA886"/>
<path d="M152.602 317.616C152.602 317.616 151.293 311.45 151.031 310.52L112.484 316.918L112.892 321.892C112.863 321.921 140.645 320.263 152.602 317.616Z" fill="#23263D"/>
<path d="M109.052 290.449C109.052 290.449 114.987 316.016 105.707 345.829C104.572 349.464 131.366 345.276 131.366 345.276L109.052 290.449Z" fill="#FAA146"/>
<path d="M143.09 343.418C143.09 343.418 124.064 347.607 118.711 345.716C118.711 345.716 110.944 317.416 108.209 288.708C108.005 286.497 107.831 284.258 107.685 282.047C106.173 258.691 112.107 234.986 125.664 229.082C126.042 229.344 145.126 246.155 144.777 261.571C144.748 262.618 144.748 263.665 144.719 264.712C144.719 266.603 144.719 268.493 144.748 270.384C144.865 276.23 145.243 282.076 145.737 287.748C145.796 288.33 145.854 288.941 145.912 289.522C145.999 290.482 146.116 291.413 146.203 292.373C146.348 293.623 146.494 294.874 146.639 296.096C149.752 321.807 143.09 343.418 143.09 343.418Z" fill="#FAA146"/>
<path d="M142.305 243.564C142.305 243.564 145.883 257.758 147.25 275.617C148.385 290.567 149.927 301.125 149.927 301.125L152.225 308.513L153.156 301.387C153.156 301.387 152.312 282.103 151.207 274.25C150.072 266.338 149.578 256.304 143.265 243.273L142.305 243.564Z" fill="#D44040"/>
<path d="M141.926 243.565C141.926 243.565 142.362 243.972 142.973 244.059C143.584 244.147 144.457 243.187 141.344 239.057L141.926 243.565Z" fill="#D44040"/>
<path d="M127.381 226.93C127.381 226.93 136.254 235.277 141.519 237.11L142.538 245.108L125.693 229.053L127.381 226.93Z" fill="#EDDAD3"/>
<path d="M133.314 259.243C129.823 257.993 115.306 250.954 119.176 242.722C123.045 234.491 132.994 238.883 140.5 242.228C148.355 245.718 166.857 256.48 168.312 255.491C169.766 254.502 176.166 245.34 177.33 243.275C178.494 241.239 185.476 228.18 186.145 227.191C186.785 226.231 196.938 234.753 196.938 234.753C196.938 234.753 178.697 267.126 173.81 272.274C168.864 277.451 133.314 259.243 133.314 259.243Z" fill="#FAA146"/>
<path d="M135.729 384.952C135.002 387.628 134.274 390.042 133.547 391.99L127.787 357.582C129.213 360.84 135.729 384.952 135.729 384.952Z" fill="#181929"/>
<path d="M144.777 270.383L128.078 256.742C132.5 259.098 143.38 264.072 144.748 264.683C144.719 266.573 144.748 268.493 144.777 270.383Z" fill="#8F5C28"/>
<path d="M141.402 227.334C141.344 227.828 141.285 228.41 141.227 229.021C141.198 229.399 141.169 229.777 141.14 230.184C135.613 229.806 131.336 225.414 131.074 225.123C133.314 226.955 141.402 227.334 141.402 227.334Z" fill="#A77860"/>
<path d="M133.199 5.12136H119.787C119.322 5.12136 118.973 4.74325 118.973 4.30696V1.39839C118.973 0.933014 119.351 0.583984 119.787 0.583984H133.199C133.664 0.583984 134.013 0.9621 134.013 1.39839V4.30696C134.013 4.77233 133.664 5.12136 133.199 5.12136Z" fill="url(#paint4_linear)"/>
<path d="M133.199 15.9983H119.787C119.322 15.9983 118.973 15.6202 118.973 15.1839V12.2753C118.973 11.81 119.351 11.4609 119.787 11.4609H133.199C133.664 11.4609 134.013 11.839 134.013 12.2753V15.1839C134.013 15.6493 133.664 15.9983 133.199 15.9983Z" fill="url(#paint5_linear)"/>
<path d="M133.199 26.8772H119.787C119.322 26.8772 118.973 26.4991 118.973 26.0628V23.1542C118.973 22.6889 119.351 22.3398 119.787 22.3398H133.199C133.664 22.3398 134.013 22.718 134.013 23.1542V26.0628C134.013 26.4991 133.664 26.8772 133.199 26.8772Z" fill="url(#paint6_linear)"/>
<path d="M143.7 5.12136H141.053C140.587 5.12136 140.238 4.74325 140.238 4.30696V1.39839C140.238 0.933014 140.616 0.583984 141.053 0.583984H143.7C144.166 0.583984 144.515 0.9621 144.515 1.39839V4.30696C144.515 4.77233 144.166 5.12136 143.7 5.12136Z" fill="url(#paint7_linear)"/>
<path d="M143.7 15.9983H141.053C140.587 15.9983 140.238 15.6202 140.238 15.1839V12.2753C140.238 11.81 140.616 11.4609 141.053 11.4609H143.7C144.166 11.4609 144.515 11.839 144.515 12.2753V15.1839C144.515 15.6493 144.166 15.9983 143.7 15.9983Z" fill="url(#paint8_linear)"/>
<path d="M143.7 26.8772H141.053C140.587 26.8772 140.238 26.4991 140.238 26.0628V23.1542C140.238 22.6889 140.616 22.3398 141.053 22.3398H143.7C144.166 22.3398 144.515 22.718 144.515 23.1542V26.0628C144.515 26.4991 144.166 26.8772 143.7 26.8772Z" fill="url(#paint9_linear)"/>
<path d="M76.1185 262.209H91.8572L87.057 252.232H71.3184L76.1185 262.209Z" fill="url(#paint10_linear)"/>
<path d="M68.7588 262.209H72.5116L67.6824 252.232H63.9297L68.7588 262.209Z" fill="url(#paint11_linear)"/>
</g>
<defs>
<linearGradient id="paint0_linear" x1="88.2455" y1="355.669" x2="76.2679" y2="138.526" gradientUnits="userSpaceOnUse">
<stop stop-color="#D1D7E0"/>
<stop offset="1" stop-color="#EBEBFF"/>
</linearGradient>
<linearGradient id="paint1_linear" x1="284.26" y1="416.207" x2="284.26" y2="192.655" gradientUnits="userSpaceOnUse">
<stop stop-color="#D1D7E0"/>
<stop offset="1" stop-color="#EBEBFF"/>
</linearGradient>
<linearGradient id="paint2_linear" x1="77.2864" y1="278.156" x2="77.2864" y2="114.694" gradientUnits="userSpaceOnUse">
<stop stop-color="#D1D7E0"/>
<stop offset="1" stop-color="#EBEBFF"/>
</linearGradient>
<linearGradient id="paint3_linear" x1="225.453" y1="139.961" x2="225.453" y2="47.8803" gradientUnits="userSpaceOnUse">
<stop stop-color="#D1D7E0"/>
<stop offset="1" stop-color="#EBEBFF"/>
</linearGradient>
<linearGradient id="paint4_linear" x1="118.98" y1="2.86597" x2="134.027" y2="2.86597" gradientUnits="userSpaceOnUse">
<stop stop-color="#D1D7E0"/>
<stop offset="1" stop-color="#EBEBFF"/>
</linearGradient>
<linearGradient id="paint5_linear" x1="118.98" y1="13.7359" x2="134.027" y2="13.7359" gradientUnits="userSpaceOnUse">
<stop stop-color="#D1D7E0"/>
<stop offset="1" stop-color="#EBEBFF"/>
</linearGradient>
<linearGradient id="paint6_linear" x1="118.98" y1="24.6078" x2="134.027" y2="24.6078" gradientUnits="userSpaceOnUse">
<stop stop-color="#D1D7E0"/>
<stop offset="1" stop-color="#EBEBFF"/>
</linearGradient>
<linearGradient id="paint7_linear" x1="140.239" y1="2.86597" x2="144.52" y2="2.86597" gradientUnits="userSpaceOnUse">
<stop stop-color="#D1D7E0"/>
<stop offset="1" stop-color="#EBEBFF"/>
</linearGradient>
<linearGradient id="paint8_linear" x1="140.239" y1="13.7359" x2="144.52" y2="13.7359" gradientUnits="userSpaceOnUse">
<stop stop-color="#D1D7E0"/>
<stop offset="1" stop-color="#EBEBFF"/>
</linearGradient>
<linearGradient id="paint9_linear" x1="140.239" y1="24.6078" x2="144.52" y2="24.6078" gradientUnits="userSpaceOnUse">
<stop stop-color="#D1D7E0"/>
<stop offset="1" stop-color="#EBEBFF"/>
</linearGradient>
<linearGradient id="paint10_linear" x1="71.3079" y1="257.216" x2="91.8661" y2="257.216" gradientUnits="userSpaceOnUse">
<stop stop-color="#D1D7E0"/>
<stop offset="1" stop-color="#EBEBFF"/>
</linearGradient>
<linearGradient id="paint11_linear" x1="63.9433" y1="257.216" x2="72.5115" y2="257.216" gradientUnits="userSpaceOnUse">
<stop stop-color="#D1D7E0"/>
<stop offset="1" stop-color="#EBEBFF"/>
</linearGradient>
<clipPath id="clip0">
<rect width="388.696" height="480.42" fill="white" transform="translate(0.568359 0.583984)"/>
</clipPath>
</defs>
</svg>
