<svg width="714" height="443" viewBox="0 0 714 443" fill="none" xmlns="http://www.w3.org/2000/svg">
<g clip-path="url(#clip0)">
<path d="M50.5622 443.044C50.5622 443.044 -21.6652 329.912 5.7629 271.284C33.191 212.656 81.2085 223.936 100.152 178.304C119.096 132.672 112.44 59.3688 182.034 71.6347C251.629 83.9006 310.8 96.8236 340.422 58.6386C370.045 20.4537 391.695 -0.53706 457.23 28.4485C522.765 57.434 548.291 76.0884 575.024 121.392C601.758 166.695 595.065 142.054 644.107 193.892C693.148 245.73 628.966 443.007 628.966 443.007H50.5622V443.044Z" fill="#F0FAFF"/>
<path d="M151.936 442.934H27.1562C26.3516 442.934 25.6934 442.277 25.6934 441.474V257.011C25.6934 256.208 26.3516 255.551 27.1562 255.551H151.936C152.74 255.551 153.399 256.208 153.399 257.011V441.474C153.399 442.277 152.74 442.934 151.936 442.934ZM28.619 440.014H150.473V258.471H28.619V440.014Z" fill="#C5DDFF"/>
<path d="M151.936 350.719H27.1562C26.3516 350.719 25.6934 350.062 25.6934 349.259C25.6934 348.456 26.3516 347.799 27.1562 347.799H151.936C152.74 347.799 153.399 348.456 153.399 349.259C153.399 350.062 152.74 350.719 151.936 350.719Z" fill="#C5DDFF"/>
<path d="M89.5456 314.944C82.78 314.944 77.2578 309.432 77.2578 302.678C77.2578 295.924 82.78 290.412 89.5456 290.412C96.3112 290.412 101.833 295.924 101.833 302.678C101.833 309.432 96.3112 314.944 89.5456 314.944ZM89.5456 293.333C84.3891 293.333 80.1835 297.531 80.1835 302.678C80.1835 307.825 84.3891 312.023 89.5456 312.023C94.7021 312.023 98.9077 307.825 98.9077 302.678C98.9077 297.531 94.7021 293.333 89.5456 293.333Z" fill="#C5DDFF"/>
<path d="M89.5456 408.837C82.78 408.837 77.2578 403.324 77.2578 396.571C77.2578 389.817 82.78 384.305 89.5456 384.305C96.3112 384.305 101.833 389.817 101.833 396.571C101.833 403.324 96.3112 408.837 89.5456 408.837ZM89.5456 387.225C84.3891 387.225 80.1835 391.423 80.1835 396.571C80.1835 401.718 84.3891 405.916 89.5456 405.916C94.7021 405.916 98.9077 401.718 98.9077 396.571C98.9077 391.423 94.7021 387.225 89.5456 387.225Z" fill="#C5DDFF"/>
<path d="M131.772 216.319C135.117 201.696 125.953 187.134 111.303 183.795C96.6534 180.456 82.0657 189.604 78.7207 204.228C75.3757 218.851 84.5401 233.413 99.1898 236.752C113.84 240.091 128.427 230.943 131.772 216.319Z" fill="#C5DDFF"/>
<path d="M79.2323 258.472C79.086 258.472 78.9032 258.435 78.7569 258.399C77.9889 258.143 77.5866 257.304 77.8426 256.537L93.6778 211.16C93.9338 210.394 94.7749 209.992 95.5429 210.248C96.3109 210.503 96.7132 211.343 96.4572 212.11L80.622 257.486C80.4025 258.107 79.8174 258.472 79.2323 258.472Z" fill="#C5DDFF"/>
<path d="M130.468 258.472C129.846 258.472 129.298 258.107 129.078 257.486L113.243 212.11C112.987 211.343 113.389 210.503 114.157 210.248C114.925 209.992 115.766 210.394 116.022 211.16L131.858 256.537C132.114 257.304 131.711 258.143 130.943 258.399C130.797 258.472 130.651 258.472 130.468 258.472Z" fill="#C5DDFF"/>
<path d="M99.4934 184.254L82.3782 194.11C80.8422 195.023 78.8309 194.475 77.9532 192.942L75.5029 188.707C74.5886 187.174 75.1372 185.166 76.6732 184.29L93.7883 174.434C95.3243 173.521 97.3357 174.069 98.2134 175.602L100.664 179.837C101.578 181.37 101.066 183.341 99.4934 184.254Z" fill="#A9C4FF"/>
<path d="M111.708 184.254L128.823 194.11C130.359 195.023 132.371 194.475 133.249 192.942L135.699 188.707C136.613 187.174 136.064 185.166 134.529 184.29L117.413 174.434C115.877 173.521 113.866 174.069 112.988 175.602L110.538 179.837C109.624 181.37 110.172 183.341 111.708 184.254Z" fill="#A9C4FF"/>
<path d="M127.069 215.299C129.836 203.273 122.314 191.285 110.267 188.523C98.22 185.76 86.2104 193.269 83.4428 205.294C80.6752 217.32 88.1976 229.308 100.245 232.071C112.291 234.833 124.301 227.324 127.069 215.299Z" fill="white"/>
<path d="M104.649 193.819L105.308 217.839L102.894 216.744L111.963 209.005C112.585 208.494 113.499 208.567 114.011 209.151C114.523 209.772 114.45 210.684 113.865 211.195L104.796 218.935L104.759 218.971C104.137 219.482 103.223 219.409 102.711 218.825C102.455 218.533 102.345 218.204 102.382 217.839L103.04 193.819C103.04 193.381 103.442 193.016 103.881 193.016C104.284 193.016 104.613 193.381 104.649 193.819Z" fill="#A9C4FF"/>
<path d="M504.552 325.493H168.32V291.36C168.32 217.619 216.521 152.529 287.139 130.918C319.248 121.098 353.588 121.098 385.734 130.918C456.352 152.529 504.552 217.619 504.552 291.36V325.493Z" fill="#5D83E2"/>
<path d="M193.298 417.854H162.98V442.239H193.298V417.854Z" fill="#1F367F"/>
<path d="M368.143 270.078C368.143 270.078 340.349 267.121 340.422 253.212C340.422 253.212 311.97 308.737 297.123 313.483C282.275 318.229 277.191 306.62 277.191 306.62L294.672 267.194C294.672 267.194 348.066 216.998 352.125 215.392C356.184 213.786 355.526 205.609 360.573 216.597C365.62 227.585 368.143 270.078 368.143 270.078Z" fill="#415CCE"/>
<path d="M494.349 302.752V364.337H310.252L316.14 302.752H494.349Z" fill="#91CBF2"/>
<path d="M428.74 249.527L447.428 253.287L448.489 260.443L427.424 259.603L428.74 249.527Z" fill="#FF8376"/>
<path d="M444.722 260.295C444.722 260.295 453.828 273.985 458.619 267.158C463.373 260.331 454.157 256.936 460.959 246.35C467.725 235.763 469.7 220.723 463.007 218.605C456.315 216.488 457.631 233.062 453.243 239.669C448.854 246.277 443.479 252.483 443.479 252.483L444.722 260.295Z" fill="#1E294C"/>
<path d="M288.164 201.045C288.164 201.045 306.047 184.983 307.034 184.289C307.985 183.632 318.883 181.405 321.553 182.975C323.016 183.815 324.296 185.75 325.137 187.319C325.722 188.414 324.844 189.692 323.601 189.546C322.028 189.364 319.98 188.926 318.079 187.867C316.726 187.1 315.08 186.918 313.617 187.465C311.752 188.159 309.302 189.364 307.546 191.335C304.328 194.949 304.218 195.679 305.023 195.716C305.864 195.752 308.424 195.095 309.265 196.3C310.106 197.504 307.619 201.849 304.803 202.725C301.987 203.601 287.213 206.448 287.213 206.448L288.164 201.045Z" fill="#FF5652"/>
<path d="M252.944 156.071L230.453 153.698L239.523 131.648L249.433 134.094L252.103 150.814L252.944 156.071Z" fill="#FF8376"/>
<path d="M252.104 150.814C240.218 148.368 239.523 131.648 239.523 131.648L249.471 134.094L252.104 150.814Z" fill="#FF5652"/>
<path d="M388.732 290.888L398.387 303.336L406.799 300.525L397.765 285.412L388.732 290.888Z" fill="#FF8376"/>
<path d="M237.659 127.853C237.659 127.853 230.601 121.939 230.309 114.09C230.016 106.241 233.381 102.846 237.659 103.905C241.938 104.964 242.011 107.337 242.011 107.337C242.011 107.337 242.743 97.261 252.105 100.729C261.467 104.197 265.417 102.262 270.683 99.2323C275.949 96.1658 285.384 106.241 281.142 109.235C276.9 112.228 273.316 113.688 275.803 115.368C278.29 117.047 275.803 121.501 271.78 120.771C267.794 120.04 261.394 119.529 258.103 121.209C254.775 122.888 245.924 125.115 244.462 125.735C242.962 126.392 237.659 127.853 237.659 127.853Z" fill="#1E294C"/>
<path d="M264.831 124.932L268.634 130.846C268.963 131.32 268.707 131.977 268.122 132.123L263.953 133.145L264.831 124.932Z" fill="#FF5652"/>
<path d="M252.324 192.321C252.324 192.321 283.299 191.445 292.661 196.555L293.905 204.295L265.599 212.07L250.861 213.093C250.861 213.093 243.401 211.851 243.62 206.047C243.803 200.206 252.324 192.321 252.324 192.321Z" fill="#FF9831"/>
<path d="M250.788 143.624C243.913 142.894 238.903 136.761 239.598 129.861L241.499 111.682L266.477 114.274L264.575 132.453C263.881 139.353 257.7 144.354 250.788 143.624Z" fill="#FF8376"/>
<path d="M270.426 115.66C270.426 115.66 262.27 118.873 256.456 117.486C250.641 116.098 246.033 121.1 243.875 123.838C241.718 126.576 235.537 124.057 235.537 124.057L235.647 112.63C235.647 112.63 238.134 108.359 240.803 108.323C243.473 108.286 241.754 108.25 248.959 108.25C256.163 108.213 262.051 108.834 262.051 108.834L269.329 111.937L270.426 115.66Z" fill="#1E294C"/>
<path d="M241.857 131.269C244.207 130.193 245.238 127.419 244.16 125.074C243.082 122.728 240.304 121.699 237.954 122.775C235.604 123.85 234.573 126.624 235.651 128.97C236.729 131.315 239.507 132.345 241.857 131.269Z" fill="#FF8376"/>
<path d="M370.337 196.557C370.337 196.557 400.801 236.64 436.092 248.103C437.116 248.431 437.847 249.417 437.847 250.476V259.784C437.847 261.208 436.64 262.376 435.214 262.303C426.108 261.865 396.12 260.077 387.964 255.732C378.31 250.585 370.374 225.688 370.374 225.688L368.18 209.516L368.509 198.93L370.337 196.557Z" fill="#C397ED"/>
<path d="M271.852 255.404L224.164 298.043C224.164 298.043 188.727 262.669 188.727 218.68C188.727 178.815 223.652 153.736 230.161 149.392C230.783 148.99 231.551 148.954 232.209 149.282C233.709 150.085 236.854 151.546 241.096 152.714C245.046 153.773 249.288 153.955 251.738 153.955C252.908 153.955 253.823 154.904 253.786 156.072C252.689 182.758 254.92 204.223 257.845 219.008C260.917 234.56 265.123 244.307 268.122 249.746C270.316 253.689 271.852 255.404 271.852 255.404Z" fill="#FFDF99"/>
<path d="M268.122 249.708C236.379 250.585 226.541 225.724 226.541 225.724C226.541 225.724 245.521 220.65 257.846 218.971C260.918 234.522 265.123 244.269 268.122 249.708Z" fill="#FF9831"/>
<path d="M437.81 307.388C437.81 314.397 422.852 317.026 410.674 313.777C398.496 310.528 398.057 320.311 390.085 317.829C382.624 315.492 390.377 304.103 391.328 302.752H409.467C411.113 303.336 412.905 303.92 414.697 304.468C422.377 306.622 437.81 300.416 437.81 307.388Z" fill="#506FD1"/>
<path d="M400.984 287.128C402.008 288.004 401.642 289.647 400.399 290.085L395.316 291.8L394.877 291.947L393.78 292.312L393.158 292.531L388.843 293.991C388.257 294.173 387.636 294.064 387.16 293.699C382.37 289.793 355.965 267.853 351.431 255.404C346.457 241.715 354.868 225.835 352.052 225.835C349.236 225.835 321.223 266.137 309.667 280.301C254.408 347.873 220.178 302.825 218.898 285.85C218.861 285.521 218.861 285.193 218.861 284.901C218.861 284.645 218.861 284.39 218.861 284.134C219.008 269.642 223.579 260.515 236.379 250.768C256.346 235.509 354.21 181.042 362.329 183.561C370.447 186.044 370.118 192.578 370.74 205.026C371.398 216.854 383.357 271.868 400.984 287.128Z" fill="#BC8BEC"/>
<path d="M395.424 299.539C395.424 299.539 386.135 312.279 394.071 314.762C402.007 317.244 402.482 307.461 414.66 310.71C426.802 313.995 441.796 311.33 441.796 304.321C441.796 297.312 426.363 303.555 418.719 301.364C411.076 299.174 403.872 295.633 403.872 295.633L395.424 299.539Z" fill="#1E294C"/>
<path d="M292.917 219.261C291.893 219.261 290.942 218.714 290.43 217.765C289.736 216.414 290.248 214.735 291.601 214.004L341.666 187.976L362.548 131.83C363.097 130.406 364.669 129.64 366.132 130.187C367.558 130.735 368.326 132.305 367.778 133.765L346.53 190.933C346.274 191.59 345.835 192.101 345.214 192.43L294.197 218.969C293.795 219.152 293.32 219.261 292.917 219.261Z" fill="#1E294C"/>
<path d="M292.113 202.652C292.113 202.652 306.778 183.596 307.583 182.757C308.424 181.917 318.7 177.792 321.626 178.814C323.235 179.398 324.808 181.041 325.941 182.428C326.709 183.377 326.087 184.801 324.844 184.911C323.272 185.02 321.187 184.947 319.102 184.253C317.603 183.742 315.994 183.888 314.641 184.691C312.922 185.714 310.728 187.356 309.375 189.62C306.888 193.781 306.888 194.512 307.729 194.402C308.57 194.292 310.947 193.161 312.008 194.183C313.032 195.205 311.386 199.951 308.79 201.302C306.193 202.652 292.15 208.165 292.15 208.165V202.652H292.113Z" fill="#FF8376"/>
<path d="M220.946 163.263C220.946 163.263 196.005 214.699 208.878 236.493C221.75 258.287 280.373 222.183 294.49 208.895L293.246 199.768C293.246 199.768 259.784 202.689 235.245 211.815C235.245 211.815 238.975 174.433 245.412 168.045C245.448 168.045 241.938 152.092 220.946 163.263Z" fill="#FFC33E"/>
<path d="M395.316 291.799L394.877 291.946L393.78 292.311C383.138 277.745 374.507 262.303 368.07 246.24C360.903 228.316 358.306 214.188 357.392 207.362C357.319 206.851 356.989 206.486 356.514 206.34C356.039 206.194 355.563 206.34 355.234 206.705C346.018 217.401 313.47 254.162 281.91 277.161C262.308 291.471 246.107 292.968 235.976 291.727C226.578 290.558 220.617 286.981 218.898 285.813C218.861 285.484 218.861 285.155 218.861 284.863C218.861 284.608 218.861 284.352 218.861 284.097C219.008 284.097 219.19 284.133 219.3 284.243C219.373 284.279 225.59 288.916 236.232 290.23C246.07 291.434 261.796 289.901 280.959 275.92C312.373 253.03 344.848 216.379 354.027 205.719C354.759 204.879 355.856 204.551 356.916 204.879C357.977 205.208 358.708 206.084 358.855 207.143C360.354 217.949 367.01 253.103 395.316 291.799Z" fill="white"/>
<path d="M235.281 212.583C235.098 212.583 234.952 212.547 234.805 212.437C234.586 212.291 234.476 212.036 234.513 211.743C234.513 211.597 236.085 196.338 238.828 183.78C238.901 183.379 239.34 183.123 239.742 183.196C240.145 183.269 240.401 183.707 240.328 184.109C238.06 194.549 236.597 206.852 236.158 210.685C251.262 205.245 269.365 202.069 282.018 200.317C282.42 200.244 282.823 200.536 282.859 200.974C282.896 201.412 282.64 201.777 282.201 201.814C269.292 203.566 250.75 206.852 235.537 212.51C235.464 212.583 235.354 212.583 235.281 212.583Z" fill="#ED6724"/>
<path d="M261.027 124.933C261.027 125.773 260.332 126.466 259.491 126.466C258.65 126.466 257.955 125.773 257.955 124.933C257.955 124.093 258.65 123.4 259.491 123.4C260.332 123.363 261.027 124.057 261.027 124.933Z" fill="#1E294C"/>
<path d="M255.835 122.375C255.615 122.375 255.396 122.266 255.25 122.083C255.03 121.755 255.067 121.317 255.396 121.098C255.542 120.988 259.199 118.36 262.162 119.491C262.527 119.637 262.71 120.039 262.564 120.404C262.418 120.769 262.015 120.952 261.65 120.806C259.784 120.075 257.115 121.572 256.274 122.229C256.127 122.302 255.981 122.375 255.835 122.375Z" fill="#1E294C"/>
<path d="M259.748 139.497C254.994 139.424 254.848 136.613 254.848 136.504C254.848 136.102 255.14 135.773 255.543 135.773C255.945 135.773 256.274 136.066 256.274 136.431C256.274 136.54 256.493 138.037 259.785 138.073C260.187 138.073 260.48 138.402 260.48 138.803C260.443 139.168 260.15 139.497 259.748 139.497Z" fill="#1E294C"/>
<path d="M310.253 364.337H174.758V302.752H316.141L310.253 364.337Z" fill="#91CBF2"/>
<path d="M496.213 357.982H176.621V397.445H496.213V357.982Z" fill="#506FD1"/>
<path d="M201.71 424.352H154.57V269.531L201.71 274.277V424.352Z" fill="#729FED"/>
<path d="M162.287 314.396C184.06 314.396 201.71 296.777 201.71 275.043C201.71 253.308 184.06 235.689 162.287 235.689C140.514 235.689 122.863 253.308 122.863 275.043C122.863 296.777 140.514 314.396 162.287 314.396Z" fill="#729FED"/>
<path d="M177.663 277.409C179.827 268.93 174.696 260.305 166.202 258.145C157.708 255.984 149.067 261.106 146.903 269.585C144.739 278.064 149.87 286.689 158.364 288.849C166.858 291.01 175.498 285.888 177.663 277.409Z" fill="white"/>
<path d="M178.852 401.973C178.34 401.973 177.938 401.571 177.938 401.06V275.59C177.938 266.975 170.916 259.966 162.285 259.966C161.773 259.966 161.371 259.564 161.371 259.053C161.371 258.542 161.773 258.141 162.285 258.141C171.903 258.141 179.766 265.953 179.766 275.59V401.06C179.766 401.571 179.327 401.973 178.852 401.973Z" fill="white"/>
<path d="M515.78 417.854H485.463V442.239H515.78V417.854Z" fill="#1F367F"/>
<path d="M477.051 424.352H524.191V269.531L477.051 274.277V424.352Z" fill="#729FED"/>
<path d="M516.474 314.396C538.247 314.396 555.897 296.777 555.897 275.043C555.897 253.308 538.247 235.689 516.474 235.689C494.701 235.689 477.051 253.308 477.051 275.043C477.051 296.777 494.701 314.396 516.474 314.396Z" fill="#729FED"/>
<path d="M519.034 289.144C527.686 287.743 533.562 279.604 532.158 270.967C530.754 262.33 522.601 256.464 513.948 257.866C505.296 259.268 499.42 267.406 500.824 276.043C502.228 284.681 510.381 290.546 519.034 289.144Z" fill="white"/>
<path d="M499.946 401.973C499.434 401.973 499.031 401.571 499.031 401.06V275.59C499.031 265.989 506.857 258.141 516.512 258.141C517.024 258.141 517.426 258.542 517.426 259.053C517.426 259.564 517.024 259.966 516.512 259.966C507.881 259.966 500.86 266.975 500.86 275.59V401.06C500.86 401.571 500.421 401.973 499.946 401.973Z" fill="white"/>
<path d="M426.583 341.922H242.522C235.976 341.922 230.637 336.629 230.637 330.058C230.637 323.523 235.939 318.193 242.522 318.193H426.583C433.129 318.193 438.469 323.487 438.469 330.058C438.469 336.629 433.166 341.922 426.583 341.922Z" fill="#D2EEFF"/>
<path d="M344.445 397.445H201.709V357.982L344.445 397.445Z" fill="#4357BA"/>
<path d="M390.123 167.277C390.745 167.533 391.293 167.861 391.842 168.19C392.39 168.519 392.866 168.884 393.378 169.212C394.365 169.942 395.243 170.709 396.084 171.512C397.766 173.155 399.193 174.944 400.473 176.805C401.753 178.704 402.85 180.711 403.691 182.902C404.13 183.997 404.496 185.129 404.788 186.297C404.934 186.881 405.044 187.502 405.154 188.122C405.264 188.743 405.337 189.363 405.337 190.057C404.715 189.801 404.166 189.473 403.618 189.144C403.069 188.816 402.594 188.451 402.082 188.122C401.094 187.392 400.217 186.625 399.376 185.822C397.693 184.18 396.267 182.391 394.987 180.492C393.707 178.594 392.61 176.586 391.769 174.396C391.33 173.301 390.964 172.169 390.672 171.001C390.525 170.417 390.379 169.796 390.306 169.176C390.233 168.592 390.16 167.934 390.123 167.277Z" fill="#4357BA"/>
<path d="M408.263 170.672C408.08 171.329 407.824 171.913 407.531 172.461C407.275 173.045 406.983 173.556 406.653 174.103C406.032 175.162 405.373 176.148 404.642 177.06C403.216 178.922 401.607 180.528 399.851 182.025C398.096 183.485 396.231 184.8 394.146 185.931C393.122 186.479 392.025 186.99 390.891 187.391C390.306 187.611 389.721 187.793 389.136 187.976C388.514 188.158 387.893 188.304 387.234 188.377C387.417 187.72 387.673 187.136 387.966 186.588C388.222 186.004 388.514 185.493 388.807 184.946C389.429 183.887 390.087 182.901 390.818 181.989C392.245 180.127 393.854 178.521 395.609 177.024C397.364 175.564 399.23 174.249 401.314 173.154C402.338 172.607 403.435 172.096 404.569 171.694C405.154 171.475 405.739 171.292 406.324 171.11C406.946 170.891 407.568 170.745 408.263 170.672Z" fill="#4357BA"/>
<path d="M417.001 267.996C417.477 268.106 417.952 268.215 418.354 268.361C418.757 268.507 419.159 268.69 419.525 268.836C420.256 269.201 420.914 269.602 421.499 270.04C422.706 270.953 423.657 272.012 424.425 273.18C425.193 274.348 425.815 275.626 426.181 277.086C426.363 277.816 426.473 278.583 426.546 279.386C426.583 279.788 426.583 280.226 426.546 280.664C426.546 281.102 426.473 281.576 426.363 282.051C425.888 281.941 425.412 281.832 425.01 281.686C424.608 281.54 424.206 281.357 423.84 281.211C423.109 280.846 422.45 280.445 421.865 280.007C420.658 279.094 419.707 278.035 418.94 276.867C418.172 275.699 417.55 274.421 417.184 272.961C417.001 272.231 416.892 271.464 416.818 270.661C416.782 270.259 416.782 269.821 416.818 269.383C416.855 268.945 416.928 268.471 417.001 267.996Z" fill="#4357BA"/>
<path d="M428.156 270.077C428.119 270.588 428.046 271.026 427.936 271.464C427.826 271.902 427.717 272.304 427.57 272.669C427.278 273.436 426.949 274.129 426.583 274.786C425.815 276.064 424.864 277.123 423.804 278.035C422.743 278.948 421.5 279.678 420.11 280.226C419.415 280.481 418.684 280.7 417.879 280.846C417.477 280.919 417.075 280.956 416.636 280.992C416.197 281.029 415.722 281.029 415.246 280.992C415.283 280.481 415.356 280.043 415.466 279.605C415.575 279.167 415.685 278.765 415.831 278.4C416.124 277.634 416.453 276.94 416.819 276.283C417.587 275.005 418.537 273.947 419.598 273.034C420.695 272.121 421.902 271.391 423.292 270.844C423.986 270.588 424.718 270.369 425.522 270.223C425.925 270.15 426.327 270.114 426.766 270.077C427.205 270.041 427.68 270.041 428.156 270.077Z" fill="#4357BA"/>
<path d="M412.357 99.8164L402.446 140.374C401.422 144.536 406.25 147.602 409.614 144.937L459.972 104.927L412.357 99.8164Z" fill="#C5DDFF"/>
<path d="M622.236 286.544C622.163 284.572 622.163 282.711 622.2 280.812C622.2 278.914 622.273 277.016 622.346 275.154C622.492 271.394 622.712 267.597 623.004 263.837C623.297 260.077 623.699 256.317 624.175 252.557C624.65 248.797 625.199 245.073 625.857 241.35C627.137 233.903 628.856 226.528 630.977 219.3C633.134 212.072 635.804 204.954 639.059 198.127C639.242 197.689 639.461 197.287 639.681 196.849L640.339 195.572C640.778 194.732 641.18 193.892 641.655 193.053L643.045 190.57C643.265 190.169 643.521 189.731 643.74 189.329L644.508 188.125L646.007 185.715C646.519 184.912 647.104 184.145 647.616 183.379C648.714 181.809 649.774 180.312 650.871 178.816C652.956 175.749 654.967 172.61 656.723 169.324L657.381 168.119C657.6 167.718 657.783 167.28 658.003 166.878C658.405 166.039 658.844 165.235 659.246 164.396L660.38 161.84C660.745 161.001 661.075 160.125 661.44 159.249C664.146 152.349 665.902 145.011 666.231 137.564C666.414 133.841 666.231 130.117 665.682 126.43C665.39 124.605 665.024 122.743 664.512 120.954C664.256 120.041 664 119.165 663.671 118.289C663.342 117.413 663.013 116.537 662.61 115.697C663.049 116.537 663.415 117.377 663.744 118.253C664.073 119.129 664.402 120.005 664.658 120.918C665.207 122.706 665.646 124.532 665.975 126.393C666.633 130.081 666.926 133.841 666.853 137.601C666.706 145.121 665.134 152.605 662.61 159.723C662.281 160.599 661.989 161.512 661.623 162.388L660.526 165.016C660.16 165.893 659.758 166.732 659.356 167.608C659.173 168.046 658.953 168.484 658.771 168.886L658.112 170.127C656.43 173.522 654.492 176.735 652.444 179.911C651.383 181.48 650.323 183.05 649.335 184.583C648.823 185.35 648.311 186.117 647.836 186.92L646.41 189.329L645.715 190.534C645.495 190.935 645.276 191.337 645.057 191.775L643.74 194.221C643.301 195.024 642.935 195.9 642.533 196.703L641.948 197.945C641.765 198.346 641.546 198.784 641.363 199.222C638.364 206.012 635.95 213.021 634.049 220.176C632.147 227.332 630.721 234.633 629.624 241.97C629.075 245.657 628.636 249.345 628.271 253.032C627.905 256.719 627.649 260.442 627.429 264.129C627.247 267.816 627.137 271.54 627.1 275.264C627.1 277.125 627.1 278.951 627.137 280.812C627.173 282.638 627.21 284.536 627.32 286.288V286.325C627.393 287.748 626.332 288.953 624.906 289.026C623.48 289.099 622.273 288.041 622.2 286.617C622.236 286.58 622.236 286.544 622.236 286.544Z" fill="#5A8FE2"/>
<path d="M573.087 291.215V322.026C573.087 323.596 571.807 324.837 570.271 324.837H547.853C546.28 324.837 545.037 323.559 545.037 322.026V291.215C545.037 289.646 546.317 288.404 547.853 288.404H570.271C571.807 288.404 573.087 289.682 573.087 291.215Z" fill="#FFDF99"/>
<path d="M573.085 319.069C567.161 319.069 562.297 313.483 562.297 306.62C562.297 299.757 567.124 294.172 573.085 294.172C579.01 294.172 583.874 299.757 583.874 306.62C583.874 313.483 579.01 319.069 573.085 319.069ZM573.085 297.129C568.77 297.129 565.223 301.4 565.223 306.657C565.223 311.914 568.733 316.185 573.085 316.185C577.401 316.185 580.948 311.914 580.948 306.657C580.948 301.4 577.401 297.129 573.085 297.129Z" fill="#FFDF99"/>
<path d="M643.557 281.211L634.927 322.061C634.597 323.631 633.244 324.762 631.635 324.835C631.599 324.835 631.562 324.835 631.489 324.835H614.374C612.728 324.835 611.302 323.667 610.936 322.061L602.306 281.211C601.867 279.021 603.512 276.977 605.743 276.977H640.12C642.35 276.977 644.033 279.057 643.557 281.211Z" fill="#7AAEF9"/>
<path d="M652.189 327.977H530.81C530.006 327.977 529.348 327.32 529.348 326.517C529.348 325.714 530.006 325.057 530.81 325.057H652.189C652.994 325.057 653.652 325.714 653.652 326.517C653.652 327.32 652.994 327.977 652.189 327.977Z" fill="#C5DDFF"/>
<path d="M640.998 443.808C640.376 443.808 639.791 443.406 639.608 442.749L605.451 326.917C605.232 326.15 605.67 325.347 606.438 325.092C607.206 324.873 608.011 325.311 608.267 326.077L642.424 441.91C642.643 442.676 642.205 443.479 641.437 443.735C641.29 443.771 641.144 443.808 640.998 443.808Z" fill="#C5DDFF"/>
<path d="M541.964 443.809C541.817 443.809 541.671 443.772 541.562 443.736C540.794 443.517 540.355 442.714 540.574 441.911L574.731 326.078C574.951 325.312 575.755 324.873 576.56 325.093C577.328 325.312 577.767 326.115 577.547 326.918L543.39 442.75C543.171 443.407 542.585 443.809 541.964 443.809Z" fill="#C5DDFF"/>
<path d="M552.24 109.379H388.988C384.051 109.379 380.064 105.4 380.064 100.472V19.4289C380.064 14.5006 384.051 10.5215 388.988 10.5215H552.24C557.177 10.5215 561.163 14.5006 561.163 19.4289V100.472C561.2 105.363 557.177 109.379 552.24 109.379Z" fill="#C5DDFF"/>
<path d="M396.926 48.2701C399.339 41.4435 405.52 36.8438 412.651 35.7486C413.675 35.6026 414.516 35.1646 415.028 34.0694C416.893 30.1268 430.059 23.7748 440.152 27.9364C450.246 32.0981 455.512 43.1958 462.314 46.9559C469.116 50.716 453.976 75.3573 457.926 80.103C461.875 84.8488 457.706 95.1799 451.123 98.2099C444.541 101.276 425.89 103.686 418.539 102.591C411.188 101.495 391.879 98.6479 393.415 89.4485C394.951 80.2491 397.438 71.0496 395.426 60.755C394.622 56.6664 395.536 52.1762 396.926 48.2701Z" fill="#D2E6FF"/>
<path d="M417.222 41.9541C418.392 42.6112 419.855 41.8446 419.855 40.4939C419.855 37.1354 421.062 32.8277 427.096 32.6086C437.044 32.2801 445.455 33.8133 445.674 39.1432C445.894 44.4365 444.029 50.2044 448.893 55.3882C453.756 60.572 456.536 61.4116 455.439 66.0114C454.342 70.6111 449.916 73.7141 450.794 80.1391C451.672 86.5641 446.698 95.0699 441.505 94.4858C436.312 93.9017 428.961 87.7322 423.476 88.9734C418.027 90.1781 412.139 93.2811 406.068 89.9591C399.997 86.6371 402.191 77.6932 404.642 73.8966C407.092 70.0635 398.9 62.6893 401.094 53.1613C403.033 44.8015 409.835 37.6464 417.222 41.9541Z" fill="#1E294C"/>
<path d="M432.069 98.2478H418.976C416.928 98.2478 415.393 96.386 415.795 94.3782L418.538 80.3235L419.781 73.8984L431.63 74.0445L432.91 81.1631L435.287 94.4147C435.616 96.4225 434.08 98.2478 432.069 98.2478Z" fill="#FF8376"/>
<path d="M432.874 81.1631C430.936 82.2947 428.705 82.9518 426.292 82.9518C423.366 82.9518 420.66 81.9662 418.502 80.3234L419.745 73.8984L431.594 74.0445L432.874 81.1631Z" fill="#FF5652"/>
<path d="M563.286 20.5627H377.981C374.288 20.5627 371.289 17.5692 371.289 13.8821V7.05554C371.289 3.36846 374.288 0.375 377.981 0.375H563.286C566.98 0.375 569.978 3.36846 569.978 7.05554V13.8821C569.978 17.5692 566.98 20.5627 563.286 20.5627Z" fill="#9FC6FF"/>
<path d="M426.327 80.1022C419.232 80.1022 413.49 74.3708 413.49 67.2887V46.9551H439.126V67.2887C439.163 74.3708 433.421 80.1022 426.327 80.1022Z" fill="#FF8376"/>
<path d="M439.164 67.3994C441.729 67.3994 443.808 65.3237 443.808 62.7632C443.808 60.2027 441.729 58.127 439.164 58.127C436.599 58.127 434.52 60.2027 434.52 62.7632C434.52 65.3237 436.599 67.3994 439.164 67.3994Z" fill="#FF8376"/>
<path d="M412.832 67.3994C415.397 67.3994 417.477 65.3237 417.477 62.7632C417.477 60.2027 415.397 58.127 412.832 58.127C410.267 58.127 408.188 60.2027 408.188 62.7632C408.188 65.3237 410.267 67.3994 412.832 67.3994Z" fill="#FF8376"/>
<path d="M410.164 53.2729C410.164 53.2729 416.93 55.0252 420.002 51.6302C423.11 48.1986 424.024 50.754 426.328 53.2729C428.632 55.8283 430.973 55.1347 431.741 52.3968C432.509 49.6223 437.373 56.1569 440.152 56.0473C442.932 55.9378 443.041 54.8427 442.822 52.5063C442.602 50.1699 440.957 44.11 440.957 44.11L437.739 42.1387L422.342 43.0148C422.342 43.0148 420.587 43.2338 416.381 44.2195C412.175 45.2051 411.078 46.0813 411.078 46.0813L410.164 53.2729Z" fill="#1E294C"/>
<path d="M543.245 37.2457H478.844C477.527 37.2457 476.467 36.1871 476.467 34.8729C476.467 33.5587 477.527 32.5 478.844 32.5H543.245C544.562 32.5 545.622 33.5587 545.622 34.8729C545.622 36.1871 544.562 37.2457 543.245 37.2457Z" fill="white"/>
<path d="M511.061 52.359H478.879C477.563 52.359 476.502 51.3004 476.502 49.9862C476.502 48.6719 477.563 47.6133 478.879 47.6133H511.061C512.378 47.6133 513.439 48.6719 513.439 49.9862C513.439 51.3004 512.378 52.359 511.061 52.359Z" fill="white"/>
<path d="M401.606 14.9394C404.09 14.9394 406.104 12.929 406.104 10.4492C406.104 7.96931 404.09 5.95898 401.606 5.95898C399.121 5.95898 397.107 7.96931 397.107 10.4492C397.107 12.929 399.121 14.9394 401.606 14.9394Z" fill="white"/>
<path d="M384.344 14.9394C386.828 14.9394 388.842 12.929 388.842 10.4492C388.842 7.96931 386.828 5.95898 384.344 5.95898C381.86 5.95898 379.846 7.96931 379.846 10.4492C379.846 12.929 381.86 14.9394 384.344 14.9394Z" fill="#5D83E2"/>
<path d="M144.066 199.269C146.134 198.407 147.111 196.033 146.247 193.968C145.384 191.903 143.006 190.928 140.937 191.79C138.869 192.653 137.892 195.026 138.755 197.091C139.619 199.156 141.997 200.131 144.066 199.269Z" fill="#A9C4FF"/>
<path d="M401.145 430.355C401.504 428.146 400.001 426.065 397.788 425.706C395.575 425.348 393.49 426.848 393.131 429.057C392.772 431.266 394.275 433.347 396.488 433.706C398.701 434.064 400.786 432.564 401.145 430.355Z" fill="#C5DDFF"/>
<path d="M647.471 388.54C649.713 388.54 651.531 386.726 651.531 384.488C651.531 382.25 649.713 380.436 647.471 380.436C645.23 380.436 643.412 382.25 643.412 384.488C643.412 386.726 645.23 388.54 647.471 388.54Z" fill="#C5DDFF"/>
<path d="M71.2319 122.295C71.5922 120.086 70.0905 118.004 67.8777 117.644C65.6649 117.285 63.579 118.784 63.2187 120.993C62.8585 123.202 64.3602 125.284 66.573 125.643C68.7858 126.003 70.8716 124.504 71.2319 122.295Z" fill="#FFDF99"/>
<path d="M295.478 49.0015C297.053 49.0015 298.33 47.7267 298.33 46.1541C298.33 44.5815 297.053 43.3066 295.478 43.3066C293.902 43.3066 292.625 44.5815 292.625 46.1541C292.625 47.7267 293.902 49.0015 295.478 49.0015Z" fill="#FFDF99"/>
<path d="M337.98 174.343C340.014 173.502 340.98 171.175 340.137 169.144C339.295 167.114 336.963 166.15 334.929 166.991C332.895 167.832 331.929 170.16 332.772 172.19C333.614 174.22 335.946 175.184 337.98 174.343Z" fill="#FFDF99"/>
<path d="M325.283 152.786C329.484 152.786 332.889 149.386 332.889 145.193C332.889 140.999 329.484 137.6 325.283 137.6C321.081 137.6 317.676 140.999 317.676 145.193C317.676 149.386 321.081 152.786 325.283 152.786Z" fill="#FFDF99"/>
<path d="M354.357 127.355C358.485 123.234 358.485 116.555 354.357 112.434C350.23 108.314 343.538 108.314 339.411 112.435C335.283 116.555 335.283 123.234 339.411 127.355C343.538 131.475 350.23 131.475 354.357 127.355Z" fill="#FFDF99"/>
<path d="M523.639 276.445C525.27 272.515 523.4 268.009 519.463 266.381C515.526 264.753 511.012 266.619 509.381 270.549C507.75 274.48 509.62 278.986 513.557 280.614C517.494 282.242 522.008 280.375 523.639 276.445Z" fill="#1F367F"/>
<path d="M167.165 279.517C170.479 276.842 170.994 271.992 168.314 268.684C165.635 265.376 160.776 264.862 157.462 267.536C154.148 270.211 153.633 275.061 156.312 278.369C158.992 281.678 163.85 282.192 167.165 279.517Z" fill="#1F367F"/>
<path d="M218.715 8.29688H105.894C90.7169 8.29688 78.3926 20.5993 78.3926 35.7492V53.5274C78.3926 68.6773 90.7169 80.9797 105.894 80.9797H182.619L206.902 101.678C210.121 104.416 215.094 102.043 214.948 97.8088L214.363 80.9797H218.751C233.928 80.9797 246.253 68.6773 246.253 53.5274V35.7492C246.216 20.5628 233.892 8.29688 218.715 8.29688Z" fill="#FFDF99"/>
<path d="M113.026 50.7516C117.247 50.7516 120.669 47.3356 120.669 43.1219C120.669 38.9081 117.247 35.4922 113.026 35.4922C108.805 35.4922 105.383 38.9081 105.383 43.1219C105.383 47.3356 108.805 50.7516 113.026 50.7516Z" fill="#9743E8"/>
<path d="M194.468 36.8082C198.689 36.8082 202.111 33.3923 202.111 29.1785C202.111 24.9648 198.689 21.5488 194.468 21.5488C190.246 21.5488 186.824 24.9648 186.824 29.1785C186.824 33.3923 190.246 36.8082 194.468 36.8082Z" fill="#5D83E2"/>
<path d="M125.934 46.4446C127.105 46.4446 128.055 45.4966 128.055 44.3273C128.055 43.1579 127.105 42.21 125.934 42.21C124.762 42.21 123.812 43.1579 123.812 44.3273C123.812 45.4966 124.762 46.4446 125.934 46.4446Z" fill="#FF9343"/>
<path d="M132.846 46.4436C134.017 46.4436 134.967 45.4957 134.967 44.3263C134.967 43.1569 134.017 42.209 132.846 42.209C131.674 42.209 130.725 43.1569 130.725 44.3263C130.725 45.4957 131.674 46.4436 132.846 46.4436Z" fill="#FF9343"/>
<path d="M139.795 46.4436C140.966 46.4436 141.916 45.4957 141.916 44.3263C141.916 43.1569 140.966 42.209 139.795 42.209C138.623 42.209 137.674 43.1569 137.674 44.3263C137.674 45.4957 138.623 46.4436 139.795 46.4436Z" fill="#FF9343"/>
<path d="M631.635 324.835C631.599 324.835 631.562 324.835 631.489 324.835H614.374C612.728 324.835 611.302 323.667 610.936 322.061L602.306 281.211C601.867 279.021 603.512 276.977 605.743 276.977H632.696C625.894 283.402 607.243 304.502 631.635 324.835Z" fill="#5A8FE2"/>
<path d="M714.468 201.048C714.468 201.048 705.179 204.187 695.452 200.792C692.453 199.734 689.381 198.054 686.565 195.462C678.227 187.76 665.719 182.941 656.76 182.722C652.883 182.612 649.665 183.379 647.727 185.095L654.09 175.64C654.09 175.64 671.278 159.979 680.494 173.011C689.71 186.044 695.122 200.354 714.468 201.048Z" fill="#5A8FE2"/>
<path d="M95.2514 435.705H88.2664C72.7238 435.705 60.9845 421.687 63.7273 406.428L67.2015 386.897C69.3226 375.033 79.6722 366.381 91.7771 366.381C95.3245 366.381 98.689 367.111 101.761 368.462C103.955 369.411 105.967 370.652 107.759 372.185C112.111 375.836 115.256 380.947 116.316 386.897L116.353 387.153V387.226L119.79 406.428C122.533 421.724 110.794 435.705 95.2514 435.705Z" fill="#FFDF99"/>
<path d="M626.553 249.891L623.92 260.441C623.92 260.441 622.164 233.901 617.849 215.941C616.423 210.1 614.74 205.171 612.766 202.361C604.647 190.971 600.953 196.556 594.882 208.165C592.871 211.998 590.165 214.699 587.385 216.561C581.827 220.358 576.158 220.832 576.158 220.832C592.908 209.37 580.693 175.675 606.841 183.414C632.989 191.153 626.553 249.891 626.553 249.891Z" fill="#5A8FE2"/>
<path d="M640.195 198.636L634.343 209.953C634.343 209.953 635.257 199.403 635.367 187.283C635.477 172.023 634.307 154.209 628.272 151.763C617.776 147.492 610.426 161.145 610.023 161.875C610.097 161.583 610.828 159.465 612.218 156.581C616.277 148.003 625.932 132.707 640.999 139.643C661.515 149.061 640.195 198.636 640.195 198.636Z" fill="#5A8FE2"/>
<path d="M116.39 387.189C108.344 384.305 91.5215 374.485 91.5215 374.485L100.847 368.535C100.847 368.535 101.176 368.498 101.761 368.498C103.956 369.447 105.967 370.688 107.759 372.222C112.111 375.872 115.256 380.983 116.317 386.933L116.39 387.189Z" fill="#FFA748"/>
<path d="M688.358 215.394C688.358 215.394 686.346 223.717 673.29 224.521C672.12 224.594 670.95 224.63 669.816 224.667C658.552 224.886 650.36 223.133 645.643 229.85C643.156 233.355 639.024 236.166 635.33 238.174C631.234 240.4 627.76 241.605 627.76 241.605L629.991 229.814C629.991 229.814 639.865 210.028 652.189 216.745C664.513 223.535 688.358 215.394 688.358 215.394Z" fill="#5A8FE2"/>
<path d="M635.367 187.281C635.477 172.022 634.307 154.207 628.272 151.761C617.776 147.49 610.426 161.143 610.023 161.873C610.097 161.581 610.828 159.464 612.218 156.58C617.082 149.608 625.347 140.992 632.697 149.206C640.121 157.42 637.817 175.636 635.367 187.281Z" fill="#7AAEF9"/>
<path d="M695.452 200.791C692.453 199.733 689.381 198.053 686.565 195.461C678.227 187.759 665.72 182.94 656.76 182.721C658.808 181.115 661.624 179.764 665.135 179.873C673.253 180.165 685.687 190.643 692.27 197.834C693.221 198.929 694.318 199.915 695.452 200.791Z" fill="#7AAEF9"/>
<path d="M617.848 215.939C616.422 210.098 614.74 205.17 612.765 202.359C604.646 190.969 600.953 196.555 594.882 208.164C592.87 211.997 590.164 214.698 587.385 216.56C588.08 214.917 588.848 213.128 589.652 211.157C593.09 202.907 596.089 188.231 606.475 193.634C614.155 197.65 617.848 208.127 617.848 215.939Z" fill="#7AAEF9"/>
<path d="M669.816 224.667C658.553 224.886 650.361 223.134 645.643 229.851C643.156 233.355 639.024 236.166 635.33 238.174C635.769 236.604 636.72 234.889 638.548 233.319C643.815 228.829 645.899 222.988 652.189 222.696C656.285 222.513 664.514 223.754 669.816 224.667Z" fill="#7AAEF9"/>
<path d="M621.506 280.847C622.018 279.058 622.567 277.379 623.188 275.7C623.81 274.02 624.505 272.341 625.236 270.698C626.736 267.413 628.418 264.237 630.576 261.28C631.636 259.82 632.843 258.396 634.16 257.118C635.513 255.84 636.976 254.709 638.658 253.869C640.34 253.03 642.205 252.482 644.107 252.409C646.009 252.336 647.91 252.737 649.593 253.358C651.275 253.942 652.957 254.636 654.566 255.475C656.175 256.315 657.711 257.264 659.137 258.396C660.564 259.528 661.844 260.805 662.904 262.302C663.928 263.799 664.733 265.551 664.733 267.449C664.733 268.398 664.513 269.348 664.001 270.151C663.526 270.954 662.758 271.574 661.917 271.976C661.076 272.378 660.161 272.56 659.247 272.633C658.333 272.67 657.455 272.67 656.577 272.524C654.822 272.268 653.03 271.611 651.75 270.37C651.421 270.078 651.128 269.713 650.836 269.384C650.58 269.019 650.324 268.654 650.104 268.252C649.702 267.486 649.373 266.646 649.227 265.77C649.41 266.646 649.739 267.449 650.178 268.216C650.397 268.617 650.653 268.946 650.909 269.311C651.202 269.64 651.494 269.968 651.823 270.224C653.14 271.392 654.859 271.976 656.577 272.159C658.296 272.305 660.125 272.268 661.624 271.501C662.356 271.136 663.014 270.552 663.416 269.822C663.819 269.092 664.001 268.289 663.965 267.449C663.892 265.77 663.124 264.2 662.136 262.813C661.112 261.426 659.869 260.258 658.443 259.236C657.053 258.213 655.554 257.337 653.981 256.607C652.408 255.84 650.799 255.256 649.117 254.745C648.276 254.453 647.508 254.271 646.667 254.161C645.862 254.052 645.021 254.015 644.18 254.052C642.534 254.161 640.962 254.672 639.499 255.475C638.036 256.279 636.72 257.337 635.549 258.542C634.379 259.747 633.319 261.097 632.331 262.521C630.429 265.368 628.857 268.471 627.54 271.684C626.882 273.29 626.297 274.933 625.748 276.576C625.2 278.218 624.688 279.898 624.322 281.54V281.577C624.139 282.344 623.335 282.855 622.567 282.636C621.799 282.453 621.287 281.65 621.506 280.883V280.847Z" fill="#5A8FE2"/>
<path d="M631.234 218.97C631.307 216.049 631.234 213.092 631.124 210.135C630.978 207.178 630.795 204.221 630.466 201.301C630.136 198.38 629.698 195.46 629.112 192.576C628.491 189.692 627.723 186.845 626.626 184.18C626.04 182.829 625.382 181.551 624.578 180.347C624.175 179.762 623.737 179.178 623.261 178.667C622.786 178.156 622.237 177.682 621.652 177.317C621.359 177.134 621.067 176.952 620.738 176.805L619.75 176.331C619.421 176.185 619.092 176.039 618.726 175.929C618.397 175.82 618.031 175.674 617.702 175.564C617.007 175.345 616.313 175.163 615.618 175.053C614.923 174.98 614.191 174.944 613.533 175.09C613.204 175.163 612.875 175.272 612.619 175.455C612.363 175.637 612.107 175.856 611.924 176.112C611.595 176.659 611.522 177.39 611.668 178.047C611.814 178.74 612.143 179.361 612.582 179.945C613.021 180.529 613.57 181.004 614.155 181.405C614.777 181.807 615.435 182.099 616.13 182.354C616.495 182.464 616.825 182.573 617.19 182.646C617.556 182.719 617.922 182.792 618.251 182.719C618.434 182.683 618.58 182.646 618.726 182.537C618.836 182.427 618.946 182.281 618.982 182.099C619.055 181.734 618.946 181.369 618.836 181.04C618.617 180.347 618.251 179.689 617.849 179.032C618.287 179.653 618.653 180.274 618.909 181.004C619.019 181.369 619.129 181.734 619.092 182.135C619.055 182.318 618.982 182.537 618.836 182.683C618.69 182.829 618.47 182.902 618.287 182.938C617.885 183.011 617.519 182.975 617.154 182.902C616.788 182.829 616.422 182.756 616.057 182.646C615.325 182.427 614.63 182.135 613.972 181.734C613.314 181.332 612.729 180.821 612.217 180.237C611.705 179.653 611.302 178.959 611.119 178.193C611.01 177.828 610.973 177.39 611.01 176.988C611.046 176.586 611.156 176.185 611.376 175.783C611.595 175.418 611.887 175.09 612.217 174.871C612.582 174.652 612.948 174.469 613.35 174.36C614.118 174.141 614.923 174.141 615.727 174.214C616.495 174.287 617.263 174.433 617.995 174.652C618.361 174.761 618.726 174.871 619.092 174.98C619.458 175.09 619.823 175.236 620.153 175.382L621.213 175.82C621.579 175.966 621.945 176.148 622.274 176.367C622.968 176.769 623.59 177.28 624.139 177.828C624.687 178.375 625.199 178.959 625.675 179.58C626.589 180.821 627.357 182.172 628.015 183.559C629.295 186.333 630.21 189.217 630.978 192.138C631.709 195.058 632.258 198.015 632.733 201.009C633.172 203.966 633.538 206.959 633.794 209.953C634.05 212.946 634.232 215.94 634.306 218.97C634.306 219.773 633.684 220.43 632.879 220.466C632.075 220.466 631.416 219.846 631.38 219.043C631.234 219.006 631.234 219.006 631.234 218.97Z" fill="#5A8FE2"/>
<path d="M249.836 442.347C249.836 442.347 262.27 419.093 292.112 425.664C321.954 432.235 350.845 419.203 390.853 417.852C430.862 416.501 470.029 442.238 470.029 442.238L249.836 442.347Z" fill="#CAEAFF"/>
<path d="M91.7783 380.107C108.663 380.107 122.352 371.428 122.352 360.722C122.352 350.017 108.663 341.338 91.7783 341.338C74.8932 341.338 61.2051 350.017 61.2051 360.722C61.2051 371.428 74.8932 380.107 91.7783 380.107Z" fill="#FFDF99"/>
<path d="M99.2012 345.647C99.2012 345.647 113.354 323.853 121.363 322.539C121.363 322.539 124.179 352.985 115.951 356.818C107.722 360.688 107.21 360.724 107.21 360.724L99.2012 345.647Z" fill="#FFDF99"/>
<path d="M87.1327 345.647C87.1327 345.647 72.9798 323.853 64.9708 322.539C64.9708 322.539 62.1548 352.985 70.3833 356.818C78.6117 360.688 79.1237 360.724 79.1237 360.724L87.1327 345.647Z" fill="#FFDF99"/>
<path d="M81.537 358.131C81.3176 358.131 81.0616 358.021 80.9519 357.802C80.1108 356.561 79.1234 355.904 78.0263 355.831C75.832 355.685 73.8206 357.839 73.784 357.875C73.528 358.167 73.0526 358.204 72.76 357.912C72.4675 357.656 72.4309 357.181 72.7235 356.889C72.8332 356.78 75.2469 354.188 78.136 354.371C79.7085 354.48 81.0616 355.356 82.1953 356.962C82.4147 357.291 82.3416 357.766 82.0125 357.985C81.8296 358.058 81.6833 358.131 81.537 358.131Z" fill="#6B5743"/>
<path d="M109.953 358.131C109.734 358.131 109.478 358.021 109.368 357.802C108.527 356.561 107.539 355.904 106.442 355.831C104.248 355.685 102.237 357.839 102.2 357.875C101.944 358.167 101.469 358.204 101.176 357.912C100.884 357.656 100.847 357.181 101.139 356.889C101.249 356.78 103.663 354.188 106.552 354.371C108.125 354.48 109.478 355.356 110.611 356.962C110.831 357.291 110.758 357.766 110.428 357.985C110.246 358.058 110.099 358.131 109.953 358.131Z" fill="#6B5743"/>
<path d="M91.5954 364.446C93.8777 364.446 95.7279 363.743 95.7279 362.876C95.7279 362.009 93.8777 361.307 91.5954 361.307C89.3131 361.307 87.4629 362.009 87.4629 362.876C87.4629 363.743 89.3131 364.446 91.5954 364.446Z" fill="#6B5743"/>
<path d="M97.8839 367.038C93.9342 367.038 92.1788 363.789 92.1788 363.753C92.0325 363.497 92.1422 363.168 92.3982 363.022C92.6542 362.876 92.9834 362.986 93.1297 363.241C93.2028 363.387 94.8485 366.381 98.6884 365.906C98.981 365.87 99.2735 366.089 99.3101 366.381C99.3467 366.673 99.1273 366.965 98.8347 367.002C98.5056 367.002 98.1764 367.038 97.8839 367.038Z" fill="#6B5743"/>
<path d="M85.6334 367.037C85.3408 367.037 85.0117 367.001 84.6825 366.964C84.39 366.928 84.1705 366.636 84.2071 366.344C84.2437 366.052 84.5363 365.833 84.8288 365.869C88.7053 366.344 90.3876 363.241 90.3876 363.204C90.5338 362.949 90.863 362.839 91.119 362.985C91.375 363.131 91.4847 363.46 91.3384 363.715C91.3018 363.788 89.583 367.037 85.6334 367.037Z" fill="#6B5743"/>
<path d="M70.7491 330.167C70.6028 330.167 70.4565 330.131 70.3102 330.021C69.9811 329.802 69.908 329.328 70.1274 328.999L73.7114 323.925C73.9308 323.596 74.4062 323.523 74.7354 323.742C75.0645 323.961 75.1377 324.436 74.9182 324.765L71.3342 329.839C71.1879 330.058 70.9685 330.167 70.7491 330.167Z" fill="#FFA748"/>
<path d="M75.1378 334.111C74.9915 334.111 74.8452 334.074 74.6989 333.965C74.3698 333.746 74.2966 333.271 74.5161 332.943L78.1 327.868C78.3194 327.54 78.7948 327.467 79.124 327.686C79.4531 327.905 79.5263 328.379 79.3068 328.708L75.7229 333.782C75.5766 334.001 75.3572 334.111 75.1378 334.111Z" fill="#FFA748"/>
<path d="M73.9272 442.584C79.9059 440.297 81.7699 430.674 78.0905 421.091C74.4111 411.508 66.5816 405.594 60.6029 407.882C54.6241 410.169 52.7601 419.792 56.4395 429.375C60.1189 438.958 67.9484 444.872 73.9272 442.584Z" fill="#FFDF99"/>
<path d="M125.489 429.389C129.168 419.806 127.304 410.184 121.326 407.896C115.347 405.609 107.517 411.523 103.838 421.106C100.159 430.689 102.022 440.311 108.001 442.599C113.98 444.886 121.809 438.972 125.489 429.389Z" fill="#FFDF99"/>
<path d="M71.4082 396.57L76.7476 438.406C77.0767 441.071 79.3441 443.079 82.0503 443.079C84.9029 443.079 87.2434 440.852 87.3897 438.041L89.5108 397.483L71.4082 396.57Z" fill="#FFCD5F"/>
<path d="M108.235 396.57L102.896 438.406C102.567 441.071 100.3 443.079 97.5933 443.079C94.7407 443.079 92.4002 440.852 92.2539 438.041L90.1328 397.483L108.235 396.57Z" fill="#FFDF99"/>
<path d="M82.7455 443.041C86.5022 443.041 89.5477 441.161 89.5477 438.843C89.5477 436.524 86.5022 434.645 82.7455 434.645C78.9888 434.645 75.9434 436.524 75.9434 438.843C75.9434 441.161 78.9888 443.041 82.7455 443.041Z" fill="white"/>
<path d="M98.7631 443.041C102.52 443.041 105.565 441.161 105.565 438.843C105.565 436.524 102.52 434.645 98.7631 434.645C95.0064 434.645 91.9609 436.524 91.9609 438.843C91.9609 441.161 95.0064 443.041 98.7631 443.041Z" fill="white"/>
<path d="M82.7444 407.375C82.7444 407.375 65.8487 422.014 63.7276 406.463C61.6065 390.911 46.2467 384.34 43.6502 391.495C43.3576 392.262 43.1748 393.211 43.0285 394.27C42.0777 401.717 44.0525 414.494 37.8354 411.245C33.2641 408.872 32.0572 397.92 35.6778 389.597C37.6892 385.034 41.1268 381.237 46.2833 380.142C60.8019 376.966 75.8325 403.177 75.8325 403.177L82.7444 407.375Z" fill="#FFDF99"/>
<path d="M43.0656 394.271C42.1148 401.718 44.0896 414.495 37.8726 411.246C33.3012 408.873 32.0944 397.921 35.7149 389.598C36.4829 389.489 37.0314 389.817 37.2143 390.912C37.9823 395.256 37.2508 397.848 40.2131 395.694C41.1274 395.037 42.1148 394.526 43.0656 394.271Z" fill="white"/>
<path d="M689.089 444.32H616.13C615.435 444.32 614.887 443.773 614.887 443.079C614.887 442.385 615.435 441.838 616.13 441.838H689.089C689.784 441.838 690.332 442.385 690.332 443.079C690.332 443.773 689.747 444.32 689.089 444.32Z" fill="#1F367F"/>
<path d="M500.677 154.501L503.493 157.969C504.042 158.626 503.639 159.649 502.762 159.758L498.336 160.269C498.117 160.306 497.934 160.379 497.788 160.525L494.314 163.336C493.655 163.883 492.631 163.482 492.522 162.606L492.01 158.188C491.973 157.969 491.9 157.787 491.754 157.641L488.938 154.173C488.389 153.516 488.791 152.493 489.669 152.384L494.094 151.873C494.314 151.836 494.497 151.763 494.643 151.617L498.117 148.806C498.775 148.259 499.799 148.66 499.909 149.537L500.421 153.954C500.458 154.173 500.531 154.355 500.677 154.501Z" fill="#A9C4FF"/>
<path d="M181.303 69.8082H114.635C113.318 69.8082 112.258 68.7496 112.258 67.4354C112.258 66.1212 113.318 65.0625 114.635 65.0625H181.303C182.62 65.0625 183.681 66.1212 183.681 67.4354C183.681 68.7131 182.62 69.8082 181.303 69.8082Z" fill="white"/>
<path d="M191.469 69.8082C190.847 69.8082 190.226 69.5527 189.787 69.1146C189.348 68.6766 189.092 68.056 189.092 67.4354C189.092 66.8148 189.348 66.1942 189.787 65.7561C190.226 65.318 190.847 65.0625 191.469 65.0625C192.091 65.0625 192.712 65.318 193.151 65.7561C193.59 66.1942 193.846 66.8148 193.846 67.4354C193.846 68.056 193.59 68.6766 193.151 69.1146C192.712 69.5527 192.091 69.8082 191.469 69.8082Z" fill="white"/>
<path d="M563.761 324.837H547.853C546.28 324.837 545.037 323.559 545.037 322.026V291.215C545.037 289.646 546.317 288.404 547.853 288.404H562.408C558.568 294.318 549.243 312.024 563.761 324.837Z" fill="#FFA748"/>
</g>
<defs>
<clipPath id="clip0">
<rect width="714" height="443" fill="white"/>
</clipPath>
</defs>
</svg>
