 <svg width="879" height="589" viewBox="0 0 879 589" fill="none" xmlns="http://www.w3.org/2000/svg">
<path d="M132.58 540.768C126.403 629.825 539.266 574.231 600.011 540.769C660.757 507.306 639.65 531.502 619.059 455.313C555.391 407.534 602.202 342.938 547.106 279.233C492.009 215.528 495.509 140.261 384.314 96.5029C273.119 52.7451 138.758 451.71 132.58 540.768Z" fill="#FFDF99"/>
<path d="M297.496 415.766L283.567 417.576C280.92 417.994 278.135 415.349 277.299 411.73L269.638 376.651C268.802 373.032 270.334 369.97 273.12 369.552L287.049 367.743C289.695 367.325 292.481 369.97 293.317 373.589L300.978 408.667C301.813 412.147 300.142 415.349 297.496 415.766Z" fill="#9295A5"/>
<path d="M297.356 413.401L286.492 415.21C284.402 415.489 282.174 413.122 281.338 409.921L274.095 377.626C273.399 374.285 274.513 371.362 276.463 371.084L287.328 369.274C289.417 368.996 291.645 371.362 292.481 374.564L299.724 406.858C300.56 410.199 299.446 413.122 297.356 413.401Z" fill="#EEF2FF"/>
<path opacity="0.56" d="M279.388 411.731L271.727 376.653C270.891 373.034 272.424 369.971 275.209 369.554L288.581 367.883C288.163 367.744 287.606 367.744 287.188 367.744L273.259 369.554C270.613 369.971 269.081 373.034 269.777 376.653L277.438 411.731C278.274 415.35 281.059 417.856 283.706 417.578L284.402 417.438C282.034 416.882 280.084 414.654 279.388 411.731Z" fill="#9295A5"/>
<path d="M314.487 482.026L294.151 554.131H256.404C256.404 554.131 286.769 475.205 298.887 466.296C310.866 457.248 313.095 467.27 314.487 482.026Z" fill="#1C1C1C"/>
<path d="M236.627 566.938H286.771L290.392 553.854H263.51C263.51 553.854 236.627 559.7 236.627 566.938Z" fill="#15529B"/>
<path d="M298.748 487.734L261.558 553.993H223.811C223.811 553.993 259.886 479.661 272.004 470.613C284.122 461.704 297.355 473.118 298.748 487.734Z" fill="#292A2B"/>
<path d="M318.807 366.072C318.807 366.072 317.135 377.904 320.199 386.395C323.264 394.887 322.985 398.784 321.314 401.847C320.757 402.821 320.199 403.656 319.782 404.491C319.224 405.466 320.199 406.719 321.314 406.301L326.328 404.491C326.328 404.491 326.328 416.602 332.875 418.551C339.282 420.499 344.993 414.792 344.993 414.792L345.55 423.005L366.025 418.411C366.025 418.411 359.339 404.074 359.339 396.835C359.339 389.597 350.425 345.471 318.807 366.072Z" fill="#F99F93"/>
<path d="M314.348 350.344C314.348 350.344 313.373 356.608 315.184 361.897C318.387 371.641 322.427 361.48 325.77 366.63C328.973 371.781 318.527 373.869 326.745 381.107C334.963 388.345 336.773 378.044 341.37 382.081C345.966 386.118 339.141 392.939 345.966 399.203C352.652 405.606 354.602 404.91 359.756 402.126C364.91 399.342 370.481 385.144 368.253 374.704C366.024 364.125 356.413 353.824 343.181 352.849C326.188 351.457 319.92 354.937 314.348 350.344Z" fill="#9E4F0D"/>
<path d="M328.835 392.52C328.974 394.33 328.696 396 328.139 396C327.582 396 327.024 394.608 326.885 392.66C326.746 390.85 327.024 389.18 327.582 389.18C328.278 389.18 328.835 390.711 328.835 392.52Z" fill="black"/>
<path d="M334.169 409.711C332.461 410.324 330.776 410.498 330.629 409.961C330.481 409.423 331.676 408.518 333.519 407.867C335.227 407.254 336.911 407.081 337.059 407.618C337.243 408.29 335.914 409.232 334.169 409.711Z" fill="black"/>
<path d="M355.439 432.193C355.439 432.193 316.16 455.3 302.649 457.11C289.138 458.919 277.438 457.945 286.631 441.38C286.631 441.38 337.61 415.211 349.171 414.236L355.439 432.193Z" fill="#1E62C4"/>
<path d="M390.26 528.38C390.26 528.38 388.31 554.272 377.585 561.51C366.86 568.748 348.335 567.635 337.052 560.536C320.756 550.235 298.748 487.734 298.748 487.734L337.888 473.396C337.888 473.396 365.049 535.897 390.26 528.38Z" fill="#292A2B"/>
<g opacity="0.22">
<path opacity="0.22" d="M385.803 528.936C384.55 537.01 379.814 548.842 372.292 553.992C361.567 561.231 344.574 562.623 333.292 555.384C331.62 554.41 329.949 552.739 328.277 550.791C331.342 555.106 334.406 558.586 337.192 560.395C348.474 567.495 367.139 568.747 377.725 561.37C388.45 554.131 390.4 528.24 390.4 528.24C388.868 528.797 387.335 529.075 385.803 528.936Z" fill="#068A9C"/>
</g>
<path d="M291.924 458.781L352.932 425.234L355.439 432.194L291.924 458.781Z" fill="#1E62C4"/>
<path opacity="0.3" d="M272.006 470.611C272.006 470.611 272.702 489.821 280.781 492.605C288.86 495.389 298.749 487.594 298.749 487.594L302.51 497.616L339.839 477.432L338.028 473.256L272.006 470.611Z" fill="#068A9C"/>
<path d="M269.08 419.527H285.516L294.43 457.668C294.43 457.668 348.474 433.726 352.792 431.777C357.11 429.828 364.771 423.564 369.228 428.018C373.546 432.334 403.214 510.842 390.261 528.381C386.639 533.393 360.731 519.89 360.731 519.89L337.888 473.398C337.888 473.398 302.648 489.684 289.277 488.988C264.623 487.457 269.08 419.527 269.08 419.527Z" fill="#1E62C4"/>
<path d="M349.031 414.238C349.031 414.238 364.074 408.113 369.228 414.238C374.242 420.363 384.55 436.649 381.625 438.876C378.7 441.103 378.421 438.598 378.421 438.598C378.421 438.598 375.914 439.711 372.85 439.99C365.746 440.686 369.367 427.879 360.871 429.132C360.314 429.271 354.742 430.942 354.742 430.942L349.031 414.238Z" fill="#F9AAA2"/>
<path d="M337.889 473.395L351.4 467.549C351.4 467.549 347.082 482.304 351.4 490.517C355.718 498.73 371.736 514.32 371.736 514.32C371.736 514.32 351.817 508.334 337.889 473.395Z" fill="#1E62C4"/>
<path d="M360.732 519.888C360.732 519.888 385.665 528.24 390.261 522.394C392.908 519.053 393.465 510.701 393.465 510.701C393.465 510.701 394.022 527.544 388.729 528.936C380.929 531.024 360.732 519.888 360.732 519.888Z" fill="#1E62C4"/>
<path d="M374.522 439.015C374.382 439.015 374.382 439.015 374.382 438.876C374.382 438.737 370.482 429.41 367.279 426.348C364.075 423.425 359.339 423.703 359.2 423.703C359.061 423.703 359.061 423.703 359.061 423.564C359.061 423.425 359.061 423.425 359.2 423.425C359.2 423.425 364.214 423.146 367.557 426.209C370.761 429.271 374.522 438.458 374.8 438.876C374.8 438.876 374.661 439.015 374.522 439.015C374.522 439.015 374.661 439.015 374.522 439.015Z" fill="#C15849"/>
<path d="M204.172 566.938H254.316L257.937 553.854H231.054C231.054 553.854 204.172 559.7 204.172 566.938Z" fill="#1E62C4"/>
<path d="M294.43 457.946V457.667L285.516 419.526C285.516 419.387 285.516 419.387 285.655 419.248C285.794 419.248 285.794 419.248 285.933 419.387L294.848 457.25C299.166 455.162 352.652 430.106 361.01 428.853C361.149 428.853 361.149 428.853 361.149 428.992C361.149 429.131 361.149 429.131 361.01 429.131C352.652 430.384 295.405 457.25 294.848 457.528L294.43 457.946Z" fill="black"/>
<path d="M378.421 438.735C378.282 438.735 378.282 438.735 378.282 438.596C378.282 438.457 372.292 422.031 366.024 418.412C363.935 417.159 359.478 417.159 359.339 417.159C359.199 417.159 359.199 417.02 359.199 417.02C359.199 416.881 359.339 416.881 359.339 416.881C359.478 416.881 363.935 416.881 366.164 418.134C372.571 421.753 378.421 437.761 378.56 438.457C378.56 438.596 378.56 438.735 378.421 438.735Z" fill="#C15849"/>
<path d="M279.248 380.55H279.387C280.084 380.411 280.641 380.828 280.919 381.524L281.337 383.473C281.476 384.169 281.198 384.726 280.501 385.005H280.362C279.666 385.283 278.969 384.865 278.83 384.169L278.273 382.22C278.133 381.524 278.551 380.689 279.248 380.55Z" fill="#076D9B"/>
<path d="M284.819 379.575C285.655 379.436 286.351 379.854 286.49 380.55L286.908 382.22C287.047 382.916 286.63 383.612 285.933 383.751C285.237 383.891 284.54 383.473 284.401 382.916L283.844 381.246C283.565 380.55 283.983 379.854 284.819 379.575Z" fill="#068A9C"/>
<path d="M289.555 378.462C290.391 378.323 291.087 378.741 291.227 379.437L291.644 381.107C291.784 381.803 291.366 382.499 290.669 382.638C289.973 382.777 289.277 382.36 289.137 381.803L288.58 380.133C288.302 379.437 288.719 378.601 289.555 378.462Z" fill="#076D9B"/>
<path d="M286.91 388.206C287.745 388.067 288.442 388.485 288.581 389.181L288.999 390.851C289.138 391.547 288.72 392.243 288.024 392.382C287.327 392.522 286.631 392.104 286.492 391.547L285.935 389.877C285.656 389.181 286.213 388.346 286.91 388.206Z" fill="#076D9B"/>
<path d="M281.338 389.459L282.452 389.181C282.87 389.042 283.288 389.32 283.427 389.738L284.124 392.382C284.263 392.8 283.984 393.218 283.566 393.357L282.731 393.635C282.313 393.774 281.895 393.496 281.756 393.078L280.92 390.434C280.502 390.016 280.781 389.598 281.338 389.459Z" fill="#FFCC51"/>
<path d="M291.645 386.952C292.481 386.813 293.177 387.231 293.316 387.927L293.734 389.597C293.874 390.293 293.456 390.989 292.759 391.128C292.063 391.268 291.366 390.85 291.227 390.293L290.67 388.623C290.391 387.927 290.809 387.231 291.645 386.952Z" fill="#E26847"/>
<path d="M288.72 398.367C289.556 398.227 290.252 398.645 290.392 399.341L290.809 401.011C290.949 401.707 290.531 402.403 289.834 402.542C289.138 402.682 288.442 402.264 288.302 401.707L287.745 400.037C287.467 399.341 288.024 398.506 288.72 398.367Z" fill="#076D9B"/>
<path d="M293.455 397.115C294.291 396.975 294.988 397.393 295.127 398.089L295.545 399.759C295.684 400.455 295.266 401.151 294.57 401.291C293.873 401.43 293.177 401.012 293.038 400.455L292.48 398.785C292.202 398.089 292.62 397.393 293.455 397.115Z" fill="#E26847"/>
<path d="M269.08 419.526C269.08 419.526 266.573 393.218 271.587 385.283L276.462 407.555C276.462 407.555 282.452 397.254 289.555 395.862C296.102 394.47 283.148 411.453 283.148 411.453L285.516 419.526H269.08Z" fill="#F99F93"/>
<path d="M330.645 387.649C325.91 387.649 323.96 383.473 323.82 383.334L324.656 382.916C324.795 383.055 326.606 387.092 331.203 386.535L331.342 387.51C331.203 387.649 330.924 387.649 330.645 387.649Z" fill="#C15849"/>
<path d="M226.583 66.4494H415.736C415.736 66.4494 408.771 43.6207 375.342 38.0527C341.913 32.4847 338.988 4.22716 315.309 0.468764C278.119 -5.51683 297.619 47.7967 297.619 47.7967C297.619 47.7967 267.394 19.3999 254.44 49.1887C254.44 49.1887 213.489 29.7007 226.583 66.4494Z" fill="#90AFF2"/>
<path d="M179.242 113C179.242 113 165.313 138.195 173.67 142.789C193.867 153.786 179.242 113 179.242 113Z" fill="#EDF5F9"/>
<path d="M142.189 240.932C142.189 240.932 128.26 266.127 136.618 270.72C156.814 281.717 142.189 240.932 142.189 240.932Z" fill="#EDF5F9"/>
<path d="M92.0466 340.041C92.0466 340.041 78.1178 365.236 86.4751 369.83C106.672 380.827 92.0466 340.041 92.0466 340.041Z" fill="#EDF5F9"/>
<path d="M762.021 475.064C762.021 475.064 748.092 500.26 756.45 504.853C776.646 515.85 762.021 475.064 762.021 475.064Z" fill="#EDF5F9"/>
<path d="M205.008 188.314C205.008 188.314 191.079 213.51 199.436 218.103C219.633 229.1 205.008 188.314 205.008 188.314Z" fill="#EDF5F9"/>
<path d="M285.797 121.908C285.797 121.908 271.868 147.103 280.225 151.697C300.422 162.694 285.797 121.908 285.797 121.908Z" fill="#EDF5F9"/>
<path d="M54.9958 486.617C54.9958 486.617 41.067 511.812 49.4243 516.406C69.4818 527.403 54.9958 486.617 54.9958 486.617Z" fill="#EDF5F9"/>
<path d="M821.636 73.6123L698.087 536.869C693.491 555.939 682.487 567.075 671.483 567.075H623.15L795.589 44.5195C795.589 44.5195 826.511 44.7979 821.636 73.6123Z" fill="#1E62C4"/>
<path d="M804.504 56.6299L677.195 531.58C672.598 551.624 656.998 567.075 646.83 567.075H437.062C430.376 567.075 426.337 561.647 428.148 554.965L561.725 56.6299C563.536 49.9483 570.5 44.5195 577.186 44.5195H795.729C802.275 44.5195 806.315 49.9483 804.504 56.6299Z" fill="#84A6FF"/>
<path d="M745.168 44.5195L728.732 61.6411C724.553 65.9563 718.843 68.4619 712.853 68.4619H640.423C636.105 68.4619 632.066 66.0955 629.977 62.3371L620.227 44.6587H745.168V44.5195Z" fill="#1E62C4"/>
<path d="M659.645 62.4772L649.894 44.7988H620.783L630.533 62.4772C632.623 66.2356 636.662 68.602 640.98 68.602H670.091C665.773 68.602 661.734 66.2356 659.645 62.4772Z" fill="#264EAB"/>
<path d="M606.31 110.88C614.762 103.489 617.056 92.2911 611.433 85.8688C605.811 79.4465 594.4 80.2319 585.947 87.6231C577.495 95.0142 575.201 106.212 580.824 112.634C586.446 119.057 597.857 118.271 606.31 110.88Z" fill="white"/>
<path d="M590.14 125.674C583.176 125.674 577.326 123.03 573.565 118.158C569.665 113.007 568.55 106.186 570.5 98.948C574.4 84.332 589.444 72.5 604.069 72.5C611.033 72.5 616.883 75.1448 620.644 80.0168C624.544 85.1672 625.658 91.988 623.708 99.2263C619.808 113.842 604.765 125.674 590.14 125.674ZM604.208 73.6136C590.001 73.6136 575.376 85.1672 571.615 99.3655C569.804 106.326 570.779 112.868 574.401 117.74C577.883 122.334 583.454 124.839 590.14 124.839C604.347 124.839 618.973 113.286 622.733 99.0872C624.544 92.1272 623.569 85.5848 619.948 80.7128C616.465 76.1192 610.755 73.6136 604.208 73.6136Z" fill="white"/>
<path d="M590.975 99.0863C589.861 96.9983 590 94.3535 591.393 91.8479C593.482 88.3679 597.522 86.8367 600.447 88.6463C603.372 90.3167 604.208 94.6319 602.118 98.1119C601.561 99.0863 600.725 99.9215 599.89 100.617C606.018 103.68 607.69 109.805 607.69 109.805C607.69 109.805 600.029 118.713 588.607 117.182C578.439 115.79 578.021 106.185 578.021 106.185C578.021 106.185 583.732 100.339 590.975 99.0863Z" fill="#1E62C4"/>
<path d="M644.324 91.9871C643.906 93.5183 644.881 94.7711 646.413 94.7711H714.107C715.639 94.7711 717.171 93.5183 717.589 91.9871C718.007 90.4559 717.032 89.2031 715.5 89.2031H647.806C646.413 89.2031 644.741 90.4559 644.324 91.9871Z" fill="white"/>
<path d="M641.537 106.325C641.258 107.856 641.815 109.109 642.79 109.109H684.437C685.412 109.109 686.387 107.856 686.666 106.325C686.945 104.794 686.387 103.541 685.412 103.541H643.765C642.79 103.541 641.815 104.794 641.537 106.325Z" fill="white"/>
<path d="M595.434 114.816C594.877 116.765 596.13 118.296 598.08 118.296C600.03 118.296 602.12 116.765 602.537 114.816C602.955 112.867 601.841 111.336 599.891 111.336C597.941 111.197 595.991 112.867 595.434 114.816Z" fill="#FF98A0"/>
<path d="M624.544 448.477H711.181C716.195 448.477 721.349 444.44 722.603 439.429L737.228 384.724C738.621 379.713 735.556 375.676 730.681 375.676H644.044C639.03 375.676 633.876 379.713 632.623 384.724L617.997 439.429C616.604 444.44 619.53 448.477 624.544 448.477Z" fill="white"/>
<path d="M691.241 427.183C701.489 418.222 704.211 404.58 697.322 396.711C690.432 388.842 676.54 389.727 666.293 398.688C656.045 407.648 653.323 421.291 660.212 429.16C667.102 437.028 680.994 436.143 691.241 427.183Z" fill="#78B1EA"/>
<path d="M652.959 412.702C649.199 426.761 657.556 438.176 671.624 438.176C685.692 438.176 700.178 426.761 704.078 412.702C707.839 398.643 699.482 387.229 685.414 387.229C671.346 387.229 656.86 398.643 652.959 412.702ZM684.996 388.621C698.367 388.621 706.307 399.478 702.685 412.841C699.064 426.204 685.414 437.062 672.042 437.062C658.67 437.062 650.731 426.204 654.352 412.841C657.974 399.478 671.763 388.621 684.996 388.621Z" fill="#78B1EA"/>
<path d="M671.762 425.927H678.726L685.83 399.758H678.726L671.762 425.927Z" fill="white"/>
<path d="M690.844 416.462L692.794 409.363H666.608L664.658 416.462H690.844Z" fill="white"/>
<path d="M375.775 279.349C375.775 279.349 375.775 268.213 379.258 268.213C382.74 268.213 398.758 283.525 398.758 283.525L398.061 293.965H376.472L375.775 279.349Z" fill="#FFACA6"/>
<path d="M376.889 89.3406C376.889 89.3406 377.028 69.5743 379.257 69.1567C381.485 68.7391 380.51 89.3406 380.51 89.3406H376.889Z" fill="white"/>
<path d="M378.699 89.0625C271.447 89.0625 266.572 180.517 266.572 180.517H266.851C266.851 180.517 271.587 168.685 284.68 168.685C299.444 168.685 302.509 180.517 302.509 180.517C302.509 180.517 307.523 168.685 321.312 168.685C336.773 168.685 340.116 180.517 340.116 180.517H340.673C340.673 180.517 345.688 168.685 359.477 168.685C374.938 168.685 378.281 180.517 378.281 180.517C378.281 180.517 381.624 168.685 397.085 168.685C410.875 168.685 415.889 180.517 415.889 180.517H416.446C416.446 180.517 419.65 168.685 434.414 168.685C447.647 168.685 452.382 180.517 452.382 180.517C452.382 180.517 455.307 168.685 469.515 168.685C482.051 168.685 486.647 180.517 486.647 180.517H487.344C487.344 180.517 488.876 89.0625 378.699 89.0625Z" fill="#1E62C4"/>
<path opacity="0.33" d="M466.868 144.604C452.8 144.604 453.915 169.103 453.915 169.103C453.915 169.103 447.229 144.465 433.996 144.465C419.232 144.465 417.978 169.103 417.978 169.103H417.421C417.421 169.103 412.267 144.604 398.478 144.604C383.017 144.604 379.813 169.103 379.813 169.103C379.813 169.103 376.749 144.465 361.149 144.465C347.359 144.465 342.206 169.103 342.206 169.103H341.648C341.648 169.103 343.598 144.465 328.138 144.465C314.348 144.465 304.041 169.103 304.041 169.103C304.041 169.103 305.851 144.465 291.087 144.465C279.805 144.465 269.776 165.902 268.522 168.407C266.851 175.924 266.572 180.796 266.572 180.796H266.851C266.851 180.796 271.587 168.964 284.68 168.964C299.444 168.964 302.509 180.796 302.509 180.796C302.509 180.796 307.523 168.964 321.312 168.964C336.773 168.964 340.116 180.796 340.116 180.796H340.673C340.673 180.796 345.688 168.964 359.477 168.964C374.938 168.964 378.281 180.796 378.281 180.796C378.281 180.796 381.624 168.964 397.085 168.964C410.875 168.964 415.889 180.796 415.889 180.796H416.446C416.446 180.796 419.65 168.964 434.414 168.964C447.647 168.964 452.382 180.796 452.382 180.796C452.382 180.796 455.307 168.964 469.515 168.964C482.051 168.964 486.647 180.796 486.647 180.796H487.344C487.344 180.796 487.483 174.254 485.533 164.649C482.886 161.308 474.111 144.604 466.868 144.604Z" fill="#306168"/>
<path opacity="0.33" d="M487.205 180.795H486.509C486.509 180.795 482.051 168.963 469.376 168.963C455.308 168.963 452.244 180.795 452.244 180.795C452.244 180.795 447.508 168.963 434.276 168.963C419.511 168.963 416.307 180.795 416.307 180.795H415.75C415.75 180.795 410.736 168.963 396.946 168.963C387.614 168.963 382.739 173.279 380.232 176.619C378.56 178.847 378.143 180.795 378.143 180.795C378.143 180.795 377.725 179.543 376.75 177.872C374.66 174.392 369.785 169.103 359.339 169.103C345.549 169.103 340.535 180.935 340.535 180.935H339.978C339.978 180.935 336.635 169.103 321.174 169.103C307.384 169.103 302.37 180.935 302.37 180.935C302.37 180.935 299.306 169.103 284.541 169.103C271.448 169.103 266.712 180.935 266.712 180.935H266.434C266.434 180.935 266.712 176.063 268.384 168.546C269.637 166.04 279.666 144.604 290.948 144.604C305.713 144.604 303.902 169.242 303.902 169.242C303.902 169.242 314.209 144.604 327.999 144.604C343.46 144.604 341.51 169.242 341.51 169.242H342.067C342.067 169.242 347.221 144.604 361.01 144.604C369.367 144.604 374.103 151.842 376.75 158.523C378.978 164.091 379.535 169.242 379.535 169.242C379.535 169.242 379.675 167.711 380.232 165.623C381.764 158.802 386.5 144.882 398.2 144.882C411.99 144.882 417.143 169.381 417.143 169.381H417.7C417.7 169.381 418.815 144.743 433.718 144.743C446.951 144.743 453.637 169.381 453.637 169.381C453.637 169.381 452.522 144.882 466.59 144.882C473.973 144.882 482.609 161.586 485.116 164.927C487.344 174.253 487.205 180.795 487.205 180.795Z" fill="#306168"/>
<path d="M380.371 165.345V306.355H376.75V158.246C378.979 163.814 379.536 168.964 379.536 168.964C379.675 169.104 379.954 167.572 380.371 165.345Z" fill="white"/>
<path d="M372.293 274.476C380.232 275.45 389.007 284.916 389.007 289.092C389.007 293.268 374.382 300.924 371.596 296.748C368.81 292.572 366.721 273.78 372.293 274.476Z" fill="#FFACA6"/>
<path d="M800.324 166.181C800.324 169.522 803.11 172.306 806.453 172.306C809.796 172.306 812.582 169.522 812.582 166.181C812.582 162.841 809.796 160.057 806.453 160.057C802.971 160.057 800.324 162.701 800.324 166.181Z" fill="#1E62C4"/>
<path d="M784.725 166.181C784.725 169.522 787.51 172.306 790.853 172.306C794.196 172.306 796.982 169.522 796.982 166.181C796.982 162.841 794.196 160.057 790.853 160.057C787.371 160.057 784.725 162.701 784.725 166.181Z" fill="#1E62C4"/>
<path d="M458.094 568.049H506.427V553.433L485.116 552.459C480.101 558.305 458.651 561.507 458.094 568.049Z" fill="#1C1C1C"/>
<path d="M539.855 569.024H578.02V555.8L557.824 554.408C554.063 560.255 540.413 562.482 539.855 569.024Z" fill="#1C1C1C"/>
<path d="M480.102 417.297L522.027 414.096L510.884 554.409L481.355 553.852L480.102 417.297Z" fill="#1E62C4"/>
<g opacity="0.3">
<path opacity="0.3" d="M518.823 414.792L492.637 554.131L510.883 554.409L522.026 414.096L518.823 414.792Z" fill="#B2D895"/>
</g>
<path d="M531.777 415.765L573.703 414.791L581.225 556.914L551.278 556.636L531.777 415.765Z" fill="#1E62C4"/>
<g opacity="0.3">
<path opacity="0.3" d="M565.068 556.775H581.226L573.704 414.652H570.222L565.068 556.775Z" fill="#B2D895"/>
</g>
<path d="M537.628 181.353L535.4 197.5C538.882 201.398 556.293 197.082 556.293 197.082L562.282 166.041C562.282 166.041 571.893 167.154 573.425 161.865C575.097 155.879 571.058 154.348 569.525 153.791C567.993 153.234 574.679 135.834 566.182 127.065C557.686 118.295 540.693 120.94 536.793 126.23C532.614 131.798 527.46 145.161 524.814 155.044C521.471 167.711 522.307 181.353 537.628 181.353Z" fill="#FFACA6"/>
<path d="M555.597 143.491C554.343 145.439 552.254 149.198 554.761 154.209C557.268 159.22 562.422 157.411 564.372 155.74C567.436 152.956 571.475 153.931 571.475 153.931C571.475 153.931 574.122 142.655 572.032 138.062C569.943 133.468 560.472 135.695 555.597 143.491Z" fill="#292A2B"/>
<path d="M521.471 159.638C521.471 159.638 526.346 157.272 532.892 157.968C539.3 158.664 544.593 166.32 544.871 167.573C545.15 168.965 540.414 167.016 540.135 165.902C539.857 164.65 538.603 166.32 537.21 165.624C535.678 164.928 534.982 163.536 534.982 163.536C534.982 163.536 532.335 165.206 531.639 164.232C530.942 163.258 530.246 162.144 530.246 162.144C530.246 162.144 527.321 163.954 526.903 163.118C526.346 162.283 526.346 161.03 526.346 161.03C526.346 161.03 524.675 162.84 523.978 162.144C523.282 161.448 520.357 161.726 519.66 161.587C518.546 161.587 517.989 159.778 521.471 159.638Z" fill="#292A2B"/>
<path d="M533.309 157.967C533.17 157.967 533.17 157.967 533.03 157.828C532.195 156.993 531.916 156.158 531.916 155.044C531.916 151.703 535.955 147.945 536.095 147.806C536.234 147.666 536.513 147.666 536.513 147.806C536.652 147.945 536.652 148.223 536.513 148.223C536.513 148.223 532.612 151.842 532.612 154.905C532.612 155.879 532.891 156.575 533.587 157.271C533.727 157.41 533.727 157.689 533.587 157.689C533.448 157.967 533.309 157.967 533.309 157.967Z" fill="#BF764F"/>
<path d="M542.364 145.996C542.086 147.11 541.529 147.806 541.111 147.667C540.693 147.527 540.693 146.553 540.971 145.579C541.25 144.465 541.807 143.769 542.225 143.908C542.504 144.047 542.643 145.022 542.364 145.996Z" fill="#2B2B2B"/>
<path d="M534.284 144.465C533.867 145.579 533.309 146.275 532.892 146.135C532.474 145.996 532.474 145.022 532.892 144.047C533.309 142.934 533.867 142.238 534.284 142.377C534.563 142.516 534.563 143.491 534.284 144.465Z" fill="#2B2B2B"/>
<path d="M526.903 165.344C526.903 165.344 529.828 166.318 532.475 166.457C535.121 166.597 535.678 166.875 534.982 167.849C534.286 168.824 533.311 169.659 530.664 169.102C529.271 168.824 526.625 166.457 526.903 165.344Z" fill="#C46D68"/>
<path d="M476.062 256.381C481.913 247.194 496.956 211.698 509.492 202.789C522.027 193.88 563.814 190.818 578.857 205.712C593.9 220.606 580.389 430.52 580.389 430.52L471.187 426.204L487.345 298.976C487.345 298.976 427.869 308.163 400.847 299.533L395.275 276.565C420.347 271.693 468.959 267.517 476.062 256.381Z" fill="white"/>
<g opacity="0.15">
<path opacity="0.15" d="M578.857 206.687C568.828 196.804 572.171 200.144 578.857 206.687C593.203 220.885 574.956 408.527 526.066 428.989L580.389 430.52C580.389 430.52 593.9 221.581 578.857 206.687Z" fill="#87B5D6"/>
</g>
<path d="M546.682 144.048C546.125 144.048 545.707 143.352 545.707 142.934C545.707 142.377 545.568 141.96 545.289 141.82C544.593 141.124 542.643 141.264 541.946 141.403C541.389 141.542 540.832 141.124 540.832 140.568C540.693 140.011 541.111 139.454 541.528 139.454C541.807 139.315 544.871 138.758 546.543 140.15C547.1 140.568 547.657 141.542 547.657 142.934C547.657 143.491 547.1 144.048 546.682 144.048Z" fill="#292A2B"/>
<path d="M564.65 160.75C564.511 160.75 564.511 160.75 564.511 160.75C564.371 160.611 564.371 160.472 564.511 160.333C564.511 160.194 566.182 158.245 568.271 157.966C569.247 157.827 570.222 158.106 571.057 158.802C571.197 158.941 571.197 159.08 571.057 159.219C570.918 159.358 570.779 159.358 570.639 159.219C569.943 158.662 569.107 158.384 568.411 158.523C566.6 158.802 565.068 160.611 565.068 160.611C564.929 160.75 564.789 160.75 564.65 160.75Z" fill="#BF764F"/>
<g opacity="0.15">
<path opacity="0.15" d="M487.344 298.976C487.344 298.976 495.562 287.005 503.92 264.037C503.92 264.037 514.506 309.834 484.977 317.49L487.344 298.976Z" fill="#87B5D6"/>
</g>
<path d="M525.028 328.313L524.625 380.791L601.373 381.379L601.775 328.901L525.028 328.313Z" fill="#4B77BC"/>
<path opacity="0.3" d="M601.84 328.904C601.84 328.904 592.229 362.034 583.593 368.994C571.754 378.32 524.535 380.826 524.535 380.826L601.283 381.383L601.84 328.904Z" fill="#3959A5"/>
<path d="M567.435 227.983L578.857 206.686C578.857 206.686 594.318 218.657 601.839 249.698C609.361 280.74 606.854 300.367 606.854 300.367L573.425 363.564L542.781 363.285C542.781 363.285 576.907 299.114 577.046 291.876C577.185 284.916 567.435 227.983 567.435 227.983Z" fill="white"/>
<path d="M547.238 363.287C547.238 363.287 543.198 369.551 540.413 371.361C537.766 373.17 537.766 375.815 542.502 374.701C547.099 373.588 549.188 369.134 549.188 369.134C549.188 369.134 545.148 379.991 547.516 383.61C551.556 389.596 562.699 387.647 565.345 385.559C569.385 382.218 570.22 363.426 570.22 363.426L547.238 363.287Z" fill="#FFACA6"/>
<path d="M535.817 139.175C535.538 139.175 535.26 139.036 535.12 138.758C534.703 138.201 534.285 138.062 534.145 138.062C533.867 138.062 533.588 138.479 533.588 138.619C533.31 139.036 532.753 139.315 532.335 139.036C531.917 138.758 531.638 138.201 531.917 137.783C532.056 137.644 532.753 136.391 534.006 136.113C534.981 135.974 535.817 136.531 536.792 137.505C537.07 137.923 537.07 138.479 536.653 138.897C536.235 139.036 536.095 139.175 535.817 139.175Z" fill="#292A2B"/>
<path d="M552.67 344.914L552.113 344.636C552.392 344.079 576.767 291.74 577.603 287.285C578.299 283.666 566.181 258.193 559.774 245.247L560.331 244.969C561.167 246.5 579.135 282.831 578.299 287.425C577.324 292.018 553.645 342.826 552.67 344.914Z" fill="#292A2B"/>
<path d="M529.616 277.171L525.74 313.434L526.433 313.508L530.308 277.245L529.616 277.171Z" fill="white"/>
<path d="M517.989 427.736L517.432 427.597L521.332 394.885H522.028L517.989 427.736Z" fill="white"/>
<path d="M552.671 228.124L551.975 227.845C552.114 227.567 561.725 204.181 558.243 197.361C557.825 196.525 557.128 195.969 556.293 195.69L556.432 194.994C557.407 195.273 558.243 195.969 558.8 196.943C562.421 204.042 553.089 227.149 552.671 228.124Z" fill="#292A2B"/>
<path d="M556.013 232.857C556.013 235.641 553.785 237.868 550.999 237.868C548.213 237.868 545.984 235.641 545.984 232.857C545.984 230.073 548.213 227.846 550.999 227.846C553.785 227.985 556.013 230.212 556.013 232.857Z" fill="#3959A5"/>
<path d="M495.981 253.042L495.424 252.764C495.842 251.928 505.035 233.415 511.721 232.719C512.974 229.239 525.789 193.047 535.957 193.047C526.067 193.047 512.417 232.44 512.278 232.719L512.138 232.997H511.86C505.592 233.415 496.12 252.903 495.981 253.042Z" fill="#292A2B"/>
<path d="M516.039 240.511L515.342 240.372C515.342 240.372 515.76 236.335 514.089 234.247C513.531 233.551 512.696 233.133 511.721 233.133V232.438C512.835 232.577 513.81 232.994 514.507 233.829C516.596 236.196 516.178 240.372 516.039 240.511Z" fill="#292A2B"/>
<path d="M537.628 181.771C537.489 181.771 537.35 181.632 537.35 181.493C537.35 181.354 537.35 181.075 537.628 181.075C544.035 179.544 553.368 171.331 553.507 171.192C553.646 171.053 553.925 171.053 553.925 171.192C554.064 171.331 554.064 171.61 553.925 171.61C553.368 172.027 544.175 180.101 537.628 181.771Z" fill="#BF764F"/>
<path d="M546.681 136.529C546.541 136.529 546.541 136.529 546.681 136.529C545.427 136.111 544.452 136.111 543.477 136.111C542.641 136.111 541.805 136.25 540.691 135.972C538.463 135.415 536.234 133.327 536.095 133.188C535.955 133.049 535.955 132.77 536.095 132.77C536.234 132.631 536.513 132.631 536.513 132.77C536.513 132.77 538.741 134.858 540.691 135.415C541.666 135.694 542.363 135.554 543.198 135.554C544.313 135.554 545.288 135.415 546.681 135.972C546.82 135.972 546.959 136.25 546.82 136.39C546.959 136.39 546.82 136.529 546.681 136.529Z" fill="#BF764F"/>
<path d="M222.324 198.613H90C90 198.613 95.5715 170.773 124.822 163.813C154.072 156.853 163.823 181.909 163.823 181.909C163.823 181.909 190.287 166.597 201.43 190.261C201.43 190.261 213.966 184.693 222.324 198.613Z" fill="#90AFF2"/>
<path d="M314.21 294.524H305.992L308.639 309.975C308.917 311.646 306.967 312.759 305.714 311.646L285.656 294.524H244.706C241.502 294.524 238.855 291.879 238.855 288.678V243.02C238.855 239.819 241.502 237.174 244.706 237.174H314.071C317.275 237.174 319.921 239.819 319.921 243.02V288.678C320.06 291.879 317.414 294.524 314.21 294.524Z" fill="white"/>
<path d="M306.827 323.756C306.688 323.756 306.688 323.756 306.549 323.617L284.402 303.572L244.705 302.876C244.426 302.876 244.287 302.737 244.287 302.459C244.287 302.18 244.426 302.041 244.705 302.041L284.681 302.737L284.82 302.876L307.106 322.921C307.245 323.06 307.245 323.339 307.106 323.478C307.106 323.756 306.967 323.756 306.827 323.756Z" fill="white"/>
<path d="M295.964 264.874L288.86 264.178L281.339 256.661C278.553 253.877 274.514 253.32 271.171 254.991L271.032 254.851L269.36 253.181C268.246 252.067 266.296 252.067 265.181 253.181C264.067 254.295 264.067 256.243 265.181 257.357L266.853 259.027L266.992 259.167C265.46 262.507 266.017 266.544 268.664 269.328L276.185 276.845L277.299 283.666C277.439 284.223 278.135 284.501 278.553 284.083L285.239 277.402C286.353 278.376 288.164 278.237 289.139 277.262C290.253 276.149 290.253 274.478 289.278 273.365L296.243 266.405C296.939 265.709 296.661 264.874 295.964 264.874Z" fill="#78B1EA"/>
<path d="M162.525 393.634H206.68L226.458 413.261C227.851 414.653 230.219 413.261 229.662 411.451L225.066 393.634C231.055 393.634 235.93 388.762 235.93 382.776V342.408C235.93 336.423 231.055 331.551 225.066 331.551H162.386C156.397 331.551 151.521 336.423 151.521 342.408V382.776C151.8 388.762 156.675 393.634 162.525 393.634Z" fill="#32A9F9"/>
<path d="M162.525 393.634H206.68L226.458 413.261C227.851 414.653 230.219 413.261 229.662 411.451L225.066 393.634C231.055 393.634 235.93 388.762 235.93 382.776V342.408C235.93 336.423 231.055 331.551 225.066 331.551H162.386C156.397 331.551 151.521 336.423 151.521 342.408V382.776C151.8 388.762 156.675 393.634 162.525 393.634Z" fill="#78B1EA"/>
<path d="M173.947 377.21H212.391C214.062 377.21 215.455 375.818 215.455 374.148V350.623C215.455 348.953 214.062 347.561 212.391 347.561H173.947C172.276 347.561 170.883 348.953 170.883 350.623V374.148C171.022 375.957 172.276 377.21 173.947 377.21Z" fill="white"/>
<path d="M215.454 352.43L193.168 363.009L171.021 352.43V355.492L193.168 366.21L215.454 355.353V352.43Z" fill="#78B1EA"/>
<path d="M166.008 376.373C166.008 379.714 168.794 382.498 172.136 382.498C175.479 382.498 178.265 379.714 178.265 376.373C178.265 373.032 175.479 370.248 172.136 370.248C168.654 370.248 166.008 373.032 166.008 376.373Z" fill="#1E62C4"/>
</svg>
