<svg width="49" height="49" viewBox="0 0 49 49" fill="none" xmlns="http://www.w3.org/2000/svg">
<circle cx="24.5" cy="24.5" r="24.5" fill="#6590FF"/>
<g clip-path="url(#clip0)">
<path d="M42.0796 27.3439C42.0047 27.1163 41.813 26.9125 41.64 26.7276C40.6019 25.6134 39.4422 24.6036 38.6425 23.2904C37.899 22.0672 37.4548 20.6876 37.235 19.2747C36.5476 14.8419 32.7739 11.1582 28.8178 9.38506C21.3685 6.04741 12.6099 8.94414 8.85961 15.9892C6.05854 21.247 6.11466 27.7374 9.47219 32.3172C11.4035 34.9721 14.4243 36.8259 17.7491 37.4185C21.3405 38.049 25.0861 37.1672 27.775 35.0575C31.89 31.8099 32.9983 25.5091 30.244 21.0052C28.4156 18.0136 25.0581 16.359 21.6912 16.8094C18.2448 17.2551 15.6682 19.7488 15.2988 23.0106C15.1632 24.1674 15.3502 25.2721 15.8038 26.1966C16.5847 28.0835 18.2495 28.5481 19.166 28.6619C19.1988 28.6666 19.2268 28.6666 19.2642 28.6714C19.4326 28.6856 19.5729 28.6903 19.6664 28.6951H19.7178C19.7739 28.6951 19.8113 28.6903 19.8113 28.6903C19.8113 28.6903 22.6966 28.8657 23.8142 26.1918L24.0106 25.7462H28.4016C28.2847 26.5616 28.0883 27.3012 27.8217 27.9507C27.7609 28.0645 27.7142 28.1641 27.6814 28.2494C27.4242 28.8183 27.0642 29.392 26.6153 29.9609C26.1991 30.4824 25.7361 30.9518 25.2311 31.3642C23.716 32.6064 21.8736 33.3175 20.0358 33.327C20.0124 33.327 19.9984 33.327 19.9984 33.327C17.6977 33.327 15.3455 32.2982 13.6948 30.5725C12.8625 29.6907 12.1844 28.6003 11.7355 27.415C10.197 23.3141 11.3661 18.6821 14.7096 15.6242C18.2495 12.3861 23.73 11.6465 28.0415 13.8368C28.9487 14.3015 29.7857 14.8372 30.5246 15.4345C33.8541 18.1085 35.6965 21.9771 35.7012 26.3293C35.7105 31.0656 33.508 35.6928 29.7998 38.7033C29.0703 39.2959 25.4462 41.5953 21.6304 42.8185L21.5649 42.8137C21.448 42.8659 21.3124 42.9133 21.1628 42.9654C20.5736 43.1408 19.9797 43.2878 19.3952 43.3921V43.4206C18.7358 43.5628 18.2121 43.6529 18.2121 43.6529V48.996H31.2447C31.212 45.791 32.9796 42.0457 36.0285 40.7561C36.931 40.3721 37.8569 40.0877 38.6378 39.4618C39.1803 39.0257 39.3767 38.4947 39.199 37.8025C39.026 37.1577 38.9044 36.5082 38.7594 35.8587C38.6612 35.3846 38.694 34.9579 39.185 34.7161C39.2645 34.6735 39.3253 34.6023 39.4001 34.5549C39.8209 34.2325 39.7695 33.8722 39.2878 33.6494C39.1335 33.583 39.0026 33.455 38.8717 33.3555C38.8763 33.3223 38.8904 33.2938 38.9044 33.2559C39.1943 33.1374 39.4796 33.0046 39.7648 32.9051C40.3306 32.7012 40.4709 32.2555 40.1062 31.7672C39.8724 31.4543 39.6058 31.1556 39.4001 30.8238C39.0774 30.3117 39.185 29.8945 39.6994 29.6053C40.3026 29.2687 40.9105 28.9606 41.5278 28.6429C42.0749 28.3679 42.2806 27.9318 42.0796 27.3439Z" fill="white"/>
</g>
<defs>
<clipPath id="clip0">
<rect width="35.3056" height="41" fill="white" transform="translate(6.84766 8)"/>
</clipPath>
</defs>
</svg>
